<?xml version="1.0" encoding="utf-8" standalone="no"?>
<!DOCTYPE svg PUBLIC "-//W3C//DTD SVG 1.1//EN"
  "http://www.w3.org/Graphics/SVG/1.1/DTD/svg11.dtd">
<svg xmlns:xlink="http://www.w3.org/1999/xlink" width="460.8pt" height="345.6pt" viewBox="0 0 460.8 345.6" xmlns="http://www.w3.org/2000/svg" version="1.1">
 <metadata>
  <rdf:RDF xmlns:dc="http://purl.org/dc/elements/1.1/" xmlns:cc="http://creativecommons.org/ns#" xmlns:rdf="http://www.w3.org/1999/02/22-rdf-syntax-ns#">
   <cc:Work>
    <dc:type rdf:resource="http://purl.org/dc/dcmitype/StillImage"/>
    <dc:date>2023-05-16T17:06:42.488804</dc:date>
    <dc:format>image/svg+xml</dc:format>
    <dc:creator>
     <cc:Agent>
      <dc:title>Matplotlib v3.6.2, https://matplotlib.org/</dc:title>
     </cc:Agent>
    </dc:creator>
   </cc:Work>
  </rdf:RDF>
 </metadata>
 <defs>
  <style type="text/css">*{stroke-linejoin: round; stroke-linecap: butt}</style>
 </defs>
 <g id="figure_1">
  <g id="patch_1">
   <path d="M 0 345.6 
L 460.8 345.6 
L 460.8 0 
L 0 0 
z
" style="fill: #ffffff"/>
  </g>
  <g id="axes_1">
   <g id="patch_2">
    <path d="M 57.6 307.584 
L 414.72 307.584 
L 414.72 41.472 
L 57.6 41.472 
z
" style="fill: #ffffff"/>
   </g>
   <g id="matplotlib.axis_1">
    <g id="xtick_1">
     <g id="line2d_1">
      <path d="M 73.832727 307.584 
L 73.832727 41.472 
" clip-path="url(#pfa13937408)" style="fill: none; stroke: #b0b0b0; stroke-width: 0.8; stroke-linecap: square"/>
     </g>
     <g id="line2d_2">
      <defs>
       <path id="mce024ca5e5" d="M 0 0 
L 0 3.5 
" style="stroke: #000000; stroke-width: 0.8"/>
      </defs>
      <g>
       <use xlink:href="#mce024ca5e5" x="73.832727" y="307.584" style="stroke: #000000; stroke-width: 0.8"/>
      </g>
     </g>
     <g id="text_1">
      <!-- 0.0 -->
      <g transform="translate(65.881165 322.182437) scale(0.1 -0.1)">
       <defs>
        <path id="DejaVuSans-30" d="M 2034 4250 
Q 1547 4250 1301 3770 
Q 1056 3291 1056 2328 
Q 1056 1369 1301 889 
Q 1547 409 2034 409 
Q 2525 409 2770 889 
Q 3016 1369 3016 2328 
Q 3016 3291 2770 3770 
Q 2525 4250 2034 4250 
z
M 2034 4750 
Q 2819 4750 3233 4129 
Q 3647 3509 3647 2328 
Q 3647 1150 3233 529 
Q 2819 -91 2034 -91 
Q 1250 -91 836 529 
Q 422 1150 422 2328 
Q 422 3509 836 4129 
Q 1250 4750 2034 4750 
z
" transform="scale(0.015625)"/>
        <path id="DejaVuSans-2e" d="M 684 794 
L 1344 794 
L 1344 0 
L 684 0 
L 684 794 
z
" transform="scale(0.015625)"/>
       </defs>
       <use xlink:href="#DejaVuSans-30"/>
       <use xlink:href="#DejaVuSans-2e" x="63.623047"/>
       <use xlink:href="#DejaVuSans-30" x="95.410156"/>
      </g>
     </g>
    </g>
    <g id="xtick_2">
     <g id="line2d_3">
      <path d="M 125.093971 307.584 
L 125.093971 41.472 
" clip-path="url(#pfa13937408)" style="fill: none; stroke: #b0b0b0; stroke-width: 0.8; stroke-linecap: square"/>
     </g>
     <g id="line2d_4">
      <g>
       <use xlink:href="#mce024ca5e5" x="125.093971" y="307.584" style="stroke: #000000; stroke-width: 0.8"/>
      </g>
     </g>
     <g id="text_2">
      <!-- 0.5 -->
      <g transform="translate(117.142409 322.182437) scale(0.1 -0.1)">
       <defs>
        <path id="DejaVuSans-35" d="M 691 4666 
L 3169 4666 
L 3169 4134 
L 1269 4134 
L 1269 2991 
Q 1406 3038 1543 3061 
Q 1681 3084 1819 3084 
Q 2600 3084 3056 2656 
Q 3513 2228 3513 1497 
Q 3513 744 3044 326 
Q 2575 -91 1722 -91 
Q 1428 -91 1123 -41 
Q 819 9 494 109 
L 494 744 
Q 775 591 1075 516 
Q 1375 441 1709 441 
Q 2250 441 2565 725 
Q 2881 1009 2881 1497 
Q 2881 1984 2565 2268 
Q 2250 2553 1709 2553 
Q 1456 2553 1204 2497 
Q 953 2441 691 2322 
L 691 4666 
z
" transform="scale(0.015625)"/>
       </defs>
       <use xlink:href="#DejaVuSans-30"/>
       <use xlink:href="#DejaVuSans-2e" x="63.623047"/>
       <use xlink:href="#DejaVuSans-35" x="95.410156"/>
      </g>
     </g>
    </g>
    <g id="xtick_3">
     <g id="line2d_5">
      <path d="M 176.355215 307.584 
L 176.355215 41.472 
" clip-path="url(#pfa13937408)" style="fill: none; stroke: #b0b0b0; stroke-width: 0.8; stroke-linecap: square"/>
     </g>
     <g id="line2d_6">
      <g>
       <use xlink:href="#mce024ca5e5" x="176.355215" y="307.584" style="stroke: #000000; stroke-width: 0.8"/>
      </g>
     </g>
     <g id="text_3">
      <!-- 1.0 -->
      <g transform="translate(168.403653 322.182437) scale(0.1 -0.1)">
       <defs>
        <path id="DejaVuSans-31" d="M 794 531 
L 1825 531 
L 1825 4091 
L 703 3866 
L 703 4441 
L 1819 4666 
L 2450 4666 
L 2450 531 
L 3481 531 
L 3481 0 
L 794 0 
L 794 531 
z
" transform="scale(0.015625)"/>
       </defs>
       <use xlink:href="#DejaVuSans-31"/>
       <use xlink:href="#DejaVuSans-2e" x="63.623047"/>
       <use xlink:href="#DejaVuSans-30" x="95.410156"/>
      </g>
     </g>
    </g>
    <g id="xtick_4">
     <g id="line2d_7">
      <path d="M 227.616459 307.584 
L 227.616459 41.472 
" clip-path="url(#pfa13937408)" style="fill: none; stroke: #b0b0b0; stroke-width: 0.8; stroke-linecap: square"/>
     </g>
     <g id="line2d_8">
      <g>
       <use xlink:href="#mce024ca5e5" x="227.616459" y="307.584" style="stroke: #000000; stroke-width: 0.8"/>
      </g>
     </g>
     <g id="text_4">
      <!-- 1.5 -->
      <g transform="translate(219.664897 322.182437) scale(0.1 -0.1)">
       <use xlink:href="#DejaVuSans-31"/>
       <use xlink:href="#DejaVuSans-2e" x="63.623047"/>
       <use xlink:href="#DejaVuSans-35" x="95.410156"/>
      </g>
     </g>
    </g>
    <g id="xtick_5">
     <g id="line2d_9">
      <path d="M 278.877703 307.584 
L 278.877703 41.472 
" clip-path="url(#pfa13937408)" style="fill: none; stroke: #b0b0b0; stroke-width: 0.8; stroke-linecap: square"/>
     </g>
     <g id="line2d_10">
      <g>
       <use xlink:href="#mce024ca5e5" x="278.877703" y="307.584" style="stroke: #000000; stroke-width: 0.8"/>
      </g>
     </g>
     <g id="text_5">
      <!-- 2.0 -->
      <g transform="translate(270.926141 322.182437) scale(0.1 -0.1)">
       <defs>
        <path id="DejaVuSans-32" d="M 1228 531 
L 3431 531 
L 3431 0 
L 469 0 
L 469 531 
Q 828 903 1448 1529 
Q 2069 2156 2228 2338 
Q 2531 2678 2651 2914 
Q 2772 3150 2772 3378 
Q 2772 3750 2511 3984 
Q 2250 4219 1831 4219 
Q 1534 4219 1204 4116 
Q 875 4013 500 3803 
L 500 4441 
Q 881 4594 1212 4672 
Q 1544 4750 1819 4750 
Q 2544 4750 2975 4387 
Q 3406 4025 3406 3419 
Q 3406 3131 3298 2873 
Q 3191 2616 2906 2266 
Q 2828 2175 2409 1742 
Q 1991 1309 1228 531 
z
" transform="scale(0.015625)"/>
       </defs>
       <use xlink:href="#DejaVuSans-32"/>
       <use xlink:href="#DejaVuSans-2e" x="63.623047"/>
       <use xlink:href="#DejaVuSans-30" x="95.410156"/>
      </g>
     </g>
    </g>
    <g id="xtick_6">
     <g id="line2d_11">
      <path d="M 330.138947 307.584 
L 330.138947 41.472 
" clip-path="url(#pfa13937408)" style="fill: none; stroke: #b0b0b0; stroke-width: 0.8; stroke-linecap: square"/>
     </g>
     <g id="line2d_12">
      <g>
       <use xlink:href="#mce024ca5e5" x="330.138947" y="307.584" style="stroke: #000000; stroke-width: 0.8"/>
      </g>
     </g>
     <g id="text_6">
      <!-- 2.5 -->
      <g transform="translate(322.187385 322.182437) scale(0.1 -0.1)">
       <use xlink:href="#DejaVuSans-32"/>
       <use xlink:href="#DejaVuSans-2e" x="63.623047"/>
       <use xlink:href="#DejaVuSans-35" x="95.410156"/>
      </g>
     </g>
    </g>
    <g id="xtick_7">
     <g id="line2d_13">
      <path d="M 381.400191 307.584 
L 381.400191 41.472 
" clip-path="url(#pfa13937408)" style="fill: none; stroke: #b0b0b0; stroke-width: 0.8; stroke-linecap: square"/>
     </g>
     <g id="line2d_14">
      <g>
       <use xlink:href="#mce024ca5e5" x="381.400191" y="307.584" style="stroke: #000000; stroke-width: 0.8"/>
      </g>
     </g>
     <g id="text_7">
      <!-- 3.0 -->
      <g transform="translate(373.448629 322.182437) scale(0.1 -0.1)">
       <defs>
        <path id="DejaVuSans-33" d="M 2597 2516 
Q 3050 2419 3304 2112 
Q 3559 1806 3559 1356 
Q 3559 666 3084 287 
Q 2609 -91 1734 -91 
Q 1441 -91 1130 -33 
Q 819 25 488 141 
L 488 750 
Q 750 597 1062 519 
Q 1375 441 1716 441 
Q 2309 441 2620 675 
Q 2931 909 2931 1356 
Q 2931 1769 2642 2001 
Q 2353 2234 1838 2234 
L 1294 2234 
L 1294 2753 
L 1863 2753 
Q 2328 2753 2575 2939 
Q 2822 3125 2822 3475 
Q 2822 3834 2567 4026 
Q 2313 4219 1838 4219 
Q 1578 4219 1281 4162 
Q 984 4106 628 3988 
L 628 4550 
Q 988 4650 1302 4700 
Q 1616 4750 1894 4750 
Q 2613 4750 3031 4423 
Q 3450 4097 3450 3541 
Q 3450 3153 3228 2886 
Q 3006 2619 2597 2516 
z
" transform="scale(0.015625)"/>
       </defs>
       <use xlink:href="#DejaVuSans-33"/>
       <use xlink:href="#DejaVuSans-2e" x="63.623047"/>
       <use xlink:href="#DejaVuSans-30" x="95.410156"/>
      </g>
     </g>
    </g>
    <g id="text_8">
     <!-- Time [s] -->
     <g transform="translate(215.831094 335.860562) scale(0.1 -0.1)">
      <defs>
       <path id="DejaVuSans-54" d="M -19 4666 
L 3928 4666 
L 3928 4134 
L 2272 4134 
L 2272 0 
L 1638 0 
L 1638 4134 
L -19 4134 
L -19 4666 
z
" transform="scale(0.015625)"/>
       <path id="DejaVuSans-69" d="M 603 3500 
L 1178 3500 
L 1178 0 
L 603 0 
L 603 3500 
z
M 603 4863 
L 1178 4863 
L 1178 4134 
L 603 4134 
L 603 4863 
z
" transform="scale(0.015625)"/>
       <path id="DejaVuSans-6d" d="M 3328 2828 
Q 3544 3216 3844 3400 
Q 4144 3584 4550 3584 
Q 5097 3584 5394 3201 
Q 5691 2819 5691 2113 
L 5691 0 
L 5113 0 
L 5113 2094 
Q 5113 2597 4934 2840 
Q 4756 3084 4391 3084 
Q 3944 3084 3684 2787 
Q 3425 2491 3425 1978 
L 3425 0 
L 2847 0 
L 2847 2094 
Q 2847 2600 2669 2842 
Q 2491 3084 2119 3084 
Q 1678 3084 1418 2786 
Q 1159 2488 1159 1978 
L 1159 0 
L 581 0 
L 581 3500 
L 1159 3500 
L 1159 2956 
Q 1356 3278 1631 3431 
Q 1906 3584 2284 3584 
Q 2666 3584 2933 3390 
Q 3200 3197 3328 2828 
z
" transform="scale(0.015625)"/>
       <path id="DejaVuSans-65" d="M 3597 1894 
L 3597 1613 
L 953 1613 
Q 991 1019 1311 708 
Q 1631 397 2203 397 
Q 2534 397 2845 478 
Q 3156 559 3463 722 
L 3463 178 
Q 3153 47 2828 -22 
Q 2503 -91 2169 -91 
Q 1331 -91 842 396 
Q 353 884 353 1716 
Q 353 2575 817 3079 
Q 1281 3584 2069 3584 
Q 2775 3584 3186 3129 
Q 3597 2675 3597 1894 
z
M 3022 2063 
Q 3016 2534 2758 2815 
Q 2500 3097 2075 3097 
Q 1594 3097 1305 2825 
Q 1016 2553 972 2059 
L 3022 2063 
z
" transform="scale(0.015625)"/>
       <path id="DejaVuSans-20" transform="scale(0.015625)"/>
       <path id="DejaVuSans-5b" d="M 550 4863 
L 1875 4863 
L 1875 4416 
L 1125 4416 
L 1125 -397 
L 1875 -397 
L 1875 -844 
L 550 -844 
L 550 4863 
z
" transform="scale(0.015625)"/>
       <path id="DejaVuSans-73" d="M 2834 3397 
L 2834 2853 
Q 2591 2978 2328 3040 
Q 2066 3103 1784 3103 
Q 1356 3103 1142 2972 
Q 928 2841 928 2578 
Q 928 2378 1081 2264 
Q 1234 2150 1697 2047 
L 1894 2003 
Q 2506 1872 2764 1633 
Q 3022 1394 3022 966 
Q 3022 478 2636 193 
Q 2250 -91 1575 -91 
Q 1294 -91 989 -36 
Q 684 19 347 128 
L 347 722 
Q 666 556 975 473 
Q 1284 391 1588 391 
Q 1994 391 2212 530 
Q 2431 669 2431 922 
Q 2431 1156 2273 1281 
Q 2116 1406 1581 1522 
L 1381 1569 
Q 847 1681 609 1914 
Q 372 2147 372 2553 
Q 372 3047 722 3315 
Q 1072 3584 1716 3584 
Q 2034 3584 2315 3537 
Q 2597 3491 2834 3397 
z
" transform="scale(0.015625)"/>
       <path id="DejaVuSans-5d" d="M 1947 4863 
L 1947 -844 
L 622 -844 
L 622 -397 
L 1369 -397 
L 1369 4416 
L 622 4416 
L 622 4863 
L 1947 4863 
z
" transform="scale(0.015625)"/>
      </defs>
      <use xlink:href="#DejaVuSans-54"/>
      <use xlink:href="#DejaVuSans-69" x="57.958984"/>
      <use xlink:href="#DejaVuSans-6d" x="85.742188"/>
      <use xlink:href="#DejaVuSans-65" x="183.154297"/>
      <use xlink:href="#DejaVuSans-20" x="244.677734"/>
      <use xlink:href="#DejaVuSans-5b" x="276.464844"/>
      <use xlink:href="#DejaVuSans-73" x="315.478516"/>
      <use xlink:href="#DejaVuSans-5d" x="367.578125"/>
     </g>
    </g>
   </g>
   <g id="matplotlib.axis_2">
    <g id="ytick_1">
     <g id="line2d_15">
      <path d="M 57.6 304.492213 
L 414.72 304.492213 
" clip-path="url(#pfa13937408)" style="fill: none; stroke: #b0b0b0; stroke-width: 0.8; stroke-linecap: square"/>
     </g>
     <g id="line2d_16">
      <defs>
       <path id="md8acb7694a" d="M 0 0 
L -3.5 0 
" style="stroke: #000000; stroke-width: 0.8"/>
      </defs>
      <g>
       <use xlink:href="#md8acb7694a" x="57.6" y="304.492213" style="stroke: #000000; stroke-width: 0.8"/>
      </g>
     </g>
     <g id="text_9">
      <!-- −0.075 -->
      <g transform="translate(13.592188 308.291432) scale(0.1 -0.1)">
       <defs>
        <path id="DejaVuSans-2212" d="M 678 2272 
L 4684 2272 
L 4684 1741 
L 678 1741 
L 678 2272 
z
" transform="scale(0.015625)"/>
        <path id="DejaVuSans-37" d="M 525 4666 
L 3525 4666 
L 3525 4397 
L 1831 0 
L 1172 0 
L 2766 4134 
L 525 4134 
L 525 4666 
z
" transform="scale(0.015625)"/>
       </defs>
       <use xlink:href="#DejaVuSans-2212"/>
       <use xlink:href="#DejaVuSans-30" x="83.789062"/>
       <use xlink:href="#DejaVuSans-2e" x="147.412109"/>
       <use xlink:href="#DejaVuSans-30" x="179.199219"/>
       <use xlink:href="#DejaVuSans-37" x="242.822266"/>
       <use xlink:href="#DejaVuSans-35" x="306.445312"/>
      </g>
     </g>
    </g>
    <g id="ytick_2">
     <g id="line2d_17">
      <path d="M 57.6 269.920481 
L 414.72 269.920481 
" clip-path="url(#pfa13937408)" style="fill: none; stroke: #b0b0b0; stroke-width: 0.8; stroke-linecap: square"/>
     </g>
     <g id="line2d_18">
      <g>
       <use xlink:href="#md8acb7694a" x="57.6" y="269.920481" style="stroke: #000000; stroke-width: 0.8"/>
      </g>
     </g>
     <g id="text_10">
      <!-- −0.050 -->
      <g transform="translate(13.592188 273.7197) scale(0.1 -0.1)">
       <use xlink:href="#DejaVuSans-2212"/>
       <use xlink:href="#DejaVuSans-30" x="83.789062"/>
       <use xlink:href="#DejaVuSans-2e" x="147.412109"/>
       <use xlink:href="#DejaVuSans-30" x="179.199219"/>
       <use xlink:href="#DejaVuSans-35" x="242.822266"/>
       <use xlink:href="#DejaVuSans-30" x="306.445312"/>
      </g>
     </g>
    </g>
    <g id="ytick_3">
     <g id="line2d_19">
      <path d="M 57.6 235.348749 
L 414.72 235.348749 
" clip-path="url(#pfa13937408)" style="fill: none; stroke: #b0b0b0; stroke-width: 0.8; stroke-linecap: square"/>
     </g>
     <g id="line2d_20">
      <g>
       <use xlink:href="#md8acb7694a" x="57.6" y="235.348749" style="stroke: #000000; stroke-width: 0.8"/>
      </g>
     </g>
     <g id="text_11">
      <!-- −0.025 -->
      <g transform="translate(13.592188 239.147968) scale(0.1 -0.1)">
       <use xlink:href="#DejaVuSans-2212"/>
       <use xlink:href="#DejaVuSans-30" x="83.789062"/>
       <use xlink:href="#DejaVuSans-2e" x="147.412109"/>
       <use xlink:href="#DejaVuSans-30" x="179.199219"/>
       <use xlink:href="#DejaVuSans-32" x="242.822266"/>
       <use xlink:href="#DejaVuSans-35" x="306.445312"/>
      </g>
     </g>
    </g>
    <g id="ytick_4">
     <g id="line2d_21">
      <path d="M 57.6 200.777018 
L 414.72 200.777018 
" clip-path="url(#pfa13937408)" style="fill: none; stroke: #b0b0b0; stroke-width: 0.8; stroke-linecap: square"/>
     </g>
     <g id="line2d_22">
      <g>
       <use xlink:href="#md8acb7694a" x="57.6" y="200.777018" style="stroke: #000000; stroke-width: 0.8"/>
      </g>
     </g>
     <g id="text_12">
      <!-- 0.000 -->
      <g transform="translate(21.971875 204.576236) scale(0.1 -0.1)">
       <use xlink:href="#DejaVuSans-30"/>
       <use xlink:href="#DejaVuSans-2e" x="63.623047"/>
       <use xlink:href="#DejaVuSans-30" x="95.410156"/>
       <use xlink:href="#DejaVuSans-30" x="159.033203"/>
       <use xlink:href="#DejaVuSans-30" x="222.65625"/>
      </g>
     </g>
    </g>
    <g id="ytick_5">
     <g id="line2d_23">
      <path d="M 57.6 166.205286 
L 414.72 166.205286 
" clip-path="url(#pfa13937408)" style="fill: none; stroke: #b0b0b0; stroke-width: 0.8; stroke-linecap: square"/>
     </g>
     <g id="line2d_24">
      <g>
       <use xlink:href="#md8acb7694a" x="57.6" y="166.205286" style="stroke: #000000; stroke-width: 0.8"/>
      </g>
     </g>
     <g id="text_13">
      <!-- 0.025 -->
      <g transform="translate(21.971875 170.004505) scale(0.1 -0.1)">
       <use xlink:href="#DejaVuSans-30"/>
       <use xlink:href="#DejaVuSans-2e" x="63.623047"/>
       <use xlink:href="#DejaVuSans-30" x="95.410156"/>
       <use xlink:href="#DejaVuSans-32" x="159.033203"/>
       <use xlink:href="#DejaVuSans-35" x="222.65625"/>
      </g>
     </g>
    </g>
    <g id="ytick_6">
     <g id="line2d_25">
      <path d="M 57.6 131.633554 
L 414.72 131.633554 
" clip-path="url(#pfa13937408)" style="fill: none; stroke: #b0b0b0; stroke-width: 0.8; stroke-linecap: square"/>
     </g>
     <g id="line2d_26">
      <g>
       <use xlink:href="#md8acb7694a" x="57.6" y="131.633554" style="stroke: #000000; stroke-width: 0.8"/>
      </g>
     </g>
     <g id="text_14">
      <!-- 0.050 -->
      <g transform="translate(21.971875 135.432773) scale(0.1 -0.1)">
       <use xlink:href="#DejaVuSans-30"/>
       <use xlink:href="#DejaVuSans-2e" x="63.623047"/>
       <use xlink:href="#DejaVuSans-30" x="95.410156"/>
       <use xlink:href="#DejaVuSans-35" x="159.033203"/>
       <use xlink:href="#DejaVuSans-30" x="222.65625"/>
      </g>
     </g>
    </g>
    <g id="ytick_7">
     <g id="line2d_27">
      <path d="M 57.6 97.061823 
L 414.72 97.061823 
" clip-path="url(#pfa13937408)" style="fill: none; stroke: #b0b0b0; stroke-width: 0.8; stroke-linecap: square"/>
     </g>
     <g id="line2d_28">
      <g>
       <use xlink:href="#md8acb7694a" x="57.6" y="97.061823" style="stroke: #000000; stroke-width: 0.8"/>
      </g>
     </g>
     <g id="text_15">
      <!-- 0.075 -->
      <g transform="translate(21.971875 100.861041) scale(0.1 -0.1)">
       <use xlink:href="#DejaVuSans-30"/>
       <use xlink:href="#DejaVuSans-2e" x="63.623047"/>
       <use xlink:href="#DejaVuSans-30" x="95.410156"/>
       <use xlink:href="#DejaVuSans-37" x="159.033203"/>
       <use xlink:href="#DejaVuSans-35" x="222.65625"/>
      </g>
     </g>
    </g>
    <g id="ytick_8">
     <g id="line2d_29">
      <path d="M 57.6 62.490091 
L 414.72 62.490091 
" clip-path="url(#pfa13937408)" style="fill: none; stroke: #b0b0b0; stroke-width: 0.8; stroke-linecap: square"/>
     </g>
     <g id="line2d_30">
      <g>
       <use xlink:href="#md8acb7694a" x="57.6" y="62.490091" style="stroke: #000000; stroke-width: 0.8"/>
      </g>
     </g>
     <g id="text_16">
      <!-- 0.100 -->
      <g transform="translate(21.971875 66.28931) scale(0.1 -0.1)">
       <use xlink:href="#DejaVuSans-30"/>
       <use xlink:href="#DejaVuSans-2e" x="63.623047"/>
       <use xlink:href="#DejaVuSans-31" x="95.410156"/>
       <use xlink:href="#DejaVuSans-30" x="159.033203"/>
       <use xlink:href="#DejaVuSans-30" x="222.65625"/>
      </g>
     </g>
    </g>
    <g id="text_17">
     <!-- Bending moment coefficient [-] -->
     <g transform="translate(7.5125 252.726438) rotate(-90) scale(0.1 -0.1)">
      <defs>
       <path id="DejaVuSans-42" d="M 1259 2228 
L 1259 519 
L 2272 519 
Q 2781 519 3026 730 
Q 3272 941 3272 1375 
Q 3272 1813 3026 2020 
Q 2781 2228 2272 2228 
L 1259 2228 
z
M 1259 4147 
L 1259 2741 
L 2194 2741 
Q 2656 2741 2882 2914 
Q 3109 3088 3109 3444 
Q 3109 3797 2882 3972 
Q 2656 4147 2194 4147 
L 1259 4147 
z
M 628 4666 
L 2241 4666 
Q 2963 4666 3353 4366 
Q 3744 4066 3744 3513 
Q 3744 3084 3544 2831 
Q 3344 2578 2956 2516 
Q 3422 2416 3680 2098 
Q 3938 1781 3938 1306 
Q 3938 681 3513 340 
Q 3088 0 2303 0 
L 628 0 
L 628 4666 
z
" transform="scale(0.015625)"/>
       <path id="DejaVuSans-6e" d="M 3513 2113 
L 3513 0 
L 2938 0 
L 2938 2094 
Q 2938 2591 2744 2837 
Q 2550 3084 2163 3084 
Q 1697 3084 1428 2787 
Q 1159 2491 1159 1978 
L 1159 0 
L 581 0 
L 581 3500 
L 1159 3500 
L 1159 2956 
Q 1366 3272 1645 3428 
Q 1925 3584 2291 3584 
Q 2894 3584 3203 3211 
Q 3513 2838 3513 2113 
z
" transform="scale(0.015625)"/>
       <path id="DejaVuSans-64" d="M 2906 2969 
L 2906 4863 
L 3481 4863 
L 3481 0 
L 2906 0 
L 2906 525 
Q 2725 213 2448 61 
Q 2172 -91 1784 -91 
Q 1150 -91 751 415 
Q 353 922 353 1747 
Q 353 2572 751 3078 
Q 1150 3584 1784 3584 
Q 2172 3584 2448 3432 
Q 2725 3281 2906 2969 
z
M 947 1747 
Q 947 1113 1208 752 
Q 1469 391 1925 391 
Q 2381 391 2643 752 
Q 2906 1113 2906 1747 
Q 2906 2381 2643 2742 
Q 2381 3103 1925 3103 
Q 1469 3103 1208 2742 
Q 947 2381 947 1747 
z
" transform="scale(0.015625)"/>
       <path id="DejaVuSans-67" d="M 2906 1791 
Q 2906 2416 2648 2759 
Q 2391 3103 1925 3103 
Q 1463 3103 1205 2759 
Q 947 2416 947 1791 
Q 947 1169 1205 825 
Q 1463 481 1925 481 
Q 2391 481 2648 825 
Q 2906 1169 2906 1791 
z
M 3481 434 
Q 3481 -459 3084 -895 
Q 2688 -1331 1869 -1331 
Q 1566 -1331 1297 -1286 
Q 1028 -1241 775 -1147 
L 775 -588 
Q 1028 -725 1275 -790 
Q 1522 -856 1778 -856 
Q 2344 -856 2625 -561 
Q 2906 -266 2906 331 
L 2906 616 
Q 2728 306 2450 153 
Q 2172 0 1784 0 
Q 1141 0 747 490 
Q 353 981 353 1791 
Q 353 2603 747 3093 
Q 1141 3584 1784 3584 
Q 2172 3584 2450 3431 
Q 2728 3278 2906 2969 
L 2906 3500 
L 3481 3500 
L 3481 434 
z
" transform="scale(0.015625)"/>
       <path id="DejaVuSans-6f" d="M 1959 3097 
Q 1497 3097 1228 2736 
Q 959 2375 959 1747 
Q 959 1119 1226 758 
Q 1494 397 1959 397 
Q 2419 397 2687 759 
Q 2956 1122 2956 1747 
Q 2956 2369 2687 2733 
Q 2419 3097 1959 3097 
z
M 1959 3584 
Q 2709 3584 3137 3096 
Q 3566 2609 3566 1747 
Q 3566 888 3137 398 
Q 2709 -91 1959 -91 
Q 1206 -91 779 398 
Q 353 888 353 1747 
Q 353 2609 779 3096 
Q 1206 3584 1959 3584 
z
" transform="scale(0.015625)"/>
       <path id="DejaVuSans-74" d="M 1172 4494 
L 1172 3500 
L 2356 3500 
L 2356 3053 
L 1172 3053 
L 1172 1153 
Q 1172 725 1289 603 
Q 1406 481 1766 481 
L 2356 481 
L 2356 0 
L 1766 0 
Q 1100 0 847 248 
Q 594 497 594 1153 
L 594 3053 
L 172 3053 
L 172 3500 
L 594 3500 
L 594 4494 
L 1172 4494 
z
" transform="scale(0.015625)"/>
       <path id="DejaVuSans-63" d="M 3122 3366 
L 3122 2828 
Q 2878 2963 2633 3030 
Q 2388 3097 2138 3097 
Q 1578 3097 1268 2742 
Q 959 2388 959 1747 
Q 959 1106 1268 751 
Q 1578 397 2138 397 
Q 2388 397 2633 464 
Q 2878 531 3122 666 
L 3122 134 
Q 2881 22 2623 -34 
Q 2366 -91 2075 -91 
Q 1284 -91 818 406 
Q 353 903 353 1747 
Q 353 2603 823 3093 
Q 1294 3584 2113 3584 
Q 2378 3584 2631 3529 
Q 2884 3475 3122 3366 
z
" transform="scale(0.015625)"/>
       <path id="DejaVuSans-66" d="M 2375 4863 
L 2375 4384 
L 1825 4384 
Q 1516 4384 1395 4259 
Q 1275 4134 1275 3809 
L 1275 3500 
L 2222 3500 
L 2222 3053 
L 1275 3053 
L 1275 0 
L 697 0 
L 697 3053 
L 147 3053 
L 147 3500 
L 697 3500 
L 697 3744 
Q 697 4328 969 4595 
Q 1241 4863 1831 4863 
L 2375 4863 
z
" transform="scale(0.015625)"/>
       <path id="DejaVuSans-2d" d="M 313 2009 
L 1997 2009 
L 1997 1497 
L 313 1497 
L 313 2009 
z
" transform="scale(0.015625)"/>
      </defs>
      <use xlink:href="#DejaVuSans-42"/>
      <use xlink:href="#DejaVuSans-65" x="68.603516"/>
      <use xlink:href="#DejaVuSans-6e" x="130.126953"/>
      <use xlink:href="#DejaVuSans-64" x="193.505859"/>
      <use xlink:href="#DejaVuSans-69" x="256.982422"/>
      <use xlink:href="#DejaVuSans-6e" x="284.765625"/>
      <use xlink:href="#DejaVuSans-67" x="348.144531"/>
      <use xlink:href="#DejaVuSans-20" x="411.621094"/>
      <use xlink:href="#DejaVuSans-6d" x="443.408203"/>
      <use xlink:href="#DejaVuSans-6f" x="540.820312"/>
      <use xlink:href="#DejaVuSans-6d" x="602.001953"/>
      <use xlink:href="#DejaVuSans-65" x="699.414062"/>
      <use xlink:href="#DejaVuSans-6e" x="760.9375"/>
      <use xlink:href="#DejaVuSans-74" x="824.316406"/>
      <use xlink:href="#DejaVuSans-20" x="863.525391"/>
      <use xlink:href="#DejaVuSans-63" x="895.3125"/>
      <use xlink:href="#DejaVuSans-6f" x="950.292969"/>
      <use xlink:href="#DejaVuSans-65" x="1011.474609"/>
      <use xlink:href="#DejaVuSans-66" x="1072.998047"/>
      <use xlink:href="#DejaVuSans-66" x="1108.203125"/>
      <use xlink:href="#DejaVuSans-69" x="1143.408203"/>
      <use xlink:href="#DejaVuSans-63" x="1171.191406"/>
      <use xlink:href="#DejaVuSans-69" x="1226.171875"/>
      <use xlink:href="#DejaVuSans-65" x="1253.955078"/>
      <use xlink:href="#DejaVuSans-6e" x="1315.478516"/>
      <use xlink:href="#DejaVuSans-74" x="1378.857422"/>
      <use xlink:href="#DejaVuSans-20" x="1418.066406"/>
      <use xlink:href="#DejaVuSans-5b" x="1449.853516"/>
      <use xlink:href="#DejaVuSans-2d" x="1488.867188"/>
      <use xlink:href="#DejaVuSans-5d" x="1524.951172"/>
     </g>
    </g>
   </g>
   <g id="line2d_31">
    <path d="M 73.832727 186.144747 
L 82.112246 186.940928 
L 83.573338 186.123264 
L 84.807148 185.949732 
L 85.066898 185.555177 
L 87.924144 176.419724 
L 90.846327 157.091689 
L 91.398295 152.736486 
L 93.833447 130.024764 
L 94.482821 125.864713 
L 94.839977 124.915012 
L 96.625756 110.629095 
L 99.51547 104.855378 
L 99.547939 104.914564 
L 100.067438 106.068381 
L 100.749281 108.100698 
L 102.859746 119.738717 
L 105.619586 148.702431 
L 107.27549 168.631872 
L 109.126206 193.340922 
L 109.580768 198.627976 
L 110.035329 203.997505 
L 110.457422 209.135503 
L 111.00939 213.970246 
L 111.399015 217.666597 
L 112.860106 231.116595 
L 113.899105 236.647041 
L 115.100447 239.107832 
L 115.749821 238.78318 
L 116.983631 235.522769 
L 117.340787 234.142085 
L 117.730412 231.786056 
L 119.581128 218.396371 
L 120.912344 205.447764 
L 123.477372 179.982424 
L 125.100807 166.654331 
L 125.815118 161.923128 
L 126.951523 155.803004 
L 127.730772 155.413028 
L 130.458143 155.745021 
L 130.685423 157.494423 
L 131.562078 163.731112 
L 133.705013 176.259353 
L 135.620666 191.705486 
L 135.880416 193.246279 
L 136.334977 195.662089 
L 136.52979 198.036964 
L 136.822008 199.149329 
L 138.575318 207.507582 
L 139.322098 209.485004 
L 139.906535 210.390911 
L 141.367626 211.121596 
L 142.114406 210.389907 
L 142.731312 209.616851 
L 143.088467 208.202645 
L 144.51709 200.401719 
L 145.069058 199.374603 
L 145.133996 199.350798 
L 145.296339 198.114014 
L 145.750901 194.946196 
L 146.237931 190.766721 
L 146.692493 187.032608 
L 148.445803 178.471461 
L 150.653675 166.644116 
L 152.796609 163.107431 
L 153.478452 162.851169 
L 154.225232 163.476788 
L 155.101887 165.418781 
L 155.621386 166.992909 
L 157.731852 176.033537 
L 159.874786 186.241107 
L 160.134536 187.563504 
L 162.569688 196.807842 
L 163.835968 200.079194 
L 164.193123 200.398404 
L 164.485342 202.157826 
L 167.050369 202.059497 
L 168.608867 201.803187 
L 168.836148 201.589012 
L 169.615396 199.728374 
L 170.362177 198.203672 
L 171.303769 196.040838 
L 173.122016 190.521767 
L 174.290889 186.844116 
L 174.875326 184.797985 
L 177.342947 181.373321 
L 177.959853 179.601096 
L 178.349477 178.734643 
L 181.109317 178.740669 
L 182.115846 178.858287 
L 183.966562 180.822837 
L 190.168084 189.088975 
L 192.408425 191.038048 
L 196.499481 190.908229 
L 198.707353 190.368385 
L 203.382846 188.133254 
L 207.668715 186.147905 
L 208.415495 185.593299 
L 214.03258 185.639775 
L 215.656015 186.02221 
L 220.234102 186.882552 
L 220.428914 187.070317 
L 398.487273 187.070317 
L 398.487273 187.070317 
" clip-path="url(#pfa13937408)" style="fill: none; stroke: #1f77b4; stroke-width: 1.5; stroke-linecap: square"/>
   </g>
   <g id="line2d_32">
    <path d="M 73.832727 195.120306 
L 81.170654 195.198595 
L 82.891495 197.448372 
L 83.053838 197.315076 
L 83.5084 196.268058 
L 84.092837 194.397342 
L 85.813678 191.300194 
L 87.27477 186.284431 
L 87.566988 185.09001 
L 87.924144 182.975988 
L 88.963142 175.732992 
L 89.51511 170.462513 
L 90.716452 157.294155 
L 92.307418 138.447227 
L 96.171194 87.23714 
L 98.476472 65.258658 
L 100.684343 55.552653 
L 101.333717 54.73518 
L 101.366186 54.850448 
L 103.898745 64.125375 
L 106.463772 91.11785 
L 109.743111 150.456267 
L 114.061448 239.519349 
L 116.00957 270.200661 
L 116.334257 274.407537 
L 117.243381 284.312506 
L 118.672004 292.274411 
L 119.77594 295.488 
L 119.808408 295.33184 
L 122.01628 284.277104 
L 124.094277 261.345731 
L 125.847587 234.378729 
L 128.055459 202.528368 
L 128.152865 202.528368 
L 129.354207 181.160949 
L 130.036049 172.786996 
L 130.425674 168.57474 
L 132.341327 146.249249 
L 134.679074 129.856238 
L 136.367446 129.246456 
L 137.503851 130.891269 
L 138.737661 137.124293 
L 139.679254 143.164532 
L 140.361096 148.735641 
L 141.432564 158.822337 
L 142.504031 169.49198 
L 144.614496 191.125264 
L 145.004121 195.159878 
L 147.926304 222.968649 
L 150.621206 238.397364 
L 151.400455 240.449873 
L 152.504391 242.786874 
L 153.575858 242.708344 
L 156.075948 232.995219 
L 158.446163 217.380904 
L 160.102067 203.595308 
L 162.212533 190.075131 
L 163.446343 180.782196 
L 164.810029 172.488728 
L 165.589277 168.084171 
L 166.043839 166.460021 
L 168.478992 161.338977 
L 168.836148 160.938841 
L 170.459583 161.683019 
L 171.466112 163.827561 
L 172.147955 166.251736 
L 174.972732 177.775462 
L 178.998851 200.256774 
L 180.395005 206.280655 
L 182.375596 214.815048 
L 183.77175 217.895903 
L 187.051089 218.78408 
L 188.090088 217.232202 
L 192.375956 204.035903 
L 195.135796 192.921969 
L 196.986512 187.189194 
L 199.51907 180.621321 
L 200.298319 179.62236 
L 203.447783 178.361272 
L 204.584188 179.669966 
L 206.434904 183.188844 
L 208.999931 189.338681 
L 214.844298 204.346504 
L 215.298859 205.214571 
L 216.27292 205.223336 
L 218.350917 207.375665 
L 222.604317 204.986539 
L 231.176054 189.496511 
L 232.831958 188.249356 
L 234.455393 187.396653 
L 237.28017 188.031365 
L 247.28053 199.554082 
L 248.124716 200.272135 
L 253.352177 200.166317 
L 257.573109 197.953746 
L 263.514881 193.112946 
L 267.346188 191.876373 
L 274.878926 194.796329 
L 280.853167 198.377999 
L 300.496732 194.547349 
L 319.490922 196.577342 
L 398.487273 196.379975 
L 398.487273 196.379975 
" clip-path="url(#pfa13937408)" style="fill: none; stroke: #ff7f0e; stroke-width: 1.5; stroke-linecap: square"/>
   </g>
   <g id="line2d_33">
    <path d="M 73.832727 196.631074 
L 74.936663 196.631074 
L 74.969132 196.44095 
L 75.034069 196.684568 
L 75.228881 199.687211 
L 75.488631 200.116763 
L 75.5211 200.053087 
L 76.495161 198.047435 
L 77.566628 197.95692 
L 78.086127 196.79236 
L 78.313408 196.454106 
L 81.397935 189.248898 
L 83.086307 188.246149 
L 84.352587 186.724575 
L 85.651335 177.486438 
L 88.638455 164.976989 
L 94.77504 120.169618 
L 95.164664 118.324481 
L 97.632285 109.246141 
L 97.697223 109.321226 
L 98.703753 109.971098 
L 100.26225 109.084915 
L 100.294719 109.144352 
L 100.684343 110.180198 
L 101.496061 114.834408 
L 103.703933 132.300558 
L 104.51565 139.999367 
L 105.554649 151.455202 
L 106.593647 161.588821 
L 108.087207 179.205399 
L 109.678174 195.860377 
L 109.840517 198.722309 
L 110.035329 202.315364 
L 111.496421 217.693437 
L 111.821108 219.015976 
L 112.210732 219.945504 
L 113.671824 231.291415 
L 114.061448 233.530602 
L 114.223792 233.771252 
L 116.594007 233.563408 
L 117.210912 231.859676 
L 118.347317 225.382114 
L 119.77594 217.485792 
L 121.52925 199.809445 
L 121.691593 198.063039 
L 122.113686 198.013269 
L 122.243561 196.561675 
L 123.444903 182.36253 
L 124.711182 174.171345 
L 125.068338 172.332357 
L 125.944993 163.498775 
L 127.600897 160.401688 
L 128.802239 158.281593 
L 129.451613 157.718936 
L 129.581488 157.701393 
L 130.165924 159.309628 
L 131.399735 163.472547 
L 131.984172 166.982446 
L 135.198573 187.144314 
L 136.789539 196.968485 
L 137.049289 197.901812 
L 137.27657 198.078794 
L 137.536319 199.642484 
L 138.932474 205.725039 
L 140.52344 208.353791 
L 141.887125 210.435605 
L 141.984532 210.379091 
L 142.081938 209.596656 
L 142.504031 206.281147 
L 144.549559 201.749449 
L 144.841777 200.75175 
L 145.101527 199.251244 
L 145.426214 196.944436 
L 145.458683 196.94259 
L 145.52362 196.255714 
L 146.2704 192.223954 
L 148.867896 178.912126 
L 149.906895 174.395498 
L 151.432924 168.401352 
L 152.894015 168.285979 
L 153.088827 168.483739 
L 153.575858 166.261566 
L 153.608327 166.3175 
L 154.160295 167.47499 
L 156.985072 175.62957 
L 159.095537 184.712945 
L 160.589097 191.681544 
L 161.628096 194.656342 
L 162.667094 197.791239 
L 162.796969 197.929226 
L 162.861907 197.9374 
L 163.284 199.417911 
L 163.77103 200.326104 
L 165.78409 202.678924 
L 166.498401 202.22613 
L 169.290709 199.338228 
L 169.485522 198.919754 
L 170.492051 195.893593 
L 172.083018 193.317897 
L 173.511641 188.089444 
L 173.641515 186.795223 
L 398.487273 186.795223 
L 398.487273 186.795223 
" clip-path="url(#pfa13937408)" style="fill: none; stroke: #2ca02c; stroke-width: 1.5; stroke-linecap: square"/>
   </g>
   <g id="line2d_34">
    <path d="M 73.832727 195.602685 
L 84.0279 195.602108 
L 84.482461 193.847858 
L 84.742211 192.591492 
L 85.196773 190.518802 
L 86.690333 188.437969 
L 87.242301 182.91395 
L 89.77486 170.821718 
L 90.943733 156.345548 
L 93.443823 131.915648 
L 94.417884 122.003178 
L 97.145255 99.766503 
L 97.210192 99.845389 
L 97.76216 100.360234 
L 99.580407 94.454789 
L 99.612876 94.534098 
L 102.307778 110.28252 
L 102.957152 115.931734 
L 105.684523 149.381276 
L 108.671644 191.118006 
L 109.093737 197.806912 
L 109.158674 197.807617 
L 110.360016 212.66808 
L 111.00939 220.413202 
L 111.950983 233.218681 
L 112.113326 233.468171 
L 112.340607 233.688289 
L 114.548479 246.29245 
L 114.613416 246.191798 
L 116.334257 241.873677 
L 117.145975 239.177123 
L 117.827818 234.950291 
L 120.620126 207.370294 
L 121.399375 198.49891 
L 121.788999 193.878704 
L 122.503311 187.244104 
L 122.795529 184.629559 
L 124.483901 166.894039 
L 127.308679 150.14399 
L 127.341147 150.1731 
L 130.425674 152.998645 
L 131.237391 159.83419 
L 131.984172 164.161478 
L 133.412794 171.532685 
L 134.127106 179.580571 
L 135.425854 190.056029 
L 136.205103 194.09352 
L 136.399915 196.45227 
L 136.594727 198.630535 
L 136.984352 201.133397 
L 137.27657 202.793794 
L 137.438913 203.620153 
L 137.7636 205.979257 
L 138.705193 209.219291 
L 139.354567 214.008823 
L 142.27675 213.892414 
L 142.991061 210.616355 
L 143.867716 204.484911 
L 144.03006 204.441943 
L 144.484622 202.054844 
L 144.646965 201.422259 
L 144.841777 201.422259 
L 145.036589 201.070634 
L 145.198933 200.447894 
L 145.78337 197.006185 
L 146.140525 193.150403 
L 147.049649 185.758279 
L 148.02371 180.554828 
L 149.127646 174.998033 
L 149.354927 171.474493 
L 149.906895 168.054008 
L 150.231582 167.115794 
L 151.692673 163.289954 
L 152.212172 161.193079 
L 152.53686 160.799302 
L 153.28364 160.9262 
L 155.101887 162.688532 
L 158.900725 176.977304 
L 160.199473 185.285377 
L 161.920314 191.765937 
L 163.284 198.460963 
L 164.258061 200.157528 
L 165.621746 204.467555 
L 165.686684 204.465215 
L 165.816558 204.298277 
L 168.349117 204.500789 
L 168.576398 204.108634 
L 169.582928 200.171127 
L 171.660925 197.274355 
L 172.180424 194.130598 
L 176.596167 181.387699 
L 178.349477 178.653896 
L 180.719692 176.945765 
L 183.999031 178.118318 
L 188.674524 185.574537 
L 191.79152 189.993659 
L 199.259321 191.579477 
L 207.766121 187.00079 
L 398.487273 187.00079 
L 398.487273 187.00079 
" clip-path="url(#pfa13937408)" style="fill: none; stroke: #d62728; stroke-width: 1.5; stroke-linecap: square"/>
   </g>
   <g id="line2d_35">
    <path d="M 73.832727 197.106638 
L 81.397935 197.106638 
L 81.462872 196.347835 
L 81.52781 196.351119 
L 81.625216 196.258577 
L 81.690153 197.701606 
L 81.75509 197.683785 
L 81.787559 197.581477 
L 81.852497 197.643346 
L 82.01484 197.798016 
L 82.047309 197.730214 
L 82.339527 196.790255 
L 82.404464 196.820384 
L 83.248651 197.085094 
L 83.475932 197.027171 
L 87.209832 186.428713 
L 87.794269 185.221422 
L 89.51511 168.265 
L 90.034609 164.299706 
L 92.891855 128.867373 
L 95.489351 91.757423 
L 97.177724 70.871976 
L 98.184253 65.143811 
L 98.249191 65.245453 
L 100.164844 68.447946 
L 100.716812 72.569889 
L 102.794809 96.685347 
L 104.450713 123.384818 
L 108.411894 197.043172 
L 108.866456 205.221474 
L 109.288549 213.585708 
L 110.749641 233.769667 
L 111.041859 236.496275 
L 112.502951 254.059044 
L 113.282199 260.766301 
L 113.379606 260.673348 
L 116.042039 257.846618 
L 116.366726 255.825665 
L 119.223972 222.114544 
L 121.594187 187.396686 
L 121.853937 182.771252 
L 122.178624 176.568439 
L 125.295619 139.1203 
L 127.730772 131.98304 
L 127.76324 132.075376 
L 129.094457 136.072699 
L 131.042579 149.827136 
L 133.412794 175.443034 
L 134.614136 189.827651 
L 135.847947 204.591781 
L 136.205103 207.924934 
L 136.497321 210.22164 
L 137.666194 218.268748 
L 138.412974 223.744095 
L 138.867536 225.139273 
L 139.257161 226.875724 
L 141.659845 226.836958 
L 143.543029 215.072679 
L 143.77031 213.76523 
L 144.062528 211.261125 
L 144.711902 204.509329 
L 146.043119 196.622844 
L 146.205463 195.985548 
L 147.796429 178.015916 
L 148.510741 172.449133 
L 150.101707 162.534954 
L 151.010831 155.804308 
L 151.140705 155.669152 
L 153.056359 155.480354 
L 154.192763 153.367004 
L 154.290169 154.508478 
L 154.582388 157.403302 
L 155.881136 162.778481 
L 156.920134 165.156022 
L 157.926664 174.565461 
L 161.368346 194.321861 
L 162.212533 199.026009 
L 162.634626 200.4429 
L 163.738561 206.384775 
L 164.128186 206.89552 
L 165.134716 207.352289 
L 165.491871 209.539553 
L 165.621746 210.496091 
L 167.082838 210.496091 
L 167.407525 208.468022 
L 167.927024 206.968927 
L 168.641335 206.402779 
L 169.095897 205.571924 
L 171.303769 196.813627 
L 174.648045 183.691587 
L 176.076668 178.495988 
L 179.258601 174.523606 
L 181.628816 175.940956 
L 182.27819 176.649139 
L 183.999031 179.226399 
L 189.551179 191.04861 
L 192.27855 192.967587 
L 194.259141 192.646928 
L 201.337318 187.838714 
L 202.441254 187.235911 
L 212.863707 187.170783 
L 398.487273 187.129019 
L 398.487273 187.129019 
" clip-path="url(#pfa13937408)" style="fill: none; stroke: #9467bd; stroke-width: 1.5; stroke-linecap: square"/>
   </g>
   <g id="line2d_36">
    <path d="M 73.832727 196.651071 
L 83.833087 196.651071 
L 83.865556 194.185287 
L 83.930493 195.120076 
L 83.962962 195.291251 
L 84.125306 194.516487 
L 84.937023 192.772532 
L 86.00849 189.978027 
L 89.060548 172.830999 
L 89.580047 167.681648 
L 90.196953 162.791549 
L 91.365826 149.382009 
L 94.223072 110.798846 
L 96.625756 80.163504 
L 98.995971 59.894737 
L 100.781749 53.568 
L 103.833807 61.912543 
L 105.035149 71.983918 
L 107.080678 107.290079 
L 108.444363 137.344551 
L 109.840517 170.122144 
L 109.937923 172.505244 
L 110.684703 191.705236 
L 110.782109 193.561319 
L 113.152325 248.235154 
L 115.392665 278.755001 
L 116.658944 283.797335 
L 116.691413 283.691056 
L 118.574598 273.52273 
L 119.256441 267.233831 
L 120.133095 254.805723 
L 121.659124 226.21005 
L 122.01628 223.263008 
L 124.451433 174.213896 
L 124.873526 168.879381 
L 125.230682 164.780173 
L 127.568428 127.027273 
L 130.295799 117.004306 
L 130.328268 117.071715 
L 131.139985 119.715089 
L 132.730952 131.592647 
L 133.964762 145.401255 
L 135.912884 172.973297 
L 136.886945 188.11197 
L 398.487273 188.11197 
L 398.487273 188.11197 
" clip-path="url(#pfa13937408)" style="fill: none; stroke: #8c564b; stroke-width: 1.5; stroke-linecap: square"/>
   </g>
   <g id="patch_3">
    <path d="M 57.6 307.584 
L 57.6 41.472 
" style="fill: none; stroke: #000000; stroke-width: 0.8; stroke-linejoin: miter; stroke-linecap: square"/>
   </g>
   <g id="patch_4">
    <path d="M 414.72 307.584 
L 414.72 41.472 
" style="fill: none; stroke: #000000; stroke-width: 0.8; stroke-linejoin: miter; stroke-linecap: square"/>
   </g>
   <g id="patch_5">
    <path d="M 57.6 307.584 
L 414.72 307.584 
" style="fill: none; stroke: #000000; stroke-width: 0.8; stroke-linejoin: miter; stroke-linecap: square"/>
   </g>
   <g id="patch_6">
    <path d="M 57.6 41.472 
L 414.72 41.472 
" style="fill: none; stroke: #000000; stroke-width: 0.8; stroke-linejoin: miter; stroke-linecap: square"/>
   </g>
   <g id="legend_1">
    <g id="patch_7">
     <path d="M 340.77625 137.54075 
L 407.72 137.54075 
Q 409.72 137.54075 409.72 135.54075 
L 409.72 48.472 
Q 409.72 46.472 407.72 46.472 
L 340.77625 46.472 
Q 338.77625 46.472 338.77625 48.472 
L 338.77625 135.54075 
Q 338.77625 137.54075 340.77625 137.54075 
z
" style="fill: #ffffff; opacity: 0.8; stroke: #cccccc; stroke-linejoin: miter"/>
    </g>
    <g id="line2d_37">
     <path d="M 342.77625 54.570438 
L 352.77625 54.570438 
L 362.77625 54.570438 
" style="fill: none; stroke: #1f77b4; stroke-width: 1.5; stroke-linecap: square"/>
    </g>
    <g id="text_18">
     <!-- Free -->
     <g transform="translate(370.77625 58.070438) scale(0.1 -0.1)">
      <defs>
       <path id="DejaVuSans-46" d="M 628 4666 
L 3309 4666 
L 3309 4134 
L 1259 4134 
L 1259 2759 
L 3109 2759 
L 3109 2228 
L 1259 2228 
L 1259 0 
L 628 0 
L 628 4666 
z
" transform="scale(0.015625)"/>
       <path id="DejaVuSans-72" d="M 2631 2963 
Q 2534 3019 2420 3045 
Q 2306 3072 2169 3072 
Q 1681 3072 1420 2755 
Q 1159 2438 1159 1844 
L 1159 0 
L 581 0 
L 581 3500 
L 1159 3500 
L 1159 2956 
Q 1341 3275 1631 3429 
Q 1922 3584 2338 3584 
Q 2397 3584 2469 3576 
Q 2541 3569 2628 3553 
L 2631 2963 
z
" transform="scale(0.015625)"/>
      </defs>
      <use xlink:href="#DejaVuSans-46"/>
      <use xlink:href="#DejaVuSans-72" x="50.269531"/>
      <use xlink:href="#DejaVuSans-65" x="89.132812"/>
      <use xlink:href="#DejaVuSans-65" x="150.65625"/>
     </g>
    </g>
    <g id="line2d_38">
     <path d="M 342.77625 69.248563 
L 352.77625 69.248563 
L 362.77625 69.248563 
" style="fill: none; stroke: #ff7f0e; stroke-width: 1.5; stroke-linecap: square"/>
    </g>
    <g id="text_19">
     <!-- Locked -->
     <g transform="translate(370.77625 72.748563) scale(0.1 -0.1)">
      <defs>
       <path id="DejaVuSans-4c" d="M 628 4666 
L 1259 4666 
L 1259 531 
L 3531 531 
L 3531 0 
L 628 0 
L 628 4666 
z
" transform="scale(0.015625)"/>
       <path id="DejaVuSans-6b" d="M 581 4863 
L 1159 4863 
L 1159 1991 
L 2875 3500 
L 3609 3500 
L 1753 1863 
L 3688 0 
L 2938 0 
L 1159 1709 
L 1159 0 
L 581 0 
L 581 4863 
z
" transform="scale(0.015625)"/>
      </defs>
      <use xlink:href="#DejaVuSans-4c"/>
      <use xlink:href="#DejaVuSans-6f" x="53.962891"/>
      <use xlink:href="#DejaVuSans-63" x="115.144531"/>
      <use xlink:href="#DejaVuSans-6b" x="170.125"/>
      <use xlink:href="#DejaVuSans-65" x="224.410156"/>
      <use xlink:href="#DejaVuSans-64" x="285.933594"/>
     </g>
    </g>
    <g id="line2d_39">
     <path d="M 342.77625 83.926688 
L 352.77625 83.926688 
L 362.77625 83.926688 
" style="fill: none; stroke: #2ca02c; stroke-width: 1.5; stroke-linecap: square"/>
    </g>
    <g id="text_20">
     <!-- Pre -->
     <g transform="translate(370.77625 87.426688) scale(0.1 -0.1)">
      <defs>
       <path id="DejaVuSans-50" d="M 1259 4147 
L 1259 2394 
L 2053 2394 
Q 2494 2394 2734 2622 
Q 2975 2850 2975 3272 
Q 2975 3691 2734 3919 
Q 2494 4147 2053 4147 
L 1259 4147 
z
M 628 4666 
L 2053 4666 
Q 2838 4666 3239 4311 
Q 3641 3956 3641 3272 
Q 3641 2581 3239 2228 
Q 2838 1875 2053 1875 
L 1259 1875 
L 1259 0 
L 628 0 
L 628 4666 
z
" transform="scale(0.015625)"/>
      </defs>
      <use xlink:href="#DejaVuSans-50"/>
      <use xlink:href="#DejaVuSans-72" x="58.552734"/>
      <use xlink:href="#DejaVuSans-65" x="97.416016"/>
     </g>
    </g>
    <g id="line2d_40">
     <path d="M 342.77625 98.604813 
L 352.77625 98.604813 
L 362.77625 98.604813 
" style="fill: none; stroke: #d62728; stroke-width: 1.5; stroke-linecap: square"/>
    </g>
    <g id="text_21">
     <!-- Rel0 -->
     <g transform="translate(370.77625 102.104813) scale(0.1 -0.1)">
      <defs>
       <path id="DejaVuSans-52" d="M 2841 2188 
Q 3044 2119 3236 1894 
Q 3428 1669 3622 1275 
L 4263 0 
L 3584 0 
L 2988 1197 
Q 2756 1666 2539 1819 
Q 2322 1972 1947 1972 
L 1259 1972 
L 1259 0 
L 628 0 
L 628 4666 
L 2053 4666 
Q 2853 4666 3247 4331 
Q 3641 3997 3641 3322 
Q 3641 2881 3436 2590 
Q 3231 2300 2841 2188 
z
M 1259 4147 
L 1259 2491 
L 2053 2491 
Q 2509 2491 2742 2702 
Q 2975 2913 2975 3322 
Q 2975 3731 2742 3939 
Q 2509 4147 2053 4147 
L 1259 4147 
z
" transform="scale(0.015625)"/>
       <path id="DejaVuSans-6c" d="M 603 4863 
L 1178 4863 
L 1178 0 
L 603 0 
L 603 4863 
z
" transform="scale(0.015625)"/>
      </defs>
      <use xlink:href="#DejaVuSans-52"/>
      <use xlink:href="#DejaVuSans-65" x="64.982422"/>
      <use xlink:href="#DejaVuSans-6c" x="126.505859"/>
      <use xlink:href="#DejaVuSans-30" x="154.289062"/>
     </g>
    </g>
    <g id="line2d_41">
     <path d="M 342.77625 113.282938 
L 352.77625 113.282938 
L 362.77625 113.282938 
" style="fill: none; stroke: #9467bd; stroke-width: 1.5; stroke-linecap: square"/>
    </g>
    <g id="text_22">
     <!-- Rel50 -->
     <g transform="translate(370.77625 116.782938) scale(0.1 -0.1)">
      <use xlink:href="#DejaVuSans-52"/>
      <use xlink:href="#DejaVuSans-65" x="64.982422"/>
      <use xlink:href="#DejaVuSans-6c" x="126.505859"/>
      <use xlink:href="#DejaVuSans-35" x="154.289062"/>
      <use xlink:href="#DejaVuSans-30" x="217.912109"/>
     </g>
    </g>
    <g id="line2d_42">
     <path d="M 342.77625 127.961063 
L 352.77625 127.961063 
L 362.77625 127.961063 
" style="fill: none; stroke: #8c564b; stroke-width: 1.5; stroke-linecap: square"/>
    </g>
    <g id="text_23">
     <!-- Rel100 -->
     <g transform="translate(370.77625 131.461063) scale(0.1 -0.1)">
      <use xlink:href="#DejaVuSans-52"/>
      <use xlink:href="#DejaVuSans-65" x="64.982422"/>
      <use xlink:href="#DejaVuSans-6c" x="126.505859"/>
      <use xlink:href="#DejaVuSans-31" x="154.289062"/>
      <use xlink:href="#DejaVuSans-30" x="217.912109"/>
      <use xlink:href="#DejaVuSans-30" x="281.535156"/>
     </g>
    </g>
   </g>
  </g>
 </g>
 <defs>
  <clipPath id="pfa13937408">
   <rect x="57.6" y="41.472" width="357.12" height="266.112"/>
  </clipPath>
 </defs>
</svg>
