<?xml version="1.0" encoding="utf-8" standalone="no"?>
<!DOCTYPE svg PUBLIC "-//W3C//DTD SVG 1.1//EN"
  "http://www.w3.org/Graphics/SVG/1.1/DTD/svg11.dtd">
<svg xmlns:xlink="http://www.w3.org/1999/xlink" width="460.8pt" height="345.6pt" viewBox="0 0 460.8 345.6" xmlns="http://www.w3.org/2000/svg" version="1.1">
 <metadata>
  <rdf:RDF xmlns:dc="http://purl.org/dc/elements/1.1/" xmlns:cc="http://creativecommons.org/ns#" xmlns:rdf="http://www.w3.org/1999/02/22-rdf-syntax-ns#">
   <cc:Work>
    <dc:type rdf:resource="http://purl.org/dc/dcmitype/StillImage"/>
    <dc:date>2023-05-16T17:07:01.693793</dc:date>
    <dc:format>image/svg+xml</dc:format>
    <dc:creator>
     <cc:Agent>
      <dc:title>Matplotlib v3.6.2, https://matplotlib.org/</dc:title>
     </cc:Agent>
    </dc:creator>
   </cc:Work>
  </rdf:RDF>
 </metadata>
 <defs>
  <style type="text/css">*{stroke-linejoin: round; stroke-linecap: butt}</style>
 </defs>
 <g id="figure_1">
  <g id="patch_1">
   <path d="M 0 345.6 
L 460.8 345.6 
L 460.8 0 
L 0 0 
z
" style="fill: #ffffff"/>
  </g>
  <g id="axes_1">
   <g id="patch_2">
    <path d="M 57.6 307.584 
L 414.72 307.584 
L 414.72 41.472 
L 57.6 41.472 
z
" style="fill: #ffffff"/>
   </g>
   <g id="matplotlib.axis_1">
    <g id="xtick_1">
     <g id="line2d_1">
      <path d="M 73.832727 307.584 
L 73.832727 41.472 
" clip-path="url(#pfb53a497cf)" style="fill: none; stroke: #b0b0b0; stroke-width: 0.8; stroke-linecap: square"/>
     </g>
     <g id="line2d_2">
      <defs>
       <path id="m1d187dea1d" d="M 0 0 
L 0 3.5 
" style="stroke: #000000; stroke-width: 0.8"/>
      </defs>
      <g>
       <use xlink:href="#m1d187dea1d" x="73.832727" y="307.584" style="stroke: #000000; stroke-width: 0.8"/>
      </g>
     </g>
     <g id="text_1">
      <!-- 0.0 -->
      <g transform="translate(65.881165 322.182437) scale(0.1 -0.1)">
       <defs>
        <path id="DejaVuSans-30" d="M 2034 4250 
Q 1547 4250 1301 3770 
Q 1056 3291 1056 2328 
Q 1056 1369 1301 889 
Q 1547 409 2034 409 
Q 2525 409 2770 889 
Q 3016 1369 3016 2328 
Q 3016 3291 2770 3770 
Q 2525 4250 2034 4250 
z
M 2034 4750 
Q 2819 4750 3233 4129 
Q 3647 3509 3647 2328 
Q 3647 1150 3233 529 
Q 2819 -91 2034 -91 
Q 1250 -91 836 529 
Q 422 1150 422 2328 
Q 422 3509 836 4129 
Q 1250 4750 2034 4750 
z
" transform="scale(0.015625)"/>
        <path id="DejaVuSans-2e" d="M 684 794 
L 1344 794 
L 1344 0 
L 684 0 
L 684 794 
z
" transform="scale(0.015625)"/>
       </defs>
       <use xlink:href="#DejaVuSans-30"/>
       <use xlink:href="#DejaVuSans-2e" x="63.623047"/>
       <use xlink:href="#DejaVuSans-30" x="95.410156"/>
      </g>
     </g>
    </g>
    <g id="xtick_2">
     <g id="line2d_3">
      <path d="M 125.093971 307.584 
L 125.093971 41.472 
" clip-path="url(#pfb53a497cf)" style="fill: none; stroke: #b0b0b0; stroke-width: 0.8; stroke-linecap: square"/>
     </g>
     <g id="line2d_4">
      <g>
       <use xlink:href="#m1d187dea1d" x="125.093971" y="307.584" style="stroke: #000000; stroke-width: 0.8"/>
      </g>
     </g>
     <g id="text_2">
      <!-- 0.5 -->
      <g transform="translate(117.142409 322.182437) scale(0.1 -0.1)">
       <defs>
        <path id="DejaVuSans-35" d="M 691 4666 
L 3169 4666 
L 3169 4134 
L 1269 4134 
L 1269 2991 
Q 1406 3038 1543 3061 
Q 1681 3084 1819 3084 
Q 2600 3084 3056 2656 
Q 3513 2228 3513 1497 
Q 3513 744 3044 326 
Q 2575 -91 1722 -91 
Q 1428 -91 1123 -41 
Q 819 9 494 109 
L 494 744 
Q 775 591 1075 516 
Q 1375 441 1709 441 
Q 2250 441 2565 725 
Q 2881 1009 2881 1497 
Q 2881 1984 2565 2268 
Q 2250 2553 1709 2553 
Q 1456 2553 1204 2497 
Q 953 2441 691 2322 
L 691 4666 
z
" transform="scale(0.015625)"/>
       </defs>
       <use xlink:href="#DejaVuSans-30"/>
       <use xlink:href="#DejaVuSans-2e" x="63.623047"/>
       <use xlink:href="#DejaVuSans-35" x="95.410156"/>
      </g>
     </g>
    </g>
    <g id="xtick_3">
     <g id="line2d_5">
      <path d="M 176.355215 307.584 
L 176.355215 41.472 
" clip-path="url(#pfb53a497cf)" style="fill: none; stroke: #b0b0b0; stroke-width: 0.8; stroke-linecap: square"/>
     </g>
     <g id="line2d_6">
      <g>
       <use xlink:href="#m1d187dea1d" x="176.355215" y="307.584" style="stroke: #000000; stroke-width: 0.8"/>
      </g>
     </g>
     <g id="text_3">
      <!-- 1.0 -->
      <g transform="translate(168.403653 322.182437) scale(0.1 -0.1)">
       <defs>
        <path id="DejaVuSans-31" d="M 794 531 
L 1825 531 
L 1825 4091 
L 703 3866 
L 703 4441 
L 1819 4666 
L 2450 4666 
L 2450 531 
L 3481 531 
L 3481 0 
L 794 0 
L 794 531 
z
" transform="scale(0.015625)"/>
       </defs>
       <use xlink:href="#DejaVuSans-31"/>
       <use xlink:href="#DejaVuSans-2e" x="63.623047"/>
       <use xlink:href="#DejaVuSans-30" x="95.410156"/>
      </g>
     </g>
    </g>
    <g id="xtick_4">
     <g id="line2d_7">
      <path d="M 227.616459 307.584 
L 227.616459 41.472 
" clip-path="url(#pfb53a497cf)" style="fill: none; stroke: #b0b0b0; stroke-width: 0.8; stroke-linecap: square"/>
     </g>
     <g id="line2d_8">
      <g>
       <use xlink:href="#m1d187dea1d" x="227.616459" y="307.584" style="stroke: #000000; stroke-width: 0.8"/>
      </g>
     </g>
     <g id="text_4">
      <!-- 1.5 -->
      <g transform="translate(219.664897 322.182437) scale(0.1 -0.1)">
       <use xlink:href="#DejaVuSans-31"/>
       <use xlink:href="#DejaVuSans-2e" x="63.623047"/>
       <use xlink:href="#DejaVuSans-35" x="95.410156"/>
      </g>
     </g>
    </g>
    <g id="xtick_5">
     <g id="line2d_9">
      <path d="M 278.877703 307.584 
L 278.877703 41.472 
" clip-path="url(#pfb53a497cf)" style="fill: none; stroke: #b0b0b0; stroke-width: 0.8; stroke-linecap: square"/>
     </g>
     <g id="line2d_10">
      <g>
       <use xlink:href="#m1d187dea1d" x="278.877703" y="307.584" style="stroke: #000000; stroke-width: 0.8"/>
      </g>
     </g>
     <g id="text_5">
      <!-- 2.0 -->
      <g transform="translate(270.926141 322.182437) scale(0.1 -0.1)">
       <defs>
        <path id="DejaVuSans-32" d="M 1228 531 
L 3431 531 
L 3431 0 
L 469 0 
L 469 531 
Q 828 903 1448 1529 
Q 2069 2156 2228 2338 
Q 2531 2678 2651 2914 
Q 2772 3150 2772 3378 
Q 2772 3750 2511 3984 
Q 2250 4219 1831 4219 
Q 1534 4219 1204 4116 
Q 875 4013 500 3803 
L 500 4441 
Q 881 4594 1212 4672 
Q 1544 4750 1819 4750 
Q 2544 4750 2975 4387 
Q 3406 4025 3406 3419 
Q 3406 3131 3298 2873 
Q 3191 2616 2906 2266 
Q 2828 2175 2409 1742 
Q 1991 1309 1228 531 
z
" transform="scale(0.015625)"/>
       </defs>
       <use xlink:href="#DejaVuSans-32"/>
       <use xlink:href="#DejaVuSans-2e" x="63.623047"/>
       <use xlink:href="#DejaVuSans-30" x="95.410156"/>
      </g>
     </g>
    </g>
    <g id="xtick_6">
     <g id="line2d_11">
      <path d="M 330.138947 307.584 
L 330.138947 41.472 
" clip-path="url(#pfb53a497cf)" style="fill: none; stroke: #b0b0b0; stroke-width: 0.8; stroke-linecap: square"/>
     </g>
     <g id="line2d_12">
      <g>
       <use xlink:href="#m1d187dea1d" x="330.138947" y="307.584" style="stroke: #000000; stroke-width: 0.8"/>
      </g>
     </g>
     <g id="text_6">
      <!-- 2.5 -->
      <g transform="translate(322.187385 322.182437) scale(0.1 -0.1)">
       <use xlink:href="#DejaVuSans-32"/>
       <use xlink:href="#DejaVuSans-2e" x="63.623047"/>
       <use xlink:href="#DejaVuSans-35" x="95.410156"/>
      </g>
     </g>
    </g>
    <g id="xtick_7">
     <g id="line2d_13">
      <path d="M 381.400191 307.584 
L 381.400191 41.472 
" clip-path="url(#pfb53a497cf)" style="fill: none; stroke: #b0b0b0; stroke-width: 0.8; stroke-linecap: square"/>
     </g>
     <g id="line2d_14">
      <g>
       <use xlink:href="#m1d187dea1d" x="381.400191" y="307.584" style="stroke: #000000; stroke-width: 0.8"/>
      </g>
     </g>
     <g id="text_7">
      <!-- 3.0 -->
      <g transform="translate(373.448629 322.182437) scale(0.1 -0.1)">
       <defs>
        <path id="DejaVuSans-33" d="M 2597 2516 
Q 3050 2419 3304 2112 
Q 3559 1806 3559 1356 
Q 3559 666 3084 287 
Q 2609 -91 1734 -91 
Q 1441 -91 1130 -33 
Q 819 25 488 141 
L 488 750 
Q 750 597 1062 519 
Q 1375 441 1716 441 
Q 2309 441 2620 675 
Q 2931 909 2931 1356 
Q 2931 1769 2642 2001 
Q 2353 2234 1838 2234 
L 1294 2234 
L 1294 2753 
L 1863 2753 
Q 2328 2753 2575 2939 
Q 2822 3125 2822 3475 
Q 2822 3834 2567 4026 
Q 2313 4219 1838 4219 
Q 1578 4219 1281 4162 
Q 984 4106 628 3988 
L 628 4550 
Q 988 4650 1302 4700 
Q 1616 4750 1894 4750 
Q 2613 4750 3031 4423 
Q 3450 4097 3450 3541 
Q 3450 3153 3228 2886 
Q 3006 2619 2597 2516 
z
" transform="scale(0.015625)"/>
       </defs>
       <use xlink:href="#DejaVuSans-33"/>
       <use xlink:href="#DejaVuSans-2e" x="63.623047"/>
       <use xlink:href="#DejaVuSans-30" x="95.410156"/>
      </g>
     </g>
    </g>
    <g id="text_8">
     <!-- Time [s] -->
     <g transform="translate(215.831094 335.860562) scale(0.1 -0.1)">
      <defs>
       <path id="DejaVuSans-54" d="M -19 4666 
L 3928 4666 
L 3928 4134 
L 2272 4134 
L 2272 0 
L 1638 0 
L 1638 4134 
L -19 4134 
L -19 4666 
z
" transform="scale(0.015625)"/>
       <path id="DejaVuSans-69" d="M 603 3500 
L 1178 3500 
L 1178 0 
L 603 0 
L 603 3500 
z
M 603 4863 
L 1178 4863 
L 1178 4134 
L 603 4134 
L 603 4863 
z
" transform="scale(0.015625)"/>
       <path id="DejaVuSans-6d" d="M 3328 2828 
Q 3544 3216 3844 3400 
Q 4144 3584 4550 3584 
Q 5097 3584 5394 3201 
Q 5691 2819 5691 2113 
L 5691 0 
L 5113 0 
L 5113 2094 
Q 5113 2597 4934 2840 
Q 4756 3084 4391 3084 
Q 3944 3084 3684 2787 
Q 3425 2491 3425 1978 
L 3425 0 
L 2847 0 
L 2847 2094 
Q 2847 2600 2669 2842 
Q 2491 3084 2119 3084 
Q 1678 3084 1418 2786 
Q 1159 2488 1159 1978 
L 1159 0 
L 581 0 
L 581 3500 
L 1159 3500 
L 1159 2956 
Q 1356 3278 1631 3431 
Q 1906 3584 2284 3584 
Q 2666 3584 2933 3390 
Q 3200 3197 3328 2828 
z
" transform="scale(0.015625)"/>
       <path id="DejaVuSans-65" d="M 3597 1894 
L 3597 1613 
L 953 1613 
Q 991 1019 1311 708 
Q 1631 397 2203 397 
Q 2534 397 2845 478 
Q 3156 559 3463 722 
L 3463 178 
Q 3153 47 2828 -22 
Q 2503 -91 2169 -91 
Q 1331 -91 842 396 
Q 353 884 353 1716 
Q 353 2575 817 3079 
Q 1281 3584 2069 3584 
Q 2775 3584 3186 3129 
Q 3597 2675 3597 1894 
z
M 3022 2063 
Q 3016 2534 2758 2815 
Q 2500 3097 2075 3097 
Q 1594 3097 1305 2825 
Q 1016 2553 972 2059 
L 3022 2063 
z
" transform="scale(0.015625)"/>
       <path id="DejaVuSans-20" transform="scale(0.015625)"/>
       <path id="DejaVuSans-5b" d="M 550 4863 
L 1875 4863 
L 1875 4416 
L 1125 4416 
L 1125 -397 
L 1875 -397 
L 1875 -844 
L 550 -844 
L 550 4863 
z
" transform="scale(0.015625)"/>
       <path id="DejaVuSans-73" d="M 2834 3397 
L 2834 2853 
Q 2591 2978 2328 3040 
Q 2066 3103 1784 3103 
Q 1356 3103 1142 2972 
Q 928 2841 928 2578 
Q 928 2378 1081 2264 
Q 1234 2150 1697 2047 
L 1894 2003 
Q 2506 1872 2764 1633 
Q 3022 1394 3022 966 
Q 3022 478 2636 193 
Q 2250 -91 1575 -91 
Q 1294 -91 989 -36 
Q 684 19 347 128 
L 347 722 
Q 666 556 975 473 
Q 1284 391 1588 391 
Q 1994 391 2212 530 
Q 2431 669 2431 922 
Q 2431 1156 2273 1281 
Q 2116 1406 1581 1522 
L 1381 1569 
Q 847 1681 609 1914 
Q 372 2147 372 2553 
Q 372 3047 722 3315 
Q 1072 3584 1716 3584 
Q 2034 3584 2315 3537 
Q 2597 3491 2834 3397 
z
" transform="scale(0.015625)"/>
       <path id="DejaVuSans-5d" d="M 1947 4863 
L 1947 -844 
L 622 -844 
L 622 -397 
L 1369 -397 
L 1369 4416 
L 622 4416 
L 622 4863 
L 1947 4863 
z
" transform="scale(0.015625)"/>
      </defs>
      <use xlink:href="#DejaVuSans-54"/>
      <use xlink:href="#DejaVuSans-69" x="57.958984"/>
      <use xlink:href="#DejaVuSans-6d" x="85.742188"/>
      <use xlink:href="#DejaVuSans-65" x="183.154297"/>
      <use xlink:href="#DejaVuSans-20" x="244.677734"/>
      <use xlink:href="#DejaVuSans-5b" x="276.464844"/>
      <use xlink:href="#DejaVuSans-73" x="315.478516"/>
      <use xlink:href="#DejaVuSans-5d" x="367.578125"/>
     </g>
    </g>
   </g>
   <g id="matplotlib.axis_2">
    <g id="ytick_1">
     <g id="line2d_15">
      <path d="M 57.6 306.460665 
L 414.72 306.460665 
" clip-path="url(#pfb53a497cf)" style="fill: none; stroke: #b0b0b0; stroke-width: 0.8; stroke-linecap: square"/>
     </g>
     <g id="line2d_16">
      <defs>
       <path id="mbc042d41b4" d="M 0 0 
L -3.5 0 
" style="stroke: #000000; stroke-width: 0.8"/>
      </defs>
      <g>
       <use xlink:href="#mbc042d41b4" x="57.6" y="306.460665" style="stroke: #000000; stroke-width: 0.8"/>
      </g>
     </g>
     <g id="text_9">
      <!-- −0.10 -->
      <g transform="translate(19.954687 310.259883) scale(0.1 -0.1)">
       <defs>
        <path id="DejaVuSans-2212" d="M 678 2272 
L 4684 2272 
L 4684 1741 
L 678 1741 
L 678 2272 
z
" transform="scale(0.015625)"/>
       </defs>
       <use xlink:href="#DejaVuSans-2212"/>
       <use xlink:href="#DejaVuSans-30" x="83.789062"/>
       <use xlink:href="#DejaVuSans-2e" x="147.412109"/>
       <use xlink:href="#DejaVuSans-31" x="179.199219"/>
       <use xlink:href="#DejaVuSans-30" x="242.822266"/>
      </g>
     </g>
    </g>
    <g id="ytick_2">
     <g id="line2d_17">
      <path d="M 57.6 267.781416 
L 414.72 267.781416 
" clip-path="url(#pfb53a497cf)" style="fill: none; stroke: #b0b0b0; stroke-width: 0.8; stroke-linecap: square"/>
     </g>
     <g id="line2d_18">
      <g>
       <use xlink:href="#mbc042d41b4" x="57.6" y="267.781416" style="stroke: #000000; stroke-width: 0.8"/>
      </g>
     </g>
     <g id="text_10">
      <!-- −0.05 -->
      <g transform="translate(19.954687 271.580635) scale(0.1 -0.1)">
       <use xlink:href="#DejaVuSans-2212"/>
       <use xlink:href="#DejaVuSans-30" x="83.789062"/>
       <use xlink:href="#DejaVuSans-2e" x="147.412109"/>
       <use xlink:href="#DejaVuSans-30" x="179.199219"/>
       <use xlink:href="#DejaVuSans-35" x="242.822266"/>
      </g>
     </g>
    </g>
    <g id="ytick_3">
     <g id="line2d_19">
      <path d="M 57.6 229.102168 
L 414.72 229.102168 
" clip-path="url(#pfb53a497cf)" style="fill: none; stroke: #b0b0b0; stroke-width: 0.8; stroke-linecap: square"/>
     </g>
     <g id="line2d_20">
      <g>
       <use xlink:href="#mbc042d41b4" x="57.6" y="229.102168" style="stroke: #000000; stroke-width: 0.8"/>
      </g>
     </g>
     <g id="text_11">
      <!-- 0.00 -->
      <g transform="translate(28.334375 232.901387) scale(0.1 -0.1)">
       <use xlink:href="#DejaVuSans-30"/>
       <use xlink:href="#DejaVuSans-2e" x="63.623047"/>
       <use xlink:href="#DejaVuSans-30" x="95.410156"/>
       <use xlink:href="#DejaVuSans-30" x="159.033203"/>
      </g>
     </g>
    </g>
    <g id="ytick_4">
     <g id="line2d_21">
      <path d="M 57.6 190.42292 
L 414.72 190.42292 
" clip-path="url(#pfb53a497cf)" style="fill: none; stroke: #b0b0b0; stroke-width: 0.8; stroke-linecap: square"/>
     </g>
     <g id="line2d_22">
      <g>
       <use xlink:href="#mbc042d41b4" x="57.6" y="190.42292" style="stroke: #000000; stroke-width: 0.8"/>
      </g>
     </g>
     <g id="text_12">
      <!-- 0.05 -->
      <g transform="translate(28.334375 194.222139) scale(0.1 -0.1)">
       <use xlink:href="#DejaVuSans-30"/>
       <use xlink:href="#DejaVuSans-2e" x="63.623047"/>
       <use xlink:href="#DejaVuSans-30" x="95.410156"/>
       <use xlink:href="#DejaVuSans-35" x="159.033203"/>
      </g>
     </g>
    </g>
    <g id="ytick_5">
     <g id="line2d_23">
      <path d="M 57.6 151.743672 
L 414.72 151.743672 
" clip-path="url(#pfb53a497cf)" style="fill: none; stroke: #b0b0b0; stroke-width: 0.8; stroke-linecap: square"/>
     </g>
     <g id="line2d_24">
      <g>
       <use xlink:href="#mbc042d41b4" x="57.6" y="151.743672" style="stroke: #000000; stroke-width: 0.8"/>
      </g>
     </g>
     <g id="text_13">
      <!-- 0.10 -->
      <g transform="translate(28.334375 155.542891) scale(0.1 -0.1)">
       <use xlink:href="#DejaVuSans-30"/>
       <use xlink:href="#DejaVuSans-2e" x="63.623047"/>
       <use xlink:href="#DejaVuSans-31" x="95.410156"/>
       <use xlink:href="#DejaVuSans-30" x="159.033203"/>
      </g>
     </g>
    </g>
    <g id="ytick_6">
     <g id="line2d_25">
      <path d="M 57.6 113.064424 
L 414.72 113.064424 
" clip-path="url(#pfb53a497cf)" style="fill: none; stroke: #b0b0b0; stroke-width: 0.8; stroke-linecap: square"/>
     </g>
     <g id="line2d_26">
      <g>
       <use xlink:href="#mbc042d41b4" x="57.6" y="113.064424" style="stroke: #000000; stroke-width: 0.8"/>
      </g>
     </g>
     <g id="text_14">
      <!-- 0.15 -->
      <g transform="translate(28.334375 116.863643) scale(0.1 -0.1)">
       <use xlink:href="#DejaVuSans-30"/>
       <use xlink:href="#DejaVuSans-2e" x="63.623047"/>
       <use xlink:href="#DejaVuSans-31" x="95.410156"/>
       <use xlink:href="#DejaVuSans-35" x="159.033203"/>
      </g>
     </g>
    </g>
    <g id="ytick_7">
     <g id="line2d_27">
      <path d="M 57.6 74.385176 
L 414.72 74.385176 
" clip-path="url(#pfb53a497cf)" style="fill: none; stroke: #b0b0b0; stroke-width: 0.8; stroke-linecap: square"/>
     </g>
     <g id="line2d_28">
      <g>
       <use xlink:href="#mbc042d41b4" x="57.6" y="74.385176" style="stroke: #000000; stroke-width: 0.8"/>
      </g>
     </g>
     <g id="text_15">
      <!-- 0.20 -->
      <g transform="translate(28.334375 78.184395) scale(0.1 -0.1)">
       <use xlink:href="#DejaVuSans-30"/>
       <use xlink:href="#DejaVuSans-2e" x="63.623047"/>
       <use xlink:href="#DejaVuSans-32" x="95.410156"/>
       <use xlink:href="#DejaVuSans-30" x="159.033203"/>
      </g>
     </g>
    </g>
    <g id="text_16">
     <!-- Bending moment coefficient [-] -->
     <g transform="translate(13.875 252.726438) rotate(-90) scale(0.1 -0.1)">
      <defs>
       <path id="DejaVuSans-42" d="M 1259 2228 
L 1259 519 
L 2272 519 
Q 2781 519 3026 730 
Q 3272 941 3272 1375 
Q 3272 1813 3026 2020 
Q 2781 2228 2272 2228 
L 1259 2228 
z
M 1259 4147 
L 1259 2741 
L 2194 2741 
Q 2656 2741 2882 2914 
Q 3109 3088 3109 3444 
Q 3109 3797 2882 3972 
Q 2656 4147 2194 4147 
L 1259 4147 
z
M 628 4666 
L 2241 4666 
Q 2963 4666 3353 4366 
Q 3744 4066 3744 3513 
Q 3744 3084 3544 2831 
Q 3344 2578 2956 2516 
Q 3422 2416 3680 2098 
Q 3938 1781 3938 1306 
Q 3938 681 3513 340 
Q 3088 0 2303 0 
L 628 0 
L 628 4666 
z
" transform="scale(0.015625)"/>
       <path id="DejaVuSans-6e" d="M 3513 2113 
L 3513 0 
L 2938 0 
L 2938 2094 
Q 2938 2591 2744 2837 
Q 2550 3084 2163 3084 
Q 1697 3084 1428 2787 
Q 1159 2491 1159 1978 
L 1159 0 
L 581 0 
L 581 3500 
L 1159 3500 
L 1159 2956 
Q 1366 3272 1645 3428 
Q 1925 3584 2291 3584 
Q 2894 3584 3203 3211 
Q 3513 2838 3513 2113 
z
" transform="scale(0.015625)"/>
       <path id="DejaVuSans-64" d="M 2906 2969 
L 2906 4863 
L 3481 4863 
L 3481 0 
L 2906 0 
L 2906 525 
Q 2725 213 2448 61 
Q 2172 -91 1784 -91 
Q 1150 -91 751 415 
Q 353 922 353 1747 
Q 353 2572 751 3078 
Q 1150 3584 1784 3584 
Q 2172 3584 2448 3432 
Q 2725 3281 2906 2969 
z
M 947 1747 
Q 947 1113 1208 752 
Q 1469 391 1925 391 
Q 2381 391 2643 752 
Q 2906 1113 2906 1747 
Q 2906 2381 2643 2742 
Q 2381 3103 1925 3103 
Q 1469 3103 1208 2742 
Q 947 2381 947 1747 
z
" transform="scale(0.015625)"/>
       <path id="DejaVuSans-67" d="M 2906 1791 
Q 2906 2416 2648 2759 
Q 2391 3103 1925 3103 
Q 1463 3103 1205 2759 
Q 947 2416 947 1791 
Q 947 1169 1205 825 
Q 1463 481 1925 481 
Q 2391 481 2648 825 
Q 2906 1169 2906 1791 
z
M 3481 434 
Q 3481 -459 3084 -895 
Q 2688 -1331 1869 -1331 
Q 1566 -1331 1297 -1286 
Q 1028 -1241 775 -1147 
L 775 -588 
Q 1028 -725 1275 -790 
Q 1522 -856 1778 -856 
Q 2344 -856 2625 -561 
Q 2906 -266 2906 331 
L 2906 616 
Q 2728 306 2450 153 
Q 2172 0 1784 0 
Q 1141 0 747 490 
Q 353 981 353 1791 
Q 353 2603 747 3093 
Q 1141 3584 1784 3584 
Q 2172 3584 2450 3431 
Q 2728 3278 2906 2969 
L 2906 3500 
L 3481 3500 
L 3481 434 
z
" transform="scale(0.015625)"/>
       <path id="DejaVuSans-6f" d="M 1959 3097 
Q 1497 3097 1228 2736 
Q 959 2375 959 1747 
Q 959 1119 1226 758 
Q 1494 397 1959 397 
Q 2419 397 2687 759 
Q 2956 1122 2956 1747 
Q 2956 2369 2687 2733 
Q 2419 3097 1959 3097 
z
M 1959 3584 
Q 2709 3584 3137 3096 
Q 3566 2609 3566 1747 
Q 3566 888 3137 398 
Q 2709 -91 1959 -91 
Q 1206 -91 779 398 
Q 353 888 353 1747 
Q 353 2609 779 3096 
Q 1206 3584 1959 3584 
z
" transform="scale(0.015625)"/>
       <path id="DejaVuSans-74" d="M 1172 4494 
L 1172 3500 
L 2356 3500 
L 2356 3053 
L 1172 3053 
L 1172 1153 
Q 1172 725 1289 603 
Q 1406 481 1766 481 
L 2356 481 
L 2356 0 
L 1766 0 
Q 1100 0 847 248 
Q 594 497 594 1153 
L 594 3053 
L 172 3053 
L 172 3500 
L 594 3500 
L 594 4494 
L 1172 4494 
z
" transform="scale(0.015625)"/>
       <path id="DejaVuSans-63" d="M 3122 3366 
L 3122 2828 
Q 2878 2963 2633 3030 
Q 2388 3097 2138 3097 
Q 1578 3097 1268 2742 
Q 959 2388 959 1747 
Q 959 1106 1268 751 
Q 1578 397 2138 397 
Q 2388 397 2633 464 
Q 2878 531 3122 666 
L 3122 134 
Q 2881 22 2623 -34 
Q 2366 -91 2075 -91 
Q 1284 -91 818 406 
Q 353 903 353 1747 
Q 353 2603 823 3093 
Q 1294 3584 2113 3584 
Q 2378 3584 2631 3529 
Q 2884 3475 3122 3366 
z
" transform="scale(0.015625)"/>
       <path id="DejaVuSans-66" d="M 2375 4863 
L 2375 4384 
L 1825 4384 
Q 1516 4384 1395 4259 
Q 1275 4134 1275 3809 
L 1275 3500 
L 2222 3500 
L 2222 3053 
L 1275 3053 
L 1275 0 
L 697 0 
L 697 3053 
L 147 3053 
L 147 3500 
L 697 3500 
L 697 3744 
Q 697 4328 969 4595 
Q 1241 4863 1831 4863 
L 2375 4863 
z
" transform="scale(0.015625)"/>
       <path id="DejaVuSans-2d" d="M 313 2009 
L 1997 2009 
L 1997 1497 
L 313 1497 
L 313 2009 
z
" transform="scale(0.015625)"/>
      </defs>
      <use xlink:href="#DejaVuSans-42"/>
      <use xlink:href="#DejaVuSans-65" x="68.603516"/>
      <use xlink:href="#DejaVuSans-6e" x="130.126953"/>
      <use xlink:href="#DejaVuSans-64" x="193.505859"/>
      <use xlink:href="#DejaVuSans-69" x="256.982422"/>
      <use xlink:href="#DejaVuSans-6e" x="284.765625"/>
      <use xlink:href="#DejaVuSans-67" x="348.144531"/>
      <use xlink:href="#DejaVuSans-20" x="411.621094"/>
      <use xlink:href="#DejaVuSans-6d" x="443.408203"/>
      <use xlink:href="#DejaVuSans-6f" x="540.820312"/>
      <use xlink:href="#DejaVuSans-6d" x="602.001953"/>
      <use xlink:href="#DejaVuSans-65" x="699.414062"/>
      <use xlink:href="#DejaVuSans-6e" x="760.9375"/>
      <use xlink:href="#DejaVuSans-74" x="824.316406"/>
      <use xlink:href="#DejaVuSans-20" x="863.525391"/>
      <use xlink:href="#DejaVuSans-63" x="895.3125"/>
      <use xlink:href="#DejaVuSans-6f" x="950.292969"/>
      <use xlink:href="#DejaVuSans-65" x="1011.474609"/>
      <use xlink:href="#DejaVuSans-66" x="1072.998047"/>
      <use xlink:href="#DejaVuSans-66" x="1108.203125"/>
      <use xlink:href="#DejaVuSans-69" x="1143.408203"/>
      <use xlink:href="#DejaVuSans-63" x="1171.191406"/>
      <use xlink:href="#DejaVuSans-69" x="1226.171875"/>
      <use xlink:href="#DejaVuSans-65" x="1253.955078"/>
      <use xlink:href="#DejaVuSans-6e" x="1315.478516"/>
      <use xlink:href="#DejaVuSans-74" x="1378.857422"/>
      <use xlink:href="#DejaVuSans-20" x="1418.066406"/>
      <use xlink:href="#DejaVuSans-5b" x="1449.853516"/>
      <use xlink:href="#DejaVuSans-2d" x="1488.867188"/>
      <use xlink:href="#DejaVuSans-5d" x="1524.951172"/>
     </g>
    </g>
   </g>
   <g id="line2d_29">
    <path d="M 73.832727 194.424692 
L 82.404464 194.061886 
L 83.833087 193.701612 
L 86.398115 190.64617 
L 88.670924 183.30057 
L 89.969672 178.139054 
L 94.872446 151.616196 
L 96.885505 143.550605 
L 98.411534 141.612839 
L 98.898565 140.560361 
L 98.931033 140.61142 
L 101.301249 144.514393 
L 103.087027 152.273111 
L 104.353307 160.47102 
L 106.463772 176.01614 
L 108.898925 197.232414 
L 109.743111 202.191588 
L 109.970392 203.685715 
L 110.52236 209.441568 
L 111.171734 213.596591 
L 111.593827 216.101722 
L 111.821108 216.696918 
L 112.01592 217.859761 
L 112.892575 222.491623 
L 114.02898 227.337694 
L 114.808228 228.239192 
L 116.171914 228.217654 
L 117.0161 227.296769 
L 117.438193 225.518234 
L 118.120036 221.982808 
L 118.314848 221.982808 
L 118.964222 217.518118 
L 119.483721 216.154036 
L 120.52272 209.646383 
L 121.52925 201.878391 
L 121.821468 199.385677 
L 122.730592 194.592796 
L 124.970932 179.852786 
L 125.685243 176.056296 
L 127.568428 169.546619 
L 130.555549 169.585804 
L 131.919234 174.776053 
L 134.224512 183.196462 
L 135.26351 189.167482 
L 137.601257 199.363713 
L 138.315568 202.034301 
L 139.971472 207.200279 
L 140.296159 208.172805 
L 143.510561 208.199475 
L 143.900185 206.79672 
L 144.744371 204.247062 
L 145.328808 203.103747 
L 146.172994 202.785821 
L 146.400275 202.519076 
L 146.627556 201.971832 
L 147.179524 199.716381 
L 147.861367 196.527216 
L 148.348397 195.290162 
L 150.945893 188.869417 
L 151.335518 187.972785 
L 153.997951 184.026519 
L 156.27076 185.47588 
L 164.647685 198.703888 
L 165.069778 198.786597 
L 167.569868 199.110573 
L 170.232302 199.119203 
L 183.869156 190.37845 
L 184.291249 190.24805 
L 184.973092 190.352406 
L 187.862807 191.549718 
L 195.915045 195.038165 
L 200.590538 196.378577 
L 207.376496 194.611948 
L 207.506371 194.22875 
L 398.487273 194.22875 
L 398.487273 194.22875 
" clip-path="url(#pfb53a497cf)" style="fill: none; stroke: #1f77b4; stroke-width: 1.5; stroke-linecap: square"/>
   </g>
   <g id="line2d_30">
    <path d="M 73.832727 166.563115 
L 83.638275 166.540754 
L 83.930493 165.794121 
L 85.196773 164.05102 
L 86.657864 160.847062 
L 89.02808 151.148951 
L 89.709922 146.269924 
L 92.502231 122.962207 
L 96.75563 80.503781 
L 99.612876 60.761057 
L 102.372716 54.752458 
L 102.437653 54.876473 
L 104.418244 59.915266 
L 105.911804 69.509422 
L 106.853397 77.258089 
L 108.411894 93.966854 
L 110.684703 127.281166 
L 112.405545 154.234983 
L 115.912164 199.611236 
L 116.00957 199.611236 
L 116.204383 202.400322 
L 116.431664 204.670753 
L 117.0161 209.548742 
L 117.503131 213.951418 
L 118.02263 218.055266 
L 118.639535 221.772317 
L 119.840877 226.784538 
L 122.01628 226.70187 
L 122.373436 225.507442 
L 123.834527 220.122813 
L 124.873526 212.516777 
L 125.490431 207.92876 
L 125.944993 204.166996 
L 128.477552 179.695498 
L 129.256801 171.951809 
L 130.815298 157.772055 
L 133.250451 137.280564 
L 135.620666 126.529949 
L 137.503851 122.535006 
L 138.02335 122.312877 
L 139.322098 123.706294 
L 142.27675 136.621258 
L 148.478272 175.531481 
L 149.939363 182.102353 
L 151.465392 189.080445 
L 152.53686 190.100855 
L 153.900545 191.723922 
L 156.400635 191.723922 
L 156.562978 190.53823 
L 161.141065 175.135796 
L 163.316468 165.416329 
L 167.927024 150.185436 
L 172.375236 147.168612 
L 173.511641 148.821937 
L 178.674164 160.26757 
L 180.914505 167.085432 
L 182.310659 169.745414 
L 186.206903 177.090262 
L 190.720052 176.873107 
L 191.596707 175.82701 
L 195.720232 169.14612 
L 197.960573 165.602267 
L 201.629536 160.257116 
L 203.382846 158.801361 
L 207.571308 159.236665 
L 207.960933 159.524072 
L 215.623546 168.271865 
L 219.649665 170.912911 
L 224.974532 170.516783 
L 231.370867 166.354538 
L 235.981422 163.684679 
L 241.825788 163.287076 
L 248.416935 166.146044 
L 248.579278 166.563115 
L 398.487273 166.563115 
L 398.487273 166.563115 
" clip-path="url(#pfb53a497cf)" style="fill: none; stroke: #ff7f0e; stroke-width: 1.5; stroke-linecap: square"/>
   </g>
   <g id="line2d_31">
    <path d="M 73.832727 167.501032 
L 76.430223 166.287634 
L 76.787379 165.173181 
L 76.949723 164.993849 
L 77.631565 165.293566 
L 80.001781 172.318349 
L 80.813498 175.781931 
L 82.826558 186.042582 
L 85.748741 198.700903 
L 88.443643 199.917106 
L 88.476112 199.799038 
L 90.716452 191.314479 
L 93.865916 168.258407 
L 94.580227 162.733527 
L 96.333537 150.387531 
L 99.223252 134.900586 
L 101.106436 134.670547 
L 101.625936 135.112235 
L 101.885685 135.814309 
L 102.470122 138.181561 
L 103.574058 143.437129 
L 104.710462 149.414036 
L 111.950983 218.31869 
L 112.989981 226.355637 
L 113.50948 229.07342 
L 115.003041 235.035215 
L 115.684883 235.300256 
L 115.814758 235.450822 
L 116.366726 235.250177 
L 117.438193 232.613861 
L 118.736941 227.056791 
L 118.801879 226.974743 
L 119.711002 219.883016 
L 119.938283 218.179996 
L 121.139625 208.650052 
L 123.866996 185.56982 
L 124.159214 182.9978 
L 125.035869 175.874001 
L 126.951523 164.331253 
L 127.76324 161.013545 
L 128.250271 160.42203 
L 129.841237 158.536704 
L 129.873706 158.56558 
L 131.399735 162.667743 
L 133.120576 169.014374 
L 134.679074 178.529101 
L 136.627196 190.76581 
L 139.289629 205.436241 
L 139.906535 207.932464 
L 140.068878 208.698287 
L 141.789719 212.325667 
L 142.211812 212.388483 
L 143.997591 212.222724 
L 146.53015 206.675078 
L 147.082118 204.878013 
L 151.043299 188.761086 
L 152.861547 182.414513 
L 153.251171 182.112874 
L 153.900545 180.688605 
L 155.848667 178.535549 
L 156.108417 178.300184 
L 156.140885 178.346037 
L 158.251351 181.496697 
L 160.848847 187.735206 
L 161.920314 191.232131 
L 166.725682 201.041202 
L 171.368706 200.957898 
L 181.693753 188.970695 
L 183.609407 187.882655 
L 185.232842 187.267318 
L 185.622466 187.338926 
L 188.057619 188.609818 
L 196.694293 194.216046 
L 200.5256 195.936894 
L 216.759951 191.005012 
L 232.831958 193.728098 
L 251.631336 192.88701 
L 398.487273 193.120403 
L 398.487273 193.120403 
" clip-path="url(#pfb53a497cf)" style="fill: none; stroke: #2ca02c; stroke-width: 1.5; stroke-linecap: square"/>
   </g>
   <g id="line2d_32">
    <path d="M 73.832727 165.9582 
L 83.703213 167.28599 
L 86.917614 162.085339 
L 89.25536 152.32425 
L 91.365826 145.223596 
L 92.729511 144.940507 
L 93.930853 142.924955 
L 93.995791 142.978346 
L 95.456882 144.316149 
L 97.307598 148.101195 
L 99.872626 158.372496 
L 105.489711 188.819906 
L 107.827458 200.650774 
L 108.217082 202.030532 
L 108.574238 202.330222 
L 108.671644 202.403154 
L 110.327548 210.40148 
L 110.717172 211.002372 
L 112.405545 212.956916 
L 112.925044 214.200556 
L 113.184793 214.913173 
L 114.743291 214.940276 
L 115.035509 213.959794 
L 115.392665 213.250043 
L 117.0161 210.117905 
L 117.145975 209.311426 
L 117.470662 207.341853 
L 120.100627 196.565165 
L 120.847407 192.221308 
L 123.477372 181.839847 
L 124.061808 179.903333 
L 124.321558 178.746127 
L 126.367086 175.985887 
L 127.503491 176.070871 
L 130.620486 180.74019 
L 131.659484 183.133903 
L 132.341327 186.120875 
L 135.068698 193.699539 
L 136.237571 196.865918 
L 137.406445 198.496236 
L 137.7636 199.252897 
L 138.153225 200.547969 
L 139.127286 200.550544 
L 140.296159 200.446882 
L 140.978002 199.919934 
L 141.854657 199.590228 
L 142.27675 198.907261 
L 143.997591 195.231058 
L 144.159935 194.693415 
L 144.77684 192.368882 
L 145.361276 190.694505 
L 148.413334 185.409088 
L 149.549739 185.406043 
L 151.075768 183.688735 
L 151.108237 183.718528 
L 154.03042 186.54971 
L 155.913604 190.176125 
L 156.920134 191.719515 
L 159.51763 196.452974 
L 161.335878 199.256009 
L 162.212533 199.800708 
L 162.407345 199.748495 
L 162.634626 199.751295 
L 164.193123 200.297816 
L 167.082838 200.263418 
L 167.342587 200.105597 
L 168.608867 198.744221 
L 170.686864 196.219025 
L 173.28436 193.304328 
L 175.687044 190.955333 
L 179.388476 188.684558 
L 183.252251 188.671751 
L 183.934094 189.013211 
L 192.343487 193.419169 
L 193.999391 194.206205 
L 199.51907 194.974011 
L 202.473722 194.064876 
L 209.876586 191.894 
L 212.246801 191.366713 
L 224.260221 192.728681 
L 398.487273 192.728681 
L 398.487273 192.728681 
" clip-path="url(#pfb53a497cf)" style="fill: none; stroke: #d62728; stroke-width: 1.5; stroke-linecap: square"/>
   </g>
   <g id="line2d_33">
    <path d="M 73.832727 165.486788 
L 75.618506 164.677091 
L 80.845967 165.314784 
L 83.800619 165.143126 
L 83.995431 164.913013 
L 85.326648 162.475927 
L 86.040959 160.716208 
L 86.463052 160.287637 
L 88.02155 154.592611 
L 89.222892 149.409796 
L 92.794449 118.905503 
L 96.430943 79.337179 
L 97.01538 73.671067 
L 98.833627 66.332435 
L 98.898565 66.43022 
L 99.547939 67.850598 
L 99.77522 68.550099 
L 101.52853 79.317479 
L 101.950623 85.196948 
L 105.26243 142.79308 
L 106.626116 175.422136 
L 107.243021 187.034776 
L 108.996331 220.612002 
L 109.353487 229.792949 
L 109.808048 237.145536 
L 112.632825 272.975074 
L 113.249731 276.436323 
L 114.77576 278.588348 
L 114.808228 278.507107 
L 115.555009 276.343259 
L 116.00957 274.594117 
L 117.178444 262.968348 
L 119.451253 228.516983 
L 121.107157 198.06166 
L 122.113686 179.199807 
L 122.860466 165.678613 
L 123.639715 153.603209 
L 125.165744 132.991654 
L 126.26968 122.801993 
L 127.048929 117.426372 
L 127.406085 116.07768 
L 127.698303 115.465014 
L 127.76324 115.583536 
L 128.964582 118.716197 
L 130.198393 125.432294 
L 130.620486 128.315413 
L 131.724422 140.283138 
L 133.055639 158.333118 
L 133.76995 168.244409 
L 137.211632 216.332114 
L 138.575318 230.095974 
L 139.419504 237.38446 
L 140.361096 243.48222 
L 142.049469 245.138587 
L 142.893655 244.387253 
L 144.77684 231.981269 
L 145.978182 222.70577 
L 146.010651 222.601869 
L 146.140525 220.70229 
L 146.367806 220.70229 
L 146.660025 214.958153 
L 151.303049 167.340556 
L 152.244641 159.840368 
L 153.803139 151.861448 
L 155.556449 150.650106 
L 155.686324 151.051153 
L 158.576038 162.011957 
L 163.900905 203.262988 
L 164.810029 209.087267 
L 165.589277 213.154402 
L 166.043839 215.036337 
L 166.595807 217.785246 
L 167.050369 219.83715 
L 167.147775 219.656203 
L 167.375056 219.338574 
L 168.77121 219.803659 
L 169.842677 219.25576 
L 171.044019 217.898344 
L 171.466112 215.127716 
L 172.667454 208.973468 
L 173.446703 205.925759 
L 176.466292 188.846513 
L 178.511821 179.16605 
L 180.102787 174.55851 
L 182.765221 173.264937 
L 183.479532 173.660362 
L 184.648405 175.936961 
L 186.369246 180.625604 
L 189.908335 192.403574 
L 398.487273 192.403574 
L 398.487273 192.403574 
" clip-path="url(#pfb53a497cf)" style="fill: none; stroke: #9467bd; stroke-width: 1.5; stroke-linecap: square"/>
   </g>
   <g id="line2d_34">
    <path d="M 73.832727 165.317997 
L 74.25482 165.522769 
L 77.631565 166.083258 
L 83.475932 166.056766 
L 87.27477 160.471964 
L 89.677454 146.748775 
L 92.177544 126.737088 
L 97.469942 73.895142 
L 99.937563 56.93244 
L 101.885685 53.597425 
L 104.580588 54.818579 
L 104.7754 56.097523 
L 105.327368 60.729929 
L 106.496241 76.587563 
L 107.76252 96.698943 
L 110.002861 146.83117 
L 113.606887 236.267817 
L 115.230322 269.322946 
L 116.204383 282.837206 
L 116.918694 290.528583 
L 117.827818 295.488 
L 118.087567 295.148759 
L 118.50966 294.427982 
L 119.581128 290.164466 
L 120.230502 283.789433 
L 121.237031 269.525935 
L 123.607247 224.306797 
L 123.834527 218.603749 
L 124.483901 205.713046 
L 125.5229 184.122676 
L 125.912524 175.989956 
L 126.204743 170.366106 
L 126.594367 163.89001 
L 128.185333 136.223477 
L 129.484081 118.426193 
L 130.068518 113.419685 
L 130.717892 108.11484 
L 130.78283 108.132406 
L 132.698483 108.74152 
L 133.997231 117.656762 
L 136.042759 142.702954 
L 136.659665 152.238796 
L 140.036409 204.45011 
L 141.107877 221.917759 
L 141.367626 225.567649 
L 141.789719 229.243272 
L 143.478092 245.513107 
L 144.841777 253.449935 
L 146.2704 253.773806 
L 146.562618 253.519734 
L 147.958773 247.178696 
L 148.802959 240.341896 
L 150.296519 223.887644 
L 150.361457 223.00082 
L 150.426394 223.006028 
L 151.497861 209.263538 
L 153.868076 179.611442 
L 156.498041 151.344561 
L 157.114946 147.791517 
L 157.374696 146.613133 
L 157.991601 144.723571 
L 158.478632 142.899985 
L 158.608507 142.457224 
L 158.673444 142.477812 
L 159.615036 142.875305 
L 159.77738 143.380067 
L 161.303409 149.674681 
L 162.115126 155.105842 
L 163.089187 162.472112 
L 165.426934 184.21865 
L 166.53087 194.813062 
L 167.959493 207.15143 
L 169.063429 214.473236 
L 170.297239 221.248145 
L 170.849207 223.007587 
L 170.979082 223.780537 
L 171.206363 225.117312 
L 173.609047 225.118352 
L 173.836328 223.663458 
L 174.940263 220.788596 
L 176.044199 215.759143 
L 176.693573 212.056013 
L 180.78463 184.291943 
L 181.239192 181.750348 
L 182.862627 174.501332 
L 183.901625 170.47789 
L 185.03803 168.453947 
L 187.180964 168.478719 
L 190.168084 177.836151 
L 194.453953 196.916097 
L 195.070858 199.090633 
L 195.428014 199.938249 
L 196.337138 203.122795 
L 196.726762 203.664099 
L 198.577478 205.593679 
L 200.882756 205.526666 
L 201.759411 203.899697 
L 204.973812 197.363102 
L 206.434904 193.122291 
L 209.876586 186.724599 
L 214.000111 185.483543 
L 214.227392 185.579295 
L 217.766481 188.875772 
L 222.052349 193.382056 
L 225.169345 194.597103 
L 226.27328 194.954388 
L 227.409685 195.170712 
L 233.221583 194.701827 
L 243.871317 191.285011 
L 247.377936 191.331651 
L 258.449764 193.80558 
L 262.021321 193.652892 
L 278.125797 192.256424 
L 364.784761 192.642335 
L 398.487273 192.370565 
L 398.487273 192.370565 
" clip-path="url(#pfb53a497cf)" style="fill: none; stroke: #8c564b; stroke-width: 1.5; stroke-linecap: square"/>
   </g>
   <g id="patch_3">
    <path d="M 57.6 307.584 
L 57.6 41.472 
" style="fill: none; stroke: #000000; stroke-width: 0.8; stroke-linejoin: miter; stroke-linecap: square"/>
   </g>
   <g id="patch_4">
    <path d="M 414.72 307.584 
L 414.72 41.472 
" style="fill: none; stroke: #000000; stroke-width: 0.8; stroke-linejoin: miter; stroke-linecap: square"/>
   </g>
   <g id="patch_5">
    <path d="M 57.6 307.584 
L 414.72 307.584 
" style="fill: none; stroke: #000000; stroke-width: 0.8; stroke-linejoin: miter; stroke-linecap: square"/>
   </g>
   <g id="patch_6">
    <path d="M 57.6 41.472 
L 414.72 41.472 
" style="fill: none; stroke: #000000; stroke-width: 0.8; stroke-linejoin: miter; stroke-linecap: square"/>
   </g>
   <g id="legend_1">
    <g id="patch_7">
     <path d="M 340.77625 137.54075 
L 407.72 137.54075 
Q 409.72 137.54075 409.72 135.54075 
L 409.72 48.472 
Q 409.72 46.472 407.72 46.472 
L 340.77625 46.472 
Q 338.77625 46.472 338.77625 48.472 
L 338.77625 135.54075 
Q 338.77625 137.54075 340.77625 137.54075 
z
" style="fill: #ffffff; opacity: 0.8; stroke: #cccccc; stroke-linejoin: miter"/>
    </g>
    <g id="line2d_35">
     <path d="M 342.77625 54.570438 
L 352.77625 54.570438 
L 362.77625 54.570438 
" style="fill: none; stroke: #1f77b4; stroke-width: 1.5; stroke-linecap: square"/>
    </g>
    <g id="text_17">
     <!-- Free -->
     <g transform="translate(370.77625 58.070438) scale(0.1 -0.1)">
      <defs>
       <path id="DejaVuSans-46" d="M 628 4666 
L 3309 4666 
L 3309 4134 
L 1259 4134 
L 1259 2759 
L 3109 2759 
L 3109 2228 
L 1259 2228 
L 1259 0 
L 628 0 
L 628 4666 
z
" transform="scale(0.015625)"/>
       <path id="DejaVuSans-72" d="M 2631 2963 
Q 2534 3019 2420 3045 
Q 2306 3072 2169 3072 
Q 1681 3072 1420 2755 
Q 1159 2438 1159 1844 
L 1159 0 
L 581 0 
L 581 3500 
L 1159 3500 
L 1159 2956 
Q 1341 3275 1631 3429 
Q 1922 3584 2338 3584 
Q 2397 3584 2469 3576 
Q 2541 3569 2628 3553 
L 2631 2963 
z
" transform="scale(0.015625)"/>
      </defs>
      <use xlink:href="#DejaVuSans-46"/>
      <use xlink:href="#DejaVuSans-72" x="50.269531"/>
      <use xlink:href="#DejaVuSans-65" x="89.132812"/>
      <use xlink:href="#DejaVuSans-65" x="150.65625"/>
     </g>
    </g>
    <g id="line2d_36">
     <path d="M 342.77625 69.248563 
L 352.77625 69.248563 
L 362.77625 69.248563 
" style="fill: none; stroke: #ff7f0e; stroke-width: 1.5; stroke-linecap: square"/>
    </g>
    <g id="text_18">
     <!-- Locked -->
     <g transform="translate(370.77625 72.748563) scale(0.1 -0.1)">
      <defs>
       <path id="DejaVuSans-4c" d="M 628 4666 
L 1259 4666 
L 1259 531 
L 3531 531 
L 3531 0 
L 628 0 
L 628 4666 
z
" transform="scale(0.015625)"/>
       <path id="DejaVuSans-6b" d="M 581 4863 
L 1159 4863 
L 1159 1991 
L 2875 3500 
L 3609 3500 
L 1753 1863 
L 3688 0 
L 2938 0 
L 1159 1709 
L 1159 0 
L 581 0 
L 581 4863 
z
" transform="scale(0.015625)"/>
      </defs>
      <use xlink:href="#DejaVuSans-4c"/>
      <use xlink:href="#DejaVuSans-6f" x="53.962891"/>
      <use xlink:href="#DejaVuSans-63" x="115.144531"/>
      <use xlink:href="#DejaVuSans-6b" x="170.125"/>
      <use xlink:href="#DejaVuSans-65" x="224.410156"/>
      <use xlink:href="#DejaVuSans-64" x="285.933594"/>
     </g>
    </g>
    <g id="line2d_37">
     <path d="M 342.77625 83.926688 
L 352.77625 83.926688 
L 362.77625 83.926688 
" style="fill: none; stroke: #2ca02c; stroke-width: 1.5; stroke-linecap: square"/>
    </g>
    <g id="text_19">
     <!-- Pre -->
     <g transform="translate(370.77625 87.426688) scale(0.1 -0.1)">
      <defs>
       <path id="DejaVuSans-50" d="M 1259 4147 
L 1259 2394 
L 2053 2394 
Q 2494 2394 2734 2622 
Q 2975 2850 2975 3272 
Q 2975 3691 2734 3919 
Q 2494 4147 2053 4147 
L 1259 4147 
z
M 628 4666 
L 2053 4666 
Q 2838 4666 3239 4311 
Q 3641 3956 3641 3272 
Q 3641 2581 3239 2228 
Q 2838 1875 2053 1875 
L 1259 1875 
L 1259 0 
L 628 0 
L 628 4666 
z
" transform="scale(0.015625)"/>
      </defs>
      <use xlink:href="#DejaVuSans-50"/>
      <use xlink:href="#DejaVuSans-72" x="58.552734"/>
      <use xlink:href="#DejaVuSans-65" x="97.416016"/>
     </g>
    </g>
    <g id="line2d_38">
     <path d="M 342.77625 98.604813 
L 352.77625 98.604813 
L 362.77625 98.604813 
" style="fill: none; stroke: #d62728; stroke-width: 1.5; stroke-linecap: square"/>
    </g>
    <g id="text_20">
     <!-- Rel0 -->
     <g transform="translate(370.77625 102.104813) scale(0.1 -0.1)">
      <defs>
       <path id="DejaVuSans-52" d="M 2841 2188 
Q 3044 2119 3236 1894 
Q 3428 1669 3622 1275 
L 4263 0 
L 3584 0 
L 2988 1197 
Q 2756 1666 2539 1819 
Q 2322 1972 1947 1972 
L 1259 1972 
L 1259 0 
L 628 0 
L 628 4666 
L 2053 4666 
Q 2853 4666 3247 4331 
Q 3641 3997 3641 3322 
Q 3641 2881 3436 2590 
Q 3231 2300 2841 2188 
z
M 1259 4147 
L 1259 2491 
L 2053 2491 
Q 2509 2491 2742 2702 
Q 2975 2913 2975 3322 
Q 2975 3731 2742 3939 
Q 2509 4147 2053 4147 
L 1259 4147 
z
" transform="scale(0.015625)"/>
       <path id="DejaVuSans-6c" d="M 603 4863 
L 1178 4863 
L 1178 0 
L 603 0 
L 603 4863 
z
" transform="scale(0.015625)"/>
      </defs>
      <use xlink:href="#DejaVuSans-52"/>
      <use xlink:href="#DejaVuSans-65" x="64.982422"/>
      <use xlink:href="#DejaVuSans-6c" x="126.505859"/>
      <use xlink:href="#DejaVuSans-30" x="154.289062"/>
     </g>
    </g>
    <g id="line2d_39">
     <path d="M 342.77625 113.282938 
L 352.77625 113.282938 
L 362.77625 113.282938 
" style="fill: none; stroke: #9467bd; stroke-width: 1.5; stroke-linecap: square"/>
    </g>
    <g id="text_21">
     <!-- Rel50 -->
     <g transform="translate(370.77625 116.782938) scale(0.1 -0.1)">
      <use xlink:href="#DejaVuSans-52"/>
      <use xlink:href="#DejaVuSans-65" x="64.982422"/>
      <use xlink:href="#DejaVuSans-6c" x="126.505859"/>
      <use xlink:href="#DejaVuSans-35" x="154.289062"/>
      <use xlink:href="#DejaVuSans-30" x="217.912109"/>
     </g>
    </g>
    <g id="line2d_40">
     <path d="M 342.77625 127.961063 
L 352.77625 127.961063 
L 362.77625 127.961063 
" style="fill: none; stroke: #8c564b; stroke-width: 1.5; stroke-linecap: square"/>
    </g>
    <g id="text_22">
     <!-- Rel100 -->
     <g transform="translate(370.77625 131.461063) scale(0.1 -0.1)">
      <use xlink:href="#DejaVuSans-52"/>
      <use xlink:href="#DejaVuSans-65" x="64.982422"/>
      <use xlink:href="#DejaVuSans-6c" x="126.505859"/>
      <use xlink:href="#DejaVuSans-31" x="154.289062"/>
      <use xlink:href="#DejaVuSans-30" x="217.912109"/>
      <use xlink:href="#DejaVuSans-30" x="281.535156"/>
     </g>
    </g>
   </g>
  </g>
 </g>
 <defs>
  <clipPath id="pfb53a497cf">
   <rect x="57.6" y="41.472" width="357.12" height="266.112"/>
  </clipPath>
 </defs>
</svg>
