<?xml version="1.0" encoding="utf-8" standalone="no"?>
<!DOCTYPE svg PUBLIC "-//W3C//DTD SVG 1.1//EN"
  "http://www.w3.org/Graphics/SVG/1.1/DTD/svg11.dtd">
<svg xmlns:xlink="http://www.w3.org/1999/xlink" width="460.8pt" height="345.6pt" viewBox="0 0 460.8 345.6" xmlns="http://www.w3.org/2000/svg" version="1.1">
 <metadata>
  <rdf:RDF xmlns:dc="http://purl.org/dc/elements/1.1/" xmlns:cc="http://creativecommons.org/ns#" xmlns:rdf="http://www.w3.org/1999/02/22-rdf-syntax-ns#">
   <cc:Work>
    <dc:type rdf:resource="http://purl.org/dc/dcmitype/StillImage"/>
    <dc:date>2023-06-01T14:43:21.771841</dc:date>
    <dc:format>image/svg+xml</dc:format>
    <dc:creator>
     <cc:Agent>
      <dc:title>Matplotlib v3.6.2, https://matplotlib.org/</dc:title>
     </cc:Agent>
    </dc:creator>
   </cc:Work>
  </rdf:RDF>
 </metadata>
 <defs>
  <style type="text/css">*{stroke-linejoin: round; stroke-linecap: butt}</style>
 </defs>
 <g id="figure_1">
  <g id="patch_1">
   <path d="M 0 345.6 
L 460.8 345.6 
L 460.8 0 
L 0 0 
z
" style="fill: #ffffff"/>
  </g>
  <g id="axes_1">
   <g id="patch_2">
    <path d="M 57.6 307.584 
L 414.72 307.584 
L 414.72 41.472 
L 57.6 41.472 
z
" style="fill: #ffffff"/>
   </g>
   <g id="matplotlib.axis_1">
    <g id="xtick_1">
     <g id="line2d_1">
      <path d="M 73.832727 307.584 
L 73.832727 41.472 
" clip-path="url(#paa09b7bc77)" style="fill: none; stroke: #b0b0b0; stroke-width: 0.8; stroke-linecap: square"/>
     </g>
     <g id="line2d_2">
      <defs>
       <path id="me45a81979e" d="M 0 0 
L 0 3.5 
" style="stroke: #000000; stroke-width: 0.8"/>
      </defs>
      <g>
       <use xlink:href="#me45a81979e" x="73.832727" y="307.584" style="stroke: #000000; stroke-width: 0.8"/>
      </g>
     </g>
     <g id="text_1">
      <!-- 0.0 -->
      <g transform="translate(65.881165 322.182437) scale(0.1 -0.1)">
       <defs>
        <path id="DejaVuSans-30" d="M 2034 4250 
Q 1547 4250 1301 3770 
Q 1056 3291 1056 2328 
Q 1056 1369 1301 889 
Q 1547 409 2034 409 
Q 2525 409 2770 889 
Q 3016 1369 3016 2328 
Q 3016 3291 2770 3770 
Q 2525 4250 2034 4250 
z
M 2034 4750 
Q 2819 4750 3233 4129 
Q 3647 3509 3647 2328 
Q 3647 1150 3233 529 
Q 2819 -91 2034 -91 
Q 1250 -91 836 529 
Q 422 1150 422 2328 
Q 422 3509 836 4129 
Q 1250 4750 2034 4750 
z
" transform="scale(0.015625)"/>
        <path id="DejaVuSans-2e" d="M 684 794 
L 1344 794 
L 1344 0 
L 684 0 
L 684 794 
z
" transform="scale(0.015625)"/>
       </defs>
       <use xlink:href="#DejaVuSans-30"/>
       <use xlink:href="#DejaVuSans-2e" x="63.623047"/>
       <use xlink:href="#DejaVuSans-30" x="95.410156"/>
      </g>
     </g>
    </g>
    <g id="xtick_2">
     <g id="line2d_3">
      <path d="M 125.093971 307.584 
L 125.093971 41.472 
" clip-path="url(#paa09b7bc77)" style="fill: none; stroke: #b0b0b0; stroke-width: 0.8; stroke-linecap: square"/>
     </g>
     <g id="line2d_4">
      <g>
       <use xlink:href="#me45a81979e" x="125.093971" y="307.584" style="stroke: #000000; stroke-width: 0.8"/>
      </g>
     </g>
     <g id="text_2">
      <!-- 0.5 -->
      <g transform="translate(117.142409 322.182437) scale(0.1 -0.1)">
       <defs>
        <path id="DejaVuSans-35" d="M 691 4666 
L 3169 4666 
L 3169 4134 
L 1269 4134 
L 1269 2991 
Q 1406 3038 1543 3061 
Q 1681 3084 1819 3084 
Q 2600 3084 3056 2656 
Q 3513 2228 3513 1497 
Q 3513 744 3044 326 
Q 2575 -91 1722 -91 
Q 1428 -91 1123 -41 
Q 819 9 494 109 
L 494 744 
Q 775 591 1075 516 
Q 1375 441 1709 441 
Q 2250 441 2565 725 
Q 2881 1009 2881 1497 
Q 2881 1984 2565 2268 
Q 2250 2553 1709 2553 
Q 1456 2553 1204 2497 
Q 953 2441 691 2322 
L 691 4666 
z
" transform="scale(0.015625)"/>
       </defs>
       <use xlink:href="#DejaVuSans-30"/>
       <use xlink:href="#DejaVuSans-2e" x="63.623047"/>
       <use xlink:href="#DejaVuSans-35" x="95.410156"/>
      </g>
     </g>
    </g>
    <g id="xtick_3">
     <g id="line2d_5">
      <path d="M 176.355215 307.584 
L 176.355215 41.472 
" clip-path="url(#paa09b7bc77)" style="fill: none; stroke: #b0b0b0; stroke-width: 0.8; stroke-linecap: square"/>
     </g>
     <g id="line2d_6">
      <g>
       <use xlink:href="#me45a81979e" x="176.355215" y="307.584" style="stroke: #000000; stroke-width: 0.8"/>
      </g>
     </g>
     <g id="text_3">
      <!-- 1.0 -->
      <g transform="translate(168.403653 322.182437) scale(0.1 -0.1)">
       <defs>
        <path id="DejaVuSans-31" d="M 794 531 
L 1825 531 
L 1825 4091 
L 703 3866 
L 703 4441 
L 1819 4666 
L 2450 4666 
L 2450 531 
L 3481 531 
L 3481 0 
L 794 0 
L 794 531 
z
" transform="scale(0.015625)"/>
       </defs>
       <use xlink:href="#DejaVuSans-31"/>
       <use xlink:href="#DejaVuSans-2e" x="63.623047"/>
       <use xlink:href="#DejaVuSans-30" x="95.410156"/>
      </g>
     </g>
    </g>
    <g id="xtick_4">
     <g id="line2d_7">
      <path d="M 227.616459 307.584 
L 227.616459 41.472 
" clip-path="url(#paa09b7bc77)" style="fill: none; stroke: #b0b0b0; stroke-width: 0.8; stroke-linecap: square"/>
     </g>
     <g id="line2d_8">
      <g>
       <use xlink:href="#me45a81979e" x="227.616459" y="307.584" style="stroke: #000000; stroke-width: 0.8"/>
      </g>
     </g>
     <g id="text_4">
      <!-- 1.5 -->
      <g transform="translate(219.664897 322.182437) scale(0.1 -0.1)">
       <use xlink:href="#DejaVuSans-31"/>
       <use xlink:href="#DejaVuSans-2e" x="63.623047"/>
       <use xlink:href="#DejaVuSans-35" x="95.410156"/>
      </g>
     </g>
    </g>
    <g id="xtick_5">
     <g id="line2d_9">
      <path d="M 278.877703 307.584 
L 278.877703 41.472 
" clip-path="url(#paa09b7bc77)" style="fill: none; stroke: #b0b0b0; stroke-width: 0.8; stroke-linecap: square"/>
     </g>
     <g id="line2d_10">
      <g>
       <use xlink:href="#me45a81979e" x="278.877703" y="307.584" style="stroke: #000000; stroke-width: 0.8"/>
      </g>
     </g>
     <g id="text_5">
      <!-- 2.0 -->
      <g transform="translate(270.926141 322.182437) scale(0.1 -0.1)">
       <defs>
        <path id="DejaVuSans-32" d="M 1228 531 
L 3431 531 
L 3431 0 
L 469 0 
L 469 531 
Q 828 903 1448 1529 
Q 2069 2156 2228 2338 
Q 2531 2678 2651 2914 
Q 2772 3150 2772 3378 
Q 2772 3750 2511 3984 
Q 2250 4219 1831 4219 
Q 1534 4219 1204 4116 
Q 875 4013 500 3803 
L 500 4441 
Q 881 4594 1212 4672 
Q 1544 4750 1819 4750 
Q 2544 4750 2975 4387 
Q 3406 4025 3406 3419 
Q 3406 3131 3298 2873 
Q 3191 2616 2906 2266 
Q 2828 2175 2409 1742 
Q 1991 1309 1228 531 
z
" transform="scale(0.015625)"/>
       </defs>
       <use xlink:href="#DejaVuSans-32"/>
       <use xlink:href="#DejaVuSans-2e" x="63.623047"/>
       <use xlink:href="#DejaVuSans-30" x="95.410156"/>
      </g>
     </g>
    </g>
    <g id="xtick_6">
     <g id="line2d_11">
      <path d="M 330.138947 307.584 
L 330.138947 41.472 
" clip-path="url(#paa09b7bc77)" style="fill: none; stroke: #b0b0b0; stroke-width: 0.8; stroke-linecap: square"/>
     </g>
     <g id="line2d_12">
      <g>
       <use xlink:href="#me45a81979e" x="330.138947" y="307.584" style="stroke: #000000; stroke-width: 0.8"/>
      </g>
     </g>
     <g id="text_6">
      <!-- 2.5 -->
      <g transform="translate(322.187385 322.182437) scale(0.1 -0.1)">
       <use xlink:href="#DejaVuSans-32"/>
       <use xlink:href="#DejaVuSans-2e" x="63.623047"/>
       <use xlink:href="#DejaVuSans-35" x="95.410156"/>
      </g>
     </g>
    </g>
    <g id="xtick_7">
     <g id="line2d_13">
      <path d="M 381.400191 307.584 
L 381.400191 41.472 
" clip-path="url(#paa09b7bc77)" style="fill: none; stroke: #b0b0b0; stroke-width: 0.8; stroke-linecap: square"/>
     </g>
     <g id="line2d_14">
      <g>
       <use xlink:href="#me45a81979e" x="381.400191" y="307.584" style="stroke: #000000; stroke-width: 0.8"/>
      </g>
     </g>
     <g id="text_7">
      <!-- 3.0 -->
      <g transform="translate(373.448629 322.182437) scale(0.1 -0.1)">
       <defs>
        <path id="DejaVuSans-33" d="M 2597 2516 
Q 3050 2419 3304 2112 
Q 3559 1806 3559 1356 
Q 3559 666 3084 287 
Q 2609 -91 1734 -91 
Q 1441 -91 1130 -33 
Q 819 25 488 141 
L 488 750 
Q 750 597 1062 519 
Q 1375 441 1716 441 
Q 2309 441 2620 675 
Q 2931 909 2931 1356 
Q 2931 1769 2642 2001 
Q 2353 2234 1838 2234 
L 1294 2234 
L 1294 2753 
L 1863 2753 
Q 2328 2753 2575 2939 
Q 2822 3125 2822 3475 
Q 2822 3834 2567 4026 
Q 2313 4219 1838 4219 
Q 1578 4219 1281 4162 
Q 984 4106 628 3988 
L 628 4550 
Q 988 4650 1302 4700 
Q 1616 4750 1894 4750 
Q 2613 4750 3031 4423 
Q 3450 4097 3450 3541 
Q 3450 3153 3228 2886 
Q 3006 2619 2597 2516 
z
" transform="scale(0.015625)"/>
       </defs>
       <use xlink:href="#DejaVuSans-33"/>
       <use xlink:href="#DejaVuSans-2e" x="63.623047"/>
       <use xlink:href="#DejaVuSans-30" x="95.410156"/>
      </g>
     </g>
    </g>
    <g id="text_8">
     <!-- Time [s] -->
     <g transform="translate(215.831094 335.860562) scale(0.1 -0.1)">
      <defs>
       <path id="DejaVuSans-54" d="M -19 4666 
L 3928 4666 
L 3928 4134 
L 2272 4134 
L 2272 0 
L 1638 0 
L 1638 4134 
L -19 4134 
L -19 4666 
z
" transform="scale(0.015625)"/>
       <path id="DejaVuSans-69" d="M 603 3500 
L 1178 3500 
L 1178 0 
L 603 0 
L 603 3500 
z
M 603 4863 
L 1178 4863 
L 1178 4134 
L 603 4134 
L 603 4863 
z
" transform="scale(0.015625)"/>
       <path id="DejaVuSans-6d" d="M 3328 2828 
Q 3544 3216 3844 3400 
Q 4144 3584 4550 3584 
Q 5097 3584 5394 3201 
Q 5691 2819 5691 2113 
L 5691 0 
L 5113 0 
L 5113 2094 
Q 5113 2597 4934 2840 
Q 4756 3084 4391 3084 
Q 3944 3084 3684 2787 
Q 3425 2491 3425 1978 
L 3425 0 
L 2847 0 
L 2847 2094 
Q 2847 2600 2669 2842 
Q 2491 3084 2119 3084 
Q 1678 3084 1418 2786 
Q 1159 2488 1159 1978 
L 1159 0 
L 581 0 
L 581 3500 
L 1159 3500 
L 1159 2956 
Q 1356 3278 1631 3431 
Q 1906 3584 2284 3584 
Q 2666 3584 2933 3390 
Q 3200 3197 3328 2828 
z
" transform="scale(0.015625)"/>
       <path id="DejaVuSans-65" d="M 3597 1894 
L 3597 1613 
L 953 1613 
Q 991 1019 1311 708 
Q 1631 397 2203 397 
Q 2534 397 2845 478 
Q 3156 559 3463 722 
L 3463 178 
Q 3153 47 2828 -22 
Q 2503 -91 2169 -91 
Q 1331 -91 842 396 
Q 353 884 353 1716 
Q 353 2575 817 3079 
Q 1281 3584 2069 3584 
Q 2775 3584 3186 3129 
Q 3597 2675 3597 1894 
z
M 3022 2063 
Q 3016 2534 2758 2815 
Q 2500 3097 2075 3097 
Q 1594 3097 1305 2825 
Q 1016 2553 972 2059 
L 3022 2063 
z
" transform="scale(0.015625)"/>
       <path id="DejaVuSans-20" transform="scale(0.015625)"/>
       <path id="DejaVuSans-5b" d="M 550 4863 
L 1875 4863 
L 1875 4416 
L 1125 4416 
L 1125 -397 
L 1875 -397 
L 1875 -844 
L 550 -844 
L 550 4863 
z
" transform="scale(0.015625)"/>
       <path id="DejaVuSans-73" d="M 2834 3397 
L 2834 2853 
Q 2591 2978 2328 3040 
Q 2066 3103 1784 3103 
Q 1356 3103 1142 2972 
Q 928 2841 928 2578 
Q 928 2378 1081 2264 
Q 1234 2150 1697 2047 
L 1894 2003 
Q 2506 1872 2764 1633 
Q 3022 1394 3022 966 
Q 3022 478 2636 193 
Q 2250 -91 1575 -91 
Q 1294 -91 989 -36 
Q 684 19 347 128 
L 347 722 
Q 666 556 975 473 
Q 1284 391 1588 391 
Q 1994 391 2212 530 
Q 2431 669 2431 922 
Q 2431 1156 2273 1281 
Q 2116 1406 1581 1522 
L 1381 1569 
Q 847 1681 609 1914 
Q 372 2147 372 2553 
Q 372 3047 722 3315 
Q 1072 3584 1716 3584 
Q 2034 3584 2315 3537 
Q 2597 3491 2834 3397 
z
" transform="scale(0.015625)"/>
       <path id="DejaVuSans-5d" d="M 1947 4863 
L 1947 -844 
L 622 -844 
L 622 -397 
L 1369 -397 
L 1369 4416 
L 622 4416 
L 622 4863 
L 1947 4863 
z
" transform="scale(0.015625)"/>
      </defs>
      <use xlink:href="#DejaVuSans-54"/>
      <use xlink:href="#DejaVuSans-69" x="57.958984"/>
      <use xlink:href="#DejaVuSans-6d" x="85.742188"/>
      <use xlink:href="#DejaVuSans-65" x="183.154297"/>
      <use xlink:href="#DejaVuSans-20" x="244.677734"/>
      <use xlink:href="#DejaVuSans-5b" x="276.464844"/>
      <use xlink:href="#DejaVuSans-73" x="315.478516"/>
      <use xlink:href="#DejaVuSans-5d" x="367.578125"/>
     </g>
    </g>
   </g>
   <g id="matplotlib.axis_2">
    <g id="ytick_1">
     <g id="line2d_15">
      <path d="M 57.6 255.303979 
L 414.72 255.303979 
" clip-path="url(#paa09b7bc77)" style="fill: none; stroke: #b0b0b0; stroke-width: 0.8; stroke-linecap: square"/>
     </g>
     <g id="line2d_16">
      <defs>
       <path id="mee3922fe33" d="M 0 0 
L -3.5 0 
" style="stroke: #000000; stroke-width: 0.8"/>
      </defs>
      <g>
       <use xlink:href="#mee3922fe33" x="57.6" y="255.303979" style="stroke: #000000; stroke-width: 0.8"/>
      </g>
     </g>
     <g id="text_9">
      <!-- −0.05 -->
      <g transform="translate(19.954687 259.103197) scale(0.1 -0.1)">
       <defs>
        <path id="DejaVuSans-2212" d="M 678 2272 
L 4684 2272 
L 4684 1741 
L 678 1741 
L 678 2272 
z
" transform="scale(0.015625)"/>
       </defs>
       <use xlink:href="#DejaVuSans-2212"/>
       <use xlink:href="#DejaVuSans-30" x="83.789062"/>
       <use xlink:href="#DejaVuSans-2e" x="147.412109"/>
       <use xlink:href="#DejaVuSans-30" x="179.199219"/>
       <use xlink:href="#DejaVuSans-35" x="242.822266"/>
      </g>
     </g>
    </g>
    <g id="ytick_2">
     <g id="line2d_17">
      <path d="M 57.6 200.85705 
L 414.72 200.85705 
" clip-path="url(#paa09b7bc77)" style="fill: none; stroke: #b0b0b0; stroke-width: 0.8; stroke-linecap: square"/>
     </g>
     <g id="line2d_18">
      <g>
       <use xlink:href="#mee3922fe33" x="57.6" y="200.85705" style="stroke: #000000; stroke-width: 0.8"/>
      </g>
     </g>
     <g id="text_10">
      <!-- 0.00 -->
      <g transform="translate(28.334375 204.656269) scale(0.1 -0.1)">
       <use xlink:href="#DejaVuSans-30"/>
       <use xlink:href="#DejaVuSans-2e" x="63.623047"/>
       <use xlink:href="#DejaVuSans-30" x="95.410156"/>
       <use xlink:href="#DejaVuSans-30" x="159.033203"/>
      </g>
     </g>
    </g>
    <g id="ytick_3">
     <g id="line2d_19">
      <path d="M 57.6 146.410121 
L 414.72 146.410121 
" clip-path="url(#paa09b7bc77)" style="fill: none; stroke: #b0b0b0; stroke-width: 0.8; stroke-linecap: square"/>
     </g>
     <g id="line2d_20">
      <g>
       <use xlink:href="#mee3922fe33" x="57.6" y="146.410121" style="stroke: #000000; stroke-width: 0.8"/>
      </g>
     </g>
     <g id="text_11">
      <!-- 0.05 -->
      <g transform="translate(28.334375 150.20934) scale(0.1 -0.1)">
       <use xlink:href="#DejaVuSans-30"/>
       <use xlink:href="#DejaVuSans-2e" x="63.623047"/>
       <use xlink:href="#DejaVuSans-30" x="95.410156"/>
       <use xlink:href="#DejaVuSans-35" x="159.033203"/>
      </g>
     </g>
    </g>
    <g id="ytick_4">
     <g id="line2d_21">
      <path d="M 57.6 91.963193 
L 414.72 91.963193 
" clip-path="url(#paa09b7bc77)" style="fill: none; stroke: #b0b0b0; stroke-width: 0.8; stroke-linecap: square"/>
     </g>
     <g id="line2d_22">
      <g>
       <use xlink:href="#mee3922fe33" x="57.6" y="91.963193" style="stroke: #000000; stroke-width: 0.8"/>
      </g>
     </g>
     <g id="text_12">
      <!-- 0.10 -->
      <g transform="translate(28.334375 95.762411) scale(0.1 -0.1)">
       <use xlink:href="#DejaVuSans-30"/>
       <use xlink:href="#DejaVuSans-2e" x="63.623047"/>
       <use xlink:href="#DejaVuSans-31" x="95.410156"/>
       <use xlink:href="#DejaVuSans-30" x="159.033203"/>
      </g>
     </g>
    </g>
    <g id="text_13">
     <!-- Bending moment coefficient [-] -->
     <g transform="translate(13.875 252.726438) rotate(-90) scale(0.1 -0.1)">
      <defs>
       <path id="DejaVuSans-42" d="M 1259 2228 
L 1259 519 
L 2272 519 
Q 2781 519 3026 730 
Q 3272 941 3272 1375 
Q 3272 1813 3026 2020 
Q 2781 2228 2272 2228 
L 1259 2228 
z
M 1259 4147 
L 1259 2741 
L 2194 2741 
Q 2656 2741 2882 2914 
Q 3109 3088 3109 3444 
Q 3109 3797 2882 3972 
Q 2656 4147 2194 4147 
L 1259 4147 
z
M 628 4666 
L 2241 4666 
Q 2963 4666 3353 4366 
Q 3744 4066 3744 3513 
Q 3744 3084 3544 2831 
Q 3344 2578 2956 2516 
Q 3422 2416 3680 2098 
Q 3938 1781 3938 1306 
Q 3938 681 3513 340 
Q 3088 0 2303 0 
L 628 0 
L 628 4666 
z
" transform="scale(0.015625)"/>
       <path id="DejaVuSans-6e" d="M 3513 2113 
L 3513 0 
L 2938 0 
L 2938 2094 
Q 2938 2591 2744 2837 
Q 2550 3084 2163 3084 
Q 1697 3084 1428 2787 
Q 1159 2491 1159 1978 
L 1159 0 
L 581 0 
L 581 3500 
L 1159 3500 
L 1159 2956 
Q 1366 3272 1645 3428 
Q 1925 3584 2291 3584 
Q 2894 3584 3203 3211 
Q 3513 2838 3513 2113 
z
" transform="scale(0.015625)"/>
       <path id="DejaVuSans-64" d="M 2906 2969 
L 2906 4863 
L 3481 4863 
L 3481 0 
L 2906 0 
L 2906 525 
Q 2725 213 2448 61 
Q 2172 -91 1784 -91 
Q 1150 -91 751 415 
Q 353 922 353 1747 
Q 353 2572 751 3078 
Q 1150 3584 1784 3584 
Q 2172 3584 2448 3432 
Q 2725 3281 2906 2969 
z
M 947 1747 
Q 947 1113 1208 752 
Q 1469 391 1925 391 
Q 2381 391 2643 752 
Q 2906 1113 2906 1747 
Q 2906 2381 2643 2742 
Q 2381 3103 1925 3103 
Q 1469 3103 1208 2742 
Q 947 2381 947 1747 
z
" transform="scale(0.015625)"/>
       <path id="DejaVuSans-67" d="M 2906 1791 
Q 2906 2416 2648 2759 
Q 2391 3103 1925 3103 
Q 1463 3103 1205 2759 
Q 947 2416 947 1791 
Q 947 1169 1205 825 
Q 1463 481 1925 481 
Q 2391 481 2648 825 
Q 2906 1169 2906 1791 
z
M 3481 434 
Q 3481 -459 3084 -895 
Q 2688 -1331 1869 -1331 
Q 1566 -1331 1297 -1286 
Q 1028 -1241 775 -1147 
L 775 -588 
Q 1028 -725 1275 -790 
Q 1522 -856 1778 -856 
Q 2344 -856 2625 -561 
Q 2906 -266 2906 331 
L 2906 616 
Q 2728 306 2450 153 
Q 2172 0 1784 0 
Q 1141 0 747 490 
Q 353 981 353 1791 
Q 353 2603 747 3093 
Q 1141 3584 1784 3584 
Q 2172 3584 2450 3431 
Q 2728 3278 2906 2969 
L 2906 3500 
L 3481 3500 
L 3481 434 
z
" transform="scale(0.015625)"/>
       <path id="DejaVuSans-6f" d="M 1959 3097 
Q 1497 3097 1228 2736 
Q 959 2375 959 1747 
Q 959 1119 1226 758 
Q 1494 397 1959 397 
Q 2419 397 2687 759 
Q 2956 1122 2956 1747 
Q 2956 2369 2687 2733 
Q 2419 3097 1959 3097 
z
M 1959 3584 
Q 2709 3584 3137 3096 
Q 3566 2609 3566 1747 
Q 3566 888 3137 398 
Q 2709 -91 1959 -91 
Q 1206 -91 779 398 
Q 353 888 353 1747 
Q 353 2609 779 3096 
Q 1206 3584 1959 3584 
z
" transform="scale(0.015625)"/>
       <path id="DejaVuSans-74" d="M 1172 4494 
L 1172 3500 
L 2356 3500 
L 2356 3053 
L 1172 3053 
L 1172 1153 
Q 1172 725 1289 603 
Q 1406 481 1766 481 
L 2356 481 
L 2356 0 
L 1766 0 
Q 1100 0 847 248 
Q 594 497 594 1153 
L 594 3053 
L 172 3053 
L 172 3500 
L 594 3500 
L 594 4494 
L 1172 4494 
z
" transform="scale(0.015625)"/>
       <path id="DejaVuSans-63" d="M 3122 3366 
L 3122 2828 
Q 2878 2963 2633 3030 
Q 2388 3097 2138 3097 
Q 1578 3097 1268 2742 
Q 959 2388 959 1747 
Q 959 1106 1268 751 
Q 1578 397 2138 397 
Q 2388 397 2633 464 
Q 2878 531 3122 666 
L 3122 134 
Q 2881 22 2623 -34 
Q 2366 -91 2075 -91 
Q 1284 -91 818 406 
Q 353 903 353 1747 
Q 353 2603 823 3093 
Q 1294 3584 2113 3584 
Q 2378 3584 2631 3529 
Q 2884 3475 3122 3366 
z
" transform="scale(0.015625)"/>
       <path id="DejaVuSans-66" d="M 2375 4863 
L 2375 4384 
L 1825 4384 
Q 1516 4384 1395 4259 
Q 1275 4134 1275 3809 
L 1275 3500 
L 2222 3500 
L 2222 3053 
L 1275 3053 
L 1275 0 
L 697 0 
L 697 3053 
L 147 3053 
L 147 3500 
L 697 3500 
L 697 3744 
Q 697 4328 969 4595 
Q 1241 4863 1831 4863 
L 2375 4863 
z
" transform="scale(0.015625)"/>
       <path id="DejaVuSans-2d" d="M 313 2009 
L 1997 2009 
L 1997 1497 
L 313 1497 
L 313 2009 
z
" transform="scale(0.015625)"/>
      </defs>
      <use xlink:href="#DejaVuSans-42"/>
      <use xlink:href="#DejaVuSans-65" x="68.603516"/>
      <use xlink:href="#DejaVuSans-6e" x="130.126953"/>
      <use xlink:href="#DejaVuSans-64" x="193.505859"/>
      <use xlink:href="#DejaVuSans-69" x="256.982422"/>
      <use xlink:href="#DejaVuSans-6e" x="284.765625"/>
      <use xlink:href="#DejaVuSans-67" x="348.144531"/>
      <use xlink:href="#DejaVuSans-20" x="411.621094"/>
      <use xlink:href="#DejaVuSans-6d" x="443.408203"/>
      <use xlink:href="#DejaVuSans-6f" x="540.820312"/>
      <use xlink:href="#DejaVuSans-6d" x="602.001953"/>
      <use xlink:href="#DejaVuSans-65" x="699.414062"/>
      <use xlink:href="#DejaVuSans-6e" x="760.9375"/>
      <use xlink:href="#DejaVuSans-74" x="824.316406"/>
      <use xlink:href="#DejaVuSans-20" x="863.525391"/>
      <use xlink:href="#DejaVuSans-63" x="895.3125"/>
      <use xlink:href="#DejaVuSans-6f" x="950.292969"/>
      <use xlink:href="#DejaVuSans-65" x="1011.474609"/>
      <use xlink:href="#DejaVuSans-66" x="1072.998047"/>
      <use xlink:href="#DejaVuSans-66" x="1108.203125"/>
      <use xlink:href="#DejaVuSans-69" x="1143.408203"/>
      <use xlink:href="#DejaVuSans-63" x="1171.191406"/>
      <use xlink:href="#DejaVuSans-69" x="1226.171875"/>
      <use xlink:href="#DejaVuSans-65" x="1253.955078"/>
      <use xlink:href="#DejaVuSans-6e" x="1315.478516"/>
      <use xlink:href="#DejaVuSans-74" x="1378.857422"/>
      <use xlink:href="#DejaVuSans-20" x="1418.066406"/>
      <use xlink:href="#DejaVuSans-5b" x="1449.853516"/>
      <use xlink:href="#DejaVuSans-2d" x="1488.867188"/>
      <use xlink:href="#DejaVuSans-5d" x="1524.951172"/>
     </g>
    </g>
   </g>
   <g id="line2d_23">
    <path d="M 73.832727 197.637839 
L 76.00813 197.809433 
L 80.586217 197.859468 
L 81.560278 197.978382 
L 82.242121 197.998841 
L 82.794089 196.491674 
L 83.703213 194.492636 
L 84.449993 193.666598 
L 84.709742 193.403963 
L 85.359116 190.814947 
L 86.52799 184.991779 
L 86.982551 178.89621 
L 89.450173 159.766138 
L 90.196953 149.962834 
L 92.989261 124.11066 
L 95.359476 112.27085 
L 95.424414 112.394633 
L 96.885505 115.340413 
L 98.995971 128.806522 
L 100.749281 148.327894 
L 103.736401 190.690339 
L 104.223432 199.400089 
L 105.100087 211.096665 
L 105.554649 218.415058 
L 106.431303 230.487326 
L 107.048209 237.789747 
L 108.411894 248.652511 
L 109.418424 251.562556 
L 110.392485 251.993606 
L 111.106796 248.850298 
L 112.113326 242.158836 
L 112.925044 236.40361 
L 114.02898 221.24401 
L 114.288729 218.531882 
L 114.386135 217.599682 
L 115.749821 200.499163 
L 115.944633 198.084432 
L 116.204383 194.606526 
L 117.210912 179.34589 
L 117.827818 172.288663 
L 120.555189 148.716322 
L 122.048749 147.917433 
L 122.892935 148.339136 
L 124.581308 158.757444 
L 125.5229 166.747828 
L 126.52943 176.739826 
L 129.419144 209.741028 
L 129.581488 210.475039 
L 130.620486 220.792627 
L 132.503671 233.854179 
L 132.568608 233.832825 
L 133.250451 233.710813 
L 133.899825 233.710645 
L 134.744011 233.466135 
L 135.166104 231.502466 
L 137.958413 210.903518 
L 138.250631 205.889723 
L 138.412974 204.410243 
L 138.900005 198.472395 
L 139.094817 196.270045 
L 139.711722 191.779301 
L 142.374156 168.446739 
L 142.76378 166.29482 
L 143.185873 163.925729 
L 143.315748 162.90242 
L 145.491151 158.36383 
L 145.750901 158.539815 
L 146.692493 160.888124 
L 147.569148 163.969151 
L 148.02371 167.011308 
L 149.095177 174.696439 
L 149.744551 179.70524 
L 149.939363 183.240021 
L 150.296519 185.172607 
L 152.212172 200.514824 
L 152.439453 202.50766 
L 152.796609 204.459264 
L 153.056359 205.898487 
L 154.972012 217.208081 
L 156.920134 220.574341 
L 157.114946 220.8157 
L 157.147415 220.778399 
L 158.186414 219.440464 
L 158.640975 218.101684 
L 160.426754 211.853814 
L 161.563158 205.308342 
L 163.316468 193.746208 
L 164.907435 183.011273 
L 165.134716 181.831723 
L 167.667274 172.240675 
L 168.414054 172.00097 
L 169.875146 172.845859 
L 171.368706 177.147056 
L 173.122016 184.79075 
L 175.200013 195.73987 
L 175.5247 196.621556 
L 178.057259 207.252843 
L 180.135256 210.18436 
L 180.752161 209.700953 
L 181.921034 207.875579 
L 182.895095 205.600367 
L 184.323718 199.834705 
L 187.732932 186.476341 
L 190.200553 179.944343 
L 190.362897 179.854125 
L 192.473362 179.815797 
L 192.765581 180.046153 
L 193.252611 180.631317 
L 193.869516 182.078586 
L 197.311199 192.610418 
L 198.480072 196.112379 
L 201.79188 203.524392 
L 201.824348 203.43101 
L 201.889286 203.331291 
L 201.921754 203.369524 
L 202.701003 204.127082 
L 203.02569 204.097794 
L 206.077748 201.105435 
L 211.727302 188.51608 
L 213.318269 186.108612 
L 215.396265 185.192865 
L 215.980702 185.600064 
L 216.467733 186.248214 
L 223.188754 197.824764 
L 224.519971 199.801053 
L 228.578558 197.970125 
L 229.487682 197.026667 
L 236.760671 189.470033 
L 245.462283 194.928145 
L 262.670695 193.334254 
L 270.722933 193.324127 
L 389.038881 193.296391 
L 398.487273 193.357432 
L 398.487273 193.357432 
" clip-path="url(#paa09b7bc77)" style="fill: none; stroke: #1f77b4; stroke-width: 1.5; stroke-linecap: square"/>
   </g>
   <g id="line2d_24">
    <path d="M 73.832727 198.569729 
L 80.651155 199.528776 
L 81.820028 198.933069 
L 83.02137 197.168602 
L 83.281119 196.654762 
L 83.76815 196.139531 
L 84.709742 193.307114 
L 85.066898 192.818522 
L 85.196773 192.019713 
L 85.424054 190.336179 
L 85.846147 188.588925 
L 86.105896 187.723501 
L 86.52799 184.188302 
L 86.950083 181.872481 
L 89.51511 153.698712 
L 94.288009 83.216718 
L 95.424414 69.794953 
L 95.489351 69.906455 
L 98.76869 75.72787 
L 98.963502 76.823319 
L 100.554469 98.182073 
L 102.599997 142.576826 
L 104.710462 197.346172 
L 104.970212 205.553565 
L 106.366366 239.345902 
L 106.788459 248.839595 
L 108.411894 278.313518 
L 108.801519 283.958849 
L 109.645705 289.109796 
L 110.652235 289.401542 
L 111.236671 289.416801 
L 112.567888 277.015883 
L 114.483541 240.732398 
L 116.00957 206.346125 
L 117.697943 168.033436 
L 118.996691 141.306564 
L 119.483721 134.764054 
L 120.879876 117.892918 
L 121.626656 112.465517 
L 121.724062 112.496878 
L 123.315028 113.074833 
L 123.996871 117.819337 
L 125.26315 131.531534 
L 126.691773 153.691382 
L 127.633366 171.725922 
L 130.880236 232.519609 
L 132.536139 253.611314 
L 132.698483 253.611314 
L 132.958233 258.24664 
L 133.607607 261.62117 
L 133.76995 262.149664 
L 133.997231 262.129452 
L 134.841417 261.941883 
L 135.912884 258.072801 
L 137.828538 236.451647 
L 139.646785 207.879832 
L 141.984532 170.76046 
L 143.478092 150.783538 
L 144.484622 142.189908 
L 145.458683 136.068641 
L 146.2704 135.213607 
L 146.302869 135.264183 
L 147.082118 137.446794 
L 148.186054 144.484664 
L 148.997771 150.79857 
L 151.205643 178.965457 
L 151.303049 180.070909 
L 153.933014 216.922474 
L 155.78373 234.401049 
L 156.595447 239.330395 
L 157.147415 241.04645 
L 157.244821 241.221159 
L 157.309759 241.177452 
L 159.192943 239.826206 
L 159.485162 238.036827 
L 162.309939 211.641903 
L 165.719152 173.575726 
L 166.855557 162.65147 
L 168.251711 155.463209 
L 169.225772 152.309468 
L 169.290709 152.391842 
L 170.914145 154.555959 
L 173.544109 169.630356 
L 173.803859 172.299141 
L 174.77792 181.763358 
L 176.303949 195.179748 
L 177.407885 207.394329 
L 180.362537 226.167035 
L 180.557349 226.776669 
L 180.622286 226.719621 
L 181.921034 225.438615 
L 182.927564 223.749465 
L 185.622466 208.032557 
L 187.27837 193.356149 
L 187.797869 189.682258 
L 188.317368 186.787973 
L 188.609587 186.010692 
L 189.713523 177.532148 
L 190.492771 172.572912 
L 193.220142 167.105048 
L 194.226672 166.190798 
L 194.259141 166.279401 
L 196.661825 174.585006 
L 198.122916 183.501622 
L 200.5256 198.854654 
L 201.142506 202.625866 
L 203.869876 213.326264 
L 203.999751 213.947999 
L 206.369966 213.947999 
L 207.733652 207.955374 
L 208.934994 203.177523 
L 209.51943 200.501309 
L 211.629896 189.353137 
L 213.805299 180.869471 
L 216.305389 174.991087 
L 216.337858 175.064389 
L 220.071758 183.716159 
L 224.130346 199.814528 
L 226.208343 205.81319 
L 226.890186 206.141677 
L 230.331868 205.925783 
L 237.020421 186.548893 
L 240.234822 182.966999 
L 240.78679 183.114136 
L 242.215413 184.851106 
L 249.618277 201.17579 
L 249.715683 201.099397 
L 262.475882 189.484955 
L 274.067209 195.045398 
L 287.866407 193.921473 
L 324.880727 193.836969 
L 398.487273 194.101194 
L 398.487273 194.101194 
" clip-path="url(#paa09b7bc77)" style="fill: none; stroke: #ff7f0e; stroke-width: 1.5; stroke-linecap: square"/>
   </g>
   <g id="line2d_25">
    <path d="M 73.832727 196.917064 
L 78.443283 196.579637 
L 79.871906 196.385822 
L 81.397935 196.265284 
L 82.339527 196.093916 
L 83.183713 193.738121 
L 83.313588 193.577782 
L 83.76815 193.581287 
L 85.26171 188.674145 
L 86.463052 182.373615 
L 86.982551 177.801659 
L 88.638455 160.370269 
L 90.196953 141.556913 
L 92.177544 110.953081 
L 94.02826 85.455861 
L 95.846507 64.824046 
L 97.469942 53.571779 
L 97.502411 53.643791 
L 99.77522 58.927594 
L 101.041499 65.270599 
L 102.01556 74.053718 
L 103.02209 92.464959 
L 103.898745 113.595303 
L 106.236491 173.094359 
L 108.054739 224.083024 
L 109.353487 260.000416 
L 109.645705 265.701907 
L 109.872986 270.70803 
L 110.132735 275.838369 
L 112.502951 295.244087 
L 112.827638 295.481498 
L 113.931574 285.847024 
L 115.847227 262.591223 
L 116.366726 249.731285 
L 117.730412 216.668817 
L 118.704473 196.871239 
L 118.76941 195.934584 
L 119.191503 184.183098 
L 120.26297 156.419522 
L 122.795529 116.204728 
L 123.704653 108.488187 
L 123.76959 108.575172 
L 125.555369 111.906505 
L 126.691773 122.484744 
L 129.224332 165.963218 
L 129.549019 173.512786 
L 131.01011 203.312856 
L 133.217982 243.785577 
L 134.77648 260.603795 
L 135.166104 262.668576 
L 135.912884 266.661321 
L 136.205103 266.825415 
L 136.432384 266.585046 
L 136.692133 266.135345 
L 138.055819 258.826605 
L 139.906535 234.858242 
L 141.042939 214.919412 
L 142.114406 199.035394 
L 142.146875 199.035394 
L 142.309219 193.785539 
L 142.471562 191.567627 
L 144.159935 164.610214 
L 146.302869 140.107475 
L 147.147055 136.013799 
L 148.867896 135.738238 
L 149.095177 136.837838 
L 150.231582 144.703941 
L 151.173174 153.804716 
L 152.569328 171.06652 
L 154.03042 191.169637 
L 154.192763 194.28214 
L 154.355107 198.346831 
L 155.004481 206.901715 
L 155.78373 218.200596 
L 157.699383 237.12823 
L 157.926664 238.374843 
L 158.803319 243.312758 
L 160.751441 243.312758 
L 160.881316 241.329193 
L 161.563158 238.405624 
L 164.225592 213.217763 
L 165.232122 200.655665 
L 165.459403 195.165233 
L 165.589277 192.366552 
L 398.487273 192.366552 
L 398.487273 192.366552 
" clip-path="url(#paa09b7bc77)" style="fill: none; stroke: #2ca02c; stroke-width: 1.5; stroke-linecap: square"/>
   </g>
   <g id="patch_3">
    <path d="M 57.6 307.584 
L 57.6 41.472 
" style="fill: none; stroke: #000000; stroke-width: 0.8; stroke-linejoin: miter; stroke-linecap: square"/>
   </g>
   <g id="patch_4">
    <path d="M 414.72 307.584 
L 414.72 41.472 
" style="fill: none; stroke: #000000; stroke-width: 0.8; stroke-linejoin: miter; stroke-linecap: square"/>
   </g>
   <g id="patch_5">
    <path d="M 57.6 307.584 
L 414.72 307.584 
" style="fill: none; stroke: #000000; stroke-width: 0.8; stroke-linejoin: miter; stroke-linecap: square"/>
   </g>
   <g id="patch_6">
    <path d="M 57.6 41.472 
L 414.72 41.472 
" style="fill: none; stroke: #000000; stroke-width: 0.8; stroke-linejoin: miter; stroke-linecap: square"/>
   </g>
   <g id="legend_1">
    <g id="patch_7">
     <path d="M 341.202813 93.506375 
L 407.72 93.506375 
Q 409.72 93.506375 409.72 91.506375 
L 409.72 48.472 
Q 409.72 46.472 407.72 46.472 
L 341.202813 46.472 
Q 339.202813 46.472 339.202813 48.472 
L 339.202813 91.506375 
Q 339.202813 93.506375 341.202813 93.506375 
z
" style="fill: #ffffff; opacity: 0.8; stroke: #cccccc; stroke-linejoin: miter"/>
    </g>
    <g id="line2d_26">
     <path d="M 343.202813 54.570438 
L 353.202813 54.570438 
L 363.202813 54.570438 
" style="fill: none; stroke: #1f77b4; stroke-width: 1.5; stroke-linecap: square"/>
    </g>
    <g id="text_14">
     <!-- Rel0 -->
     <g transform="translate(371.202813 58.070438) scale(0.1 -0.1)">
      <defs>
       <path id="DejaVuSans-52" d="M 2841 2188 
Q 3044 2119 3236 1894 
Q 3428 1669 3622 1275 
L 4263 0 
L 3584 0 
L 2988 1197 
Q 2756 1666 2539 1819 
Q 2322 1972 1947 1972 
L 1259 1972 
L 1259 0 
L 628 0 
L 628 4666 
L 2053 4666 
Q 2853 4666 3247 4331 
Q 3641 3997 3641 3322 
Q 3641 2881 3436 2590 
Q 3231 2300 2841 2188 
z
M 1259 4147 
L 1259 2491 
L 2053 2491 
Q 2509 2491 2742 2702 
Q 2975 2913 2975 3322 
Q 2975 3731 2742 3939 
Q 2509 4147 2053 4147 
L 1259 4147 
z
" transform="scale(0.015625)"/>
       <path id="DejaVuSans-6c" d="M 603 4863 
L 1178 4863 
L 1178 0 
L 603 0 
L 603 4863 
z
" transform="scale(0.015625)"/>
      </defs>
      <use xlink:href="#DejaVuSans-52"/>
      <use xlink:href="#DejaVuSans-65" x="64.982422"/>
      <use xlink:href="#DejaVuSans-6c" x="126.505859"/>
      <use xlink:href="#DejaVuSans-30" x="154.289062"/>
     </g>
    </g>
    <g id="line2d_27">
     <path d="M 343.202813 69.248563 
L 353.202813 69.248563 
L 363.202813 69.248563 
" style="fill: none; stroke: #ff7f0e; stroke-width: 1.5; stroke-linecap: square"/>
    </g>
    <g id="text_15">
     <!-- Rel50 -->
     <g transform="translate(371.202813 72.748563) scale(0.1 -0.1)">
      <use xlink:href="#DejaVuSans-52"/>
      <use xlink:href="#DejaVuSans-65" x="64.982422"/>
      <use xlink:href="#DejaVuSans-6c" x="126.505859"/>
      <use xlink:href="#DejaVuSans-35" x="154.289062"/>
      <use xlink:href="#DejaVuSans-30" x="217.912109"/>
     </g>
    </g>
    <g id="line2d_28">
     <path d="M 343.202813 83.926688 
L 353.202813 83.926688 
L 363.202813 83.926688 
" style="fill: none; stroke: #2ca02c; stroke-width: 1.5; stroke-linecap: square"/>
    </g>
    <g id="text_16">
     <!-- Rel100 -->
     <g transform="translate(371.202813 87.426688) scale(0.1 -0.1)">
      <use xlink:href="#DejaVuSans-52"/>
      <use xlink:href="#DejaVuSans-65" x="64.982422"/>
      <use xlink:href="#DejaVuSans-6c" x="126.505859"/>
      <use xlink:href="#DejaVuSans-31" x="154.289062"/>
      <use xlink:href="#DejaVuSans-30" x="217.912109"/>
      <use xlink:href="#DejaVuSans-30" x="281.535156"/>
     </g>
    </g>
   </g>
  </g>
 </g>
 <defs>
  <clipPath id="paa09b7bc77">
   <rect x="57.6" y="41.472" width="357.12" height="266.112"/>
  </clipPath>
 </defs>
</svg>
