<?xml version="1.0" encoding="utf-8" standalone="no"?>
<!DOCTYPE svg PUBLIC "-//W3C//DTD SVG 1.1//EN"
  "http://www.w3.org/Graphics/SVG/1.1/DTD/svg11.dtd">
<svg xmlns:xlink="http://www.w3.org/1999/xlink" width="460.8pt" height="345.6pt" viewBox="0 0 460.8 345.6" xmlns="http://www.w3.org/2000/svg" version="1.1">
 <metadata>
  <rdf:RDF xmlns:dc="http://purl.org/dc/elements/1.1/" xmlns:cc="http://creativecommons.org/ns#" xmlns:rdf="http://www.w3.org/1999/02/22-rdf-syntax-ns#">
   <cc:Work>
    <dc:type rdf:resource="http://purl.org/dc/dcmitype/StillImage"/>
    <dc:date>2023-06-01T14:41:30.834756</dc:date>
    <dc:format>image/svg+xml</dc:format>
    <dc:creator>
     <cc:Agent>
      <dc:title>Matplotlib v3.6.2, https://matplotlib.org/</dc:title>
     </cc:Agent>
    </dc:creator>
   </cc:Work>
  </rdf:RDF>
 </metadata>
 <defs>
  <style type="text/css">*{stroke-linejoin: round; stroke-linecap: butt}</style>
 </defs>
 <g id="figure_1">
  <g id="patch_1">
   <path d="M 0 345.6 
L 460.8 345.6 
L 460.8 0 
L 0 0 
z
" style="fill: #ffffff"/>
  </g>
  <g id="axes_1">
   <g id="patch_2">
    <path d="M 57.6 307.584 
L 414.72 307.584 
L 414.72 41.472 
L 57.6 41.472 
z
" style="fill: #ffffff"/>
   </g>
   <g id="matplotlib.axis_1">
    <g id="xtick_1">
     <g id="line2d_1">
      <path d="M 73.832727 307.584 
L 73.832727 41.472 
" clip-path="url(#ped1dbc0dae)" style="fill: none; stroke: #b0b0b0; stroke-width: 0.8; stroke-linecap: square"/>
     </g>
     <g id="line2d_2">
      <defs>
       <path id="m252f9988fe" d="M 0 0 
L 0 3.5 
" style="stroke: #000000; stroke-width: 0.8"/>
      </defs>
      <g>
       <use xlink:href="#m252f9988fe" x="73.832727" y="307.584" style="stroke: #000000; stroke-width: 0.8"/>
      </g>
     </g>
     <g id="text_1">
      <!-- 0.0 -->
      <g transform="translate(65.881165 322.182437) scale(0.1 -0.1)">
       <defs>
        <path id="DejaVuSans-30" d="M 2034 4250 
Q 1547 4250 1301 3770 
Q 1056 3291 1056 2328 
Q 1056 1369 1301 889 
Q 1547 409 2034 409 
Q 2525 409 2770 889 
Q 3016 1369 3016 2328 
Q 3016 3291 2770 3770 
Q 2525 4250 2034 4250 
z
M 2034 4750 
Q 2819 4750 3233 4129 
Q 3647 3509 3647 2328 
Q 3647 1150 3233 529 
Q 2819 -91 2034 -91 
Q 1250 -91 836 529 
Q 422 1150 422 2328 
Q 422 3509 836 4129 
Q 1250 4750 2034 4750 
z
" transform="scale(0.015625)"/>
        <path id="DejaVuSans-2e" d="M 684 794 
L 1344 794 
L 1344 0 
L 684 0 
L 684 794 
z
" transform="scale(0.015625)"/>
       </defs>
       <use xlink:href="#DejaVuSans-30"/>
       <use xlink:href="#DejaVuSans-2e" x="63.623047"/>
       <use xlink:href="#DejaVuSans-30" x="95.410156"/>
      </g>
     </g>
    </g>
    <g id="xtick_2">
     <g id="line2d_3">
      <path d="M 126.196364 307.584 
L 126.196364 41.472 
" clip-path="url(#ped1dbc0dae)" style="fill: none; stroke: #b0b0b0; stroke-width: 0.8; stroke-linecap: square"/>
     </g>
     <g id="line2d_4">
      <g>
       <use xlink:href="#m252f9988fe" x="126.196364" y="307.584" style="stroke: #000000; stroke-width: 0.8"/>
      </g>
     </g>
     <g id="text_2">
      <!-- 0.5 -->
      <g transform="translate(118.244801 322.182437) scale(0.1 -0.1)">
       <defs>
        <path id="DejaVuSans-35" d="M 691 4666 
L 3169 4666 
L 3169 4134 
L 1269 4134 
L 1269 2991 
Q 1406 3038 1543 3061 
Q 1681 3084 1819 3084 
Q 2600 3084 3056 2656 
Q 3513 2228 3513 1497 
Q 3513 744 3044 326 
Q 2575 -91 1722 -91 
Q 1428 -91 1123 -41 
Q 819 9 494 109 
L 494 744 
Q 775 591 1075 516 
Q 1375 441 1709 441 
Q 2250 441 2565 725 
Q 2881 1009 2881 1497 
Q 2881 1984 2565 2268 
Q 2250 2553 1709 2553 
Q 1456 2553 1204 2497 
Q 953 2441 691 2322 
L 691 4666 
z
" transform="scale(0.015625)"/>
       </defs>
       <use xlink:href="#DejaVuSans-30"/>
       <use xlink:href="#DejaVuSans-2e" x="63.623047"/>
       <use xlink:href="#DejaVuSans-35" x="95.410156"/>
      </g>
     </g>
    </g>
    <g id="xtick_3">
     <g id="line2d_5">
      <path d="M 178.56 307.584 
L 178.56 41.472 
" clip-path="url(#ped1dbc0dae)" style="fill: none; stroke: #b0b0b0; stroke-width: 0.8; stroke-linecap: square"/>
     </g>
     <g id="line2d_6">
      <g>
       <use xlink:href="#m252f9988fe" x="178.56" y="307.584" style="stroke: #000000; stroke-width: 0.8"/>
      </g>
     </g>
     <g id="text_3">
      <!-- 1.0 -->
      <g transform="translate(170.608438 322.182437) scale(0.1 -0.1)">
       <defs>
        <path id="DejaVuSans-31" d="M 794 531 
L 1825 531 
L 1825 4091 
L 703 3866 
L 703 4441 
L 1819 4666 
L 2450 4666 
L 2450 531 
L 3481 531 
L 3481 0 
L 794 0 
L 794 531 
z
" transform="scale(0.015625)"/>
       </defs>
       <use xlink:href="#DejaVuSans-31"/>
       <use xlink:href="#DejaVuSans-2e" x="63.623047"/>
       <use xlink:href="#DejaVuSans-30" x="95.410156"/>
      </g>
     </g>
    </g>
    <g id="xtick_4">
     <g id="line2d_7">
      <path d="M 230.923636 307.584 
L 230.923636 41.472 
" clip-path="url(#ped1dbc0dae)" style="fill: none; stroke: #b0b0b0; stroke-width: 0.8; stroke-linecap: square"/>
     </g>
     <g id="line2d_8">
      <g>
       <use xlink:href="#m252f9988fe" x="230.923636" y="307.584" style="stroke: #000000; stroke-width: 0.8"/>
      </g>
     </g>
     <g id="text_4">
      <!-- 1.5 -->
      <g transform="translate(222.972074 322.182437) scale(0.1 -0.1)">
       <use xlink:href="#DejaVuSans-31"/>
       <use xlink:href="#DejaVuSans-2e" x="63.623047"/>
       <use xlink:href="#DejaVuSans-35" x="95.410156"/>
      </g>
     </g>
    </g>
    <g id="xtick_5">
     <g id="line2d_9">
      <path d="M 283.287273 307.584 
L 283.287273 41.472 
" clip-path="url(#ped1dbc0dae)" style="fill: none; stroke: #b0b0b0; stroke-width: 0.8; stroke-linecap: square"/>
     </g>
     <g id="line2d_10">
      <g>
       <use xlink:href="#m252f9988fe" x="283.287273" y="307.584" style="stroke: #000000; stroke-width: 0.8"/>
      </g>
     </g>
     <g id="text_5">
      <!-- 2.0 -->
      <g transform="translate(275.33571 322.182437) scale(0.1 -0.1)">
       <defs>
        <path id="DejaVuSans-32" d="M 1228 531 
L 3431 531 
L 3431 0 
L 469 0 
L 469 531 
Q 828 903 1448 1529 
Q 2069 2156 2228 2338 
Q 2531 2678 2651 2914 
Q 2772 3150 2772 3378 
Q 2772 3750 2511 3984 
Q 2250 4219 1831 4219 
Q 1534 4219 1204 4116 
Q 875 4013 500 3803 
L 500 4441 
Q 881 4594 1212 4672 
Q 1544 4750 1819 4750 
Q 2544 4750 2975 4387 
Q 3406 4025 3406 3419 
Q 3406 3131 3298 2873 
Q 3191 2616 2906 2266 
Q 2828 2175 2409 1742 
Q 1991 1309 1228 531 
z
" transform="scale(0.015625)"/>
       </defs>
       <use xlink:href="#DejaVuSans-32"/>
       <use xlink:href="#DejaVuSans-2e" x="63.623047"/>
       <use xlink:href="#DejaVuSans-30" x="95.410156"/>
      </g>
     </g>
    </g>
    <g id="xtick_6">
     <g id="line2d_11">
      <path d="M 335.650909 307.584 
L 335.650909 41.472 
" clip-path="url(#ped1dbc0dae)" style="fill: none; stroke: #b0b0b0; stroke-width: 0.8; stroke-linecap: square"/>
     </g>
     <g id="line2d_12">
      <g>
       <use xlink:href="#m252f9988fe" x="335.650909" y="307.584" style="stroke: #000000; stroke-width: 0.8"/>
      </g>
     </g>
     <g id="text_6">
      <!-- 2.5 -->
      <g transform="translate(327.699347 322.182437) scale(0.1 -0.1)">
       <use xlink:href="#DejaVuSans-32"/>
       <use xlink:href="#DejaVuSans-2e" x="63.623047"/>
       <use xlink:href="#DejaVuSans-35" x="95.410156"/>
      </g>
     </g>
    </g>
    <g id="xtick_7">
     <g id="line2d_13">
      <path d="M 388.014545 307.584 
L 388.014545 41.472 
" clip-path="url(#ped1dbc0dae)" style="fill: none; stroke: #b0b0b0; stroke-width: 0.8; stroke-linecap: square"/>
     </g>
     <g id="line2d_14">
      <g>
       <use xlink:href="#m252f9988fe" x="388.014545" y="307.584" style="stroke: #000000; stroke-width: 0.8"/>
      </g>
     </g>
     <g id="text_7">
      <!-- 3.0 -->
      <g transform="translate(380.062983 322.182437) scale(0.1 -0.1)">
       <defs>
        <path id="DejaVuSans-33" d="M 2597 2516 
Q 3050 2419 3304 2112 
Q 3559 1806 3559 1356 
Q 3559 666 3084 287 
Q 2609 -91 1734 -91 
Q 1441 -91 1130 -33 
Q 819 25 488 141 
L 488 750 
Q 750 597 1062 519 
Q 1375 441 1716 441 
Q 2309 441 2620 675 
Q 2931 909 2931 1356 
Q 2931 1769 2642 2001 
Q 2353 2234 1838 2234 
L 1294 2234 
L 1294 2753 
L 1863 2753 
Q 2328 2753 2575 2939 
Q 2822 3125 2822 3475 
Q 2822 3834 2567 4026 
Q 2313 4219 1838 4219 
Q 1578 4219 1281 4162 
Q 984 4106 628 3988 
L 628 4550 
Q 988 4650 1302 4700 
Q 1616 4750 1894 4750 
Q 2613 4750 3031 4423 
Q 3450 4097 3450 3541 
Q 3450 3153 3228 2886 
Q 3006 2619 2597 2516 
z
" transform="scale(0.015625)"/>
       </defs>
       <use xlink:href="#DejaVuSans-33"/>
       <use xlink:href="#DejaVuSans-2e" x="63.623047"/>
       <use xlink:href="#DejaVuSans-30" x="95.410156"/>
      </g>
     </g>
    </g>
    <g id="text_8">
     <!-- Time [s] -->
     <g transform="translate(215.831094 335.860562) scale(0.1 -0.1)">
      <defs>
       <path id="DejaVuSans-54" d="M -19 4666 
L 3928 4666 
L 3928 4134 
L 2272 4134 
L 2272 0 
L 1638 0 
L 1638 4134 
L -19 4134 
L -19 4666 
z
" transform="scale(0.015625)"/>
       <path id="DejaVuSans-69" d="M 603 3500 
L 1178 3500 
L 1178 0 
L 603 0 
L 603 3500 
z
M 603 4863 
L 1178 4863 
L 1178 4134 
L 603 4134 
L 603 4863 
z
" transform="scale(0.015625)"/>
       <path id="DejaVuSans-6d" d="M 3328 2828 
Q 3544 3216 3844 3400 
Q 4144 3584 4550 3584 
Q 5097 3584 5394 3201 
Q 5691 2819 5691 2113 
L 5691 0 
L 5113 0 
L 5113 2094 
Q 5113 2597 4934 2840 
Q 4756 3084 4391 3084 
Q 3944 3084 3684 2787 
Q 3425 2491 3425 1978 
L 3425 0 
L 2847 0 
L 2847 2094 
Q 2847 2600 2669 2842 
Q 2491 3084 2119 3084 
Q 1678 3084 1418 2786 
Q 1159 2488 1159 1978 
L 1159 0 
L 581 0 
L 581 3500 
L 1159 3500 
L 1159 2956 
Q 1356 3278 1631 3431 
Q 1906 3584 2284 3584 
Q 2666 3584 2933 3390 
Q 3200 3197 3328 2828 
z
" transform="scale(0.015625)"/>
       <path id="DejaVuSans-65" d="M 3597 1894 
L 3597 1613 
L 953 1613 
Q 991 1019 1311 708 
Q 1631 397 2203 397 
Q 2534 397 2845 478 
Q 3156 559 3463 722 
L 3463 178 
Q 3153 47 2828 -22 
Q 2503 -91 2169 -91 
Q 1331 -91 842 396 
Q 353 884 353 1716 
Q 353 2575 817 3079 
Q 1281 3584 2069 3584 
Q 2775 3584 3186 3129 
Q 3597 2675 3597 1894 
z
M 3022 2063 
Q 3016 2534 2758 2815 
Q 2500 3097 2075 3097 
Q 1594 3097 1305 2825 
Q 1016 2553 972 2059 
L 3022 2063 
z
" transform="scale(0.015625)"/>
       <path id="DejaVuSans-20" transform="scale(0.015625)"/>
       <path id="DejaVuSans-5b" d="M 550 4863 
L 1875 4863 
L 1875 4416 
L 1125 4416 
L 1125 -397 
L 1875 -397 
L 1875 -844 
L 550 -844 
L 550 4863 
z
" transform="scale(0.015625)"/>
       <path id="DejaVuSans-73" d="M 2834 3397 
L 2834 2853 
Q 2591 2978 2328 3040 
Q 2066 3103 1784 3103 
Q 1356 3103 1142 2972 
Q 928 2841 928 2578 
Q 928 2378 1081 2264 
Q 1234 2150 1697 2047 
L 1894 2003 
Q 2506 1872 2764 1633 
Q 3022 1394 3022 966 
Q 3022 478 2636 193 
Q 2250 -91 1575 -91 
Q 1294 -91 989 -36 
Q 684 19 347 128 
L 347 722 
Q 666 556 975 473 
Q 1284 391 1588 391 
Q 1994 391 2212 530 
Q 2431 669 2431 922 
Q 2431 1156 2273 1281 
Q 2116 1406 1581 1522 
L 1381 1569 
Q 847 1681 609 1914 
Q 372 2147 372 2553 
Q 372 3047 722 3315 
Q 1072 3584 1716 3584 
Q 2034 3584 2315 3537 
Q 2597 3491 2834 3397 
z
" transform="scale(0.015625)"/>
       <path id="DejaVuSans-5d" d="M 1947 4863 
L 1947 -844 
L 622 -844 
L 622 -397 
L 1369 -397 
L 1369 4416 
L 622 4416 
L 622 4863 
L 1947 4863 
z
" transform="scale(0.015625)"/>
      </defs>
      <use xlink:href="#DejaVuSans-54"/>
      <use xlink:href="#DejaVuSans-69" x="57.958984"/>
      <use xlink:href="#DejaVuSans-6d" x="85.742188"/>
      <use xlink:href="#DejaVuSans-65" x="183.154297"/>
      <use xlink:href="#DejaVuSans-20" x="244.677734"/>
      <use xlink:href="#DejaVuSans-5b" x="276.464844"/>
      <use xlink:href="#DejaVuSans-73" x="315.478516"/>
      <use xlink:href="#DejaVuSans-5d" x="367.578125"/>
     </g>
    </g>
   </g>
   <g id="matplotlib.axis_2">
    <g id="ytick_1">
     <g id="line2d_15">
      <path d="M 57.6 306.968432 
L 414.72 306.968432 
" clip-path="url(#ped1dbc0dae)" style="fill: none; stroke: #b0b0b0; stroke-width: 0.8; stroke-linecap: square"/>
     </g>
     <g id="line2d_16">
      <defs>
       <path id="m77761183cf" d="M 0 0 
L -3.5 0 
" style="stroke: #000000; stroke-width: 0.8"/>
      </defs>
      <g>
       <use xlink:href="#m77761183cf" x="57.6" y="306.968432" style="stroke: #000000; stroke-width: 0.8"/>
      </g>
     </g>
     <g id="text_9">
      <!-- −0.10 -->
      <g transform="translate(19.954687 310.76765) scale(0.1 -0.1)">
       <defs>
        <path id="DejaVuSans-2212" d="M 678 2272 
L 4684 2272 
L 4684 1741 
L 678 1741 
L 678 2272 
z
" transform="scale(0.015625)"/>
       </defs>
       <use xlink:href="#DejaVuSans-2212"/>
       <use xlink:href="#DejaVuSans-30" x="83.789062"/>
       <use xlink:href="#DejaVuSans-2e" x="147.412109"/>
       <use xlink:href="#DejaVuSans-31" x="179.199219"/>
       <use xlink:href="#DejaVuSans-30" x="242.822266"/>
      </g>
     </g>
    </g>
    <g id="ytick_2">
     <g id="line2d_17">
      <path d="M 57.6 251.075244 
L 414.72 251.075244 
" clip-path="url(#ped1dbc0dae)" style="fill: none; stroke: #b0b0b0; stroke-width: 0.8; stroke-linecap: square"/>
     </g>
     <g id="line2d_18">
      <g>
       <use xlink:href="#m77761183cf" x="57.6" y="251.075244" style="stroke: #000000; stroke-width: 0.8"/>
      </g>
     </g>
     <g id="text_10">
      <!-- −0.05 -->
      <g transform="translate(19.954687 254.874462) scale(0.1 -0.1)">
       <use xlink:href="#DejaVuSans-2212"/>
       <use xlink:href="#DejaVuSans-30" x="83.789062"/>
       <use xlink:href="#DejaVuSans-2e" x="147.412109"/>
       <use xlink:href="#DejaVuSans-30" x="179.199219"/>
       <use xlink:href="#DejaVuSans-35" x="242.822266"/>
      </g>
     </g>
    </g>
    <g id="ytick_3">
     <g id="line2d_19">
      <path d="M 57.6 195.182056 
L 414.72 195.182056 
" clip-path="url(#ped1dbc0dae)" style="fill: none; stroke: #b0b0b0; stroke-width: 0.8; stroke-linecap: square"/>
     </g>
     <g id="line2d_20">
      <g>
       <use xlink:href="#m77761183cf" x="57.6" y="195.182056" style="stroke: #000000; stroke-width: 0.8"/>
      </g>
     </g>
     <g id="text_11">
      <!-- 0.00 -->
      <g transform="translate(28.334375 198.981275) scale(0.1 -0.1)">
       <use xlink:href="#DejaVuSans-30"/>
       <use xlink:href="#DejaVuSans-2e" x="63.623047"/>
       <use xlink:href="#DejaVuSans-30" x="95.410156"/>
       <use xlink:href="#DejaVuSans-30" x="159.033203"/>
      </g>
     </g>
    </g>
    <g id="ytick_4">
     <g id="line2d_21">
      <path d="M 57.6 139.288868 
L 414.72 139.288868 
" clip-path="url(#ped1dbc0dae)" style="fill: none; stroke: #b0b0b0; stroke-width: 0.8; stroke-linecap: square"/>
     </g>
     <g id="line2d_22">
      <g>
       <use xlink:href="#m77761183cf" x="57.6" y="139.288868" style="stroke: #000000; stroke-width: 0.8"/>
      </g>
     </g>
     <g id="text_12">
      <!-- 0.05 -->
      <g transform="translate(28.334375 143.088087) scale(0.1 -0.1)">
       <use xlink:href="#DejaVuSans-30"/>
       <use xlink:href="#DejaVuSans-2e" x="63.623047"/>
       <use xlink:href="#DejaVuSans-30" x="95.410156"/>
       <use xlink:href="#DejaVuSans-35" x="159.033203"/>
      </g>
     </g>
    </g>
    <g id="ytick_5">
     <g id="line2d_23">
      <path d="M 57.6 83.39568 
L 414.72 83.39568 
" clip-path="url(#ped1dbc0dae)" style="fill: none; stroke: #b0b0b0; stroke-width: 0.8; stroke-linecap: square"/>
     </g>
     <g id="line2d_24">
      <g>
       <use xlink:href="#m77761183cf" x="57.6" y="83.39568" style="stroke: #000000; stroke-width: 0.8"/>
      </g>
     </g>
     <g id="text_13">
      <!-- 0.10 -->
      <g transform="translate(28.334375 87.194899) scale(0.1 -0.1)">
       <use xlink:href="#DejaVuSans-30"/>
       <use xlink:href="#DejaVuSans-2e" x="63.623047"/>
       <use xlink:href="#DejaVuSans-31" x="95.410156"/>
       <use xlink:href="#DejaVuSans-30" x="159.033203"/>
      </g>
     </g>
    </g>
    <g id="text_14">
     <!-- Bending moment coefficient [-] -->
     <g transform="translate(13.875 252.726438) rotate(-90) scale(0.1 -0.1)">
      <defs>
       <path id="DejaVuSans-42" d="M 1259 2228 
L 1259 519 
L 2272 519 
Q 2781 519 3026 730 
Q 3272 941 3272 1375 
Q 3272 1813 3026 2020 
Q 2781 2228 2272 2228 
L 1259 2228 
z
M 1259 4147 
L 1259 2741 
L 2194 2741 
Q 2656 2741 2882 2914 
Q 3109 3088 3109 3444 
Q 3109 3797 2882 3972 
Q 2656 4147 2194 4147 
L 1259 4147 
z
M 628 4666 
L 2241 4666 
Q 2963 4666 3353 4366 
Q 3744 4066 3744 3513 
Q 3744 3084 3544 2831 
Q 3344 2578 2956 2516 
Q 3422 2416 3680 2098 
Q 3938 1781 3938 1306 
Q 3938 681 3513 340 
Q 3088 0 2303 0 
L 628 0 
L 628 4666 
z
" transform="scale(0.015625)"/>
       <path id="DejaVuSans-6e" d="M 3513 2113 
L 3513 0 
L 2938 0 
L 2938 2094 
Q 2938 2591 2744 2837 
Q 2550 3084 2163 3084 
Q 1697 3084 1428 2787 
Q 1159 2491 1159 1978 
L 1159 0 
L 581 0 
L 581 3500 
L 1159 3500 
L 1159 2956 
Q 1366 3272 1645 3428 
Q 1925 3584 2291 3584 
Q 2894 3584 3203 3211 
Q 3513 2838 3513 2113 
z
" transform="scale(0.015625)"/>
       <path id="DejaVuSans-64" d="M 2906 2969 
L 2906 4863 
L 3481 4863 
L 3481 0 
L 2906 0 
L 2906 525 
Q 2725 213 2448 61 
Q 2172 -91 1784 -91 
Q 1150 -91 751 415 
Q 353 922 353 1747 
Q 353 2572 751 3078 
Q 1150 3584 1784 3584 
Q 2172 3584 2448 3432 
Q 2725 3281 2906 2969 
z
M 947 1747 
Q 947 1113 1208 752 
Q 1469 391 1925 391 
Q 2381 391 2643 752 
Q 2906 1113 2906 1747 
Q 2906 2381 2643 2742 
Q 2381 3103 1925 3103 
Q 1469 3103 1208 2742 
Q 947 2381 947 1747 
z
" transform="scale(0.015625)"/>
       <path id="DejaVuSans-67" d="M 2906 1791 
Q 2906 2416 2648 2759 
Q 2391 3103 1925 3103 
Q 1463 3103 1205 2759 
Q 947 2416 947 1791 
Q 947 1169 1205 825 
Q 1463 481 1925 481 
Q 2391 481 2648 825 
Q 2906 1169 2906 1791 
z
M 3481 434 
Q 3481 -459 3084 -895 
Q 2688 -1331 1869 -1331 
Q 1566 -1331 1297 -1286 
Q 1028 -1241 775 -1147 
L 775 -588 
Q 1028 -725 1275 -790 
Q 1522 -856 1778 -856 
Q 2344 -856 2625 -561 
Q 2906 -266 2906 331 
L 2906 616 
Q 2728 306 2450 153 
Q 2172 0 1784 0 
Q 1141 0 747 490 
Q 353 981 353 1791 
Q 353 2603 747 3093 
Q 1141 3584 1784 3584 
Q 2172 3584 2450 3431 
Q 2728 3278 2906 2969 
L 2906 3500 
L 3481 3500 
L 3481 434 
z
" transform="scale(0.015625)"/>
       <path id="DejaVuSans-6f" d="M 1959 3097 
Q 1497 3097 1228 2736 
Q 959 2375 959 1747 
Q 959 1119 1226 758 
Q 1494 397 1959 397 
Q 2419 397 2687 759 
Q 2956 1122 2956 1747 
Q 2956 2369 2687 2733 
Q 2419 3097 1959 3097 
z
M 1959 3584 
Q 2709 3584 3137 3096 
Q 3566 2609 3566 1747 
Q 3566 888 3137 398 
Q 2709 -91 1959 -91 
Q 1206 -91 779 398 
Q 353 888 353 1747 
Q 353 2609 779 3096 
Q 1206 3584 1959 3584 
z
" transform="scale(0.015625)"/>
       <path id="DejaVuSans-74" d="M 1172 4494 
L 1172 3500 
L 2356 3500 
L 2356 3053 
L 1172 3053 
L 1172 1153 
Q 1172 725 1289 603 
Q 1406 481 1766 481 
L 2356 481 
L 2356 0 
L 1766 0 
Q 1100 0 847 248 
Q 594 497 594 1153 
L 594 3053 
L 172 3053 
L 172 3500 
L 594 3500 
L 594 4494 
L 1172 4494 
z
" transform="scale(0.015625)"/>
       <path id="DejaVuSans-63" d="M 3122 3366 
L 3122 2828 
Q 2878 2963 2633 3030 
Q 2388 3097 2138 3097 
Q 1578 3097 1268 2742 
Q 959 2388 959 1747 
Q 959 1106 1268 751 
Q 1578 397 2138 397 
Q 2388 397 2633 464 
Q 2878 531 3122 666 
L 3122 134 
Q 2881 22 2623 -34 
Q 2366 -91 2075 -91 
Q 1284 -91 818 406 
Q 353 903 353 1747 
Q 353 2603 823 3093 
Q 1294 3584 2113 3584 
Q 2378 3584 2631 3529 
Q 2884 3475 3122 3366 
z
" transform="scale(0.015625)"/>
       <path id="DejaVuSans-66" d="M 2375 4863 
L 2375 4384 
L 1825 4384 
Q 1516 4384 1395 4259 
Q 1275 4134 1275 3809 
L 1275 3500 
L 2222 3500 
L 2222 3053 
L 1275 3053 
L 1275 0 
L 697 0 
L 697 3053 
L 147 3053 
L 147 3500 
L 697 3500 
L 697 3744 
Q 697 4328 969 4595 
Q 1241 4863 1831 4863 
L 2375 4863 
z
" transform="scale(0.015625)"/>
       <path id="DejaVuSans-2d" d="M 313 2009 
L 1997 2009 
L 1997 1497 
L 313 1497 
L 313 2009 
z
" transform="scale(0.015625)"/>
      </defs>
      <use xlink:href="#DejaVuSans-42"/>
      <use xlink:href="#DejaVuSans-65" x="68.603516"/>
      <use xlink:href="#DejaVuSans-6e" x="130.126953"/>
      <use xlink:href="#DejaVuSans-64" x="193.505859"/>
      <use xlink:href="#DejaVuSans-69" x="256.982422"/>
      <use xlink:href="#DejaVuSans-6e" x="284.765625"/>
      <use xlink:href="#DejaVuSans-67" x="348.144531"/>
      <use xlink:href="#DejaVuSans-20" x="411.621094"/>
      <use xlink:href="#DejaVuSans-6d" x="443.408203"/>
      <use xlink:href="#DejaVuSans-6f" x="540.820312"/>
      <use xlink:href="#DejaVuSans-6d" x="602.001953"/>
      <use xlink:href="#DejaVuSans-65" x="699.414062"/>
      <use xlink:href="#DejaVuSans-6e" x="760.9375"/>
      <use xlink:href="#DejaVuSans-74" x="824.316406"/>
      <use xlink:href="#DejaVuSans-20" x="863.525391"/>
      <use xlink:href="#DejaVuSans-63" x="895.3125"/>
      <use xlink:href="#DejaVuSans-6f" x="950.292969"/>
      <use xlink:href="#DejaVuSans-65" x="1011.474609"/>
      <use xlink:href="#DejaVuSans-66" x="1072.998047"/>
      <use xlink:href="#DejaVuSans-66" x="1108.203125"/>
      <use xlink:href="#DejaVuSans-69" x="1143.408203"/>
      <use xlink:href="#DejaVuSans-63" x="1171.191406"/>
      <use xlink:href="#DejaVuSans-69" x="1226.171875"/>
      <use xlink:href="#DejaVuSans-65" x="1253.955078"/>
      <use xlink:href="#DejaVuSans-6e" x="1315.478516"/>
      <use xlink:href="#DejaVuSans-74" x="1378.857422"/>
      <use xlink:href="#DejaVuSans-20" x="1418.066406"/>
      <use xlink:href="#DejaVuSans-5b" x="1449.853516"/>
      <use xlink:href="#DejaVuSans-2d" x="1488.867188"/>
      <use xlink:href="#DejaVuSans-5d" x="1524.951172"/>
     </g>
    </g>
   </g>
   <g id="line2d_25">
    <path d="M 73.832727 190.922295 
L 83.378525 190.922295 
L 83.410994 190.390261 
L 83.540869 187.125994 
L 83.735681 187.125994 
L 83.76815 187.324104 
L 83.833087 189.332294 
L 83.898025 188.079919 
L 84.190243 186.043094 
L 85.131835 179.164188 
L 85.846147 172.663351 
L 87.7618 147.753024 
L 89.222892 129.4625 
L 90.943733 108.631032 
L 91.722982 102.852336 
L 92.567168 98.577911 
L 93.963322 95.164744 
L 94.060728 95.019624 
L 96.2686 112.176462 
L 97.047849 125.610237 
L 98.931033 158.035522 
L 99.288189 165.032507 
L 100.424594 192.279645 
L 100.586937 196.888078 
L 102.372716 228.243704 
L 102.989621 239.540286 
L 104.548119 257.764677 
L 105.587117 263.365837 
L 106.26896 265.822381 
L 106.301429 265.698833 
L 108.282019 254.849323 
L 109.77558 235.746527 
L 112.308138 191.34785 
L 112.502951 188.530473 
L 112.827638 183.180913 
L 113.574418 167.533353 
L 115.652415 138.728058 
L 116.853757 127.261538 
L 118.02263 122.72797 
L 119.256441 120.9839 
L 119.451253 122.526003 
L 122.211092 146.784412 
L 124.581308 182.302674 
L 125.035869 187.248321 
L 125.425494 194.086116 
L 125.78265 202.092884 
L 128.120396 230.076433 
L 128.802239 234.856708 
L 129.354207 238.175111 
L 129.484081 239.489409 
L 131.627016 239.489409 
L 131.984172 236.831702 
L 132.568608 233.633169 
L 134.744011 210.888125 
L 137.373976 176.687139 
L 139.224692 155.422217 
L 140.26369 147.376801 
L 141.27022 142.134996 
L 142.633906 137.967426 
L 142.666374 138.037192 
L 145.133996 146.807835 
L 148.705553 181.293851 
L 149.322458 187.125994 
L 398.487273 187.125994 
L 398.487273 187.125994 
" clip-path="url(#ped1dbc0dae)" style="fill: none; stroke: #1f77b4; stroke-width: 1.5; stroke-linecap: square"/>
   </g>
   <g id="line2d_26">
    <path d="M 73.832727 189.248114 
L 75.878255 191.507743 
L 76.689973 191.355793 
L 79.125126 190.422929 
L 82.01484 192.331486 
L 82.371996 192.519313 
L 82.404464 192.418653 
L 83.216182 188.257391 
L 84.385055 183.898663 
L 84.807148 181.753009 
L 85.52146 175.235599 
L 86.235771 166.221839 
L 86.657864 161.207781 
L 87.339707 153.961118 
L 87.664394 146.323489 
L 87.859206 145.981749 
L 88.054018 141.217411 
L 88.638455 128.76405 
L 90.813858 95.332361 
L 91.885325 79.383022 
L 93.443823 60.859227 
L 93.898385 59.08473 
L 93.930853 59.174965 
L 94.223072 60.274844 
L 97.047849 77.961333 
L 97.697223 90.661802 
L 100.814218 172.352242 
L 101.75581 199.758604 
L 102.048029 208.049778 
L 102.405185 216.441198 
L 103.02209 226.831434 
L 103.76887 249.126732 
L 104.093557 259.495287 
L 104.7754 269.710959 
L 105.132555 273.759254 
L 107.372896 293.051369 
L 107.665114 293.040412 
L 107.827458 292.172748 
L 108.217082 286.073382 
L 108.76905 277.43858 
L 109.710642 270.469436 
L 110.814578 253.961343 
L 112.210732 215.285833 
L 112.502951 211.344295 
L 112.665294 205.104721 
L 112.827638 202.77403 
L 112.925044 201.946643 
L 113.704293 185.983687 
L 115.035509 149.112575 
L 116.106977 130.105624 
L 118.152505 100.728675 
L 120.879876 100.783276 
L 121.334437 106.950848 
L 122.925404 130.268404 
L 124.678714 163.215318 
L 125.100807 172.506283 
L 128.02299 231.642299 
L 129.256801 247.501771 
L 129.808769 253.370549 
L 130.620486 262.345664 
L 130.685423 262.199925 
L 131.594547 259.896422 
L 132.568608 256.841418 
L 132.925764 255.008115 
L 134.062168 239.985128 
L 135.490791 218.830307 
L 136.075228 211.928664 
L 136.659665 202.340329 
L 136.919414 196.833275 
L 138.120756 171.628429 
L 138.705193 165.748678 
L 138.997411 159.962694 
L 140.101347 144.715958 
L 140.913064 135.26445 
L 142.146875 127.778446 
L 142.991061 125.639732 
L 143.607967 122.758574 
L 143.640435 122.781004 
L 144.03006 124.670667 
L 144.841777 128.940143 
L 145.133996 131.312477 
L 145.621026 134.641133 
L 146.432744 139.576684 
L 146.757431 144.430693 
L 148.121116 163.415074 
L 148.997771 175.171239 
L 150.134176 192.156491 
L 150.361457 196.76599 
L 151.53033 211.448552 
L 151.887485 214.884243 
L 154.062888 239.507515 
L 154.225232 239.351727 
L 155.361637 238.129591 
L 155.394105 238.166415 
L 156.205823 240.547729 
L 156.27076 240.45994 
L 156.790259 239.506881 
L 156.952603 238.717492 
L 157.439633 233.048865 
L 158.576038 222.292215 
L 159.842317 210.522891 
L 161.400815 190.376507 
L 163.933374 160.73964 
L 165.004841 151.777018 
L 165.78409 146.074304 
L 166.498401 143.802482 
L 166.628276 143.817815 
L 168.868616 145.906482 
L 169.193303 147.330148 
L 169.842677 152.232826 
L 172.699923 177.521237 
L 173.511641 189.033325 
L 176.985792 218.679557 
L 177.407885 219.808328 
L 178.868976 223.011162 
L 179.583288 225.356392 
L 179.7781 225.224468 
L 181.596347 218.681354 
L 185.460123 190.554481 
L 186.239372 182.455441 
L 187.148495 175.711236 
L 189.421304 162.536839 
L 190.297959 159.315183 
L 192.733112 159.352773 
L 193.999391 165.708872 
L 196.109857 176.96509 
L 197.895635 190.169108 
L 200.493131 205.86412 
L 200.655475 206.577424 
L 203.317909 213.165659 
L 203.447783 213.381758 
L 203.480252 213.311503 
L 206.142686 207.369082 
L 211.824708 176.982584 
L 214.649485 165.310695 
L 214.681954 165.390048 
L 217.961293 173.685596 
L 219.260041 178.614048 
L 223.123816 194.798793 
L 223.28616 195.472354 
L 223.318629 195.341436 
L 223.351097 195.210519 
L 223.708253 197.861787 
L 225.916125 201.233069 
L 227.53956 202.145438 
L 228.02659 202.058804 
L 228.935714 200.879836 
L 231.922834 191.874909 
L 232.767021 188.654449 
L 237.28017 175.358085 
L 237.442514 175.324299 
L 241.598507 175.467074 
L 246.598688 187.435324 
L 247.767561 190.571767 
L 248.384466 192.416207 
L 249.29359 192.736861 
L 252.475522 193.673101 
L 254.228832 192.709206 
L 254.650925 191.797605 
L 255.884736 189.098266 
L 260.949854 180.855208 
L 268.515061 184.624824 
L 274.554239 187.547504 
L 289.717123 186.239611 
L 398.487273 186.062333 
L 398.487273 186.062333 
" clip-path="url(#ped1dbc0dae)" style="fill: none; stroke: #ff7f0e; stroke-width: 1.5; stroke-linecap: square"/>
   </g>
   <g id="line2d_27">
    <path d="M 73.832727 190.980409 
L 83.378525 190.874996 
L 83.638275 188.365764 
L 83.703213 188.223443 
L 83.995431 185.928919 
L 84.0279 185.928919 
L 85.326648 176.59964 
L 86.300709 167.095616 
L 86.657864 161.295643 
L 87.599457 148.693771 
L 89.482641 117.140674 
L 90.456702 100.74062 
L 92.989261 65.844991 
L 93.995791 58.222735 
L 95.327008 53.568 
L 95.391945 53.675064 
L 96.203663 55.115846 
L 96.495881 57.37279 
L 98.086847 73.162236 
L 99.093377 93.856188 
L 99.970032 116.532994 
L 102.502591 185.928919 
L 102.535059 186.116044 
L 102.76234 196.822009 
L 104.093557 234.975581 
L 106.236491 280.411226 
L 106.983271 289.750687 
L 107.437833 292.473418 
L 108.02227 293.340507 
L 108.541769 295.488 
L 108.606706 295.334636 
L 109.256081 292.23522 
L 110.100267 282.942969 
L 112.438013 239.653743 
L 113.541949 209.277647 
L 114.710822 180.542032 
L 117.340787 122.032063 
L 119.711002 95.777734 
L 119.77594 95.839439 
L 120.295439 96.471384 
L 120.620126 97.481763 
L 121.918874 103.238848 
L 123.477372 121.831743 
L 124.841057 148.27726 
L 126.691773 186.90973 
L 126.919054 192.2266 
L 128.639895 224.676791 
L 130.068518 245.532365 
L 131.562078 261.192565 
L 133.932294 261.141238 
L 135.880416 238.336865 
L 137.990881 205.500691 
L 138.2831 201.803666 
L 138.477912 198.577812 
L 139.257161 181.683405 
L 142.374156 135.989068 
L 143.380686 128.936681 
L 145.036589 121.783504 
L 145.101527 121.804319 
L 145.231402 121.84595 
L 146.497681 129.926853 
L 147.991241 141.579177 
L 150.491331 178.429885 
L 150.913424 184.250742 
L 151.855017 200.277561 
L 152.114766 203.898198 
L 153.218702 217.490929 
L 155.426574 238.466794 
L 157.082478 239.818367 
L 157.114946 239.758176 
L 157.991601 237.98248 
L 158.381226 235.584765 
L 159.128006 229.240401 
L 161.173534 209.102315 
L 163.089187 185.928919 
L 398.487273 185.928919 
L 398.487273 185.928919 
" clip-path="url(#ped1dbc0dae)" style="fill: none; stroke: #2ca02c; stroke-width: 1.5; stroke-linecap: square"/>
   </g>
   <g id="patch_3">
    <path d="M 57.6 307.584 
L 57.6 41.472 
" style="fill: none; stroke: #000000; stroke-width: 0.8; stroke-linejoin: miter; stroke-linecap: square"/>
   </g>
   <g id="patch_4">
    <path d="M 414.72 307.584 
L 414.72 41.472 
" style="fill: none; stroke: #000000; stroke-width: 0.8; stroke-linejoin: miter; stroke-linecap: square"/>
   </g>
   <g id="patch_5">
    <path d="M 57.6 307.584 
L 414.72 307.584 
" style="fill: none; stroke: #000000; stroke-width: 0.8; stroke-linejoin: miter; stroke-linecap: square"/>
   </g>
   <g id="patch_6">
    <path d="M 57.6 41.472 
L 414.72 41.472 
" style="fill: none; stroke: #000000; stroke-width: 0.8; stroke-linejoin: miter; stroke-linecap: square"/>
   </g>
   <g id="legend_1">
    <g id="patch_7">
     <path d="M 341.202813 93.506375 
L 407.72 93.506375 
Q 409.72 93.506375 409.72 91.506375 
L 409.72 48.472 
Q 409.72 46.472 407.72 46.472 
L 341.202813 46.472 
Q 339.202813 46.472 339.202813 48.472 
L 339.202813 91.506375 
Q 339.202813 93.506375 341.202813 93.506375 
z
" style="fill: #ffffff; opacity: 0.8; stroke: #cccccc; stroke-linejoin: miter"/>
    </g>
    <g id="line2d_28">
     <path d="M 343.202813 54.570438 
L 353.202813 54.570438 
L 363.202813 54.570438 
" style="fill: none; stroke: #1f77b4; stroke-width: 1.5; stroke-linecap: square"/>
    </g>
    <g id="text_15">
     <!-- Rel0 -->
     <g transform="translate(371.202813 58.070438) scale(0.1 -0.1)">
      <defs>
       <path id="DejaVuSans-52" d="M 2841 2188 
Q 3044 2119 3236 1894 
Q 3428 1669 3622 1275 
L 4263 0 
L 3584 0 
L 2988 1197 
Q 2756 1666 2539 1819 
Q 2322 1972 1947 1972 
L 1259 1972 
L 1259 0 
L 628 0 
L 628 4666 
L 2053 4666 
Q 2853 4666 3247 4331 
Q 3641 3997 3641 3322 
Q 3641 2881 3436 2590 
Q 3231 2300 2841 2188 
z
M 1259 4147 
L 1259 2491 
L 2053 2491 
Q 2509 2491 2742 2702 
Q 2975 2913 2975 3322 
Q 2975 3731 2742 3939 
Q 2509 4147 2053 4147 
L 1259 4147 
z
" transform="scale(0.015625)"/>
       <path id="DejaVuSans-6c" d="M 603 4863 
L 1178 4863 
L 1178 0 
L 603 0 
L 603 4863 
z
" transform="scale(0.015625)"/>
      </defs>
      <use xlink:href="#DejaVuSans-52"/>
      <use xlink:href="#DejaVuSans-65" x="64.982422"/>
      <use xlink:href="#DejaVuSans-6c" x="126.505859"/>
      <use xlink:href="#DejaVuSans-30" x="154.289062"/>
     </g>
    </g>
    <g id="line2d_29">
     <path d="M 343.202813 69.248563 
L 353.202813 69.248563 
L 363.202813 69.248563 
" style="fill: none; stroke: #ff7f0e; stroke-width: 1.5; stroke-linecap: square"/>
    </g>
    <g id="text_16">
     <!-- Rel50 -->
     <g transform="translate(371.202813 72.748563) scale(0.1 -0.1)">
      <use xlink:href="#DejaVuSans-52"/>
      <use xlink:href="#DejaVuSans-65" x="64.982422"/>
      <use xlink:href="#DejaVuSans-6c" x="126.505859"/>
      <use xlink:href="#DejaVuSans-35" x="154.289062"/>
      <use xlink:href="#DejaVuSans-30" x="217.912109"/>
     </g>
    </g>
    <g id="line2d_30">
     <path d="M 343.202813 83.926688 
L 353.202813 83.926688 
L 363.202813 83.926688 
" style="fill: none; stroke: #2ca02c; stroke-width: 1.5; stroke-linecap: square"/>
    </g>
    <g id="text_17">
     <!-- Rel100 -->
     <g transform="translate(371.202813 87.426688) scale(0.1 -0.1)">
      <use xlink:href="#DejaVuSans-52"/>
      <use xlink:href="#DejaVuSans-65" x="64.982422"/>
      <use xlink:href="#DejaVuSans-6c" x="126.505859"/>
      <use xlink:href="#DejaVuSans-31" x="154.289062"/>
      <use xlink:href="#DejaVuSans-30" x="217.912109"/>
      <use xlink:href="#DejaVuSans-30" x="281.535156"/>
     </g>
    </g>
   </g>
  </g>
 </g>
 <defs>
  <clipPath id="ped1dbc0dae">
   <rect x="57.6" y="41.472" width="357.12" height="266.112"/>
  </clipPath>
 </defs>
</svg>
