<?xml version="1.0" encoding="utf-8" standalone="no"?>
<!DOCTYPE svg PUBLIC "-//W3C//DTD SVG 1.1//EN"
  "http://www.w3.org/Graphics/SVG/1.1/DTD/svg11.dtd">
<svg xmlns:xlink="http://www.w3.org/1999/xlink" width="460.8pt" height="345.6pt" viewBox="0 0 460.8 345.6" xmlns="http://www.w3.org/2000/svg" version="1.1">
 <metadata>
  <rdf:RDF xmlns:dc="http://purl.org/dc/elements/1.1/" xmlns:cc="http://creativecommons.org/ns#" xmlns:rdf="http://www.w3.org/1999/02/22-rdf-syntax-ns#">
   <cc:Work>
    <dc:type rdf:resource="http://purl.org/dc/dcmitype/StillImage"/>
    <dc:date>2023-05-16T13:37:48.911381</dc:date>
    <dc:format>image/svg+xml</dc:format>
    <dc:creator>
     <cc:Agent>
      <dc:title>Matplotlib v3.6.2, https://matplotlib.org/</dc:title>
     </cc:Agent>
    </dc:creator>
   </cc:Work>
  </rdf:RDF>
 </metadata>
 <defs>
  <style type="text/css">*{stroke-linejoin: round; stroke-linecap: butt}</style>
 </defs>
 <g id="figure_1">
  <g id="patch_1">
   <path d="M 0 345.6 
L 460.8 345.6 
L 460.8 0 
L 0 0 
z
" style="fill: #ffffff"/>
  </g>
  <g id="axes_1">
   <g id="patch_2">
    <path d="M 57.6 307.584 
L 414.72 307.584 
L 414.72 41.472 
L 57.6 41.472 
z
" style="fill: #ffffff"/>
   </g>
   <g id="matplotlib.axis_1">
    <g id="xtick_1">
     <g id="line2d_1">
      <path d="M 73.832727 307.584 
L 73.832727 41.472 
" clip-path="url(#p5e4a7d396c)" style="fill: none; stroke: #b0b0b0; stroke-width: 0.8; stroke-linecap: square"/>
     </g>
     <g id="line2d_2">
      <defs>
       <path id="mcf52487524" d="M 0 0 
L 0 3.5 
" style="stroke: #000000; stroke-width: 0.8"/>
      </defs>
      <g>
       <use xlink:href="#mcf52487524" x="73.832727" y="307.584" style="stroke: #000000; stroke-width: 0.8"/>
      </g>
     </g>
     <g id="text_1">
      <!-- 0.0 -->
      <g transform="translate(65.881165 322.182437) scale(0.1 -0.1)">
       <defs>
        <path id="DejaVuSans-30" d="M 2034 4250 
Q 1547 4250 1301 3770 
Q 1056 3291 1056 2328 
Q 1056 1369 1301 889 
Q 1547 409 2034 409 
Q 2525 409 2770 889 
Q 3016 1369 3016 2328 
Q 3016 3291 2770 3770 
Q 2525 4250 2034 4250 
z
M 2034 4750 
Q 2819 4750 3233 4129 
Q 3647 3509 3647 2328 
Q 3647 1150 3233 529 
Q 2819 -91 2034 -91 
Q 1250 -91 836 529 
Q 422 1150 422 2328 
Q 422 3509 836 4129 
Q 1250 4750 2034 4750 
z
" transform="scale(0.015625)"/>
        <path id="DejaVuSans-2e" d="M 684 794 
L 1344 794 
L 1344 0 
L 684 0 
L 684 794 
z
" transform="scale(0.015625)"/>
       </defs>
       <use xlink:href="#DejaVuSans-30"/>
       <use xlink:href="#DejaVuSans-2e" x="63.623047"/>
       <use xlink:href="#DejaVuSans-30" x="95.410156"/>
      </g>
     </g>
    </g>
    <g id="xtick_2">
     <g id="line2d_3">
      <path d="M 114.414545 307.584 
L 114.414545 41.472 
" clip-path="url(#p5e4a7d396c)" style="fill: none; stroke: #b0b0b0; stroke-width: 0.8; stroke-linecap: square"/>
     </g>
     <g id="line2d_4">
      <g>
       <use xlink:href="#mcf52487524" x="114.414545" y="307.584" style="stroke: #000000; stroke-width: 0.8"/>
      </g>
     </g>
     <g id="text_2">
      <!-- 0.5 -->
      <g transform="translate(106.462983 322.182437) scale(0.1 -0.1)">
       <defs>
        <path id="DejaVuSans-35" d="M 691 4666 
L 3169 4666 
L 3169 4134 
L 1269 4134 
L 1269 2991 
Q 1406 3038 1543 3061 
Q 1681 3084 1819 3084 
Q 2600 3084 3056 2656 
Q 3513 2228 3513 1497 
Q 3513 744 3044 326 
Q 2575 -91 1722 -91 
Q 1428 -91 1123 -41 
Q 819 9 494 109 
L 494 744 
Q 775 591 1075 516 
Q 1375 441 1709 441 
Q 2250 441 2565 725 
Q 2881 1009 2881 1497 
Q 2881 1984 2565 2268 
Q 2250 2553 1709 2553 
Q 1456 2553 1204 2497 
Q 953 2441 691 2322 
L 691 4666 
z
" transform="scale(0.015625)"/>
       </defs>
       <use xlink:href="#DejaVuSans-30"/>
       <use xlink:href="#DejaVuSans-2e" x="63.623047"/>
       <use xlink:href="#DejaVuSans-35" x="95.410156"/>
      </g>
     </g>
    </g>
    <g id="xtick_3">
     <g id="line2d_5">
      <path d="M 154.996364 307.584 
L 154.996364 41.472 
" clip-path="url(#p5e4a7d396c)" style="fill: none; stroke: #b0b0b0; stroke-width: 0.8; stroke-linecap: square"/>
     </g>
     <g id="line2d_6">
      <g>
       <use xlink:href="#mcf52487524" x="154.996364" y="307.584" style="stroke: #000000; stroke-width: 0.8"/>
      </g>
     </g>
     <g id="text_3">
      <!-- 1.0 -->
      <g transform="translate(147.044801 322.182437) scale(0.1 -0.1)">
       <defs>
        <path id="DejaVuSans-31" d="M 794 531 
L 1825 531 
L 1825 4091 
L 703 3866 
L 703 4441 
L 1819 4666 
L 2450 4666 
L 2450 531 
L 3481 531 
L 3481 0 
L 794 0 
L 794 531 
z
" transform="scale(0.015625)"/>
       </defs>
       <use xlink:href="#DejaVuSans-31"/>
       <use xlink:href="#DejaVuSans-2e" x="63.623047"/>
       <use xlink:href="#DejaVuSans-30" x="95.410156"/>
      </g>
     </g>
    </g>
    <g id="xtick_4">
     <g id="line2d_7">
      <path d="M 195.578182 307.584 
L 195.578182 41.472 
" clip-path="url(#p5e4a7d396c)" style="fill: none; stroke: #b0b0b0; stroke-width: 0.8; stroke-linecap: square"/>
     </g>
     <g id="line2d_8">
      <g>
       <use xlink:href="#mcf52487524" x="195.578182" y="307.584" style="stroke: #000000; stroke-width: 0.8"/>
      </g>
     </g>
     <g id="text_4">
      <!-- 1.5 -->
      <g transform="translate(187.626619 322.182437) scale(0.1 -0.1)">
       <use xlink:href="#DejaVuSans-31"/>
       <use xlink:href="#DejaVuSans-2e" x="63.623047"/>
       <use xlink:href="#DejaVuSans-35" x="95.410156"/>
      </g>
     </g>
    </g>
    <g id="xtick_5">
     <g id="line2d_9">
      <path d="M 236.16 307.584 
L 236.16 41.472 
" clip-path="url(#p5e4a7d396c)" style="fill: none; stroke: #b0b0b0; stroke-width: 0.8; stroke-linecap: square"/>
     </g>
     <g id="line2d_10">
      <g>
       <use xlink:href="#mcf52487524" x="236.16" y="307.584" style="stroke: #000000; stroke-width: 0.8"/>
      </g>
     </g>
     <g id="text_5">
      <!-- 2.0 -->
      <g transform="translate(228.208438 322.182437) scale(0.1 -0.1)">
       <defs>
        <path id="DejaVuSans-32" d="M 1228 531 
L 3431 531 
L 3431 0 
L 469 0 
L 469 531 
Q 828 903 1448 1529 
Q 2069 2156 2228 2338 
Q 2531 2678 2651 2914 
Q 2772 3150 2772 3378 
Q 2772 3750 2511 3984 
Q 2250 4219 1831 4219 
Q 1534 4219 1204 4116 
Q 875 4013 500 3803 
L 500 4441 
Q 881 4594 1212 4672 
Q 1544 4750 1819 4750 
Q 2544 4750 2975 4387 
Q 3406 4025 3406 3419 
Q 3406 3131 3298 2873 
Q 3191 2616 2906 2266 
Q 2828 2175 2409 1742 
Q 1991 1309 1228 531 
z
" transform="scale(0.015625)"/>
       </defs>
       <use xlink:href="#DejaVuSans-32"/>
       <use xlink:href="#DejaVuSans-2e" x="63.623047"/>
       <use xlink:href="#DejaVuSans-30" x="95.410156"/>
      </g>
     </g>
    </g>
    <g id="xtick_6">
     <g id="line2d_11">
      <path d="M 276.741818 307.584 
L 276.741818 41.472 
" clip-path="url(#p5e4a7d396c)" style="fill: none; stroke: #b0b0b0; stroke-width: 0.8; stroke-linecap: square"/>
     </g>
     <g id="line2d_12">
      <g>
       <use xlink:href="#mcf52487524" x="276.741818" y="307.584" style="stroke: #000000; stroke-width: 0.8"/>
      </g>
     </g>
     <g id="text_6">
      <!-- 2.5 -->
      <g transform="translate(268.790256 322.182437) scale(0.1 -0.1)">
       <use xlink:href="#DejaVuSans-32"/>
       <use xlink:href="#DejaVuSans-2e" x="63.623047"/>
       <use xlink:href="#DejaVuSans-35" x="95.410156"/>
      </g>
     </g>
    </g>
    <g id="xtick_7">
     <g id="line2d_13">
      <path d="M 317.323636 307.584 
L 317.323636 41.472 
" clip-path="url(#p5e4a7d396c)" style="fill: none; stroke: #b0b0b0; stroke-width: 0.8; stroke-linecap: square"/>
     </g>
     <g id="line2d_14">
      <g>
       <use xlink:href="#mcf52487524" x="317.323636" y="307.584" style="stroke: #000000; stroke-width: 0.8"/>
      </g>
     </g>
     <g id="text_7">
      <!-- 3.0 -->
      <g transform="translate(309.372074 322.182437) scale(0.1 -0.1)">
       <defs>
        <path id="DejaVuSans-33" d="M 2597 2516 
Q 3050 2419 3304 2112 
Q 3559 1806 3559 1356 
Q 3559 666 3084 287 
Q 2609 -91 1734 -91 
Q 1441 -91 1130 -33 
Q 819 25 488 141 
L 488 750 
Q 750 597 1062 519 
Q 1375 441 1716 441 
Q 2309 441 2620 675 
Q 2931 909 2931 1356 
Q 2931 1769 2642 2001 
Q 2353 2234 1838 2234 
L 1294 2234 
L 1294 2753 
L 1863 2753 
Q 2328 2753 2575 2939 
Q 2822 3125 2822 3475 
Q 2822 3834 2567 4026 
Q 2313 4219 1838 4219 
Q 1578 4219 1281 4162 
Q 984 4106 628 3988 
L 628 4550 
Q 988 4650 1302 4700 
Q 1616 4750 1894 4750 
Q 2613 4750 3031 4423 
Q 3450 4097 3450 3541 
Q 3450 3153 3228 2886 
Q 3006 2619 2597 2516 
z
" transform="scale(0.015625)"/>
       </defs>
       <use xlink:href="#DejaVuSans-33"/>
       <use xlink:href="#DejaVuSans-2e" x="63.623047"/>
       <use xlink:href="#DejaVuSans-30" x="95.410156"/>
      </g>
     </g>
    </g>
    <g id="xtick_8">
     <g id="line2d_15">
      <path d="M 357.905455 307.584 
L 357.905455 41.472 
" clip-path="url(#p5e4a7d396c)" style="fill: none; stroke: #b0b0b0; stroke-width: 0.8; stroke-linecap: square"/>
     </g>
     <g id="line2d_16">
      <g>
       <use xlink:href="#mcf52487524" x="357.905455" y="307.584" style="stroke: #000000; stroke-width: 0.8"/>
      </g>
     </g>
     <g id="text_8">
      <!-- 3.5 -->
      <g transform="translate(349.953892 322.182437) scale(0.1 -0.1)">
       <use xlink:href="#DejaVuSans-33"/>
       <use xlink:href="#DejaVuSans-2e" x="63.623047"/>
       <use xlink:href="#DejaVuSans-35" x="95.410156"/>
      </g>
     </g>
    </g>
    <g id="xtick_9">
     <g id="line2d_17">
      <path d="M 398.487273 307.584 
L 398.487273 41.472 
" clip-path="url(#p5e4a7d396c)" style="fill: none; stroke: #b0b0b0; stroke-width: 0.8; stroke-linecap: square"/>
     </g>
     <g id="line2d_18">
      <g>
       <use xlink:href="#mcf52487524" x="398.487273" y="307.584" style="stroke: #000000; stroke-width: 0.8"/>
      </g>
     </g>
     <g id="text_9">
      <!-- 4.0 -->
      <g transform="translate(390.53571 322.182437) scale(0.1 -0.1)">
       <defs>
        <path id="DejaVuSans-34" d="M 2419 4116 
L 825 1625 
L 2419 1625 
L 2419 4116 
z
M 2253 4666 
L 3047 4666 
L 3047 1625 
L 3713 1625 
L 3713 1100 
L 3047 1100 
L 3047 0 
L 2419 0 
L 2419 1100 
L 313 1100 
L 313 1709 
L 2253 4666 
z
" transform="scale(0.015625)"/>
       </defs>
       <use xlink:href="#DejaVuSans-34"/>
       <use xlink:href="#DejaVuSans-2e" x="63.623047"/>
       <use xlink:href="#DejaVuSans-30" x="95.410156"/>
      </g>
     </g>
    </g>
    <g id="text_10">
     <!-- Time [s] -->
     <g transform="translate(215.831094 335.860562) scale(0.1 -0.1)">
      <defs>
       <path id="DejaVuSans-54" d="M -19 4666 
L 3928 4666 
L 3928 4134 
L 2272 4134 
L 2272 0 
L 1638 0 
L 1638 4134 
L -19 4134 
L -19 4666 
z
" transform="scale(0.015625)"/>
       <path id="DejaVuSans-69" d="M 603 3500 
L 1178 3500 
L 1178 0 
L 603 0 
L 603 3500 
z
M 603 4863 
L 1178 4863 
L 1178 4134 
L 603 4134 
L 603 4863 
z
" transform="scale(0.015625)"/>
       <path id="DejaVuSans-6d" d="M 3328 2828 
Q 3544 3216 3844 3400 
Q 4144 3584 4550 3584 
Q 5097 3584 5394 3201 
Q 5691 2819 5691 2113 
L 5691 0 
L 5113 0 
L 5113 2094 
Q 5113 2597 4934 2840 
Q 4756 3084 4391 3084 
Q 3944 3084 3684 2787 
Q 3425 2491 3425 1978 
L 3425 0 
L 2847 0 
L 2847 2094 
Q 2847 2600 2669 2842 
Q 2491 3084 2119 3084 
Q 1678 3084 1418 2786 
Q 1159 2488 1159 1978 
L 1159 0 
L 581 0 
L 581 3500 
L 1159 3500 
L 1159 2956 
Q 1356 3278 1631 3431 
Q 1906 3584 2284 3584 
Q 2666 3584 2933 3390 
Q 3200 3197 3328 2828 
z
" transform="scale(0.015625)"/>
       <path id="DejaVuSans-65" d="M 3597 1894 
L 3597 1613 
L 953 1613 
Q 991 1019 1311 708 
Q 1631 397 2203 397 
Q 2534 397 2845 478 
Q 3156 559 3463 722 
L 3463 178 
Q 3153 47 2828 -22 
Q 2503 -91 2169 -91 
Q 1331 -91 842 396 
Q 353 884 353 1716 
Q 353 2575 817 3079 
Q 1281 3584 2069 3584 
Q 2775 3584 3186 3129 
Q 3597 2675 3597 1894 
z
M 3022 2063 
Q 3016 2534 2758 2815 
Q 2500 3097 2075 3097 
Q 1594 3097 1305 2825 
Q 1016 2553 972 2059 
L 3022 2063 
z
" transform="scale(0.015625)"/>
       <path id="DejaVuSans-20" transform="scale(0.015625)"/>
       <path id="DejaVuSans-5b" d="M 550 4863 
L 1875 4863 
L 1875 4416 
L 1125 4416 
L 1125 -397 
L 1875 -397 
L 1875 -844 
L 550 -844 
L 550 4863 
z
" transform="scale(0.015625)"/>
       <path id="DejaVuSans-73" d="M 2834 3397 
L 2834 2853 
Q 2591 2978 2328 3040 
Q 2066 3103 1784 3103 
Q 1356 3103 1142 2972 
Q 928 2841 928 2578 
Q 928 2378 1081 2264 
Q 1234 2150 1697 2047 
L 1894 2003 
Q 2506 1872 2764 1633 
Q 3022 1394 3022 966 
Q 3022 478 2636 193 
Q 2250 -91 1575 -91 
Q 1294 -91 989 -36 
Q 684 19 347 128 
L 347 722 
Q 666 556 975 473 
Q 1284 391 1588 391 
Q 1994 391 2212 530 
Q 2431 669 2431 922 
Q 2431 1156 2273 1281 
Q 2116 1406 1581 1522 
L 1381 1569 
Q 847 1681 609 1914 
Q 372 2147 372 2553 
Q 372 3047 722 3315 
Q 1072 3584 1716 3584 
Q 2034 3584 2315 3537 
Q 2597 3491 2834 3397 
z
" transform="scale(0.015625)"/>
       <path id="DejaVuSans-5d" d="M 1947 4863 
L 1947 -844 
L 622 -844 
L 622 -397 
L 1369 -397 
L 1369 4416 
L 622 4416 
L 622 4863 
L 1947 4863 
z
" transform="scale(0.015625)"/>
      </defs>
      <use xlink:href="#DejaVuSans-54"/>
      <use xlink:href="#DejaVuSans-69" x="57.958984"/>
      <use xlink:href="#DejaVuSans-6d" x="85.742188"/>
      <use xlink:href="#DejaVuSans-65" x="183.154297"/>
      <use xlink:href="#DejaVuSans-20" x="244.677734"/>
      <use xlink:href="#DejaVuSans-5b" x="276.464844"/>
      <use xlink:href="#DejaVuSans-73" x="315.478516"/>
      <use xlink:href="#DejaVuSans-5d" x="367.578125"/>
     </g>
    </g>
   </g>
   <g id="matplotlib.axis_2">
    <g id="ytick_1">
     <g id="line2d_19">
      <path d="M 57.6 276.836017 
L 414.72 276.836017 
" clip-path="url(#p5e4a7d396c)" style="fill: none; stroke: #b0b0b0; stroke-width: 0.8; stroke-linecap: square"/>
     </g>
     <g id="line2d_20">
      <defs>
       <path id="mc19d431cde" d="M 0 0 
L -3.5 0 
" style="stroke: #000000; stroke-width: 0.8"/>
      </defs>
      <g>
       <use xlink:href="#mc19d431cde" x="57.6" y="276.836017" style="stroke: #000000; stroke-width: 0.8"/>
      </g>
     </g>
     <g id="text_11">
      <!-- 0.00 -->
      <g transform="translate(28.334375 280.635236) scale(0.1 -0.1)">
       <use xlink:href="#DejaVuSans-30"/>
       <use xlink:href="#DejaVuSans-2e" x="63.623047"/>
       <use xlink:href="#DejaVuSans-30" x="95.410156"/>
       <use xlink:href="#DejaVuSans-30" x="159.033203"/>
      </g>
     </g>
    </g>
    <g id="ytick_2">
     <g id="line2d_21">
      <path d="M 57.6 246.06137 
L 414.72 246.06137 
" clip-path="url(#p5e4a7d396c)" style="fill: none; stroke: #b0b0b0; stroke-width: 0.8; stroke-linecap: square"/>
     </g>
     <g id="line2d_22">
      <g>
       <use xlink:href="#mc19d431cde" x="57.6" y="246.06137" style="stroke: #000000; stroke-width: 0.8"/>
      </g>
     </g>
     <g id="text_12">
      <!-- 0.01 -->
      <g transform="translate(28.334375 249.860588) scale(0.1 -0.1)">
       <use xlink:href="#DejaVuSans-30"/>
       <use xlink:href="#DejaVuSans-2e" x="63.623047"/>
       <use xlink:href="#DejaVuSans-30" x="95.410156"/>
       <use xlink:href="#DejaVuSans-31" x="159.033203"/>
      </g>
     </g>
    </g>
    <g id="ytick_3">
     <g id="line2d_23">
      <path d="M 57.6 215.286722 
L 414.72 215.286722 
" clip-path="url(#p5e4a7d396c)" style="fill: none; stroke: #b0b0b0; stroke-width: 0.8; stroke-linecap: square"/>
     </g>
     <g id="line2d_24">
      <g>
       <use xlink:href="#mc19d431cde" x="57.6" y="215.286722" style="stroke: #000000; stroke-width: 0.8"/>
      </g>
     </g>
     <g id="text_13">
      <!-- 0.02 -->
      <g transform="translate(28.334375 219.085941) scale(0.1 -0.1)">
       <use xlink:href="#DejaVuSans-30"/>
       <use xlink:href="#DejaVuSans-2e" x="63.623047"/>
       <use xlink:href="#DejaVuSans-30" x="95.410156"/>
       <use xlink:href="#DejaVuSans-32" x="159.033203"/>
      </g>
     </g>
    </g>
    <g id="ytick_4">
     <g id="line2d_25">
      <path d="M 57.6 184.512074 
L 414.72 184.512074 
" clip-path="url(#p5e4a7d396c)" style="fill: none; stroke: #b0b0b0; stroke-width: 0.8; stroke-linecap: square"/>
     </g>
     <g id="line2d_26">
      <g>
       <use xlink:href="#mc19d431cde" x="57.6" y="184.512074" style="stroke: #000000; stroke-width: 0.8"/>
      </g>
     </g>
     <g id="text_14">
      <!-- 0.03 -->
      <g transform="translate(28.334375 188.311293) scale(0.1 -0.1)">
       <use xlink:href="#DejaVuSans-30"/>
       <use xlink:href="#DejaVuSans-2e" x="63.623047"/>
       <use xlink:href="#DejaVuSans-30" x="95.410156"/>
       <use xlink:href="#DejaVuSans-33" x="159.033203"/>
      </g>
     </g>
    </g>
    <g id="ytick_5">
     <g id="line2d_27">
      <path d="M 57.6 153.737427 
L 414.72 153.737427 
" clip-path="url(#p5e4a7d396c)" style="fill: none; stroke: #b0b0b0; stroke-width: 0.8; stroke-linecap: square"/>
     </g>
     <g id="line2d_28">
      <g>
       <use xlink:href="#mc19d431cde" x="57.6" y="153.737427" style="stroke: #000000; stroke-width: 0.8"/>
      </g>
     </g>
     <g id="text_15">
      <!-- 0.04 -->
      <g transform="translate(28.334375 157.536645) scale(0.1 -0.1)">
       <use xlink:href="#DejaVuSans-30"/>
       <use xlink:href="#DejaVuSans-2e" x="63.623047"/>
       <use xlink:href="#DejaVuSans-30" x="95.410156"/>
       <use xlink:href="#DejaVuSans-34" x="159.033203"/>
      </g>
     </g>
    </g>
    <g id="ytick_6">
     <g id="line2d_29">
      <path d="M 57.6 122.962779 
L 414.72 122.962779 
" clip-path="url(#p5e4a7d396c)" style="fill: none; stroke: #b0b0b0; stroke-width: 0.8; stroke-linecap: square"/>
     </g>
     <g id="line2d_30">
      <g>
       <use xlink:href="#mc19d431cde" x="57.6" y="122.962779" style="stroke: #000000; stroke-width: 0.8"/>
      </g>
     </g>
     <g id="text_16">
      <!-- 0.05 -->
      <g transform="translate(28.334375 126.761998) scale(0.1 -0.1)">
       <use xlink:href="#DejaVuSans-30"/>
       <use xlink:href="#DejaVuSans-2e" x="63.623047"/>
       <use xlink:href="#DejaVuSans-30" x="95.410156"/>
       <use xlink:href="#DejaVuSans-35" x="159.033203"/>
      </g>
     </g>
    </g>
    <g id="ytick_7">
     <g id="line2d_31">
      <path d="M 57.6 92.188131 
L 414.72 92.188131 
" clip-path="url(#p5e4a7d396c)" style="fill: none; stroke: #b0b0b0; stroke-width: 0.8; stroke-linecap: square"/>
     </g>
     <g id="line2d_32">
      <g>
       <use xlink:href="#mc19d431cde" x="57.6" y="92.188131" style="stroke: #000000; stroke-width: 0.8"/>
      </g>
     </g>
     <g id="text_17">
      <!-- 0.06 -->
      <g transform="translate(28.334375 95.98735) scale(0.1 -0.1)">
       <defs>
        <path id="DejaVuSans-36" d="M 2113 2584 
Q 1688 2584 1439 2293 
Q 1191 2003 1191 1497 
Q 1191 994 1439 701 
Q 1688 409 2113 409 
Q 2538 409 2786 701 
Q 3034 994 3034 1497 
Q 3034 2003 2786 2293 
Q 2538 2584 2113 2584 
z
M 3366 4563 
L 3366 3988 
Q 3128 4100 2886 4159 
Q 2644 4219 2406 4219 
Q 1781 4219 1451 3797 
Q 1122 3375 1075 2522 
Q 1259 2794 1537 2939 
Q 1816 3084 2150 3084 
Q 2853 3084 3261 2657 
Q 3669 2231 3669 1497 
Q 3669 778 3244 343 
Q 2819 -91 2113 -91 
Q 1303 -91 875 529 
Q 447 1150 447 2328 
Q 447 3434 972 4092 
Q 1497 4750 2381 4750 
Q 2619 4750 2861 4703 
Q 3103 4656 3366 4563 
z
" transform="scale(0.015625)"/>
       </defs>
       <use xlink:href="#DejaVuSans-30"/>
       <use xlink:href="#DejaVuSans-2e" x="63.623047"/>
       <use xlink:href="#DejaVuSans-30" x="95.410156"/>
       <use xlink:href="#DejaVuSans-36" x="159.033203"/>
      </g>
     </g>
    </g>
    <g id="ytick_8">
     <g id="line2d_33">
      <path d="M 57.6 61.413484 
L 414.72 61.413484 
" clip-path="url(#p5e4a7d396c)" style="fill: none; stroke: #b0b0b0; stroke-width: 0.8; stroke-linecap: square"/>
     </g>
     <g id="line2d_34">
      <g>
       <use xlink:href="#mc19d431cde" x="57.6" y="61.413484" style="stroke: #000000; stroke-width: 0.8"/>
      </g>
     </g>
     <g id="text_18">
      <!-- 0.07 -->
      <g transform="translate(28.334375 65.212702) scale(0.1 -0.1)">
       <defs>
        <path id="DejaVuSans-37" d="M 525 4666 
L 3525 4666 
L 3525 4397 
L 1831 0 
L 1172 0 
L 2766 4134 
L 525 4134 
L 525 4666 
z
" transform="scale(0.015625)"/>
       </defs>
       <use xlink:href="#DejaVuSans-30"/>
       <use xlink:href="#DejaVuSans-2e" x="63.623047"/>
       <use xlink:href="#DejaVuSans-30" x="95.410156"/>
       <use xlink:href="#DejaVuSans-37" x="159.033203"/>
      </g>
     </g>
    </g>
    <g id="text_19">
     <!-- Bending moment coefficient[-] -->
     <g transform="translate(22.254687 251.137375) rotate(-90) scale(0.1 -0.1)">
      <defs>
       <path id="DejaVuSans-42" d="M 1259 2228 
L 1259 519 
L 2272 519 
Q 2781 519 3026 730 
Q 3272 941 3272 1375 
Q 3272 1813 3026 2020 
Q 2781 2228 2272 2228 
L 1259 2228 
z
M 1259 4147 
L 1259 2741 
L 2194 2741 
Q 2656 2741 2882 2914 
Q 3109 3088 3109 3444 
Q 3109 3797 2882 3972 
Q 2656 4147 2194 4147 
L 1259 4147 
z
M 628 4666 
L 2241 4666 
Q 2963 4666 3353 4366 
Q 3744 4066 3744 3513 
Q 3744 3084 3544 2831 
Q 3344 2578 2956 2516 
Q 3422 2416 3680 2098 
Q 3938 1781 3938 1306 
Q 3938 681 3513 340 
Q 3088 0 2303 0 
L 628 0 
L 628 4666 
z
" transform="scale(0.015625)"/>
       <path id="DejaVuSans-6e" d="M 3513 2113 
L 3513 0 
L 2938 0 
L 2938 2094 
Q 2938 2591 2744 2837 
Q 2550 3084 2163 3084 
Q 1697 3084 1428 2787 
Q 1159 2491 1159 1978 
L 1159 0 
L 581 0 
L 581 3500 
L 1159 3500 
L 1159 2956 
Q 1366 3272 1645 3428 
Q 1925 3584 2291 3584 
Q 2894 3584 3203 3211 
Q 3513 2838 3513 2113 
z
" transform="scale(0.015625)"/>
       <path id="DejaVuSans-64" d="M 2906 2969 
L 2906 4863 
L 3481 4863 
L 3481 0 
L 2906 0 
L 2906 525 
Q 2725 213 2448 61 
Q 2172 -91 1784 -91 
Q 1150 -91 751 415 
Q 353 922 353 1747 
Q 353 2572 751 3078 
Q 1150 3584 1784 3584 
Q 2172 3584 2448 3432 
Q 2725 3281 2906 2969 
z
M 947 1747 
Q 947 1113 1208 752 
Q 1469 391 1925 391 
Q 2381 391 2643 752 
Q 2906 1113 2906 1747 
Q 2906 2381 2643 2742 
Q 2381 3103 1925 3103 
Q 1469 3103 1208 2742 
Q 947 2381 947 1747 
z
" transform="scale(0.015625)"/>
       <path id="DejaVuSans-67" d="M 2906 1791 
Q 2906 2416 2648 2759 
Q 2391 3103 1925 3103 
Q 1463 3103 1205 2759 
Q 947 2416 947 1791 
Q 947 1169 1205 825 
Q 1463 481 1925 481 
Q 2391 481 2648 825 
Q 2906 1169 2906 1791 
z
M 3481 434 
Q 3481 -459 3084 -895 
Q 2688 -1331 1869 -1331 
Q 1566 -1331 1297 -1286 
Q 1028 -1241 775 -1147 
L 775 -588 
Q 1028 -725 1275 -790 
Q 1522 -856 1778 -856 
Q 2344 -856 2625 -561 
Q 2906 -266 2906 331 
L 2906 616 
Q 2728 306 2450 153 
Q 2172 0 1784 0 
Q 1141 0 747 490 
Q 353 981 353 1791 
Q 353 2603 747 3093 
Q 1141 3584 1784 3584 
Q 2172 3584 2450 3431 
Q 2728 3278 2906 2969 
L 2906 3500 
L 3481 3500 
L 3481 434 
z
" transform="scale(0.015625)"/>
       <path id="DejaVuSans-6f" d="M 1959 3097 
Q 1497 3097 1228 2736 
Q 959 2375 959 1747 
Q 959 1119 1226 758 
Q 1494 397 1959 397 
Q 2419 397 2687 759 
Q 2956 1122 2956 1747 
Q 2956 2369 2687 2733 
Q 2419 3097 1959 3097 
z
M 1959 3584 
Q 2709 3584 3137 3096 
Q 3566 2609 3566 1747 
Q 3566 888 3137 398 
Q 2709 -91 1959 -91 
Q 1206 -91 779 398 
Q 353 888 353 1747 
Q 353 2609 779 3096 
Q 1206 3584 1959 3584 
z
" transform="scale(0.015625)"/>
       <path id="DejaVuSans-74" d="M 1172 4494 
L 1172 3500 
L 2356 3500 
L 2356 3053 
L 1172 3053 
L 1172 1153 
Q 1172 725 1289 603 
Q 1406 481 1766 481 
L 2356 481 
L 2356 0 
L 1766 0 
Q 1100 0 847 248 
Q 594 497 594 1153 
L 594 3053 
L 172 3053 
L 172 3500 
L 594 3500 
L 594 4494 
L 1172 4494 
z
" transform="scale(0.015625)"/>
       <path id="DejaVuSans-63" d="M 3122 3366 
L 3122 2828 
Q 2878 2963 2633 3030 
Q 2388 3097 2138 3097 
Q 1578 3097 1268 2742 
Q 959 2388 959 1747 
Q 959 1106 1268 751 
Q 1578 397 2138 397 
Q 2388 397 2633 464 
Q 2878 531 3122 666 
L 3122 134 
Q 2881 22 2623 -34 
Q 2366 -91 2075 -91 
Q 1284 -91 818 406 
Q 353 903 353 1747 
Q 353 2603 823 3093 
Q 1294 3584 2113 3584 
Q 2378 3584 2631 3529 
Q 2884 3475 3122 3366 
z
" transform="scale(0.015625)"/>
       <path id="DejaVuSans-66" d="M 2375 4863 
L 2375 4384 
L 1825 4384 
Q 1516 4384 1395 4259 
Q 1275 4134 1275 3809 
L 1275 3500 
L 2222 3500 
L 2222 3053 
L 1275 3053 
L 1275 0 
L 697 0 
L 697 3053 
L 147 3053 
L 147 3500 
L 697 3500 
L 697 3744 
Q 697 4328 969 4595 
Q 1241 4863 1831 4863 
L 2375 4863 
z
" transform="scale(0.015625)"/>
       <path id="DejaVuSans-2d" d="M 313 2009 
L 1997 2009 
L 1997 1497 
L 313 1497 
L 313 2009 
z
" transform="scale(0.015625)"/>
      </defs>
      <use xlink:href="#DejaVuSans-42"/>
      <use xlink:href="#DejaVuSans-65" x="68.603516"/>
      <use xlink:href="#DejaVuSans-6e" x="130.126953"/>
      <use xlink:href="#DejaVuSans-64" x="193.505859"/>
      <use xlink:href="#DejaVuSans-69" x="256.982422"/>
      <use xlink:href="#DejaVuSans-6e" x="284.765625"/>
      <use xlink:href="#DejaVuSans-67" x="348.144531"/>
      <use xlink:href="#DejaVuSans-20" x="411.621094"/>
      <use xlink:href="#DejaVuSans-6d" x="443.408203"/>
      <use xlink:href="#DejaVuSans-6f" x="540.820312"/>
      <use xlink:href="#DejaVuSans-6d" x="602.001953"/>
      <use xlink:href="#DejaVuSans-65" x="699.414062"/>
      <use xlink:href="#DejaVuSans-6e" x="760.9375"/>
      <use xlink:href="#DejaVuSans-74" x="824.316406"/>
      <use xlink:href="#DejaVuSans-20" x="863.525391"/>
      <use xlink:href="#DejaVuSans-63" x="895.3125"/>
      <use xlink:href="#DejaVuSans-6f" x="950.292969"/>
      <use xlink:href="#DejaVuSans-65" x="1011.474609"/>
      <use xlink:href="#DejaVuSans-66" x="1072.998047"/>
      <use xlink:href="#DejaVuSans-66" x="1108.203125"/>
      <use xlink:href="#DejaVuSans-69" x="1143.408203"/>
      <use xlink:href="#DejaVuSans-63" x="1171.191406"/>
      <use xlink:href="#DejaVuSans-69" x="1226.171875"/>
      <use xlink:href="#DejaVuSans-65" x="1253.955078"/>
      <use xlink:href="#DejaVuSans-6e" x="1315.478516"/>
      <use xlink:href="#DejaVuSans-74" x="1378.857422"/>
      <use xlink:href="#DejaVuSans-5b" x="1418.066406"/>
      <use xlink:href="#DejaVuSans-2d" x="1457.080078"/>
      <use xlink:href="#DejaVuSans-5d" x="1493.164062"/>
     </g>
    </g>
   </g>
   <g id="line2d_35">
    <path d="M 73.832727 275.816665 
L 77.956252 276.892645 
L 79.482281 278.114098 
L 83.151245 278.416582 
L 86.105896 277.728915 
L 87.599457 275.54778 
L 90.846327 272.274759 
L 91.235951 272.012412 
L 92.404824 271.529767 
L 92.956792 271.434563 
L 93.411354 271.334426 
L 95.554289 269.3919 
L 97.112786 268.616486 
L 97.27513 267.677785 
L 97.956972 265.804152 
L 98.411534 264.165207 
L 99.807688 263.374037 
L 101.171374 262.740643 
L 101.26878 262.650403 
L 101.301249 262.727717 
L 101.560998 263.126847 
L 101.658404 262.612524 
L 102.535059 257.19088 
L 102.567528 257.223025 
L 102.599997 257.259299 
L 102.632465 257.220901 
L 102.989621 255.834274 
L 104.288369 253.846828 
L 105.911804 249.263711 
L 106.788459 246.355228 
L 107.210552 245.311995 
L 108.217082 242.714775 
L 111.366546 231.848679 
L 114.386135 221.922273 
L 116.886225 211.42009 
L 122.990341 181.647297 
L 123.315028 180.380935 
L 124.386495 177.517643 
L 128.412614 170.549322 
L 128.574958 170.43585 
L 129.061988 170.738677 
L 135.847947 186.850852 
L 138.607787 188.635517 
L 141.465032 184.646139 
L 147.114586 168.670411 
L 149.289989 166.594087 
L 150.751081 165.621041 
L 150.945893 165.365607 
L 151.140705 165.40647 
L 151.725142 166.041431 
L 152.212172 166.693115 
L 156.952603 171.357766 
L 171.823268 171.460799 
L 175.427294 177.42225 
L 180.395005 182.817142 
L 180.946973 183.209777 
L 188.901805 184.472417 
L 192.375956 191.342908 
L 193.869516 195.480261 
L 200.752881 221.532775 
L 204.29197 228.699894 
L 206.207623 232.530635 
L 208.058339 237.098788 
L 208.610307 238.992526 
L 209.909055 241.757373 
L 211.564959 247.227603 
L 213.090988 251.76569 
L 213.578018 255.428259 
L 215.753421 265.408552 
L 216.597607 270.429663 
L 217.27945 272.423955 
L 217.798949 272.427701 
L 219.03276 279.845932 
L 219.097697 279.828248 
L 220.299039 279.8767 
L 221.402975 283.428088 
L 221.857537 283.964731 
L 222.604317 284.524595 
L 223.643316 283.457212 
L 223.870597 282.632363 
L 224.455033 281.453686 
L 224.519971 281.544088 
L 225.201813 282.461362 
L 225.234282 282.400488 
L 228.188934 277.042834 
L 228.578558 276.98695 
L 229.357807 275.420949 
L 231.143586 272.0104 
L 232.572208 270.644699 
L 235.03983 271.41157 
L 240.721853 276.451445 
L 244.618097 276.189458 
L 246.079188 275.210398 
L 249.261121 273.118182 
L 251.339118 273.042252 
L 254.748332 275.683435 
L 255.624986 276.96045 
L 256.436704 277.042834 
L 256.599048 277.132213 
L 257.313359 278.890351 
L 258.157545 279.577586 
L 258.417295 279.102457 
L 258.514701 279.03218 
L 258.54717 279.124233 
L 258.871857 279.973435 
L 260.755041 280.036575 
L 261.242072 280.860599 
L 261.469353 281.0451 
L 261.729102 281.785193 
L 261.79404 281.759582 
L 264.03438 280.770252 
L 265.722753 278.905269 
L 267.963093 276.638119 
L 268.742342 275.408715 
L 271.632056 272.740288 
L 276.664705 272.793938 
L 277.54136 274.208345 
L 277.80111 274.197415 
L 282.996102 276.83346 
L 287.704063 278.485892 
L 293.970523 277.927593 
L 305.04235 277.042834 
L 398.487273 277.042834 
L 398.487273 277.042834 
" clip-path="url(#p5e4a7d396c)" style="fill: none; stroke: #1f77b4; stroke-width: 1.5; stroke-linecap: square"/>
   </g>
   <g id="line2d_36">
    <path d="M 73.832727 268.561529 
L 76.332817 268.384658 
L 79.125126 267.738102 
L 79.644625 267.692 
L 80.131655 267.516563 
L 81.073248 267.342913 
L 81.884965 266.105518 
L 89.190423 266.022022 
L 90.391765 264.800804 
L 90.846327 264.198638 
L 93.281479 262.880286 
L 93.865916 261.383116 
L 94.320478 260.116901 
L 96.853037 255.727011 
L 98.411534 252.140547 
L 99.742751 248.54897 
L 101.398655 243.362842 
L 107.113146 217.993629 
L 110.295079 200.828062 
L 112.210732 189.878687 
L 121.074688 136.5907 
L 124.51637 113.951854 
L 127.373616 95.132514 
L 129.224332 86.890118 
L 131.821828 81.286337 
L 136.432384 80.085033 
L 143.77031 78.524644 
L 146.887305 75.286754 
L 150.296519 71.90535 
L 151.725142 69.849004 
L 156.562978 67.808686 
L 162.245001 67.425486 
L 166.595807 69.189637 
L 177.213073 79.105123 
L 184.486062 88.977617 
L 193.057799 107.113073 
L 198.350197 128.29336 
L 200.655475 143.835417 
L 203.480252 161.17761 
L 213.253331 215.357898 
L 213.837768 219.023399 
L 215.071578 229.360531 
L 216.175514 234.751203 
L 219.260041 249.031606 
L 220.331508 252.831046 
L 220.688664 254.065348 
L 221.53285 259.637506 
L 221.565319 259.539056 
L 221.760131 259.12928 
L 221.7926 259.18653 
L 222.019881 260.406493 
L 222.701723 261.926849 
L 223.28616 264.899214 
L 224.195284 268.774976 
L 226.53303 271.115837 
L 227.961653 274.553108 
L 229.650025 274.351325 
L 230.429274 272.873089 
L 233.838488 272.31323 
L 237.312639 270.601249 
L 240.267291 269.00174 
L 241.630976 268.066037 
L 243.384286 266.663068 
L 244.163535 264.483223 
L 244.325878 264.299181 
L 245.267471 264.069564 
L 248.968903 263.675603 
L 251.79368 266.730401 
L 255.300299 269.765841 
L 255.852267 271.763919 
L 265.52794 271.762668 
L 266.177314 269.641499 
L 266.53447 269.145174 
L 267.346188 267.835065 
L 269.131966 267.621518 
L 271.177494 267.306892 
L 273.807459 267.336551 
L 274.911395 267.346302 
L 278.093328 267.292737 
L 279.684294 268.350317 
L 281.762291 269.261376 
L 282.411665 269.320104 
L 284.522131 269.354932 
L 291.04834 269.820869 
L 307.964533 270.086714 
L 317.932425 270.177005 
L 320.919545 270.559295 
L 327.673035 270.543557 
L 330.660155 271.270862 
L 398.487273 270.17867 
L 398.487273 270.17867 
" clip-path="url(#p5e4a7d396c)" style="fill: none; stroke: #ff7f0e; stroke-width: 1.5; stroke-linecap: square"/>
   </g>
   <g id="line2d_37">
    <path d="M 73.832727 275.211196 
L 86.300709 275.119699 
L 89.612516 269.554257 
L 99.77522 260.179275 
L 103.054559 256.807104 
L 104.580588 252.553965 
L 105.976742 249.359571 
L 110.457422 236.820906 
L 119.808408 198.245385 
L 122.925404 188.118855 
L 124.905995 183.29592 
L 127.633366 178.780842 
L 131.497141 180.718491 
L 132.860826 181.554555 
L 136.886945 184.348048 
L 139.809129 180.450865 
L 145.78337 168.109884 
L 156.53051 169.832152 
L 170.881676 169.810543 
L 171.206363 170.128043 
L 175.719512 176.489148 
L 176.628636 177.61646 
L 190.200553 184.480532 
L 192.181144 188.037343 
L 194.51889 193.90545 
L 197.603417 203.577562 
L 201.142506 215.634258 
L 204.03222 222.363033 
L 207.798589 231.809576 
L 210.78571 241.316757 
L 211.857177 243.921345 
L 213.090988 251.305856 
L 214.194923 254.944301 
L 218.675604 274.162649 
L 218.967823 275.157744 
L 219.77954 275.223909 
L 220.623726 280.258049 
L 221.175694 280.507098 
L 221.727662 280.763438 
L 222.734192 282.569835 
L 224.714783 282.985901 
L 225.948593 281.654716 
L 227.831778 278.963225 
L 228.481152 278.323855 
L 229.000651 277.15916 
L 230.331868 277.15916 
L 230.591618 276.241758 
L 231.240992 275.146963 
L 231.305929 275.191579 
L 231.370867 275.215208 
L 231.403335 275.155603 
L 231.468273 275.073136 
L 231.500741 275.113392 
L 231.53321 275.153648 
L 231.565679 275.077706 
L 232.734552 271.305332 
L 236.728202 271.388091 
L 238.189294 273.049829 
L 238.416575 273.380854 
L 242.312819 275.120483 
L 243.611567 275.574254 
L 243.968723 275.594089 
L 252.345648 273.604766 
L 254.423645 275.499054 
L 256.404235 277.15916 
L 398.487273 277.15916 
L 398.487273 277.15916 
" clip-path="url(#p5e4a7d396c)" style="fill: none; stroke: #2ca02c; stroke-width: 1.5; stroke-linecap: square"/>
   </g>
   <g id="line2d_38">
    <path d="M 73.832727 269.384592 
L 74.77432 269.376356 
L 84.51493 270.316631 
L 86.75527 270.616831 
L 88.638455 269.812056 
L 90.391765 267.728491 
L 91.658044 265.852357 
L 94.125666 264.388754 
L 99.060908 263.392205 
L 99.937563 262.931973 
L 101.138905 260.423548 
L 102.632465 259.600439 
L 103.314308 255.678224 
L 105.359836 251.489628 
L 105.749461 250.266625 
L 106.820928 242.697465 
L 107.632645 242.292846 
L 108.76905 234.916508 
L 109.158674 231.410669 
L 109.937923 231.410669 
L 109.970392 231.562565 
L 110.100267 234.125042 
L 110.165204 233.716535 
L 110.749641 229.468746 
L 111.399015 223.73811 
L 114.710822 215.321325 
L 115.652415 213.970094 
L 116.26932 212.400798 
L 117.827818 207.361604 
L 119.451253 202.950562 
L 124.678714 185.22086 
L 125.26315 183.203394 
L 125.912524 182.008171 
L 130.230862 175.580713 
L 132.633546 175.823275 
L 136.399915 181.600643 
L 139.322098 181.01142 
L 142.471562 176.115467 
L 148.380866 167.227595 
L 159.744911 167.619845 
L 169.712803 166.530706 
L 171.595987 169.178903 
L 171.855737 169.724765 
L 176.076668 174.453639 
L 180.687224 178.661457 
L 190.103147 184.080372 
L 191.888926 187.481328 
L 193.02533 190.703116 
L 194.226672 190.915513 
L 194.713703 192.551325 
L 195.395545 197.954768 
L 196.759231 201.434423 
L 199.908695 210.244761 
L 200.558069 216.482391 
L 201.759411 218.605365 
L 201.79188 218.561943 
L 202.928284 217.042172 
L 202.960753 217.083476 
L 203.350377 219.989739 
L 205.850467 224.535864 
L 206.369966 228.881173 
L 206.467373 228.822376 
L 207.214153 228.360519 
L 211.142866 240.79699 
L 211.53249 242.775199 
L 212.246801 246.515634 
L 213.545549 251.398089 
L 214.77936 256.9001 
L 215.720952 260.459178 
L 216.824888 267.980581 
L 218.610667 271.077587 
L 219.454853 275.42904 
L 220.136696 276.600289 
L 221.760131 278.8446 
L 222.149755 280.995645 
L 224.942064 280.626848 
L 225.883656 277.893665 
L 226.825248 276.628094 
L 227.214873 274.754133 
L 227.53956 273.718617 
L 228.903245 273.65972 
L 230.624086 270.145683 
L 231.04618 269.634534 
L 234.29305 269.39387 
L 236.04636 269.77153 
L 241.143946 274.721157 
L 242.085538 276.323569 
L 244.260941 276.323569 
L 244.585628 275.209453 
L 246.598688 274.269514 
L 247.28053 273.313456 
L 251.079368 273.19143 
L 251.956023 273.451394 
L 256.956203 275.892451 
L 262.248602 278.787656 
L 262.80057 278.590584 
L 272.119087 274.82009 
L 322.705324 274.930887 
L 398.487273 276.199687 
L 398.487273 276.199687 
" clip-path="url(#p5e4a7d396c)" style="fill: none; stroke: #d62728; stroke-width: 1.5; stroke-linecap: square"/>
   </g>
   <g id="line2d_39">
    <path d="M 73.832727 268.901613 
L 89.51511 268.901613 
L 89.839797 268.002675 
L 90.229421 267.823887 
L 90.456702 267.85383 
L 90.748921 266.412878 
L 90.846327 266.029032 
L 90.943733 266.073337 
L 91.625576 266.322367 
L 91.852857 265.83137 
L 93.378886 261.774973 
L 93.963322 260.164401 
L 95.067258 258.648673 
L 97.145255 257.792323 
L 98.606346 251.524143 
L 100.424594 248.024452 
L 101.820748 244.41747 
L 106.885865 221.022163 
L 113.282199 188.431365 
L 116.204383 170.603076 
L 117.373256 159.388835 
L 118.087567 159.006868 
L 119.970752 163.505163 
L 120.685063 168.09095 
L 124.743651 197.189371 
L 126.659304 206.963059 
L 129.549019 209.301858 
L 129.581488 209.2504 
L 130.165924 208.123269 
L 131.107517 204.492306 
L 132.568608 198.27717 
L 135.328448 179.567305 
L 137.925944 165.102516 
L 139.192223 161.132739 
L 140.978002 157.661263 
L 142.828718 158.560688 
L 142.991061 159.113753 
L 149.647145 186.929246 
L 149.874426 187.345589 
L 152.894015 192.092239 
L 153.381046 188.293445 
L 153.835608 185.41501 
L 154.744731 183.133327 
L 162.374876 156.573584 
L 162.439813 156.652175 
L 165.78409 161.222182 
L 172.050549 180.781388 
L 175.589638 185.654852 
L 179.128726 184.808772 
L 184.713343 180.594433 
L 190.135616 186.571904 
L 199.454133 214.896006 
L 201.337318 220.627165 
L 207.214153 233.53563 
L 208.090808 236.204323 
L 208.610307 236.312946 
L 209.551899 241.37385 
L 212.084458 249.164048 
L 213.350737 255.175727 
L 213.935174 256.232538 
L 214.259861 257.018077 
L 215.428734 264.286982 
L 216.824888 268.833197 
L 217.214513 271.405232 
L 218.318449 276.056344 
L 219.941884 278.917606 
L 220.266571 280.632314 
L 220.591258 281.640589 
L 222.831598 281.706992 
L 223.935534 281.653718 
L 225.169345 279.668025 
L 225.623906 278.83012 
L 226.857717 275.444593 
L 227.377216 274.963767 
L 228.091528 274.248588 
L 228.221403 274.134202 
L 229.098057 270.491505 
L 230.948773 269.073339 
L 231.338398 267.711896 
L 235.689204 267.80276 
L 236.04636 270.726717 
L 236.728202 271.49435 
L 238.416575 272.806841 
L 240.104947 274.405968 
L 240.559509 274.540568 
L 244.001191 270.904295 
L 245.494752 268.233138 
L 250.137776 265.743699 
L 253.02749 267.506573 
L 255.267831 272.275936 
L 258.839388 279.691668 
L 259.164075 280.030019 
L 259.553699 280.181079 
L 263.774631 280.279304 
L 270.885276 270.695344 
L 274.619177 268.049068 
L 277.346548 269.414982 
L 284.522131 276.84925 
L 288.418375 277.730223 
L 298.775891 274.730176 
L 303.418915 273.484892 
L 312.05559 273.590396 
L 319.848078 275.266513 
L 398.487273 275.300504 
L 398.487273 275.300504 
" clip-path="url(#p5e4a7d396c)" style="fill: none; stroke: #9467bd; stroke-width: 1.5; stroke-linecap: square"/>
   </g>
   <g id="line2d_40">
    <path d="M 73.832727 272.50542 
L 83.475932 272.410148 
L 86.26824 270.484875 
L 89.125486 266.092312 
L 89.287829 266.154507 
L 89.872266 266.34219 
L 90.878796 266.470857 
L 91.00867 266.268772 
L 92.729511 262.188417 
L 93.833447 260.44303 
L 94.710102 260.422075 
L 94.839977 260.379215 
L 95.164664 258.291893 
L 95.327008 257.754935 
L 96.950443 255.694369 
L 98.02191 254.486736 
L 98.736221 253.215412 
L 99.970032 248.107258 
L 100.327188 246.878864 
L 101.853217 244.211231 
L 102.340247 242.032438 
L 103.184433 238.513104 
L 106.106616 226.969362 
L 111.626296 199.482188 
L 119.223972 157.252747 
L 119.808408 153.207215 
L 126.26968 107.419168 
L 127.178804 101.908123 
L 129.451613 89.598017 
L 130.620486 85.76205 
L 134.419324 81.661516 
L 141.919594 83.453694 
L 145.653495 82.661558 
L 149.939363 75.820578 
L 156.173354 66.361242 
L 157.861727 53.568 
L 157.926664 53.655637 
L 158.089007 54.037126 
L 158.673444 55.633513 
L 158.900725 60.898562 
L 159.77738 80.4818 
L 161.108597 99.700169 
L 163.186594 145.735574 
L 164.550279 178.096119 
L 165.719152 212.388036 
L 165.751621 212.534514 
L 165.78409 212.296169 
L 166.368526 208.175027 
L 167.959493 246.483615 
L 170.005021 249.729703 
L 170.719332 251.617036 
L 170.751801 251.588349 
L 173.609047 223.796475 
L 174.485702 204.384943 
L 175.946793 188.84607 
L 177.862447 156.586605 
L 179.615756 142.152433 
L 180.200193 132.233887 
L 180.297599 132.270297 
L 182.992501 133.200127 
L 183.252251 135.936921 
L 184.258781 145.78261 
L 185.914685 159.683479 
L 187.213433 177.772741 
L 190.557709 216.201107 
L 193.317548 234.889757 
L 193.350017 234.858869 
L 196.077388 232.231454 
L 202.408785 196.441871 
L 204.941344 194.116185 
L 204.973812 194.225585 
L 208.447963 219.276407 
L 212.668895 267.781651 
L 212.896175 270.268594 
L 213.058519 270.282383 
L 213.318269 273.151618 
L 214.097517 280.864556 
L 215.136516 286.900544 
L 216.240452 291.379519 
L 216.467733 291.846473 
L 218.156105 293.952253 
L 219.714603 295.478986 
L 220.006821 293.923958 
L 220.818539 288.381701 
L 222.214693 282.351733 
L 222.53938 279.740169 
L 223.28616 272.50542 
L 224.065409 272.50542 
L 224.227752 270.49634 
L 224.682314 265.684737 
L 226.987592 253.181774 
L 229.682494 247.767412 
L 229.714963 247.832785 
L 231.598147 252.49063 
L 234.78008 268.035332 
L 234.909955 273.054827 
L 398.487273 273.054827 
L 398.487273 273.054827 
" clip-path="url(#p5e4a7d396c)" style="fill: none; stroke: #8c564b; stroke-width: 1.5; stroke-linecap: square"/>
   </g>
   <g id="patch_3">
    <path d="M 57.6 307.584 
L 57.6 41.472 
" style="fill: none; stroke: #000000; stroke-width: 0.8; stroke-linejoin: miter; stroke-linecap: square"/>
   </g>
   <g id="patch_4">
    <path d="M 414.72 307.584 
L 414.72 41.472 
" style="fill: none; stroke: #000000; stroke-width: 0.8; stroke-linejoin: miter; stroke-linecap: square"/>
   </g>
   <g id="patch_5">
    <path d="M 57.6 307.584 
L 414.72 307.584 
" style="fill: none; stroke: #000000; stroke-width: 0.8; stroke-linejoin: miter; stroke-linecap: square"/>
   </g>
   <g id="patch_6">
    <path d="M 57.6 41.472 
L 414.72 41.472 
" style="fill: none; stroke: #000000; stroke-width: 0.8; stroke-linejoin: miter; stroke-linecap: square"/>
   </g>
   <g id="legend_1">
    <g id="patch_7">
     <path d="M 340.77625 137.54075 
L 407.72 137.54075 
Q 409.72 137.54075 409.72 135.54075 
L 409.72 48.472 
Q 409.72 46.472 407.72 46.472 
L 340.77625 46.472 
Q 338.77625 46.472 338.77625 48.472 
L 338.77625 135.54075 
Q 338.77625 137.54075 340.77625 137.54075 
z
" style="fill: #ffffff; opacity: 0.8; stroke: #cccccc; stroke-linejoin: miter"/>
    </g>
    <g id="line2d_41">
     <path d="M 342.77625 54.570438 
L 352.77625 54.570438 
L 362.77625 54.570438 
" style="fill: none; stroke: #1f77b4; stroke-width: 1.5; stroke-linecap: square"/>
    </g>
    <g id="text_20">
     <!-- Free -->
     <g transform="translate(370.77625 58.070438) scale(0.1 -0.1)">
      <defs>
       <path id="DejaVuSans-46" d="M 628 4666 
L 3309 4666 
L 3309 4134 
L 1259 4134 
L 1259 2759 
L 3109 2759 
L 3109 2228 
L 1259 2228 
L 1259 0 
L 628 0 
L 628 4666 
z
" transform="scale(0.015625)"/>
       <path id="DejaVuSans-72" d="M 2631 2963 
Q 2534 3019 2420 3045 
Q 2306 3072 2169 3072 
Q 1681 3072 1420 2755 
Q 1159 2438 1159 1844 
L 1159 0 
L 581 0 
L 581 3500 
L 1159 3500 
L 1159 2956 
Q 1341 3275 1631 3429 
Q 1922 3584 2338 3584 
Q 2397 3584 2469 3576 
Q 2541 3569 2628 3553 
L 2631 2963 
z
" transform="scale(0.015625)"/>
      </defs>
      <use xlink:href="#DejaVuSans-46"/>
      <use xlink:href="#DejaVuSans-72" x="50.269531"/>
      <use xlink:href="#DejaVuSans-65" x="89.132812"/>
      <use xlink:href="#DejaVuSans-65" x="150.65625"/>
     </g>
    </g>
    <g id="line2d_42">
     <path d="M 342.77625 69.248563 
L 352.77625 69.248563 
L 362.77625 69.248563 
" style="fill: none; stroke: #ff7f0e; stroke-width: 1.5; stroke-linecap: square"/>
    </g>
    <g id="text_21">
     <!-- Locked -->
     <g transform="translate(370.77625 72.748563) scale(0.1 -0.1)">
      <defs>
       <path id="DejaVuSans-4c" d="M 628 4666 
L 1259 4666 
L 1259 531 
L 3531 531 
L 3531 0 
L 628 0 
L 628 4666 
z
" transform="scale(0.015625)"/>
       <path id="DejaVuSans-6b" d="M 581 4863 
L 1159 4863 
L 1159 1991 
L 2875 3500 
L 3609 3500 
L 1753 1863 
L 3688 0 
L 2938 0 
L 1159 1709 
L 1159 0 
L 581 0 
L 581 4863 
z
" transform="scale(0.015625)"/>
      </defs>
      <use xlink:href="#DejaVuSans-4c"/>
      <use xlink:href="#DejaVuSans-6f" x="53.962891"/>
      <use xlink:href="#DejaVuSans-63" x="115.144531"/>
      <use xlink:href="#DejaVuSans-6b" x="170.125"/>
      <use xlink:href="#DejaVuSans-65" x="224.410156"/>
      <use xlink:href="#DejaVuSans-64" x="285.933594"/>
     </g>
    </g>
    <g id="line2d_43">
     <path d="M 342.77625 83.926688 
L 352.77625 83.926688 
L 362.77625 83.926688 
" style="fill: none; stroke: #2ca02c; stroke-width: 1.5; stroke-linecap: square"/>
    </g>
    <g id="text_22">
     <!-- Pre -->
     <g transform="translate(370.77625 87.426688) scale(0.1 -0.1)">
      <defs>
       <path id="DejaVuSans-50" d="M 1259 4147 
L 1259 2394 
L 2053 2394 
Q 2494 2394 2734 2622 
Q 2975 2850 2975 3272 
Q 2975 3691 2734 3919 
Q 2494 4147 2053 4147 
L 1259 4147 
z
M 628 4666 
L 2053 4666 
Q 2838 4666 3239 4311 
Q 3641 3956 3641 3272 
Q 3641 2581 3239 2228 
Q 2838 1875 2053 1875 
L 1259 1875 
L 1259 0 
L 628 0 
L 628 4666 
z
" transform="scale(0.015625)"/>
      </defs>
      <use xlink:href="#DejaVuSans-50"/>
      <use xlink:href="#DejaVuSans-72" x="58.552734"/>
      <use xlink:href="#DejaVuSans-65" x="97.416016"/>
     </g>
    </g>
    <g id="line2d_44">
     <path d="M 342.77625 98.604813 
L 352.77625 98.604813 
L 362.77625 98.604813 
" style="fill: none; stroke: #d62728; stroke-width: 1.5; stroke-linecap: square"/>
    </g>
    <g id="text_23">
     <!-- Rel0 -->
     <g transform="translate(370.77625 102.104813) scale(0.1 -0.1)">
      <defs>
       <path id="DejaVuSans-52" d="M 2841 2188 
Q 3044 2119 3236 1894 
Q 3428 1669 3622 1275 
L 4263 0 
L 3584 0 
L 2988 1197 
Q 2756 1666 2539 1819 
Q 2322 1972 1947 1972 
L 1259 1972 
L 1259 0 
L 628 0 
L 628 4666 
L 2053 4666 
Q 2853 4666 3247 4331 
Q 3641 3997 3641 3322 
Q 3641 2881 3436 2590 
Q 3231 2300 2841 2188 
z
M 1259 4147 
L 1259 2491 
L 2053 2491 
Q 2509 2491 2742 2702 
Q 2975 2913 2975 3322 
Q 2975 3731 2742 3939 
Q 2509 4147 2053 4147 
L 1259 4147 
z
" transform="scale(0.015625)"/>
       <path id="DejaVuSans-6c" d="M 603 4863 
L 1178 4863 
L 1178 0 
L 603 0 
L 603 4863 
z
" transform="scale(0.015625)"/>
      </defs>
      <use xlink:href="#DejaVuSans-52"/>
      <use xlink:href="#DejaVuSans-65" x="64.982422"/>
      <use xlink:href="#DejaVuSans-6c" x="126.505859"/>
      <use xlink:href="#DejaVuSans-30" x="154.289062"/>
     </g>
    </g>
    <g id="line2d_45">
     <path d="M 342.77625 113.282938 
L 352.77625 113.282938 
L 362.77625 113.282938 
" style="fill: none; stroke: #9467bd; stroke-width: 1.5; stroke-linecap: square"/>
    </g>
    <g id="text_24">
     <!-- Rel50 -->
     <g transform="translate(370.77625 116.782938) scale(0.1 -0.1)">
      <use xlink:href="#DejaVuSans-52"/>
      <use xlink:href="#DejaVuSans-65" x="64.982422"/>
      <use xlink:href="#DejaVuSans-6c" x="126.505859"/>
      <use xlink:href="#DejaVuSans-35" x="154.289062"/>
      <use xlink:href="#DejaVuSans-30" x="217.912109"/>
     </g>
    </g>
    <g id="line2d_46">
     <path d="M 342.77625 127.961063 
L 352.77625 127.961063 
L 362.77625 127.961063 
" style="fill: none; stroke: #8c564b; stroke-width: 1.5; stroke-linecap: square"/>
    </g>
    <g id="text_25">
     <!-- Rel100 -->
     <g transform="translate(370.77625 131.461063) scale(0.1 -0.1)">
      <use xlink:href="#DejaVuSans-52"/>
      <use xlink:href="#DejaVuSans-65" x="64.982422"/>
      <use xlink:href="#DejaVuSans-6c" x="126.505859"/>
      <use xlink:href="#DejaVuSans-31" x="154.289062"/>
      <use xlink:href="#DejaVuSans-30" x="217.912109"/>
      <use xlink:href="#DejaVuSans-30" x="281.535156"/>
     </g>
    </g>
   </g>
  </g>
 </g>
 <defs>
  <clipPath id="p5e4a7d396c">
   <rect x="57.6" y="41.472" width="357.12" height="266.112"/>
  </clipPath>
 </defs>
</svg>
