<?xml version="1.0" encoding="utf-8" standalone="no"?>
<!DOCTYPE svg PUBLIC "-//W3C//DTD SVG 1.1//EN"
  "http://www.w3.org/Graphics/SVG/1.1/DTD/svg11.dtd">
<svg xmlns:xlink="http://www.w3.org/1999/xlink" width="460.8pt" height="345.6pt" viewBox="0 0 460.8 345.6" xmlns="http://www.w3.org/2000/svg" version="1.1">
 <metadata>
  <rdf:RDF xmlns:dc="http://purl.org/dc/elements/1.1/" xmlns:cc="http://creativecommons.org/ns#" xmlns:rdf="http://www.w3.org/1999/02/22-rdf-syntax-ns#">
   <cc:Work>
    <dc:type rdf:resource="http://purl.org/dc/dcmitype/StillImage"/>
    <dc:date>2023-04-25T14:16:17.107359</dc:date>
    <dc:format>image/svg+xml</dc:format>
    <dc:creator>
     <cc:Agent>
      <dc:title>Matplotlib v3.6.2, https://matplotlib.org/</dc:title>
     </cc:Agent>
    </dc:creator>
   </cc:Work>
  </rdf:RDF>
 </metadata>
 <defs>
  <style type="text/css">*{stroke-linejoin: round; stroke-linecap: butt}</style>
 </defs>
 <g id="figure_1">
  <g id="patch_1">
   <path d="M 0 345.6 
L 460.8 345.6 
L 460.8 0 
L 0 0 
z
" style="fill: #ffffff"/>
  </g>
  <g id="axes_1">
   <g id="patch_2">
    <path d="M 57.6 307.584 
L 414.72 307.584 
L 414.72 41.472 
L 57.6 41.472 
z
" style="fill: #ffffff"/>
   </g>
   <g id="matplotlib.axis_1">
    <g id="xtick_1">
     <g id="line2d_1">
      <defs>
       <path id="m2ed8a2e2c5" d="M 0 0 
L 0 3.5 
" style="stroke: #000000; stroke-width: 0.8"/>
      </defs>
      <g>
       <use xlink:href="#m2ed8a2e2c5" x="73.832727" y="307.584" style="stroke: #000000; stroke-width: 0.8"/>
      </g>
     </g>
     <g id="text_1">
      <!-- 0.0 -->
      <g transform="translate(65.881165 322.182437) scale(0.1 -0.1)">
       <defs>
        <path id="DejaVuSans-30" d="M 2034 4250 
Q 1547 4250 1301 3770 
Q 1056 3291 1056 2328 
Q 1056 1369 1301 889 
Q 1547 409 2034 409 
Q 2525 409 2770 889 
Q 3016 1369 3016 2328 
Q 3016 3291 2770 3770 
Q 2525 4250 2034 4250 
z
M 2034 4750 
Q 2819 4750 3233 4129 
Q 3647 3509 3647 2328 
Q 3647 1150 3233 529 
Q 2819 -91 2034 -91 
Q 1250 -91 836 529 
Q 422 1150 422 2328 
Q 422 3509 836 4129 
Q 1250 4750 2034 4750 
z
" transform="scale(0.015625)"/>
        <path id="DejaVuSans-2e" d="M 684 794 
L 1344 794 
L 1344 0 
L 684 0 
L 684 794 
z
" transform="scale(0.015625)"/>
       </defs>
       <use xlink:href="#DejaVuSans-30"/>
       <use xlink:href="#DejaVuSans-2e" x="63.623047"/>
       <use xlink:href="#DejaVuSans-30" x="95.410156"/>
      </g>
     </g>
    </g>
    <g id="xtick_2">
     <g id="line2d_2">
      <g>
       <use xlink:href="#m2ed8a2e2c5" x="126.196364" y="307.584" style="stroke: #000000; stroke-width: 0.8"/>
      </g>
     </g>
     <g id="text_2">
      <!-- 0.5 -->
      <g transform="translate(118.244801 322.182437) scale(0.1 -0.1)">
       <defs>
        <path id="DejaVuSans-35" d="M 691 4666 
L 3169 4666 
L 3169 4134 
L 1269 4134 
L 1269 2991 
Q 1406 3038 1543 3061 
Q 1681 3084 1819 3084 
Q 2600 3084 3056 2656 
Q 3513 2228 3513 1497 
Q 3513 744 3044 326 
Q 2575 -91 1722 -91 
Q 1428 -91 1123 -41 
Q 819 9 494 109 
L 494 744 
Q 775 591 1075 516 
Q 1375 441 1709 441 
Q 2250 441 2565 725 
Q 2881 1009 2881 1497 
Q 2881 1984 2565 2268 
Q 2250 2553 1709 2553 
Q 1456 2553 1204 2497 
Q 953 2441 691 2322 
L 691 4666 
z
" transform="scale(0.015625)"/>
       </defs>
       <use xlink:href="#DejaVuSans-30"/>
       <use xlink:href="#DejaVuSans-2e" x="63.623047"/>
       <use xlink:href="#DejaVuSans-35" x="95.410156"/>
      </g>
     </g>
    </g>
    <g id="xtick_3">
     <g id="line2d_3">
      <g>
       <use xlink:href="#m2ed8a2e2c5" x="178.56" y="307.584" style="stroke: #000000; stroke-width: 0.8"/>
      </g>
     </g>
     <g id="text_3">
      <!-- 1.0 -->
      <g transform="translate(170.608438 322.182437) scale(0.1 -0.1)">
       <defs>
        <path id="DejaVuSans-31" d="M 794 531 
L 1825 531 
L 1825 4091 
L 703 3866 
L 703 4441 
L 1819 4666 
L 2450 4666 
L 2450 531 
L 3481 531 
L 3481 0 
L 794 0 
L 794 531 
z
" transform="scale(0.015625)"/>
       </defs>
       <use xlink:href="#DejaVuSans-31"/>
       <use xlink:href="#DejaVuSans-2e" x="63.623047"/>
       <use xlink:href="#DejaVuSans-30" x="95.410156"/>
      </g>
     </g>
    </g>
    <g id="xtick_4">
     <g id="line2d_4">
      <g>
       <use xlink:href="#m2ed8a2e2c5" x="230.923636" y="307.584" style="stroke: #000000; stroke-width: 0.8"/>
      </g>
     </g>
     <g id="text_4">
      <!-- 1.5 -->
      <g transform="translate(222.972074 322.182437) scale(0.1 -0.1)">
       <use xlink:href="#DejaVuSans-31"/>
       <use xlink:href="#DejaVuSans-2e" x="63.623047"/>
       <use xlink:href="#DejaVuSans-35" x="95.410156"/>
      </g>
     </g>
    </g>
    <g id="xtick_5">
     <g id="line2d_5">
      <g>
       <use xlink:href="#m2ed8a2e2c5" x="283.287273" y="307.584" style="stroke: #000000; stroke-width: 0.8"/>
      </g>
     </g>
     <g id="text_5">
      <!-- 2.0 -->
      <g transform="translate(275.33571 322.182437) scale(0.1 -0.1)">
       <defs>
        <path id="DejaVuSans-32" d="M 1228 531 
L 3431 531 
L 3431 0 
L 469 0 
L 469 531 
Q 828 903 1448 1529 
Q 2069 2156 2228 2338 
Q 2531 2678 2651 2914 
Q 2772 3150 2772 3378 
Q 2772 3750 2511 3984 
Q 2250 4219 1831 4219 
Q 1534 4219 1204 4116 
Q 875 4013 500 3803 
L 500 4441 
Q 881 4594 1212 4672 
Q 1544 4750 1819 4750 
Q 2544 4750 2975 4387 
Q 3406 4025 3406 3419 
Q 3406 3131 3298 2873 
Q 3191 2616 2906 2266 
Q 2828 2175 2409 1742 
Q 1991 1309 1228 531 
z
" transform="scale(0.015625)"/>
       </defs>
       <use xlink:href="#DejaVuSans-32"/>
       <use xlink:href="#DejaVuSans-2e" x="63.623047"/>
       <use xlink:href="#DejaVuSans-30" x="95.410156"/>
      </g>
     </g>
    </g>
    <g id="xtick_6">
     <g id="line2d_6">
      <g>
       <use xlink:href="#m2ed8a2e2c5" x="335.650909" y="307.584" style="stroke: #000000; stroke-width: 0.8"/>
      </g>
     </g>
     <g id="text_6">
      <!-- 2.5 -->
      <g transform="translate(327.699347 322.182437) scale(0.1 -0.1)">
       <use xlink:href="#DejaVuSans-32"/>
       <use xlink:href="#DejaVuSans-2e" x="63.623047"/>
       <use xlink:href="#DejaVuSans-35" x="95.410156"/>
      </g>
     </g>
    </g>
    <g id="xtick_7">
     <g id="line2d_7">
      <g>
       <use xlink:href="#m2ed8a2e2c5" x="388.014545" y="307.584" style="stroke: #000000; stroke-width: 0.8"/>
      </g>
     </g>
     <g id="text_7">
      <!-- 3.0 -->
      <g transform="translate(380.062983 322.182437) scale(0.1 -0.1)">
       <defs>
        <path id="DejaVuSans-33" d="M 2597 2516 
Q 3050 2419 3304 2112 
Q 3559 1806 3559 1356 
Q 3559 666 3084 287 
Q 2609 -91 1734 -91 
Q 1441 -91 1130 -33 
Q 819 25 488 141 
L 488 750 
Q 750 597 1062 519 
Q 1375 441 1716 441 
Q 2309 441 2620 675 
Q 2931 909 2931 1356 
Q 2931 1769 2642 2001 
Q 2353 2234 1838 2234 
L 1294 2234 
L 1294 2753 
L 1863 2753 
Q 2328 2753 2575 2939 
Q 2822 3125 2822 3475 
Q 2822 3834 2567 4026 
Q 2313 4219 1838 4219 
Q 1578 4219 1281 4162 
Q 984 4106 628 3988 
L 628 4550 
Q 988 4650 1302 4700 
Q 1616 4750 1894 4750 
Q 2613 4750 3031 4423 
Q 3450 4097 3450 3541 
Q 3450 3153 3228 2886 
Q 3006 2619 2597 2516 
z
" transform="scale(0.015625)"/>
       </defs>
       <use xlink:href="#DejaVuSans-33"/>
       <use xlink:href="#DejaVuSans-2e" x="63.623047"/>
       <use xlink:href="#DejaVuSans-30" x="95.410156"/>
      </g>
     </g>
    </g>
    <g id="text_8">
     <!-- Time [s] -->
     <g transform="translate(215.831094 335.860562) scale(0.1 -0.1)">
      <defs>
       <path id="DejaVuSans-54" d="M -19 4666 
L 3928 4666 
L 3928 4134 
L 2272 4134 
L 2272 0 
L 1638 0 
L 1638 4134 
L -19 4134 
L -19 4666 
z
" transform="scale(0.015625)"/>
       <path id="DejaVuSans-69" d="M 603 3500 
L 1178 3500 
L 1178 0 
L 603 0 
L 603 3500 
z
M 603 4863 
L 1178 4863 
L 1178 4134 
L 603 4134 
L 603 4863 
z
" transform="scale(0.015625)"/>
       <path id="DejaVuSans-6d" d="M 3328 2828 
Q 3544 3216 3844 3400 
Q 4144 3584 4550 3584 
Q 5097 3584 5394 3201 
Q 5691 2819 5691 2113 
L 5691 0 
L 5113 0 
L 5113 2094 
Q 5113 2597 4934 2840 
Q 4756 3084 4391 3084 
Q 3944 3084 3684 2787 
Q 3425 2491 3425 1978 
L 3425 0 
L 2847 0 
L 2847 2094 
Q 2847 2600 2669 2842 
Q 2491 3084 2119 3084 
Q 1678 3084 1418 2786 
Q 1159 2488 1159 1978 
L 1159 0 
L 581 0 
L 581 3500 
L 1159 3500 
L 1159 2956 
Q 1356 3278 1631 3431 
Q 1906 3584 2284 3584 
Q 2666 3584 2933 3390 
Q 3200 3197 3328 2828 
z
" transform="scale(0.015625)"/>
       <path id="DejaVuSans-65" d="M 3597 1894 
L 3597 1613 
L 953 1613 
Q 991 1019 1311 708 
Q 1631 397 2203 397 
Q 2534 397 2845 478 
Q 3156 559 3463 722 
L 3463 178 
Q 3153 47 2828 -22 
Q 2503 -91 2169 -91 
Q 1331 -91 842 396 
Q 353 884 353 1716 
Q 353 2575 817 3079 
Q 1281 3584 2069 3584 
Q 2775 3584 3186 3129 
Q 3597 2675 3597 1894 
z
M 3022 2063 
Q 3016 2534 2758 2815 
Q 2500 3097 2075 3097 
Q 1594 3097 1305 2825 
Q 1016 2553 972 2059 
L 3022 2063 
z
" transform="scale(0.015625)"/>
       <path id="DejaVuSans-20" transform="scale(0.015625)"/>
       <path id="DejaVuSans-5b" d="M 550 4863 
L 1875 4863 
L 1875 4416 
L 1125 4416 
L 1125 -397 
L 1875 -397 
L 1875 -844 
L 550 -844 
L 550 4863 
z
" transform="scale(0.015625)"/>
       <path id="DejaVuSans-73" d="M 2834 3397 
L 2834 2853 
Q 2591 2978 2328 3040 
Q 2066 3103 1784 3103 
Q 1356 3103 1142 2972 
Q 928 2841 928 2578 
Q 928 2378 1081 2264 
Q 1234 2150 1697 2047 
L 1894 2003 
Q 2506 1872 2764 1633 
Q 3022 1394 3022 966 
Q 3022 478 2636 193 
Q 2250 -91 1575 -91 
Q 1294 -91 989 -36 
Q 684 19 347 128 
L 347 722 
Q 666 556 975 473 
Q 1284 391 1588 391 
Q 1994 391 2212 530 
Q 2431 669 2431 922 
Q 2431 1156 2273 1281 
Q 2116 1406 1581 1522 
L 1381 1569 
Q 847 1681 609 1914 
Q 372 2147 372 2553 
Q 372 3047 722 3315 
Q 1072 3584 1716 3584 
Q 2034 3584 2315 3537 
Q 2597 3491 2834 3397 
z
" transform="scale(0.015625)"/>
       <path id="DejaVuSans-5d" d="M 1947 4863 
L 1947 -844 
L 622 -844 
L 622 -397 
L 1369 -397 
L 1369 4416 
L 622 4416 
L 622 4863 
L 1947 4863 
z
" transform="scale(0.015625)"/>
      </defs>
      <use xlink:href="#DejaVuSans-54"/>
      <use xlink:href="#DejaVuSans-69" x="57.958984"/>
      <use xlink:href="#DejaVuSans-6d" x="85.742188"/>
      <use xlink:href="#DejaVuSans-65" x="183.154297"/>
      <use xlink:href="#DejaVuSans-20" x="244.677734"/>
      <use xlink:href="#DejaVuSans-5b" x="276.464844"/>
      <use xlink:href="#DejaVuSans-73" x="315.478516"/>
      <use xlink:href="#DejaVuSans-5d" x="367.578125"/>
     </g>
    </g>
   </g>
   <g id="matplotlib.axis_2">
    <g id="ytick_1">
     <g id="line2d_8">
      <defs>
       <path id="mc72d7343e3" d="M 0 0 
L -3.5 0 
" style="stroke: #000000; stroke-width: 0.8"/>
      </defs>
      <g>
       <use xlink:href="#mc72d7343e3" x="57.6" y="271.494071" style="stroke: #000000; stroke-width: 0.8"/>
      </g>
     </g>
     <g id="text_9">
      <!-- −200 -->
      <g transform="translate(23.132812 275.29329) scale(0.1 -0.1)">
       <defs>
        <path id="DejaVuSans-2212" d="M 678 2272 
L 4684 2272 
L 4684 1741 
L 678 1741 
L 678 2272 
z
" transform="scale(0.015625)"/>
       </defs>
       <use xlink:href="#DejaVuSans-2212"/>
       <use xlink:href="#DejaVuSans-32" x="83.789062"/>
       <use xlink:href="#DejaVuSans-30" x="147.412109"/>
       <use xlink:href="#DejaVuSans-30" x="211.035156"/>
      </g>
     </g>
    </g>
    <g id="ytick_2">
     <g id="line2d_9">
      <g>
       <use xlink:href="#mc72d7343e3" x="57.6" y="230.090801" style="stroke: #000000; stroke-width: 0.8"/>
      </g>
     </g>
     <g id="text_10">
      <!-- −100 -->
      <g transform="translate(23.132812 233.89002) scale(0.1 -0.1)">
       <use xlink:href="#DejaVuSans-2212"/>
       <use xlink:href="#DejaVuSans-31" x="83.789062"/>
       <use xlink:href="#DejaVuSans-30" x="147.412109"/>
       <use xlink:href="#DejaVuSans-30" x="211.035156"/>
      </g>
     </g>
    </g>
    <g id="ytick_3">
     <g id="line2d_10">
      <g>
       <use xlink:href="#mc72d7343e3" x="57.6" y="188.687531" style="stroke: #000000; stroke-width: 0.8"/>
      </g>
     </g>
     <g id="text_11">
      <!-- 0 -->
      <g transform="translate(44.2375 192.48675) scale(0.1 -0.1)">
       <use xlink:href="#DejaVuSans-30"/>
      </g>
     </g>
    </g>
    <g id="ytick_4">
     <g id="line2d_11">
      <g>
       <use xlink:href="#mc72d7343e3" x="57.6" y="147.284261" style="stroke: #000000; stroke-width: 0.8"/>
      </g>
     </g>
     <g id="text_12">
      <!-- 100 -->
      <g transform="translate(31.5125 151.08348) scale(0.1 -0.1)">
       <use xlink:href="#DejaVuSans-31"/>
       <use xlink:href="#DejaVuSans-30" x="63.623047"/>
       <use xlink:href="#DejaVuSans-30" x="127.246094"/>
      </g>
     </g>
    </g>
    <g id="ytick_5">
     <g id="line2d_12">
      <g>
       <use xlink:href="#mc72d7343e3" x="57.6" y="105.880991" style="stroke: #000000; stroke-width: 0.8"/>
      </g>
     </g>
     <g id="text_13">
      <!-- 200 -->
      <g transform="translate(31.5125 109.68021) scale(0.1 -0.1)">
       <use xlink:href="#DejaVuSans-32"/>
       <use xlink:href="#DejaVuSans-30" x="63.623047"/>
       <use xlink:href="#DejaVuSans-30" x="127.246094"/>
      </g>
     </g>
    </g>
    <g id="ytick_6">
     <g id="line2d_13">
      <g>
       <use xlink:href="#mc72d7343e3" x="57.6" y="64.477721" style="stroke: #000000; stroke-width: 0.8"/>
      </g>
     </g>
     <g id="text_14">
      <!-- 300 -->
      <g transform="translate(31.5125 68.27694) scale(0.1 -0.1)">
       <use xlink:href="#DejaVuSans-33"/>
       <use xlink:href="#DejaVuSans-30" x="63.623047"/>
       <use xlink:href="#DejaVuSans-30" x="127.246094"/>
      </g>
     </g>
    </g>
    <g id="text_15">
     <!-- Bending [N-mm] -->
     <g transform="translate(17.053125 215.885812) rotate(-90) scale(0.1 -0.1)">
      <defs>
       <path id="DejaVuSans-42" d="M 1259 2228 
L 1259 519 
L 2272 519 
Q 2781 519 3026 730 
Q 3272 941 3272 1375 
Q 3272 1813 3026 2020 
Q 2781 2228 2272 2228 
L 1259 2228 
z
M 1259 4147 
L 1259 2741 
L 2194 2741 
Q 2656 2741 2882 2914 
Q 3109 3088 3109 3444 
Q 3109 3797 2882 3972 
Q 2656 4147 2194 4147 
L 1259 4147 
z
M 628 4666 
L 2241 4666 
Q 2963 4666 3353 4366 
Q 3744 4066 3744 3513 
Q 3744 3084 3544 2831 
Q 3344 2578 2956 2516 
Q 3422 2416 3680 2098 
Q 3938 1781 3938 1306 
Q 3938 681 3513 340 
Q 3088 0 2303 0 
L 628 0 
L 628 4666 
z
" transform="scale(0.015625)"/>
       <path id="DejaVuSans-6e" d="M 3513 2113 
L 3513 0 
L 2938 0 
L 2938 2094 
Q 2938 2591 2744 2837 
Q 2550 3084 2163 3084 
Q 1697 3084 1428 2787 
Q 1159 2491 1159 1978 
L 1159 0 
L 581 0 
L 581 3500 
L 1159 3500 
L 1159 2956 
Q 1366 3272 1645 3428 
Q 1925 3584 2291 3584 
Q 2894 3584 3203 3211 
Q 3513 2838 3513 2113 
z
" transform="scale(0.015625)"/>
       <path id="DejaVuSans-64" d="M 2906 2969 
L 2906 4863 
L 3481 4863 
L 3481 0 
L 2906 0 
L 2906 525 
Q 2725 213 2448 61 
Q 2172 -91 1784 -91 
Q 1150 -91 751 415 
Q 353 922 353 1747 
Q 353 2572 751 3078 
Q 1150 3584 1784 3584 
Q 2172 3584 2448 3432 
Q 2725 3281 2906 2969 
z
M 947 1747 
Q 947 1113 1208 752 
Q 1469 391 1925 391 
Q 2381 391 2643 752 
Q 2906 1113 2906 1747 
Q 2906 2381 2643 2742 
Q 2381 3103 1925 3103 
Q 1469 3103 1208 2742 
Q 947 2381 947 1747 
z
" transform="scale(0.015625)"/>
       <path id="DejaVuSans-67" d="M 2906 1791 
Q 2906 2416 2648 2759 
Q 2391 3103 1925 3103 
Q 1463 3103 1205 2759 
Q 947 2416 947 1791 
Q 947 1169 1205 825 
Q 1463 481 1925 481 
Q 2391 481 2648 825 
Q 2906 1169 2906 1791 
z
M 3481 434 
Q 3481 -459 3084 -895 
Q 2688 -1331 1869 -1331 
Q 1566 -1331 1297 -1286 
Q 1028 -1241 775 -1147 
L 775 -588 
Q 1028 -725 1275 -790 
Q 1522 -856 1778 -856 
Q 2344 -856 2625 -561 
Q 2906 -266 2906 331 
L 2906 616 
Q 2728 306 2450 153 
Q 2172 0 1784 0 
Q 1141 0 747 490 
Q 353 981 353 1791 
Q 353 2603 747 3093 
Q 1141 3584 1784 3584 
Q 2172 3584 2450 3431 
Q 2728 3278 2906 2969 
L 2906 3500 
L 3481 3500 
L 3481 434 
z
" transform="scale(0.015625)"/>
       <path id="DejaVuSans-4e" d="M 628 4666 
L 1478 4666 
L 3547 763 
L 3547 4666 
L 4159 4666 
L 4159 0 
L 3309 0 
L 1241 3903 
L 1241 0 
L 628 0 
L 628 4666 
z
" transform="scale(0.015625)"/>
       <path id="DejaVuSans-2d" d="M 313 2009 
L 1997 2009 
L 1997 1497 
L 313 1497 
L 313 2009 
z
" transform="scale(0.015625)"/>
      </defs>
      <use xlink:href="#DejaVuSans-42"/>
      <use xlink:href="#DejaVuSans-65" x="68.603516"/>
      <use xlink:href="#DejaVuSans-6e" x="130.126953"/>
      <use xlink:href="#DejaVuSans-64" x="193.505859"/>
      <use xlink:href="#DejaVuSans-69" x="256.982422"/>
      <use xlink:href="#DejaVuSans-6e" x="284.765625"/>
      <use xlink:href="#DejaVuSans-67" x="348.144531"/>
      <use xlink:href="#DejaVuSans-20" x="411.621094"/>
      <use xlink:href="#DejaVuSans-5b" x="443.408203"/>
      <use xlink:href="#DejaVuSans-4e" x="482.421875"/>
      <use xlink:href="#DejaVuSans-2d" x="557.226562"/>
      <use xlink:href="#DejaVuSans-6d" x="593.310547"/>
      <use xlink:href="#DejaVuSans-6d" x="690.722656"/>
      <use xlink:href="#DejaVuSans-5d" x="788.134766"/>
     </g>
    </g>
   </g>
   <g id="line2d_14">
    <path d="M 73.832727 184.434256 
L 74.157414 184.328902 
L 74.676914 183.804341 
L 76.365286 183.474765 
L 77.404284 184.582485 
L 82.339527 184.453538 
L 84.839617 179.244363 
L 85.294179 175.18196 
L 85.618866 172.402259 
L 85.813678 170.493761 
L 87.372176 157.936585 
L 87.989081 150.267657 
L 90.878796 122.535351 
L 93.411354 107.961021 
L 93.476292 108.009574 
L 93.898385 108.454735 
L 94.77504 110.081934 
L 95.424414 111.880699 
L 96.690693 119.651054 
L 97.437473 127.187379 
L 98.931033 149.777146 
L 101.52853 190.486368 
L 101.75581 197.607012 
L 102.340247 206.540428 
L 105.067618 242.133566 
L 105.879336 247.86778 
L 106.593647 252.487592 
L 106.658584 252.424615 
L 109.0288 250.182964 
L 109.288549 248.483489 
L 109.51583 246.686828 
L 111.431484 225.375476 
L 112.925044 206.515724 
L 114.451073 180.557512 
L 114.970572 174.320618 
L 115.165384 171.590053 
L 116.983631 145.42835 
L 117.308318 140.447118 
L 117.470662 138.494258 
L 119.126566 128.79045 
L 120.555189 122.463183 
L 120.587657 122.602717 
L 122.568248 131.581893 
L 123.315028 137.31959 
L 124.191683 145.059345 
L 125.198213 156.894284 
L 128.932114 205.61197 
L 129.678894 215.628631 
L 132.178984 233.392088 
L 132.698483 235.762338 
L 133.347857 237.998166 
L 133.412794 237.961631 
L 134.224512 237.427086 
L 134.808949 235.492148 
L 136.334977 230.27927 
L 138.835068 206.700141 
L 139.939003 193.476931 
L 141.854657 170.778152 
L 142.666374 163.671976 
L 143.77031 153.144086 
L 144.549559 147.587354 
L 145.491151 142.796482 
L 145.653495 141.777616 
L 147.536679 141.82957 
L 147.828898 143.786646 
L 148.543209 145.961597 
L 151.367986 167.790508 
L 152.471922 178.684635 
L 153.218702 187.372252 
L 153.77067 191.875477 
L 154.614856 200.134374 
L 154.972012 202.49421 
L 155.231762 203.961257 
L 156.627916 215.581058 
L 157.959133 221.740999 
L 159.744911 221.13786 
L 160.751441 220.213739 
L 161.303409 218.486079 
L 164.972372 192.490578 
L 165.491871 187.408181 
L 165.654215 186.242208 
L 166.076308 181.929964 
L 167.472462 173.131155 
L 168.673804 163.976411 
L 170.232302 158.360185 
L 171.108957 156.219491 
L 171.595987 155.315063 
L 171.823268 154.003587 
L 171.888206 154.058997 
L 172.212893 154.437188 
L 174.161015 159.798716 
L 175.687044 165.831604 
L 175.946793 167.334434 
L 177.310479 177.415438 
L 179.193663 187.697771 
L 179.940443 195.305263 
L 183.706813 209.562098 
L 184.128906 209.814382 
L 184.453593 209.452519 
L 186.953683 205.945778 
L 187.01862 206.042514 
L 187.180964 206.298812 
L 188.934274 194.79178 
L 190.168084 192.116418 
L 191.401895 181.491729 
L 192.570768 176.125344 
L 195.265671 166.333052 
L 196.012451 165.46006 
L 198.707353 164.837662 
L 207.246621 197.33637 
L 210.136336 199.584181 
L 210.363617 199.631914 
L 216.240452 181.96957 
L 218.513261 173.175517 
L 219.552259 173.055522 
L 222.474442 172.411437 
L 224.617377 176.974148 
L 225.981062 179.936664 
L 226.987592 183.317415 
L 227.182404 183.902862 
L 398.487273 183.902862 
L 398.487273 183.902862 
" clip-path="url(#pd33dad69d5)" style="fill: none; stroke: #1f77b4; stroke-width: 1.5; stroke-linecap: square"/>
   </g>
   <g id="line2d_15">
    <path d="M 73.832727 186.153632 
L 78.76797 186.31497 
L 78.832907 186.506458 
L 79.027719 186.972736 
L 79.742031 186.953566 
L 79.936843 187.379457 
L 82.307058 187.293341 
L 82.469402 186.849025 
L 82.501871 186.856808 
L 82.76162 186.994211 
L 82.794089 187.003744 
L 82.923964 186.865607 
L 83.410994 186.865607 
L 83.638275 187.379457 
L 83.962962 187.363936 
L 83.995431 183.908808 
L 84.092837 184.033806 
L 84.190243 183.776468 
L 84.677274 181.498128 
L 86.75527 163.130277 
L 89.904734 118.921471 
L 92.404824 81.59397 
L 94.190603 66.990401 
L 95.878976 58.735405 
L 95.911444 58.805739 
L 97.112786 61.659873 
L 98.249191 71.225136 
L 99.970032 96.401345 
L 102.27531 137.196063 
L 103.736401 167.311638 
L 106.236491 218.114228 
L 107.730052 244.790107 
L 109.093737 263.067173 
L 109.970392 272.522164 
L 110.944453 278.111018 
L 112.01592 281.425118 
L 112.048389 281.378888 
L 113.801699 278.750827 
L 114.970572 271.960576 
L 118.639535 225.658004 
L 123.120216 156.556071 
L 126.042399 126.608463 
L 126.52943 123.726415 
L 128.997051 117.329952 
L 129.02952 117.432542 
L 130.717892 123.129456 
L 131.399735 126.604804 
L 132.828358 135.902753 
L 136.822008 179.011466 
L 137.341507 185.385109 
L 137.666194 189.974913 
L 138.802599 202.689946 
L 140.166284 213.789649 
L 142.374156 230.350202 
L 143.77031 235.505694 
L 144.874246 237.673429 
L 144.939183 237.57759 
L 145.718432 235.712769 
L 147.893835 227.913797 
L 149.387395 218.287896 
L 151.238111 204.142221 
L 153.640795 183.252032 
L 156.920134 159.165401 
L 158.511101 153.504955 
L 160.069598 148.528158 
L 160.491691 147.81033 
L 160.52416 147.842098 
L 162.991781 150.352634 
L 163.543749 152.503368 
L 166.433464 164.370831 
L 167.991961 176.540225 
L 169.615396 185.103207 
L 169.680334 186.929822 
L 169.77774 186.883118 
L 169.972552 187.020755 
L 170.005021 186.938483 
L 398.487273 186.938483 
L 398.487273 186.938483 
" clip-path="url(#pd33dad69d5)" style="fill: none; stroke: #ff7f0e; stroke-width: 1.5; stroke-linecap: square"/>
   </g>
   <g id="line2d_16">
    <path d="M 73.832727 186.888101 
L 83.346057 186.888101 
L 83.5084 184.401216 
L 83.995431 181.296229 
L 84.417524 180.873916 
L 84.547399 180.102987 
L 84.612336 180.129993 
L 84.937023 179.172645 
L 86.105896 171.739852 
L 87.891675 151.960739 
L 89.093017 140.56244 
L 91.041139 118.546747 
L 93.800979 105.492436 
L 94.51529 105.370558 
L 94.937383 107.072784 
L 96.75563 118.183777 
L 98.314128 140.118448 
L 100.781749 180.802395 
L 100.911624 183.049116 
L 101.203843 188.333469 
L 102.437653 209.561501 
L 104.548119 236.924807 
L 105.554649 247.426138 
L 106.52871 252.653447 
L 106.853397 252.7305 
L 107.600177 251.89306 
L 108.931394 247.594075 
L 109.321018 245.471023 
L 109.808048 239.880717 
L 110.392485 232.603614 
L 113.249731 193.548124 
L 113.541949 186.965978 
L 113.736761 184.394878 
L 114.288729 178.109569 
L 114.938103 165.341973 
L 116.171914 148.915072 
L 117.892755 130.979616 
L 119.223972 123.0095 
L 119.288909 123.074918 
L 121.788999 125.718898 
L 124.873526 156.471895 
L 127.146335 188.165061 
L 127.373616 188.165061 
L 127.438553 190.408413 
L 127.698303 197.34039 
L 130.555549 231.181598 
L 132.76342 241.081508 
L 133.640075 241.473736 
L 134.289449 238.237786 
L 135.750541 230.174614 
L 138.055819 207.204832 
L 138.932474 195.878663 
L 141.594907 165.218301 
L 142.374156 156.286324 
L 143.02353 150.255718 
L 143.575498 147.102344 
L 145.133996 137.742773 
L 145.166464 137.756159 
L 145.588557 137.817985 
L 145.913244 137.909384 
L 147.406805 138.746165 
L 148.900365 147.405598 
L 151.660205 173.19429 
L 152.796609 184.52307 
L 152.991421 186.053396 
L 153.738201 194.962676 
L 155.653855 210.207567 
L 157.309759 221.793827 
L 157.601977 222.393475 
L 158.998131 223.011687 
L 160.589097 221.552393 
L 162.050189 215.495167 
L 164.582748 197.889959 
L 165.881496 185.772171 
L 166.27112 182.185709 
L 166.53087 181.831017 
L 167.439993 174.440549 
L 167.699743 172.740576 
L 168.154305 168.536597 
L 168.478992 166.541817 
L 170.329708 156.765573 
L 170.394645 156.467283 
L 170.427114 157.110489 
L 170.492051 156.474268 
L 171.044019 157.122801 
L 171.141425 156.344917 
L 171.401175 154.055985 
L 171.466112 154.063986 
L 172.829798 154.23202 
L 173.446703 156.711417 
L 173.544109 156.800607 
L 174.875326 160.449677 
L 175.362357 163.293385 
L 176.855917 172.81576 
L 178.349477 181.889659 
L 178.609227 183.491684 
L 181.596347 203.296486 
L 182.310659 205.052001 
L 182.862627 206.467204 
L 183.934094 209.420861 
L 184.193843 209.613906 
L 184.713343 209.623788 
L 185.232842 209.51164 
L 186.434184 206.801359 
L 187.570588 203.519979 
L 190.557709 187.94536 
L 192.927924 174.787517 
L 195.135796 166.244112 
L 196.012451 164.059487 
L 196.077388 164.089458 
L 199.226852 165.619595 
L 199.486602 166.452033 
L 205.330968 191.70926 
L 207.636246 199.565933 
L 210.52596 199.987842 
L 211.077928 199.563742 
L 214.194923 191.703748 
L 215.298859 185.862442 
L 219.617197 173.029856 
L 222.312099 170.845893 
L 222.344568 170.889662 
L 226.403155 177.682375 
L 229.617557 187.365189 
L 229.844838 187.942377 
L 233.28652 193.70383 
L 234.747611 193.829914 
L 234.942424 193.231009 
L 236.695734 192.32496 
L 242.410225 180.535967 
L 244.715503 177.996404 
L 245.267471 177.722632 
L 247.994842 177.75328 
L 256.826328 189.118443 
L 261.404415 186.97031 
L 263.092788 185.927977 
L 269.846278 179.89317 
L 280.723293 184.678813 
L 300.626607 184.102182 
L 397.54568 184.277103 
L 398.487273 184.297332 
L 398.487273 184.297332 
" clip-path="url(#pd33dad69d5)" style="fill: none; stroke: #2ca02c; stroke-width: 1.5; stroke-linecap: square"/>
   </g>
   <g id="line2d_17">
    <path d="M 73.832727 186.392054 
L 74.222352 186.767893 
L 75.943193 186.791646 
L 77.27441 186.731721 
L 77.566628 186.560474 
L 79.482281 186.751528 
L 80.975842 186.705292 
L 83.865556 184.180867 
L 85.131835 177.910453 
L 85.424054 175.682152 
L 86.203303 167.593732 
L 87.7618 146.208357 
L 88.183893 140.63046 
L 90.294359 114.970925 
L 93.086667 95.980425 
L 93.671104 94.521214 
L 93.703573 94.562421 
L 95.554289 104.060067 
L 95.943913 108.030039 
L 97.405005 126.007202 
L 99.190783 159.680828 
L 100.619406 187.784044 
L 100.651875 189.835114 
L 100.749281 189.797476 
L 100.846687 189.762041 
L 100.944093 191.350652 
L 101.431123 202.009152 
L 102.859746 229.491374 
L 105.489711 261.782405 
L 106.041679 265.699336 
L 106.106616 265.601583 
L 106.171554 265.572382 
L 106.204023 265.626634 
L 107.145615 267.304248 
L 107.210552 267.187407 
L 108.184613 265.032297 
L 109.808048 250.624514 
L 113.152325 197.383071 
L 115.555009 154.826787 
L 116.951163 136.323111 
L 117.373256 131.856028 
L 117.600537 127.176658 
L 117.860286 124.91073 
L 118.087567 121.32079 
L 118.542129 120.988265 
L 119.970752 114.071853 
L 120.068158 114.100022 
L 121.00975 114.477585 
L 122.795529 122.471426 
L 124.061808 137.144839 
L 128.152865 197.771722 
L 129.51655 216.848589 
L 131.26986 236.071079 
L 131.659484 238.931843 
L 132.795889 243.934618 
L 134.321918 245.238666 
L 134.581668 245.107699 
L 136.107697 233.591705 
L 136.724602 228.117887 
L 137.893475 215.140546 
L 139.939003 186.714061 
L 142.146875 158.598685 
L 143.737841 142.926388 
L 144.419684 139.553572 
L 145.685964 130.792778 
L 145.718432 130.882295 
L 148.088647 137.708812 
L 151.238111 163.949139 
L 151.919954 171.087572 
L 155.231762 208.161109 
L 156.400635 219.299765 
L 156.53051 223.081584 
L 156.692853 224.83837 
L 161.433284 224.791657 
L 161.822908 217.728939 
L 162.147595 215.424809 
L 164.77756 197.249362 
L 167.76468 170.336177 
L 168.673804 163.392709 
L 169.323178 159.709268 
L 170.946613 154.21365 
L 172.407705 149.390087 
L 172.440173 149.509726 
L 175.26495 164.339109 
L 176.044199 169.275646 
L 179.291069 193.316774 
L 180.492411 201.783513 
L 183.479532 218.743645 
L 183.641875 220.808621 
L 183.934094 224.84345 
L 183.999031 222.348424 
L 184.193843 215.298852 
L 184.356187 214.689263 
L 186.628996 208.746307 
L 188.642055 198.777382 
L 192.440894 174.295881 
L 195.005921 164.007551 
L 195.947513 163.07178 
L 196.694293 162.861365 
L 197.408605 163.25891 
L 199.713883 166.112842 
L 199.843757 166.240035 
L 201.856817 176.642751 
L 203.707533 184.330703 
L 203.934814 187.362713 
L 204.259501 189.166322 
L 204.908875 191.80952 
L 206.856997 198.211224 
L 207.668715 201.167573 
L 208.383026 202.022138 
L 208.837588 202.260906 
L 210.915585 202.464533 
L 211.759771 200.215547 
L 213.902705 193.940216 
L 215.201453 189.028633 
L 216.207983 183.233646 
L 216.79242 181.699578 
L 217.376856 180.700324 
L 218.77301 173.260269 
L 222.117287 169.862005 
L 222.344568 169.858668 
L 225.558969 176.6913 
L 226.565499 181.162951 
L 226.857717 182.061784 
L 227.117467 182.811142 
L 227.214873 182.637822 
L 227.312279 182.464502 
L 227.344748 182.598415 
L 227.734372 184.119602 
L 398.487273 184.119602 
L 398.487273 184.119602 
" clip-path="url(#pd33dad69d5)" style="fill: none; stroke: #d62728; stroke-width: 1.5; stroke-linecap: square"/>
   </g>
   <g id="line2d_18">
    <path d="M 73.832727 187.719031 
L 74.189883 187.74638 
L 76.26788 186.920992 
L 77.177004 186.582945 
L 77.631565 186.437461 
L 81.00831 187.390192 
L 81.625216 187.11966 
L 81.949903 186.088146 
L 83.76815 184.772196 
L 84.0279 184.163805 
L 84.417524 182.200985 
L 85.26171 175.114588 
L 87.956612 144.788356 
L 92.469762 75.986922 
L 94.807508 53.568 
L 94.872446 53.734938 
L 96.398475 61.799689 
L 98.184253 89.291691 
L 100.034969 130.126163 
L 104.840337 257.371154 
L 105.879336 274.527364 
L 106.626116 285.179386 
L 107.859926 292.789949 
L 108.346957 293.516809 
L 109.126206 289.571273 
L 110.717172 273.64988 
L 112.665294 235.69141 
L 116.496601 144.396671 
L 117.957692 117.973202 
L 118.50966 110.626277 
L 119.646065 96.700722 
L 120.620126 92.085665 
L 120.652595 92.192473 
L 121.074688 93.240058 
L 122.081218 94.851217 
L 123.347497 106.707857 
L 127.373616 176.866036 
L 127.893115 188.743129 
L 128.055459 192.206821 
L 128.120396 193.199775 
L 128.315208 196.59659 
L 128.412614 197.776178 
L 128.899645 208.436534 
L 129.971112 225.563184 
L 130.750361 238.444941 
L 131.562078 251.971627 
L 132.178984 257.110441 
L 132.828358 261.616078 
L 133.575138 264.643373 
L 134.679074 265.774931 
L 135.26351 266.350907 
L 135.295979 266.259671 
L 135.815478 264.62228 
L 136.107697 261.564747 
L 138.835068 226.25636 
L 141.52997 177.747025 
L 142.536499 161.50291 
L 143.575498 142.05754 
L 145.880776 119.306599 
L 146.919774 114.904825 
L 147.569148 114.484442 
L 147.601617 114.535224 
L 148.867896 117.729517 
L 150.880956 132.8559 
L 151.822548 145.585278 
L 154.874606 189.202266 
L 155.978542 206.912171 
L 158.835788 237.15245 
L 160.556629 243.448542 
L 160.589097 243.359869 
L 162.699563 237.328702 
L 162.894375 235.496547 
L 166.238652 199.989499 
L 168.219242 173.774485 
L 170.427114 151.621387 
L 171.011551 147.67446 
L 171.173894 145.708747 
L 173.349297 140.471711 
L 174.225952 138.678088 
L 174.258421 138.815405 
L 175.751981 148.189047 
L 175.881856 149.823653 
L 176.076668 149.857241 
L 177.505291 158.133829 
L 179.356007 178.729334 
L 179.907975 185.023739 
L 180.005381 185.449178 
L 180.167724 186.804943 
L 180.330068 187.212936 
L 180.654755 191.884923 
L 183.479532 214.405139 
L 183.934094 216.912192 
L 186.174434 224.544377 
L 186.239372 224.452646 
L 187.213433 222.877471 
L 187.505651 222.026366 
L 190.070678 208.318673 
L 191.174614 199.844532 
L 193.739642 177.840258 
L 195.330608 166.036465 
L 196.596887 159.694948 
L 198.252791 152.506455 
L 198.999571 152.990164 
L 201.304849 155.979971 
L 206.499841 190.67842 
L 207.116747 195.506122 
L 210.03893 209.496555 
L 210.428554 210.829715 
L 210.493492 210.787914 
L 213.642956 208.724614 
L 220.818539 170.777967 
L 222.474442 163.889257 
L 224.390096 163.787026 
L 225.03947 163.75287 
L 225.591438 164.018468 
L 225.916125 164.697492 
L 228.77337 174.195902 
L 233.643676 197.496661 
L 237.507451 200.72066 
L 237.962013 201.034164 
L 237.994482 200.9834 
L 240.559509 193.872096 
L 246.696094 172.992295 
L 251.0469 170.733984 
L 258.157545 188.654063 
L 261.729102 194.580778 
L 261.79404 194.540199 
L 264.456473 192.75539 
L 264.651285 192.394532 
L 271.826869 177.590914 
L 272.346368 177.506552 
L 275.690644 178.633904 
L 277.151736 180.343882 
L 282.963633 188.377045 
L 287.606657 190.222598 
L 289.879466 186.2334 
L 290.593778 186.19239 
L 293.158805 182.856019 
L 296.730362 181.284715 
L 297.996642 181.77347 
L 298.710953 181.177885 
L 300.464263 182.505724 
L 302.931884 183.04243 
L 303.743602 183.43462 
L 306.730723 184.545357 
L 307.639846 184.772203 
L 308.419095 186.554923 
L 308.451564 186.485021 
L 308.776251 186.030693 
L 312.05559 186.513536 
L 321.926075 184.689557 
L 398.487273 184.6313 
L 398.487273 184.6313 
" clip-path="url(#pd33dad69d5)" style="fill: none; stroke: #9467bd; stroke-width: 1.5; stroke-linecap: square"/>
   </g>
   <g id="line2d_19">
    <path d="M 73.832727 186.928496 
L 84.0279 186.928496 
L 84.060368 188.151087 
L 84.125306 186.880485 
L 84.320118 184.157326 
L 86.300709 165.086858 
L 87.372176 152.095558 
L 89.872266 117.516953 
L 92.76198 76.911965 
L 94.450353 66.503845 
L 95.489351 60.928263 
L 96.430943 58.85316 
L 96.853037 61.846593 
L 98.76869 82.78088 
L 99.450533 93.658298 
L 101.52853 135.09815 
L 102.535059 161.815453 
L 103.379246 182.64201 
L 103.76887 201.299363 
L 103.801339 201.199729 
L 103.996151 200.278956 
L 104.061088 189.826385 
L 104.126026 195.009518 
L 104.385775 209.279467 
L 104.840337 228.280511 
L 105.749461 253.909666 
L 106.561178 269.021204 
L 108.217082 288.051325 
L 109.385955 295.488 
L 109.450893 295.419061 
L 109.710642 295.143303 
L 110.52236 289.080806 
L 112.048389 274.516873 
L 115.295259 208.090272 
L 115.944633 186.928496 
L 115.977102 186.928496 
L 116.204383 180.023028 
L 116.594007 171.095238 
L 117.113506 163.392421 
L 119.223972 123.301197 
L 119.77594 114.826737 
L 121.399375 99.443195 
L 122.957873 94.547655 
L 122.990341 94.750624 
L 125.100807 108.572441 
L 127.178804 134.746509 
L 129.51655 181.750795 
L 129.906175 186.928496 
L 129.971112 186.928496 
L 130.198393 193.983488 
L 132.146515 231.4172 
L 132.730952 238.213501 
L 132.860826 239.255769 
L 135.101167 263.580775 
L 135.166104 263.358589 
L 137.925944 253.608915 
L 138.575318 247.274724 
L 141.757251 200.690552 
L 142.471562 186.928496 
L 142.568968 186.928496 
L 142.76378 183.780975 
L 143.575498 170.206016 
L 145.556089 143.120872 
L 146.432744 135.744607 
L 148.186054 125.22738 
L 149.906895 123.517114 
L 149.939363 123.569328 
L 150.26405 124.872093 
L 152.439453 142.643692 
L 153.803139 157.384249 
L 155.816198 185.144032 
L 156.173354 188.879153 
L 157.27729 203.332182 
L 158.77085 222.640749 
L 160.718972 234.595976 
L 160.848847 235.349387 
L 160.978722 237.319687 
L 162.926844 237.25514 
L 163.413874 233.369337 
L 165.102247 225.424277 
L 165.329528 223.237074 
L 167.991961 193.290721 
L 168.446523 188.710609 
L 168.738742 185.376618 
L 168.868616 184.425355 
L 170.394645 164.956878 
L 170.914145 160.278091 
L 171.725862 153.377841 
L 173.609047 141.678427 
L 174.290889 141.140174 
L 176.661105 143.585321 
L 177.505291 147.485548 
L 178.706633 158.489403 
L 179.972912 165.922795 
L 182.01844 188.318153 
L 184.453593 209.837239 
L 186.369246 219.104036 
L 187.310839 221.650525 
L 187.960213 221.851069 
L 188.577118 221.68806 
L 190.070678 217.137223 
L 192.311019 203.695496 
L 193.707173 190.726121 
L 195.03839 181.762757 
L 195.882576 173.758184 
L 196.726762 168.015748 
L 197.700823 162.762153 
L 200.135976 154.831628 
L 200.168444 154.878683 
L 202.636066 158.621393 
L 204.616657 168.340223 
L 209.0324 195.634694 
L 210.590898 203.113252 
L 213.058519 209.277495 
L 213.090988 209.227518 
L 214.03258 207.802525 
L 214.065049 207.847421 
L 214.681954 208.700437 
L 214.714423 208.58322 
L 217.506731 197.226648 
L 217.896355 195.45114 
L 218.578198 191.969143 
L 222.052349 174.043442 
L 224.422564 166.812803 
L 225.429094 165.902643 
L 226.79278 165.610966 
L 229.260401 171.950157 
L 234.845018 194.22133 
L 236.79314 199.251073 
L 238.384106 199.837893 
L 241.306289 197.309332 
L 242.28035 193.220752 
L 243.838848 190.299745 
L 245.007721 185.836218 
L 246.079188 181.051499 
L 247.442874 180.277045 
L 248.319529 174.67819 
L 252.313179 174.172146 
L 256.079548 181.460842 
L 260.495292 191.091358 
L 263.092788 192.834379 
L 272.346368 182.828851 
L 274.456833 179.984504 
L 274.489302 180.00976 
L 279.7817 183.987798 
L 286.762471 188.058641 
L 301.016231 184.643148 
L 314.945304 185.217698 
L 398.487273 184.803306 
L 398.487273 184.803306 
" clip-path="url(#pd33dad69d5)" style="fill: none; stroke: #8c564b; stroke-width: 1.5; stroke-linecap: square"/>
   </g>
   <g id="patch_3">
    <path d="M 57.6 307.584 
L 57.6 41.472 
" style="fill: none; stroke: #000000; stroke-width: 0.8; stroke-linejoin: miter; stroke-linecap: square"/>
   </g>
   <g id="patch_4">
    <path d="M 414.72 307.584 
L 414.72 41.472 
" style="fill: none; stroke: #000000; stroke-width: 0.8; stroke-linejoin: miter; stroke-linecap: square"/>
   </g>
   <g id="patch_5">
    <path d="M 57.6 307.584 
L 414.72 307.584 
" style="fill: none; stroke: #000000; stroke-width: 0.8; stroke-linejoin: miter; stroke-linecap: square"/>
   </g>
   <g id="patch_6">
    <path d="M 57.6 41.472 
L 414.72 41.472 
" style="fill: none; stroke: #000000; stroke-width: 0.8; stroke-linejoin: miter; stroke-linecap: square"/>
   </g>
   <g id="legend_1">
    <g id="patch_7">
     <path d="M 340.77625 137.54075 
L 407.72 137.54075 
Q 409.72 137.54075 409.72 135.54075 
L 409.72 48.472 
Q 409.72 46.472 407.72 46.472 
L 340.77625 46.472 
Q 338.77625 46.472 338.77625 48.472 
L 338.77625 135.54075 
Q 338.77625 137.54075 340.77625 137.54075 
z
" style="fill: #ffffff; opacity: 0.8; stroke: #cccccc; stroke-linejoin: miter"/>
    </g>
    <g id="line2d_20">
     <path d="M 342.77625 54.570438 
L 352.77625 54.570438 
L 362.77625 54.570438 
" style="fill: none; stroke: #1f77b4; stroke-width: 1.5; stroke-linecap: square"/>
    </g>
    <g id="text_16">
     <!-- Free -->
     <g transform="translate(370.77625 58.070438) scale(0.1 -0.1)">
      <defs>
       <path id="DejaVuSans-46" d="M 628 4666 
L 3309 4666 
L 3309 4134 
L 1259 4134 
L 1259 2759 
L 3109 2759 
L 3109 2228 
L 1259 2228 
L 1259 0 
L 628 0 
L 628 4666 
z
" transform="scale(0.015625)"/>
       <path id="DejaVuSans-72" d="M 2631 2963 
Q 2534 3019 2420 3045 
Q 2306 3072 2169 3072 
Q 1681 3072 1420 2755 
Q 1159 2438 1159 1844 
L 1159 0 
L 581 0 
L 581 3500 
L 1159 3500 
L 1159 2956 
Q 1341 3275 1631 3429 
Q 1922 3584 2338 3584 
Q 2397 3584 2469 3576 
Q 2541 3569 2628 3553 
L 2631 2963 
z
" transform="scale(0.015625)"/>
      </defs>
      <use xlink:href="#DejaVuSans-46"/>
      <use xlink:href="#DejaVuSans-72" x="50.269531"/>
      <use xlink:href="#DejaVuSans-65" x="89.132812"/>
      <use xlink:href="#DejaVuSans-65" x="150.65625"/>
     </g>
    </g>
    <g id="line2d_21">
     <path d="M 342.77625 69.248563 
L 352.77625 69.248563 
L 362.77625 69.248563 
" style="fill: none; stroke: #ff7f0e; stroke-width: 1.5; stroke-linecap: square"/>
    </g>
    <g id="text_17">
     <!-- Locked -->
     <g transform="translate(370.77625 72.748563) scale(0.1 -0.1)">
      <defs>
       <path id="DejaVuSans-4c" d="M 628 4666 
L 1259 4666 
L 1259 531 
L 3531 531 
L 3531 0 
L 628 0 
L 628 4666 
z
" transform="scale(0.015625)"/>
       <path id="DejaVuSans-6f" d="M 1959 3097 
Q 1497 3097 1228 2736 
Q 959 2375 959 1747 
Q 959 1119 1226 758 
Q 1494 397 1959 397 
Q 2419 397 2687 759 
Q 2956 1122 2956 1747 
Q 2956 2369 2687 2733 
Q 2419 3097 1959 3097 
z
M 1959 3584 
Q 2709 3584 3137 3096 
Q 3566 2609 3566 1747 
Q 3566 888 3137 398 
Q 2709 -91 1959 -91 
Q 1206 -91 779 398 
Q 353 888 353 1747 
Q 353 2609 779 3096 
Q 1206 3584 1959 3584 
z
" transform="scale(0.015625)"/>
       <path id="DejaVuSans-63" d="M 3122 3366 
L 3122 2828 
Q 2878 2963 2633 3030 
Q 2388 3097 2138 3097 
Q 1578 3097 1268 2742 
Q 959 2388 959 1747 
Q 959 1106 1268 751 
Q 1578 397 2138 397 
Q 2388 397 2633 464 
Q 2878 531 3122 666 
L 3122 134 
Q 2881 22 2623 -34 
Q 2366 -91 2075 -91 
Q 1284 -91 818 406 
Q 353 903 353 1747 
Q 353 2603 823 3093 
Q 1294 3584 2113 3584 
Q 2378 3584 2631 3529 
Q 2884 3475 3122 3366 
z
" transform="scale(0.015625)"/>
       <path id="DejaVuSans-6b" d="M 581 4863 
L 1159 4863 
L 1159 1991 
L 2875 3500 
L 3609 3500 
L 1753 1863 
L 3688 0 
L 2938 0 
L 1159 1709 
L 1159 0 
L 581 0 
L 581 4863 
z
" transform="scale(0.015625)"/>
      </defs>
      <use xlink:href="#DejaVuSans-4c"/>
      <use xlink:href="#DejaVuSans-6f" x="53.962891"/>
      <use xlink:href="#DejaVuSans-63" x="115.144531"/>
      <use xlink:href="#DejaVuSans-6b" x="170.125"/>
      <use xlink:href="#DejaVuSans-65" x="224.410156"/>
      <use xlink:href="#DejaVuSans-64" x="285.933594"/>
     </g>
    </g>
    <g id="line2d_22">
     <path d="M 342.77625 83.926688 
L 352.77625 83.926688 
L 362.77625 83.926688 
" style="fill: none; stroke: #2ca02c; stroke-width: 1.5; stroke-linecap: square"/>
    </g>
    <g id="text_18">
     <!-- Pre -->
     <g transform="translate(370.77625 87.426688) scale(0.1 -0.1)">
      <defs>
       <path id="DejaVuSans-50" d="M 1259 4147 
L 1259 2394 
L 2053 2394 
Q 2494 2394 2734 2622 
Q 2975 2850 2975 3272 
Q 2975 3691 2734 3919 
Q 2494 4147 2053 4147 
L 1259 4147 
z
M 628 4666 
L 2053 4666 
Q 2838 4666 3239 4311 
Q 3641 3956 3641 3272 
Q 3641 2581 3239 2228 
Q 2838 1875 2053 1875 
L 1259 1875 
L 1259 0 
L 628 0 
L 628 4666 
z
" transform="scale(0.015625)"/>
      </defs>
      <use xlink:href="#DejaVuSans-50"/>
      <use xlink:href="#DejaVuSans-72" x="58.552734"/>
      <use xlink:href="#DejaVuSans-65" x="97.416016"/>
     </g>
    </g>
    <g id="line2d_23">
     <path d="M 342.77625 98.604813 
L 352.77625 98.604813 
L 362.77625 98.604813 
" style="fill: none; stroke: #d62728; stroke-width: 1.5; stroke-linecap: square"/>
    </g>
    <g id="text_19">
     <!-- Rel0 -->
     <g transform="translate(370.77625 102.104813) scale(0.1 -0.1)">
      <defs>
       <path id="DejaVuSans-52" d="M 2841 2188 
Q 3044 2119 3236 1894 
Q 3428 1669 3622 1275 
L 4263 0 
L 3584 0 
L 2988 1197 
Q 2756 1666 2539 1819 
Q 2322 1972 1947 1972 
L 1259 1972 
L 1259 0 
L 628 0 
L 628 4666 
L 2053 4666 
Q 2853 4666 3247 4331 
Q 3641 3997 3641 3322 
Q 3641 2881 3436 2590 
Q 3231 2300 2841 2188 
z
M 1259 4147 
L 1259 2491 
L 2053 2491 
Q 2509 2491 2742 2702 
Q 2975 2913 2975 3322 
Q 2975 3731 2742 3939 
Q 2509 4147 2053 4147 
L 1259 4147 
z
" transform="scale(0.015625)"/>
       <path id="DejaVuSans-6c" d="M 603 4863 
L 1178 4863 
L 1178 0 
L 603 0 
L 603 4863 
z
" transform="scale(0.015625)"/>
      </defs>
      <use xlink:href="#DejaVuSans-52"/>
      <use xlink:href="#DejaVuSans-65" x="64.982422"/>
      <use xlink:href="#DejaVuSans-6c" x="126.505859"/>
      <use xlink:href="#DejaVuSans-30" x="154.289062"/>
     </g>
    </g>
    <g id="line2d_24">
     <path d="M 342.77625 113.282938 
L 352.77625 113.282938 
L 362.77625 113.282938 
" style="fill: none; stroke: #9467bd; stroke-width: 1.5; stroke-linecap: square"/>
    </g>
    <g id="text_20">
     <!-- Rel50 -->
     <g transform="translate(370.77625 116.782938) scale(0.1 -0.1)">
      <use xlink:href="#DejaVuSans-52"/>
      <use xlink:href="#DejaVuSans-65" x="64.982422"/>
      <use xlink:href="#DejaVuSans-6c" x="126.505859"/>
      <use xlink:href="#DejaVuSans-35" x="154.289062"/>
      <use xlink:href="#DejaVuSans-30" x="217.912109"/>
     </g>
    </g>
    <g id="line2d_25">
     <path d="M 342.77625 127.961063 
L 352.77625 127.961063 
L 362.77625 127.961063 
" style="fill: none; stroke: #8c564b; stroke-width: 1.5; stroke-linecap: square"/>
    </g>
    <g id="text_21">
     <!-- Rel100 -->
     <g transform="translate(370.77625 131.461063) scale(0.1 -0.1)">
      <use xlink:href="#DejaVuSans-52"/>
      <use xlink:href="#DejaVuSans-65" x="64.982422"/>
      <use xlink:href="#DejaVuSans-6c" x="126.505859"/>
      <use xlink:href="#DejaVuSans-31" x="154.289062"/>
      <use xlink:href="#DejaVuSans-30" x="217.912109"/>
      <use xlink:href="#DejaVuSans-30" x="281.535156"/>
     </g>
    </g>
   </g>
  </g>
 </g>
 <defs>
  <clipPath id="pd33dad69d5">
   <rect x="57.6" y="41.472" width="357.12" height="266.112"/>
  </clipPath>
 </defs>
</svg>
