<?xml version="1.0" encoding="utf-8" standalone="no"?>
<!DOCTYPE svg PUBLIC "-//W3C//DTD SVG 1.1//EN"
  "http://www.w3.org/Graphics/SVG/1.1/DTD/svg11.dtd">
<svg xmlns:xlink="http://www.w3.org/1999/xlink" width="460.8pt" height="345.6pt" viewBox="0 0 460.8 345.6" xmlns="http://www.w3.org/2000/svg" version="1.1">
 <metadata>
  <rdf:RDF xmlns:dc="http://purl.org/dc/elements/1.1/" xmlns:cc="http://creativecommons.org/ns#" xmlns:rdf="http://www.w3.org/1999/02/22-rdf-syntax-ns#">
   <cc:Work>
    <dc:type rdf:resource="http://purl.org/dc/dcmitype/StillImage"/>
    <dc:date>2023-05-04T16:45:02.599838</dc:date>
    <dc:format>image/svg+xml</dc:format>
    <dc:creator>
     <cc:Agent>
      <dc:title>Matplotlib v3.6.2, https://matplotlib.org/</dc:title>
     </cc:Agent>
    </dc:creator>
   </cc:Work>
  </rdf:RDF>
 </metadata>
 <defs>
  <style type="text/css">*{stroke-linejoin: round; stroke-linecap: butt}</style>
 </defs>
 <g id="figure_1">
  <g id="patch_1">
   <path d="M 0 345.6 
L 460.8 345.6 
L 460.8 0 
L 0 0 
z
" style="fill: #ffffff"/>
  </g>
  <g id="axes_1">
   <g id="patch_2">
    <path d="M 57.6 307.584 
L 414.72 307.584 
L 414.72 41.472 
L 57.6 41.472 
z
" style="fill: #ffffff"/>
   </g>
   <g id="matplotlib.axis_1">
    <g id="xtick_1">
     <g id="line2d_1">
      <defs>
       <path id="m23efac104c" d="M 0 0 
L 0 3.5 
" style="stroke: #000000; stroke-width: 0.8"/>
      </defs>
      <g>
       <use xlink:href="#m23efac104c" x="73.832727" y="307.584" style="stroke: #000000; stroke-width: 0.8"/>
      </g>
     </g>
     <g id="text_1">
      <!-- 0.0 -->
      <g transform="translate(65.881165 322.182437) scale(0.1 -0.1)">
       <defs>
        <path id="DejaVuSans-30" d="M 2034 4250 
Q 1547 4250 1301 3770 
Q 1056 3291 1056 2328 
Q 1056 1369 1301 889 
Q 1547 409 2034 409 
Q 2525 409 2770 889 
Q 3016 1369 3016 2328 
Q 3016 3291 2770 3770 
Q 2525 4250 2034 4250 
z
M 2034 4750 
Q 2819 4750 3233 4129 
Q 3647 3509 3647 2328 
Q 3647 1150 3233 529 
Q 2819 -91 2034 -91 
Q 1250 -91 836 529 
Q 422 1150 422 2328 
Q 422 3509 836 4129 
Q 1250 4750 2034 4750 
z
" transform="scale(0.015625)"/>
        <path id="DejaVuSans-2e" d="M 684 794 
L 1344 794 
L 1344 0 
L 684 0 
L 684 794 
z
" transform="scale(0.015625)"/>
       </defs>
       <use xlink:href="#DejaVuSans-30"/>
       <use xlink:href="#DejaVuSans-2e" x="63.623047"/>
       <use xlink:href="#DejaVuSans-30" x="95.410156"/>
      </g>
     </g>
    </g>
    <g id="xtick_2">
     <g id="line2d_2">
      <g>
       <use xlink:href="#m23efac104c" x="126.837551" y="307.584" style="stroke: #000000; stroke-width: 0.8"/>
      </g>
     </g>
     <g id="text_2">
      <!-- 0.5 -->
      <g transform="translate(118.885989 322.182437) scale(0.1 -0.1)">
       <defs>
        <path id="DejaVuSans-35" d="M 691 4666 
L 3169 4666 
L 3169 4134 
L 1269 4134 
L 1269 2991 
Q 1406 3038 1543 3061 
Q 1681 3084 1819 3084 
Q 2600 3084 3056 2656 
Q 3513 2228 3513 1497 
Q 3513 744 3044 326 
Q 2575 -91 1722 -91 
Q 1428 -91 1123 -41 
Q 819 9 494 109 
L 494 744 
Q 775 591 1075 516 
Q 1375 441 1709 441 
Q 2250 441 2565 725 
Q 2881 1009 2881 1497 
Q 2881 1984 2565 2268 
Q 2250 2553 1709 2553 
Q 1456 2553 1204 2497 
Q 953 2441 691 2322 
L 691 4666 
z
" transform="scale(0.015625)"/>
       </defs>
       <use xlink:href="#DejaVuSans-30"/>
       <use xlink:href="#DejaVuSans-2e" x="63.623047"/>
       <use xlink:href="#DejaVuSans-35" x="95.410156"/>
      </g>
     </g>
    </g>
    <g id="xtick_3">
     <g id="line2d_3">
      <g>
       <use xlink:href="#m23efac104c" x="179.842375" y="307.584" style="stroke: #000000; stroke-width: 0.8"/>
      </g>
     </g>
     <g id="text_3">
      <!-- 1.0 -->
      <g transform="translate(171.890812 322.182437) scale(0.1 -0.1)">
       <defs>
        <path id="DejaVuSans-31" d="M 794 531 
L 1825 531 
L 1825 4091 
L 703 3866 
L 703 4441 
L 1819 4666 
L 2450 4666 
L 2450 531 
L 3481 531 
L 3481 0 
L 794 0 
L 794 531 
z
" transform="scale(0.015625)"/>
       </defs>
       <use xlink:href="#DejaVuSans-31"/>
       <use xlink:href="#DejaVuSans-2e" x="63.623047"/>
       <use xlink:href="#DejaVuSans-30" x="95.410156"/>
      </g>
     </g>
    </g>
    <g id="xtick_4">
     <g id="line2d_4">
      <g>
       <use xlink:href="#m23efac104c" x="232.847199" y="307.584" style="stroke: #000000; stroke-width: 0.8"/>
      </g>
     </g>
     <g id="text_4">
      <!-- 1.5 -->
      <g transform="translate(224.895636 322.182437) scale(0.1 -0.1)">
       <use xlink:href="#DejaVuSans-31"/>
       <use xlink:href="#DejaVuSans-2e" x="63.623047"/>
       <use xlink:href="#DejaVuSans-35" x="95.410156"/>
      </g>
     </g>
    </g>
    <g id="xtick_5">
     <g id="line2d_5">
      <g>
       <use xlink:href="#m23efac104c" x="285.852022" y="307.584" style="stroke: #000000; stroke-width: 0.8"/>
      </g>
     </g>
     <g id="text_5">
      <!-- 2.0 -->
      <g transform="translate(277.90046 322.182437) scale(0.1 -0.1)">
       <defs>
        <path id="DejaVuSans-32" d="M 1228 531 
L 3431 531 
L 3431 0 
L 469 0 
L 469 531 
Q 828 903 1448 1529 
Q 2069 2156 2228 2338 
Q 2531 2678 2651 2914 
Q 2772 3150 2772 3378 
Q 2772 3750 2511 3984 
Q 2250 4219 1831 4219 
Q 1534 4219 1204 4116 
Q 875 4013 500 3803 
L 500 4441 
Q 881 4594 1212 4672 
Q 1544 4750 1819 4750 
Q 2544 4750 2975 4387 
Q 3406 4025 3406 3419 
Q 3406 3131 3298 2873 
Q 3191 2616 2906 2266 
Q 2828 2175 2409 1742 
Q 1991 1309 1228 531 
z
" transform="scale(0.015625)"/>
       </defs>
       <use xlink:href="#DejaVuSans-32"/>
       <use xlink:href="#DejaVuSans-2e" x="63.623047"/>
       <use xlink:href="#DejaVuSans-30" x="95.410156"/>
      </g>
     </g>
    </g>
    <g id="xtick_6">
     <g id="line2d_6">
      <g>
       <use xlink:href="#m23efac104c" x="338.856846" y="307.584" style="stroke: #000000; stroke-width: 0.8"/>
      </g>
     </g>
     <g id="text_6">
      <!-- 2.5 -->
      <g transform="translate(330.905284 322.182437) scale(0.1 -0.1)">
       <use xlink:href="#DejaVuSans-32"/>
       <use xlink:href="#DejaVuSans-2e" x="63.623047"/>
       <use xlink:href="#DejaVuSans-35" x="95.410156"/>
      </g>
     </g>
    </g>
    <g id="xtick_7">
     <g id="line2d_7">
      <g>
       <use xlink:href="#m23efac104c" x="391.86167" y="307.584" style="stroke: #000000; stroke-width: 0.8"/>
      </g>
     </g>
     <g id="text_7">
      <!-- 3.0 -->
      <g transform="translate(383.910107 322.182437) scale(0.1 -0.1)">
       <defs>
        <path id="DejaVuSans-33" d="M 2597 2516 
Q 3050 2419 3304 2112 
Q 3559 1806 3559 1356 
Q 3559 666 3084 287 
Q 2609 -91 1734 -91 
Q 1441 -91 1130 -33 
Q 819 25 488 141 
L 488 750 
Q 750 597 1062 519 
Q 1375 441 1716 441 
Q 2309 441 2620 675 
Q 2931 909 2931 1356 
Q 2931 1769 2642 2001 
Q 2353 2234 1838 2234 
L 1294 2234 
L 1294 2753 
L 1863 2753 
Q 2328 2753 2575 2939 
Q 2822 3125 2822 3475 
Q 2822 3834 2567 4026 
Q 2313 4219 1838 4219 
Q 1578 4219 1281 4162 
Q 984 4106 628 3988 
L 628 4550 
Q 988 4650 1302 4700 
Q 1616 4750 1894 4750 
Q 2613 4750 3031 4423 
Q 3450 4097 3450 3541 
Q 3450 3153 3228 2886 
Q 3006 2619 2597 2516 
z
" transform="scale(0.015625)"/>
       </defs>
       <use xlink:href="#DejaVuSans-33"/>
       <use xlink:href="#DejaVuSans-2e" x="63.623047"/>
       <use xlink:href="#DejaVuSans-30" x="95.410156"/>
      </g>
     </g>
    </g>
    <g id="text_8">
     <!-- Time [s] -->
     <g transform="translate(215.831094 335.860562) scale(0.1 -0.1)">
      <defs>
       <path id="DejaVuSans-54" d="M -19 4666 
L 3928 4666 
L 3928 4134 
L 2272 4134 
L 2272 0 
L 1638 0 
L 1638 4134 
L -19 4134 
L -19 4666 
z
" transform="scale(0.015625)"/>
       <path id="DejaVuSans-69" d="M 603 3500 
L 1178 3500 
L 1178 0 
L 603 0 
L 603 3500 
z
M 603 4863 
L 1178 4863 
L 1178 4134 
L 603 4134 
L 603 4863 
z
" transform="scale(0.015625)"/>
       <path id="DejaVuSans-6d" d="M 3328 2828 
Q 3544 3216 3844 3400 
Q 4144 3584 4550 3584 
Q 5097 3584 5394 3201 
Q 5691 2819 5691 2113 
L 5691 0 
L 5113 0 
L 5113 2094 
Q 5113 2597 4934 2840 
Q 4756 3084 4391 3084 
Q 3944 3084 3684 2787 
Q 3425 2491 3425 1978 
L 3425 0 
L 2847 0 
L 2847 2094 
Q 2847 2600 2669 2842 
Q 2491 3084 2119 3084 
Q 1678 3084 1418 2786 
Q 1159 2488 1159 1978 
L 1159 0 
L 581 0 
L 581 3500 
L 1159 3500 
L 1159 2956 
Q 1356 3278 1631 3431 
Q 1906 3584 2284 3584 
Q 2666 3584 2933 3390 
Q 3200 3197 3328 2828 
z
" transform="scale(0.015625)"/>
       <path id="DejaVuSans-65" d="M 3597 1894 
L 3597 1613 
L 953 1613 
Q 991 1019 1311 708 
Q 1631 397 2203 397 
Q 2534 397 2845 478 
Q 3156 559 3463 722 
L 3463 178 
Q 3153 47 2828 -22 
Q 2503 -91 2169 -91 
Q 1331 -91 842 396 
Q 353 884 353 1716 
Q 353 2575 817 3079 
Q 1281 3584 2069 3584 
Q 2775 3584 3186 3129 
Q 3597 2675 3597 1894 
z
M 3022 2063 
Q 3016 2534 2758 2815 
Q 2500 3097 2075 3097 
Q 1594 3097 1305 2825 
Q 1016 2553 972 2059 
L 3022 2063 
z
" transform="scale(0.015625)"/>
       <path id="DejaVuSans-20" transform="scale(0.015625)"/>
       <path id="DejaVuSans-5b" d="M 550 4863 
L 1875 4863 
L 1875 4416 
L 1125 4416 
L 1125 -397 
L 1875 -397 
L 1875 -844 
L 550 -844 
L 550 4863 
z
" transform="scale(0.015625)"/>
       <path id="DejaVuSans-73" d="M 2834 3397 
L 2834 2853 
Q 2591 2978 2328 3040 
Q 2066 3103 1784 3103 
Q 1356 3103 1142 2972 
Q 928 2841 928 2578 
Q 928 2378 1081 2264 
Q 1234 2150 1697 2047 
L 1894 2003 
Q 2506 1872 2764 1633 
Q 3022 1394 3022 966 
Q 3022 478 2636 193 
Q 2250 -91 1575 -91 
Q 1294 -91 989 -36 
Q 684 19 347 128 
L 347 722 
Q 666 556 975 473 
Q 1284 391 1588 391 
Q 1994 391 2212 530 
Q 2431 669 2431 922 
Q 2431 1156 2273 1281 
Q 2116 1406 1581 1522 
L 1381 1569 
Q 847 1681 609 1914 
Q 372 2147 372 2553 
Q 372 3047 722 3315 
Q 1072 3584 1716 3584 
Q 2034 3584 2315 3537 
Q 2597 3491 2834 3397 
z
" transform="scale(0.015625)"/>
       <path id="DejaVuSans-5d" d="M 1947 4863 
L 1947 -844 
L 622 -844 
L 622 -397 
L 1369 -397 
L 1369 4416 
L 622 4416 
L 622 4863 
L 1947 4863 
z
" transform="scale(0.015625)"/>
      </defs>
      <use xlink:href="#DejaVuSans-54"/>
      <use xlink:href="#DejaVuSans-69" x="57.958984"/>
      <use xlink:href="#DejaVuSans-6d" x="85.742188"/>
      <use xlink:href="#DejaVuSans-65" x="183.154297"/>
      <use xlink:href="#DejaVuSans-20" x="244.677734"/>
      <use xlink:href="#DejaVuSans-5b" x="276.464844"/>
      <use xlink:href="#DejaVuSans-73" x="315.478516"/>
      <use xlink:href="#DejaVuSans-5d" x="367.578125"/>
     </g>
    </g>
   </g>
   <g id="matplotlib.axis_2">
    <g id="ytick_1">
     <g id="line2d_8">
      <defs>
       <path id="m0473502b40" d="M 0 0 
L -3.5 0 
" style="stroke: #000000; stroke-width: 0.8"/>
      </defs>
      <g>
       <use xlink:href="#m0473502b40" x="57.6" y="288.205811" style="stroke: #000000; stroke-width: 0.8"/>
      </g>
     </g>
     <g id="text_9">
      <!-- −0.05 -->
      <g transform="translate(19.954687 292.00503) scale(0.1 -0.1)">
       <defs>
        <path id="DejaVuSans-2212" d="M 678 2272 
L 4684 2272 
L 4684 1741 
L 678 1741 
L 678 2272 
z
" transform="scale(0.015625)"/>
       </defs>
       <use xlink:href="#DejaVuSans-2212"/>
       <use xlink:href="#DejaVuSans-30" x="83.789062"/>
       <use xlink:href="#DejaVuSans-2e" x="147.412109"/>
       <use xlink:href="#DejaVuSans-30" x="179.199219"/>
       <use xlink:href="#DejaVuSans-35" x="242.822266"/>
      </g>
     </g>
    </g>
    <g id="ytick_2">
     <g id="line2d_9">
      <g>
       <use xlink:href="#m0473502b40" x="57.6" y="240.345079" style="stroke: #000000; stroke-width: 0.8"/>
      </g>
     </g>
     <g id="text_10">
      <!-- 0.00 -->
      <g transform="translate(28.334375 244.144298) scale(0.1 -0.1)">
       <use xlink:href="#DejaVuSans-30"/>
       <use xlink:href="#DejaVuSans-2e" x="63.623047"/>
       <use xlink:href="#DejaVuSans-30" x="95.410156"/>
       <use xlink:href="#DejaVuSans-30" x="159.033203"/>
      </g>
     </g>
    </g>
    <g id="ytick_3">
     <g id="line2d_10">
      <g>
       <use xlink:href="#m0473502b40" x="57.6" y="192.484348" style="stroke: #000000; stroke-width: 0.8"/>
      </g>
     </g>
     <g id="text_11">
      <!-- 0.05 -->
      <g transform="translate(28.334375 196.283566) scale(0.1 -0.1)">
       <use xlink:href="#DejaVuSans-30"/>
       <use xlink:href="#DejaVuSans-2e" x="63.623047"/>
       <use xlink:href="#DejaVuSans-30" x="95.410156"/>
       <use xlink:href="#DejaVuSans-35" x="159.033203"/>
      </g>
     </g>
    </g>
    <g id="ytick_4">
     <g id="line2d_11">
      <g>
       <use xlink:href="#m0473502b40" x="57.6" y="144.623616" style="stroke: #000000; stroke-width: 0.8"/>
      </g>
     </g>
     <g id="text_12">
      <!-- 0.10 -->
      <g transform="translate(28.334375 148.422835) scale(0.1 -0.1)">
       <use xlink:href="#DejaVuSans-30"/>
       <use xlink:href="#DejaVuSans-2e" x="63.623047"/>
       <use xlink:href="#DejaVuSans-31" x="95.410156"/>
       <use xlink:href="#DejaVuSans-30" x="159.033203"/>
      </g>
     </g>
    </g>
    <g id="ytick_5">
     <g id="line2d_12">
      <g>
       <use xlink:href="#m0473502b40" x="57.6" y="96.762884" style="stroke: #000000; stroke-width: 0.8"/>
      </g>
     </g>
     <g id="text_13">
      <!-- 0.15 -->
      <g transform="translate(28.334375 100.562103) scale(0.1 -0.1)">
       <use xlink:href="#DejaVuSans-30"/>
       <use xlink:href="#DejaVuSans-2e" x="63.623047"/>
       <use xlink:href="#DejaVuSans-31" x="95.410156"/>
       <use xlink:href="#DejaVuSans-35" x="159.033203"/>
      </g>
     </g>
    </g>
    <g id="ytick_6">
     <g id="line2d_13">
      <g>
       <use xlink:href="#m0473502b40" x="57.6" y="48.902153" style="stroke: #000000; stroke-width: 0.8"/>
      </g>
     </g>
     <g id="text_14">
      <!-- 0.20 -->
      <g transform="translate(28.334375 52.701371) scale(0.1 -0.1)">
       <use xlink:href="#DejaVuSans-30"/>
       <use xlink:href="#DejaVuSans-2e" x="63.623047"/>
       <use xlink:href="#DejaVuSans-32" x="95.410156"/>
       <use xlink:href="#DejaVuSans-30" x="159.033203"/>
      </g>
     </g>
    </g>
    <g id="text_15">
     <!-- Bending moment coefficient [-] -->
     <g transform="translate(13.875 252.726438) rotate(-90) scale(0.1 -0.1)">
      <defs>
       <path id="DejaVuSans-42" d="M 1259 2228 
L 1259 519 
L 2272 519 
Q 2781 519 3026 730 
Q 3272 941 3272 1375 
Q 3272 1813 3026 2020 
Q 2781 2228 2272 2228 
L 1259 2228 
z
M 1259 4147 
L 1259 2741 
L 2194 2741 
Q 2656 2741 2882 2914 
Q 3109 3088 3109 3444 
Q 3109 3797 2882 3972 
Q 2656 4147 2194 4147 
L 1259 4147 
z
M 628 4666 
L 2241 4666 
Q 2963 4666 3353 4366 
Q 3744 4066 3744 3513 
Q 3744 3084 3544 2831 
Q 3344 2578 2956 2516 
Q 3422 2416 3680 2098 
Q 3938 1781 3938 1306 
Q 3938 681 3513 340 
Q 3088 0 2303 0 
L 628 0 
L 628 4666 
z
" transform="scale(0.015625)"/>
       <path id="DejaVuSans-6e" d="M 3513 2113 
L 3513 0 
L 2938 0 
L 2938 2094 
Q 2938 2591 2744 2837 
Q 2550 3084 2163 3084 
Q 1697 3084 1428 2787 
Q 1159 2491 1159 1978 
L 1159 0 
L 581 0 
L 581 3500 
L 1159 3500 
L 1159 2956 
Q 1366 3272 1645 3428 
Q 1925 3584 2291 3584 
Q 2894 3584 3203 3211 
Q 3513 2838 3513 2113 
z
" transform="scale(0.015625)"/>
       <path id="DejaVuSans-64" d="M 2906 2969 
L 2906 4863 
L 3481 4863 
L 3481 0 
L 2906 0 
L 2906 525 
Q 2725 213 2448 61 
Q 2172 -91 1784 -91 
Q 1150 -91 751 415 
Q 353 922 353 1747 
Q 353 2572 751 3078 
Q 1150 3584 1784 3584 
Q 2172 3584 2448 3432 
Q 2725 3281 2906 2969 
z
M 947 1747 
Q 947 1113 1208 752 
Q 1469 391 1925 391 
Q 2381 391 2643 752 
Q 2906 1113 2906 1747 
Q 2906 2381 2643 2742 
Q 2381 3103 1925 3103 
Q 1469 3103 1208 2742 
Q 947 2381 947 1747 
z
" transform="scale(0.015625)"/>
       <path id="DejaVuSans-67" d="M 2906 1791 
Q 2906 2416 2648 2759 
Q 2391 3103 1925 3103 
Q 1463 3103 1205 2759 
Q 947 2416 947 1791 
Q 947 1169 1205 825 
Q 1463 481 1925 481 
Q 2391 481 2648 825 
Q 2906 1169 2906 1791 
z
M 3481 434 
Q 3481 -459 3084 -895 
Q 2688 -1331 1869 -1331 
Q 1566 -1331 1297 -1286 
Q 1028 -1241 775 -1147 
L 775 -588 
Q 1028 -725 1275 -790 
Q 1522 -856 1778 -856 
Q 2344 -856 2625 -561 
Q 2906 -266 2906 331 
L 2906 616 
Q 2728 306 2450 153 
Q 2172 0 1784 0 
Q 1141 0 747 490 
Q 353 981 353 1791 
Q 353 2603 747 3093 
Q 1141 3584 1784 3584 
Q 2172 3584 2450 3431 
Q 2728 3278 2906 2969 
L 2906 3500 
L 3481 3500 
L 3481 434 
z
" transform="scale(0.015625)"/>
       <path id="DejaVuSans-6f" d="M 1959 3097 
Q 1497 3097 1228 2736 
Q 959 2375 959 1747 
Q 959 1119 1226 758 
Q 1494 397 1959 397 
Q 2419 397 2687 759 
Q 2956 1122 2956 1747 
Q 2956 2369 2687 2733 
Q 2419 3097 1959 3097 
z
M 1959 3584 
Q 2709 3584 3137 3096 
Q 3566 2609 3566 1747 
Q 3566 888 3137 398 
Q 2709 -91 1959 -91 
Q 1206 -91 779 398 
Q 353 888 353 1747 
Q 353 2609 779 3096 
Q 1206 3584 1959 3584 
z
" transform="scale(0.015625)"/>
       <path id="DejaVuSans-74" d="M 1172 4494 
L 1172 3500 
L 2356 3500 
L 2356 3053 
L 1172 3053 
L 1172 1153 
Q 1172 725 1289 603 
Q 1406 481 1766 481 
L 2356 481 
L 2356 0 
L 1766 0 
Q 1100 0 847 248 
Q 594 497 594 1153 
L 594 3053 
L 172 3053 
L 172 3500 
L 594 3500 
L 594 4494 
L 1172 4494 
z
" transform="scale(0.015625)"/>
       <path id="DejaVuSans-63" d="M 3122 3366 
L 3122 2828 
Q 2878 2963 2633 3030 
Q 2388 3097 2138 3097 
Q 1578 3097 1268 2742 
Q 959 2388 959 1747 
Q 959 1106 1268 751 
Q 1578 397 2138 397 
Q 2388 397 2633 464 
Q 2878 531 3122 666 
L 3122 134 
Q 2881 22 2623 -34 
Q 2366 -91 2075 -91 
Q 1284 -91 818 406 
Q 353 903 353 1747 
Q 353 2603 823 3093 
Q 1294 3584 2113 3584 
Q 2378 3584 2631 3529 
Q 2884 3475 3122 3366 
z
" transform="scale(0.015625)"/>
       <path id="DejaVuSans-66" d="M 2375 4863 
L 2375 4384 
L 1825 4384 
Q 1516 4384 1395 4259 
Q 1275 4134 1275 3809 
L 1275 3500 
L 2222 3500 
L 2222 3053 
L 1275 3053 
L 1275 0 
L 697 0 
L 697 3053 
L 147 3053 
L 147 3500 
L 697 3500 
L 697 3744 
Q 697 4328 969 4595 
Q 1241 4863 1831 4863 
L 2375 4863 
z
" transform="scale(0.015625)"/>
       <path id="DejaVuSans-2d" d="M 313 2009 
L 1997 2009 
L 1997 1497 
L 313 1497 
L 313 2009 
z
" transform="scale(0.015625)"/>
      </defs>
      <use xlink:href="#DejaVuSans-42"/>
      <use xlink:href="#DejaVuSans-65" x="68.603516"/>
      <use xlink:href="#DejaVuSans-6e" x="130.126953"/>
      <use xlink:href="#DejaVuSans-64" x="193.505859"/>
      <use xlink:href="#DejaVuSans-69" x="256.982422"/>
      <use xlink:href="#DejaVuSans-6e" x="284.765625"/>
      <use xlink:href="#DejaVuSans-67" x="348.144531"/>
      <use xlink:href="#DejaVuSans-20" x="411.621094"/>
      <use xlink:href="#DejaVuSans-6d" x="443.408203"/>
      <use xlink:href="#DejaVuSans-6f" x="540.820312"/>
      <use xlink:href="#DejaVuSans-6d" x="602.001953"/>
      <use xlink:href="#DejaVuSans-65" x="699.414062"/>
      <use xlink:href="#DejaVuSans-6e" x="760.9375"/>
      <use xlink:href="#DejaVuSans-74" x="824.316406"/>
      <use xlink:href="#DejaVuSans-20" x="863.525391"/>
      <use xlink:href="#DejaVuSans-63" x="895.3125"/>
      <use xlink:href="#DejaVuSans-6f" x="950.292969"/>
      <use xlink:href="#DejaVuSans-65" x="1011.474609"/>
      <use xlink:href="#DejaVuSans-66" x="1072.998047"/>
      <use xlink:href="#DejaVuSans-66" x="1108.203125"/>
      <use xlink:href="#DejaVuSans-69" x="1143.408203"/>
      <use xlink:href="#DejaVuSans-63" x="1171.191406"/>
      <use xlink:href="#DejaVuSans-69" x="1226.171875"/>
      <use xlink:href="#DejaVuSans-65" x="1253.955078"/>
      <use xlink:href="#DejaVuSans-6e" x="1315.478516"/>
      <use xlink:href="#DejaVuSans-74" x="1378.857422"/>
      <use xlink:href="#DejaVuSans-20" x="1418.066406"/>
      <use xlink:href="#DejaVuSans-5b" x="1449.853516"/>
      <use xlink:href="#DejaVuSans-2d" x="1488.867188"/>
      <use xlink:href="#DejaVuSans-5d" x="1524.951172"/>
     </g>
    </g>
   </g>
   <g id="line2d_14">
    <path d="M 73.832727 189.403444 
L 81.365466 190.572958 
L 83.086307 187.190308 
L 85.52146 174.095846 
L 89.612516 147.406826 
L 91.75545 143.29574 
L 92.242481 141.957748 
L 92.307418 142.047929 
L 93.638635 144.094886 
L 94.223072 147.224828 
L 94.77504 149.541518 
L 94.807508 149.458984 
L 95.132195 148.633647 
L 95.164664 148.72393 
L 99.125846 174.303882 
L 102.567528 202.447458 
L 103.054559 205.893012 
L 104.710462 215.094914 
L 105.781929 221.150067 
L 106.398835 222.801207 
L 107.178084 222.801207 
L 107.76252 224.754624 
L 108.541769 226.203377 
L 108.898925 226.821836 
L 109.061268 226.880747 
L 109.51583 225.503669 
L 109.937923 224.55409 
L 110.879516 222.193865 
L 111.139265 221.673422 
L 111.52889 220.888927 
L 112.210732 219.156075 
L 112.535419 217.798847 
L 113.087387 214.630005 
L 114.580948 207.384225 
L 114.645885 207.123675 
L 114.840697 203.239496 
L 115.555009 197.238942 
L 117.795349 183.299182 
L 118.704473 177.053476 
L 120.750001 168.791435 
L 121.52925 164.826693 
L 122.438373 161.846516 
L 123.996871 160.107907 
L 124.256621 159.831912 
L 124.841057 159.25922 
L 125.230682 159.493502 
L 126.659304 161.730131 
L 127.828178 165.019808 
L 130.490611 176.439171 
L 132.958233 189.015073 
L 135.718072 201.829138 
L 136.075228 202.207512 
L 136.951883 206.606179 
L 137.341507 207.680172 
L 140.101347 213.127126 
L 142.081938 212.253342 
L 143.02353 211.508117 
L 147.082118 198.648451 
L 147.374336 196.099154 
L 147.926304 194.146718 
L 148.186054 193.653296 
L 149.51727 189.152474 
L 149.939363 187.343442 
L 150.78355 183.906328 
L 153.510921 175.489451 
L 155.978542 171.024771 
L 156.173354 170.970065 
L 159.582568 172.69954 
L 164.355467 184.979511 
L 166.238652 191.34 
L 167.504931 194.330644 
L 168.446523 195.617113 
L 168.77121 198.133448 
L 169.420584 199.988126 
L 170.167364 200.604673 
L 171.141425 200.826325 
L 172.829798 203.708069 
L 173.089548 203.798616 
L 173.77139 201.824289 
L 175.232482 201.003521 
L 175.751981 200.960809 
L 176.303949 199.989149 
L 181.856097 188.156455 
L 182.473002 186.465693 
L 185.78481 181.126162 
L 188.77193 180.165688 
L 191.888926 183.261094 
L 197.441074 191.806519 
L 199.129446 194.183192 
L 200.687944 195.512722 
L 201.499661 196.233274 
L 205.493312 196.12625 
L 206.53231 194.654977 
L 207.960933 193.754488 
L 215.136516 186.152924 
L 218.708073 184.546643 
L 231.208523 192.767006 
L 232.994302 192.97145 
L 233.838488 192.898509 
L 238.903605 190.701213 
L 246.338938 187.575844 
L 259.391356 190.174103 
L 261.079728 190.332353 
L 281.79476 189.961901 
L 398.487273 189.85161 
L 398.487273 189.85161 
" clip-path="url(#p58a78f6212)" style="fill: none; stroke: #1f77b4; stroke-width: 1.5; stroke-linecap: square"/>
   </g>
   <g id="line2d_15">
    <path d="M 73.832727 127.06167 
L 82.469402 128.850725 
L 83.346057 125.380322 
L 85.359116 113.067452 
L 89.547579 74.252003 
L 89.969672 70.891601 
L 90.326828 68.788755 
L 91.820388 62.027919 
L 92.794449 57.164881 
L 92.859386 57.227592 
L 95.878976 60.145387 
L 97.145255 66.999248 
L 98.866096 74.788825 
L 101.171374 92.662538 
L 101.75581 97.712733 
L 104.093557 117.132298 
L 104.7754 122.688106 
L 107.145615 141.987767 
L 108.866456 153.663963 
L 109.613236 157.038277 
L 110.424954 160.808578 
L 111.399015 165.741355 
L 112.827638 168.830902 
L 114.51601 168.752613 
L 117.27585 164.572932 
L 117.405725 162.582812 
L 119.548659 153.718144 
L 121.464312 144.372427 
L 123.087747 138.07667 
L 124.678714 127.524782 
L 127.600897 116.464701 
L 128.704833 112.357333 
L 129.906175 107.439614 
L 130.717892 106.561939 
L 132.373796 102.037347 
L 132.438733 102.08371 
L 134.321918 103.405859 
L 135.685603 102.28024 
L 136.042759 102.310296 
L 138.412974 105.944039 
L 145.458683 125.952357 
L 146.757431 129.694024 
L 149.77702 136.399507 
L 152.342047 140.596726 
L 156.887665 140.528312 
L 157.212353 140.4929 
L 164.225592 129.805028 
L 165.751621 126.92923 
L 170.427114 119.917056 
L 174.161015 118.553055 
L 176.011731 118.326537 
L 182.830158 123.264451 
L 184.356187 125.06111 
L 190.168084 130.392268 
L 192.343487 131.432415 
L 195.817638 131.613599 
L 201.597067 129.151705 
L 202.571128 128.056872 
L 209.0324 123.843397 
L 217.214513 122.848425 
L 234.650205 128.653306 
L 242.247882 127.797774 
L 246.890906 127.026479 
L 398.487273 127.026479 
L 398.487273 127.026479 
" clip-path="url(#p58a78f6212)" style="fill: none; stroke: #ff7f0e; stroke-width: 1.5; stroke-linecap: square"/>
   </g>
   <g id="line2d_16">
    <path d="M 73.832727 127.866253 
L 76.00813 127.976222 
L 76.819848 127.66203 
L 79.027719 124.662115 
L 79.060188 124.78792 
L 79.644625 128.283023 
L 84.25518 156.021977 
L 87.404644 165.976189 
L 90.651515 173.75969 
L 91.073608 177.453038 
L 93.606166 186.764386 
L 94.093197 188.799377 
L 94.742571 192.304601 
L 94.937383 194.357188 
L 95.586757 198.715714 
L 96.041319 200.384643 
L 97.599817 206.298114 
L 98.671284 210.550205 
L 99.710282 213.022391 
L 100.489531 215.345539 
L 101.041499 215.576372 
L 101.236311 215.489417 
L 103.606526 214.998188 
L 103.866276 214.6902 
L 106.301429 208.662055 
L 107.307958 203.7259 
L 110.100267 189.083077 
L 111.399015 180.97127 
L 114.02898 170.10504 
L 115.035509 165.217413 
L 117.438193 160.44825 
L 119.548659 160.45432 
L 120.52272 162.450227 
L 123.315028 169.788841 
L 126.00993 179.962464 
L 128.02299 188.489924 
L 129.581488 195.079402 
L 130.133456 197.160164 
L 131.139985 199.276885 
L 131.464672 199.973516 
L 132.893295 204.574391 
L 133.672544 205.325644 
L 134.581668 205.834867 
L 136.302509 206.69018 
L 136.594727 206.632601 
L 137.081758 206.36936 
L 138.802599 204.776853 
L 140.750721 199.402258 
L 143.088467 192.554981 
L 145.78337 183.510512 
L 149.127646 175.65479 
L 149.744551 174.716406 
L 151.497861 173.295551 
L 152.504391 173.49429 
L 154.679794 174.234489 
L 155.231762 174.880633 
L 158.153945 181.70038 
L 159.615036 184.993061 
L 160.556629 186.753093 
L 162.959313 191.910195 
L 165.03731 195.491011 
L 165.459403 195.750279 
L 166.27112 196.103111 
L 168.186774 196.687524 
L 169.420584 196.536463 
L 169.453053 196.652486 
L 169.51799 196.557591 
L 170.069958 195.907399 
L 170.719332 195.941782 
L 170.78427 195.184918 
L 170.816738 194.569303 
L 170.881676 194.920431 
L 171.044019 195.592753 
L 171.076488 195.546028 
L 172.959673 192.64309 
L 180.914505 180.377337 
L 185.03803 179.685776 
L 186.758871 181.538392 
L 194.551359 191.43094 
L 197.181324 193.343542 
L 201.499661 191.721525 
L 204.194563 189.73796 
L 207.473902 186.572335 
L 211.175334 183.817966 
L 214.649485 183.38727 
L 216.889826 184.148735 
L 218.708073 185.165937 
L 223.610847 188.193621 
L 224.584908 188.795852 
L 227.117467 189.702378 
L 230.689024 190.108058 
L 234.325518 188.908722 
L 238.156825 187.518155 
L 398.487273 187.518155 
L 398.487273 187.518155 
" clip-path="url(#p58a78f6212)" style="fill: none; stroke: #2ca02c; stroke-width: 1.5; stroke-linecap: square"/>
   </g>
   <g id="line2d_17">
    <path d="M 73.832727 125.730516 
L 76.170474 126.875297 
L 82.826558 127.518184 
L 84.904554 107.587116 
L 85.846147 99.505408 
L 86.333177 96.924137 
L 86.398115 97.044231 
L 87.404644 98.905312 
L 87.469582 98.841741 
L 89.385235 93.962829 
L 89.417704 94.167124 
L 93.378886 127.407773 
L 99.612876 220.32855 
L 101.236311 240.240784 
L 101.690873 247.668659 
L 102.01556 251.080776 
L 102.729872 257.094537 
L 103.119496 259.034139 
L 103.671464 260.996822 
L 105.587117 269.784172 
L 105.619586 269.804988 
L 105.652055 269.708027 
L 106.106616 268.007333 
L 108.704113 252.552271 
L 110.619766 232.106136 
L 110.684703 230.78665 
L 110.814578 225.276879 
L 111.139265 222.413615 
L 111.366546 219.62222 
L 112.989981 198.307191 
L 113.217262 195.06138 
L 115.78229 158.024739 
L 117.210912 140.674856 
L 117.568068 136.77624 
L 118.50966 128.092906 
L 120.717532 116.784287 
L 121.139625 116.366821 
L 121.237031 116.281454 
L 121.2695 116.322136 
L 123.120216 118.801353 
L 124.77612 126.604134 
L 127.243741 149.422856 
L 130.328268 186.070051 
L 131.789359 203.550503 
L 133.347857 217.182711 
L 134.646605 229.574615 
L 134.906355 231.227577 
L 135.685603 237.292131 
L 137.01682 243.79511 
L 137.341507 244.127272 
L 139.646785 246.036063 
L 139.841597 246.159911 
L 139.874066 246.099953 
L 140.198753 245.29727 
L 140.718252 243.477038 
L 142.439093 234.443965 
L 143.02353 232.304061 
L 143.055999 232.301741 
L 143.218342 230.267027 
L 143.932654 221.854962 
L 144.906715 213.151028 
L 146.010651 203.177411 
L 150.101707 161.386221 
L 150.718612 156.240882 
L 152.861547 142.616065 
L 153.933014 139.143638 
L 156.498041 137.162153 
L 156.53051 137.242226 
L 159.0306 147.088213 
L 161.595627 164.365137 
L 166.855557 204.998057 
L 169.355647 218.482957 
L 171.888206 225.075857 
L 173.803859 224.849442 
L 175.492231 221.125842 
L 178.02479 208.820647 
L 179.583288 198.053811 
L 180.687224 190.94449 
L 183.999031 170.913603 
L 185.654935 162.085217 
L 188.317368 156.514604 
L 189.616117 156.987166 
L 191.27202 158.833244 
L 193.122736 164.058842 
L 194.973452 172.795176 
L 201.434724 202.813972 
L 204.616657 209.064404 
L 206.142686 209.965153 
L 209.194743 206.202975 
L 217.409325 177.897248 
L 220.169165 171.996237 
L 222.441974 171.652995 
L 222.636786 171.926823 
L 226.175874 178.244223 
L 231.922834 193.53816 
L 233.481332 197.105102 
L 235.559329 198.951794 
L 238.611387 198.206604 
L 243.481692 189.478254 
L 244.358347 187.76785 
L 398.487273 187.76785 
L 398.487273 187.76785 
" clip-path="url(#p58a78f6212)" style="fill: none; stroke: #d62728; stroke-width: 1.5; stroke-linecap: square"/>
   </g>
   <g id="line2d_18">
    <path d="M 73.832727 126.349386 
L 81.917434 127.764913 
L 82.599277 126.763331 
L 83.475932 124.134763 
L 85.001961 113.465415 
L 89.222892 74.941621 
L 90.976202 56.180039 
L 91.041139 56.30706 
L 92.729511 59.807154 
L 93.606166 64.260855 
L 94.417884 74.490299 
L 96.138725 98.084098 
L 98.963502 153.956563 
L 102.697403 233.004095 
L 103.606526 249.326251 
L 103.801339 251.754308 
L 104.418244 262.228674 
L 105.002681 270.088671 
L 106.139085 283.534096 
L 106.950803 291.069274 
L 107.470302 291.897246 
L 108.346957 295.488 
L 108.411894 295.3934 
L 110.652235 289.436631 
L 113.834167 248.420907 
L 114.386135 237.207449 
L 114.905635 228.810189 
L 117.373256 180.921095 
L 119.808408 135.828128 
L 120.977282 119.470835 
L 121.561718 112.913636 
L 122.243561 107.180362 
L 123.412434 98.480393 
L 124.873526 93.723773 
L 124.938463 93.763716 
L 125.652775 94.300331 
L 128.02299 108.378979 
L 128.867176 115.956256 
L 130.912704 142.840466 
L 135.847947 218.28229 
L 136.27004 222.811829 
L 137.925944 243.527252 
L 137.990881 243.55255 
L 139.322098 255.502687 
L 139.841597 257.85539 
L 140.393565 262.603753 
L 141.757251 265.551347 
L 141.789719 265.493372 
L 144.03006 261.493084 
L 144.322278 257.259394 
L 145.361276 248.821865 
L 145.588557 247.054773 
L 145.848307 246.215404 
L 146.887305 234.137421 
L 147.536679 225.013531 
L 148.640615 209.310303 
L 150.848487 180.136329 
L 152.179704 162.811201 
L 153.997951 142.129516 
L 155.621386 127.299603 
L 157.050009 120.860089 
L 157.926664 119.542292 
L 159.842317 119.023436 
L 161.53069 128.126722 
L 162.245001 132.465397 
L 166.173714 171.803356 
L 168.446523 197.340348 
L 170.751801 220.417862 
L 171.758331 227.127789 
L 172.699923 233.507197 
L 173.706453 239.159752 
L 174.485702 240.716038 
L 174.712983 241.116106 
L 175.362357 241.802408 
L 175.427294 241.900862 
L 175.751981 242.759746 
L 175.816918 242.723336 
L 176.239012 242.385139 
L 176.790979 241.388938 
L 176.888386 240.844222 
L 177.115666 239.974112 
L 177.602697 238.280465 
L 179.258601 231.76453 
L 179.615756 229.358664 
L 180.135256 224.749313 
L 180.459943 221.728355 
L 182.473002 205.668549 
L 183.836688 191.221359 
L 187.603057 159.103506 
L 189.064149 148.135162 
L 189.096617 148.417632 
L 189.161555 149.083154 
L 189.226492 148.821555 
L 190.103147 145.634068 
L 190.492771 145.634068 
L 190.557709 146.461808 
L 190.622646 147.110562 
L 190.655115 146.95758 
L 191.856457 141.367945 
L 191.921394 141.488873 
L 195.200733 147.380547 
L 195.363077 147.520785 
L 201.369786 189.085003 
L 202.441254 196.837328 
L 206.142686 217.399134 
L 207.895995 220.469331 
L 209.0324 221.176508 
L 209.194743 221.020897 
L 212.01952 216.433246 
L 213.902705 207.361472 
L 218.383386 181.674902 
L 221.110757 169.169503 
L 224.260221 158.031712 
L 224.29269 157.994954 
L 224.325158 158.061254 
L 228.02659 165.851143 
L 230.948773 175.642051 
L 237.929544 205.424274 
L 240.689384 206.784294 
L 242.020601 206.885738 
L 244.877846 204.553753 
L 248.092248 189.957798 
L 253.02749 185.502243 
L 253.54699 185.163513 
L 398.487273 188.591199 
L 398.487273 188.591199 
" clip-path="url(#p58a78f6212)" style="fill: none; stroke: #9467bd; stroke-width: 1.5; stroke-linecap: square"/>
   </g>
   <g id="line2d_19">
    <path d="M 73.832727 129.584001 
L 75.845787 129.211898 
L 76.689973 129.177079 
L 81.300529 131.252799 
L 81.332997 131.166931 
L 83.670744 124.743042 
L 84.677274 115.890991 
L 89.482641 72.010188 
L 92.307418 56.851299 
L 95.554289 53.753036 
L 95.814038 53.568 
L 95.846507 53.652047 
L 96.430943 58.333112 
L 97.27513 67.030039 
L 100.457062 119.40866 
L 102.145435 159.613604 
L 105.229962 225.382383 
L 107.210552 259.340132 
L 109.645705 282.739039 
L 110.26261 286.339839 
L 110.424954 286.342861 
L 110.944453 285.93682 
L 112.7627 282.150938 
L 112.892575 281.433537 
L 113.736761 273.848178 
L 115.78229 248.107057 
L 116.853757 232.264861 
L 122.730592 129.175697 
L 123.250091 122.95713 
L 123.672184 118.2242 
L 125.880056 98.806393 
L 127.828178 98.718302 
L 128.477552 97.641814 
L 128.76977 97.829549 
L 129.094457 98.228925 
L 129.451613 99.870897 
L 131.237391 115.932019 
L 132.893295 131.783266 
L 137.731132 200.87614 
L 138.737661 213.869635 
L 139.192223 219.5723 
L 140.328628 232.460714 
L 140.393565 232.96932 
L 140.52344 235.48599 
L 140.750721 237.973926 
L 142.081938 248.807608 
L 143.055999 252.952969 
L 145.036589 257.284152 
L 145.588557 257.271624 
L 145.978182 257.257939 
L 146.237931 255.714949 
L 147.244461 250.170389 
L 147.601617 248.76067 
L 148.380866 243.501181 
L 148.445803 243.50112 
L 148.543209 242.854761 
L 149.127646 237.230383 
L 149.354927 232.380742 
L 151.173174 213.458273 
L 152.666734 192.546934 
L 155.78373 155.108805 
L 158.251351 132.15779 
L 158.933194 129.116992 
L 160.589097 122.736802 
L 160.78391 122.15177 
L 161.53069 122.338538 
L 164.452873 136.469399 
L 166.368526 152.839854 
L 171.660925 206.560186 
L 172.894735 215.540622 
L 174.063609 224.343201 
L 175.394825 230.249886 
L 176.596167 235.679328 
L 176.758511 236.586583 
L 178.836508 236.534817 
L 179.453413 233.961821 
L 180.167724 231.964967 
L 180.946973 229.355329 
L 181.174254 228.162454 
L 183.057439 216.128924 
L 183.544469 211.389025 
L 186.206903 190.836571 
L 187.570588 177.511419 
L 191.142145 153.314548 
L 193.317548 145.578909 
L 193.512361 144.217785 
L 193.577298 144.305902 
L 196.337138 148.190965 
L 197.506011 153.077159 
L 199.454133 162.470368 
L 200.882756 172.033483 
L 204.389376 194.930986 
L 206.402435 205.96085 
L 208.999931 216.212788 
L 212.181864 218.327196 
L 212.214333 218.247469 
L 214.941704 211.269576 
L 218.350917 195.8623 
L 220.136696 185.33603 
L 221.402975 180.336352 
L 222.669255 173.101108 
L 225.429094 165.221471 
L 225.981062 163.754238 
L 227.831778 163.780895 
L 228.54609 163.197262 
L 228.578558 163.264983 
L 231.370867 169.325304 
L 234.78008 182.270964 
L 236.27364 188.268111 
L 398.487273 188.268111 
L 398.487273 188.268111 
" clip-path="url(#p58a78f6212)" style="fill: none; stroke: #8c564b; stroke-width: 1.5; stroke-linecap: square"/>
   </g>
   <g id="patch_3">
    <path d="M 57.6 307.584 
L 57.6 41.472 
" style="fill: none; stroke: #000000; stroke-width: 0.8; stroke-linejoin: miter; stroke-linecap: square"/>
   </g>
   <g id="patch_4">
    <path d="M 414.72 307.584 
L 414.72 41.472 
" style="fill: none; stroke: #000000; stroke-width: 0.8; stroke-linejoin: miter; stroke-linecap: square"/>
   </g>
   <g id="patch_5">
    <path d="M 57.6 307.584 
L 414.72 307.584 
" style="fill: none; stroke: #000000; stroke-width: 0.8; stroke-linejoin: miter; stroke-linecap: square"/>
   </g>
   <g id="patch_6">
    <path d="M 57.6 41.472 
L 414.72 41.472 
" style="fill: none; stroke: #000000; stroke-width: 0.8; stroke-linejoin: miter; stroke-linecap: square"/>
   </g>
   <g id="legend_1">
    <g id="patch_7">
     <path d="M 340.77625 302.584 
L 407.72 302.584 
Q 409.72 302.584 409.72 300.584 
L 409.72 213.51525 
Q 409.72 211.51525 407.72 211.51525 
L 340.77625 211.51525 
Q 338.77625 211.51525 338.77625 213.51525 
L 338.77625 300.584 
Q 338.77625 302.584 340.77625 302.584 
z
" style="fill: #ffffff; opacity: 0.8; stroke: #cccccc; stroke-linejoin: miter"/>
    </g>
    <g id="line2d_20">
     <path d="M 342.77625 219.613687 
L 352.77625 219.613687 
L 362.77625 219.613687 
" style="fill: none; stroke: #1f77b4; stroke-width: 1.5; stroke-linecap: square"/>
    </g>
    <g id="text_16">
     <!-- Free -->
     <g transform="translate(370.77625 223.113687) scale(0.1 -0.1)">
      <defs>
       <path id="DejaVuSans-46" d="M 628 4666 
L 3309 4666 
L 3309 4134 
L 1259 4134 
L 1259 2759 
L 3109 2759 
L 3109 2228 
L 1259 2228 
L 1259 0 
L 628 0 
L 628 4666 
z
" transform="scale(0.015625)"/>
       <path id="DejaVuSans-72" d="M 2631 2963 
Q 2534 3019 2420 3045 
Q 2306 3072 2169 3072 
Q 1681 3072 1420 2755 
Q 1159 2438 1159 1844 
L 1159 0 
L 581 0 
L 581 3500 
L 1159 3500 
L 1159 2956 
Q 1341 3275 1631 3429 
Q 1922 3584 2338 3584 
Q 2397 3584 2469 3576 
Q 2541 3569 2628 3553 
L 2631 2963 
z
" transform="scale(0.015625)"/>
      </defs>
      <use xlink:href="#DejaVuSans-46"/>
      <use xlink:href="#DejaVuSans-72" x="50.269531"/>
      <use xlink:href="#DejaVuSans-65" x="89.132812"/>
      <use xlink:href="#DejaVuSans-65" x="150.65625"/>
     </g>
    </g>
    <g id="line2d_21">
     <path d="M 342.77625 234.291812 
L 352.77625 234.291812 
L 362.77625 234.291812 
" style="fill: none; stroke: #ff7f0e; stroke-width: 1.5; stroke-linecap: square"/>
    </g>
    <g id="text_17">
     <!-- Locked -->
     <g transform="translate(370.77625 237.791812) scale(0.1 -0.1)">
      <defs>
       <path id="DejaVuSans-4c" d="M 628 4666 
L 1259 4666 
L 1259 531 
L 3531 531 
L 3531 0 
L 628 0 
L 628 4666 
z
" transform="scale(0.015625)"/>
       <path id="DejaVuSans-6b" d="M 581 4863 
L 1159 4863 
L 1159 1991 
L 2875 3500 
L 3609 3500 
L 1753 1863 
L 3688 0 
L 2938 0 
L 1159 1709 
L 1159 0 
L 581 0 
L 581 4863 
z
" transform="scale(0.015625)"/>
      </defs>
      <use xlink:href="#DejaVuSans-4c"/>
      <use xlink:href="#DejaVuSans-6f" x="53.962891"/>
      <use xlink:href="#DejaVuSans-63" x="115.144531"/>
      <use xlink:href="#DejaVuSans-6b" x="170.125"/>
      <use xlink:href="#DejaVuSans-65" x="224.410156"/>
      <use xlink:href="#DejaVuSans-64" x="285.933594"/>
     </g>
    </g>
    <g id="line2d_22">
     <path d="M 342.77625 248.969937 
L 352.77625 248.969937 
L 362.77625 248.969937 
" style="fill: none; stroke: #2ca02c; stroke-width: 1.5; stroke-linecap: square"/>
    </g>
    <g id="text_18">
     <!-- Pre -->
     <g transform="translate(370.77625 252.469937) scale(0.1 -0.1)">
      <defs>
       <path id="DejaVuSans-50" d="M 1259 4147 
L 1259 2394 
L 2053 2394 
Q 2494 2394 2734 2622 
Q 2975 2850 2975 3272 
Q 2975 3691 2734 3919 
Q 2494 4147 2053 4147 
L 1259 4147 
z
M 628 4666 
L 2053 4666 
Q 2838 4666 3239 4311 
Q 3641 3956 3641 3272 
Q 3641 2581 3239 2228 
Q 2838 1875 2053 1875 
L 1259 1875 
L 1259 0 
L 628 0 
L 628 4666 
z
" transform="scale(0.015625)"/>
      </defs>
      <use xlink:href="#DejaVuSans-50"/>
      <use xlink:href="#DejaVuSans-72" x="58.552734"/>
      <use xlink:href="#DejaVuSans-65" x="97.416016"/>
     </g>
    </g>
    <g id="line2d_23">
     <path d="M 342.77625 263.648062 
L 352.77625 263.648062 
L 362.77625 263.648062 
" style="fill: none; stroke: #d62728; stroke-width: 1.5; stroke-linecap: square"/>
    </g>
    <g id="text_19">
     <!-- Rel0 -->
     <g transform="translate(370.77625 267.148062) scale(0.1 -0.1)">
      <defs>
       <path id="DejaVuSans-52" d="M 2841 2188 
Q 3044 2119 3236 1894 
Q 3428 1669 3622 1275 
L 4263 0 
L 3584 0 
L 2988 1197 
Q 2756 1666 2539 1819 
Q 2322 1972 1947 1972 
L 1259 1972 
L 1259 0 
L 628 0 
L 628 4666 
L 2053 4666 
Q 2853 4666 3247 4331 
Q 3641 3997 3641 3322 
Q 3641 2881 3436 2590 
Q 3231 2300 2841 2188 
z
M 1259 4147 
L 1259 2491 
L 2053 2491 
Q 2509 2491 2742 2702 
Q 2975 2913 2975 3322 
Q 2975 3731 2742 3939 
Q 2509 4147 2053 4147 
L 1259 4147 
z
" transform="scale(0.015625)"/>
       <path id="DejaVuSans-6c" d="M 603 4863 
L 1178 4863 
L 1178 0 
L 603 0 
L 603 4863 
z
" transform="scale(0.015625)"/>
      </defs>
      <use xlink:href="#DejaVuSans-52"/>
      <use xlink:href="#DejaVuSans-65" x="64.982422"/>
      <use xlink:href="#DejaVuSans-6c" x="126.505859"/>
      <use xlink:href="#DejaVuSans-30" x="154.289062"/>
     </g>
    </g>
    <g id="line2d_24">
     <path d="M 342.77625 278.326188 
L 352.77625 278.326188 
L 362.77625 278.326188 
" style="fill: none; stroke: #9467bd; stroke-width: 1.5; stroke-linecap: square"/>
    </g>
    <g id="text_20">
     <!-- Rel50 -->
     <g transform="translate(370.77625 281.826188) scale(0.1 -0.1)">
      <use xlink:href="#DejaVuSans-52"/>
      <use xlink:href="#DejaVuSans-65" x="64.982422"/>
      <use xlink:href="#DejaVuSans-6c" x="126.505859"/>
      <use xlink:href="#DejaVuSans-35" x="154.289062"/>
      <use xlink:href="#DejaVuSans-30" x="217.912109"/>
     </g>
    </g>
    <g id="line2d_25">
     <path d="M 342.77625 293.004312 
L 352.77625 293.004312 
L 362.77625 293.004312 
" style="fill: none; stroke: #8c564b; stroke-width: 1.5; stroke-linecap: square"/>
    </g>
    <g id="text_21">
     <!-- Rel100 -->
     <g transform="translate(370.77625 296.504312) scale(0.1 -0.1)">
      <use xlink:href="#DejaVuSans-52"/>
      <use xlink:href="#DejaVuSans-65" x="64.982422"/>
      <use xlink:href="#DejaVuSans-6c" x="126.505859"/>
      <use xlink:href="#DejaVuSans-31" x="154.289062"/>
      <use xlink:href="#DejaVuSans-30" x="217.912109"/>
      <use xlink:href="#DejaVuSans-30" x="281.535156"/>
     </g>
    </g>
   </g>
  </g>
 </g>
 <defs>
  <clipPath id="p58a78f6212">
   <rect x="57.6" y="41.472" width="357.12" height="266.112"/>
  </clipPath>
 </defs>
</svg>
