<?xml version="1.0" encoding="utf-8" standalone="no"?>
<!DOCTYPE svg PUBLIC "-//W3C//DTD SVG 1.1//EN"
  "http://www.w3.org/Graphics/SVG/1.1/DTD/svg11.dtd">
<svg xmlns:xlink="http://www.w3.org/1999/xlink" width="460.8pt" height="345.6pt" viewBox="0 0 460.8 345.6" xmlns="http://www.w3.org/2000/svg" version="1.1">
 <metadata>
  <rdf:RDF xmlns:dc="http://purl.org/dc/elements/1.1/" xmlns:cc="http://creativecommons.org/ns#" xmlns:rdf="http://www.w3.org/1999/02/22-rdf-syntax-ns#">
   <cc:Work>
    <dc:type rdf:resource="http://purl.org/dc/dcmitype/StillImage"/>
    <dc:date>2023-04-24T11:42:54.937659</dc:date>
    <dc:format>image/svg+xml</dc:format>
    <dc:creator>
     <cc:Agent>
      <dc:title>Matplotlib v3.6.2, https://matplotlib.org/</dc:title>
     </cc:Agent>
    </dc:creator>
   </cc:Work>
  </rdf:RDF>
 </metadata>
 <defs>
  <style type="text/css">*{stroke-linejoin: round; stroke-linecap: butt}</style>
 </defs>
 <g id="figure_1">
  <g id="patch_1">
   <path d="M 0 345.6 
L 460.8 345.6 
L 460.8 0 
L 0 0 
z
" style="fill: #ffffff"/>
  </g>
  <g id="axes_1">
   <g id="patch_2">
    <path d="M 57.6 307.584 
L 414.72 307.584 
L 414.72 41.472 
L 57.6 41.472 
z
" style="fill: #ffffff"/>
   </g>
   <g id="matplotlib.axis_1">
    <g id="xtick_1">
     <g id="line2d_1">
      <defs>
       <path id="me5697656f3" d="M 0 0 
L 0 3.5 
" style="stroke: #000000; stroke-width: 0.8"/>
      </defs>
      <g>
       <use xlink:href="#me5697656f3" x="73.832727" y="307.584" style="stroke: #000000; stroke-width: 0.8"/>
      </g>
     </g>
     <g id="text_1">
      <!-- 0.0 -->
      <g transform="translate(65.881165 322.182437) scale(0.1 -0.1)">
       <defs>
        <path id="DejaVuSans-30" d="M 2034 4250 
Q 1547 4250 1301 3770 
Q 1056 3291 1056 2328 
Q 1056 1369 1301 889 
Q 1547 409 2034 409 
Q 2525 409 2770 889 
Q 3016 1369 3016 2328 
Q 3016 3291 2770 3770 
Q 2525 4250 2034 4250 
z
M 2034 4750 
Q 2819 4750 3233 4129 
Q 3647 3509 3647 2328 
Q 3647 1150 3233 529 
Q 2819 -91 2034 -91 
Q 1250 -91 836 529 
Q 422 1150 422 2328 
Q 422 3509 836 4129 
Q 1250 4750 2034 4750 
z
" transform="scale(0.015625)"/>
        <path id="DejaVuSans-2e" d="M 684 794 
L 1344 794 
L 1344 0 
L 684 0 
L 684 794 
z
" transform="scale(0.015625)"/>
       </defs>
       <use xlink:href="#DejaVuSans-30"/>
       <use xlink:href="#DejaVuSans-2e" x="63.623047"/>
       <use xlink:href="#DejaVuSans-30" x="95.410156"/>
      </g>
     </g>
    </g>
    <g id="xtick_2">
     <g id="line2d_2">
      <g>
       <use xlink:href="#me5697656f3" x="126.837551" y="307.584" style="stroke: #000000; stroke-width: 0.8"/>
      </g>
     </g>
     <g id="text_2">
      <!-- 0.5 -->
      <g transform="translate(118.885989 322.182437) scale(0.1 -0.1)">
       <defs>
        <path id="DejaVuSans-35" d="M 691 4666 
L 3169 4666 
L 3169 4134 
L 1269 4134 
L 1269 2991 
Q 1406 3038 1543 3061 
Q 1681 3084 1819 3084 
Q 2600 3084 3056 2656 
Q 3513 2228 3513 1497 
Q 3513 744 3044 326 
Q 2575 -91 1722 -91 
Q 1428 -91 1123 -41 
Q 819 9 494 109 
L 494 744 
Q 775 591 1075 516 
Q 1375 441 1709 441 
Q 2250 441 2565 725 
Q 2881 1009 2881 1497 
Q 2881 1984 2565 2268 
Q 2250 2553 1709 2553 
Q 1456 2553 1204 2497 
Q 953 2441 691 2322 
L 691 4666 
z
" transform="scale(0.015625)"/>
       </defs>
       <use xlink:href="#DejaVuSans-30"/>
       <use xlink:href="#DejaVuSans-2e" x="63.623047"/>
       <use xlink:href="#DejaVuSans-35" x="95.410156"/>
      </g>
     </g>
    </g>
    <g id="xtick_3">
     <g id="line2d_3">
      <g>
       <use xlink:href="#me5697656f3" x="179.842375" y="307.584" style="stroke: #000000; stroke-width: 0.8"/>
      </g>
     </g>
     <g id="text_3">
      <!-- 1.0 -->
      <g transform="translate(171.890812 322.182437) scale(0.1 -0.1)">
       <defs>
        <path id="DejaVuSans-31" d="M 794 531 
L 1825 531 
L 1825 4091 
L 703 3866 
L 703 4441 
L 1819 4666 
L 2450 4666 
L 2450 531 
L 3481 531 
L 3481 0 
L 794 0 
L 794 531 
z
" transform="scale(0.015625)"/>
       </defs>
       <use xlink:href="#DejaVuSans-31"/>
       <use xlink:href="#DejaVuSans-2e" x="63.623047"/>
       <use xlink:href="#DejaVuSans-30" x="95.410156"/>
      </g>
     </g>
    </g>
    <g id="xtick_4">
     <g id="line2d_4">
      <g>
       <use xlink:href="#me5697656f3" x="232.847199" y="307.584" style="stroke: #000000; stroke-width: 0.8"/>
      </g>
     </g>
     <g id="text_4">
      <!-- 1.5 -->
      <g transform="translate(224.895636 322.182437) scale(0.1 -0.1)">
       <use xlink:href="#DejaVuSans-31"/>
       <use xlink:href="#DejaVuSans-2e" x="63.623047"/>
       <use xlink:href="#DejaVuSans-35" x="95.410156"/>
      </g>
     </g>
    </g>
    <g id="xtick_5">
     <g id="line2d_5">
      <g>
       <use xlink:href="#me5697656f3" x="285.852022" y="307.584" style="stroke: #000000; stroke-width: 0.8"/>
      </g>
     </g>
     <g id="text_5">
      <!-- 2.0 -->
      <g transform="translate(277.90046 322.182437) scale(0.1 -0.1)">
       <defs>
        <path id="DejaVuSans-32" d="M 1228 531 
L 3431 531 
L 3431 0 
L 469 0 
L 469 531 
Q 828 903 1448 1529 
Q 2069 2156 2228 2338 
Q 2531 2678 2651 2914 
Q 2772 3150 2772 3378 
Q 2772 3750 2511 3984 
Q 2250 4219 1831 4219 
Q 1534 4219 1204 4116 
Q 875 4013 500 3803 
L 500 4441 
Q 881 4594 1212 4672 
Q 1544 4750 1819 4750 
Q 2544 4750 2975 4387 
Q 3406 4025 3406 3419 
Q 3406 3131 3298 2873 
Q 3191 2616 2906 2266 
Q 2828 2175 2409 1742 
Q 1991 1309 1228 531 
z
" transform="scale(0.015625)"/>
       </defs>
       <use xlink:href="#DejaVuSans-32"/>
       <use xlink:href="#DejaVuSans-2e" x="63.623047"/>
       <use xlink:href="#DejaVuSans-30" x="95.410156"/>
      </g>
     </g>
    </g>
    <g id="xtick_6">
     <g id="line2d_6">
      <g>
       <use xlink:href="#me5697656f3" x="338.856846" y="307.584" style="stroke: #000000; stroke-width: 0.8"/>
      </g>
     </g>
     <g id="text_6">
      <!-- 2.5 -->
      <g transform="translate(330.905284 322.182437) scale(0.1 -0.1)">
       <use xlink:href="#DejaVuSans-32"/>
       <use xlink:href="#DejaVuSans-2e" x="63.623047"/>
       <use xlink:href="#DejaVuSans-35" x="95.410156"/>
      </g>
     </g>
    </g>
    <g id="xtick_7">
     <g id="line2d_7">
      <g>
       <use xlink:href="#me5697656f3" x="391.86167" y="307.584" style="stroke: #000000; stroke-width: 0.8"/>
      </g>
     </g>
     <g id="text_7">
      <!-- 3.0 -->
      <g transform="translate(383.910107 322.182437) scale(0.1 -0.1)">
       <defs>
        <path id="DejaVuSans-33" d="M 2597 2516 
Q 3050 2419 3304 2112 
Q 3559 1806 3559 1356 
Q 3559 666 3084 287 
Q 2609 -91 1734 -91 
Q 1441 -91 1130 -33 
Q 819 25 488 141 
L 488 750 
Q 750 597 1062 519 
Q 1375 441 1716 441 
Q 2309 441 2620 675 
Q 2931 909 2931 1356 
Q 2931 1769 2642 2001 
Q 2353 2234 1838 2234 
L 1294 2234 
L 1294 2753 
L 1863 2753 
Q 2328 2753 2575 2939 
Q 2822 3125 2822 3475 
Q 2822 3834 2567 4026 
Q 2313 4219 1838 4219 
Q 1578 4219 1281 4162 
Q 984 4106 628 3988 
L 628 4550 
Q 988 4650 1302 4700 
Q 1616 4750 1894 4750 
Q 2613 4750 3031 4423 
Q 3450 4097 3450 3541 
Q 3450 3153 3228 2886 
Q 3006 2619 2597 2516 
z
" transform="scale(0.015625)"/>
       </defs>
       <use xlink:href="#DejaVuSans-33"/>
       <use xlink:href="#DejaVuSans-2e" x="63.623047"/>
       <use xlink:href="#DejaVuSans-30" x="95.410156"/>
      </g>
     </g>
    </g>
    <g id="text_8">
     <!-- Time [s] -->
     <g transform="translate(215.831094 335.860562) scale(0.1 -0.1)">
      <defs>
       <path id="DejaVuSans-54" d="M -19 4666 
L 3928 4666 
L 3928 4134 
L 2272 4134 
L 2272 0 
L 1638 0 
L 1638 4134 
L -19 4134 
L -19 4666 
z
" transform="scale(0.015625)"/>
       <path id="DejaVuSans-69" d="M 603 3500 
L 1178 3500 
L 1178 0 
L 603 0 
L 603 3500 
z
M 603 4863 
L 1178 4863 
L 1178 4134 
L 603 4134 
L 603 4863 
z
" transform="scale(0.015625)"/>
       <path id="DejaVuSans-6d" d="M 3328 2828 
Q 3544 3216 3844 3400 
Q 4144 3584 4550 3584 
Q 5097 3584 5394 3201 
Q 5691 2819 5691 2113 
L 5691 0 
L 5113 0 
L 5113 2094 
Q 5113 2597 4934 2840 
Q 4756 3084 4391 3084 
Q 3944 3084 3684 2787 
Q 3425 2491 3425 1978 
L 3425 0 
L 2847 0 
L 2847 2094 
Q 2847 2600 2669 2842 
Q 2491 3084 2119 3084 
Q 1678 3084 1418 2786 
Q 1159 2488 1159 1978 
L 1159 0 
L 581 0 
L 581 3500 
L 1159 3500 
L 1159 2956 
Q 1356 3278 1631 3431 
Q 1906 3584 2284 3584 
Q 2666 3584 2933 3390 
Q 3200 3197 3328 2828 
z
" transform="scale(0.015625)"/>
       <path id="DejaVuSans-65" d="M 3597 1894 
L 3597 1613 
L 953 1613 
Q 991 1019 1311 708 
Q 1631 397 2203 397 
Q 2534 397 2845 478 
Q 3156 559 3463 722 
L 3463 178 
Q 3153 47 2828 -22 
Q 2503 -91 2169 -91 
Q 1331 -91 842 396 
Q 353 884 353 1716 
Q 353 2575 817 3079 
Q 1281 3584 2069 3584 
Q 2775 3584 3186 3129 
Q 3597 2675 3597 1894 
z
M 3022 2063 
Q 3016 2534 2758 2815 
Q 2500 3097 2075 3097 
Q 1594 3097 1305 2825 
Q 1016 2553 972 2059 
L 3022 2063 
z
" transform="scale(0.015625)"/>
       <path id="DejaVuSans-20" transform="scale(0.015625)"/>
       <path id="DejaVuSans-5b" d="M 550 4863 
L 1875 4863 
L 1875 4416 
L 1125 4416 
L 1125 -397 
L 1875 -397 
L 1875 -844 
L 550 -844 
L 550 4863 
z
" transform="scale(0.015625)"/>
       <path id="DejaVuSans-73" d="M 2834 3397 
L 2834 2853 
Q 2591 2978 2328 3040 
Q 2066 3103 1784 3103 
Q 1356 3103 1142 2972 
Q 928 2841 928 2578 
Q 928 2378 1081 2264 
Q 1234 2150 1697 2047 
L 1894 2003 
Q 2506 1872 2764 1633 
Q 3022 1394 3022 966 
Q 3022 478 2636 193 
Q 2250 -91 1575 -91 
Q 1294 -91 989 -36 
Q 684 19 347 128 
L 347 722 
Q 666 556 975 473 
Q 1284 391 1588 391 
Q 1994 391 2212 530 
Q 2431 669 2431 922 
Q 2431 1156 2273 1281 
Q 2116 1406 1581 1522 
L 1381 1569 
Q 847 1681 609 1914 
Q 372 2147 372 2553 
Q 372 3047 722 3315 
Q 1072 3584 1716 3584 
Q 2034 3584 2315 3537 
Q 2597 3491 2834 3397 
z
" transform="scale(0.015625)"/>
       <path id="DejaVuSans-5d" d="M 1947 4863 
L 1947 -844 
L 622 -844 
L 622 -397 
L 1369 -397 
L 1369 4416 
L 622 4416 
L 622 4863 
L 1947 4863 
z
" transform="scale(0.015625)"/>
      </defs>
      <use xlink:href="#DejaVuSans-54"/>
      <use xlink:href="#DejaVuSans-69" x="57.958984"/>
      <use xlink:href="#DejaVuSans-6d" x="85.742188"/>
      <use xlink:href="#DejaVuSans-65" x="183.154297"/>
      <use xlink:href="#DejaVuSans-20" x="244.677734"/>
      <use xlink:href="#DejaVuSans-5b" x="276.464844"/>
      <use xlink:href="#DejaVuSans-73" x="315.478516"/>
      <use xlink:href="#DejaVuSans-5d" x="367.578125"/>
     </g>
    </g>
   </g>
   <g id="matplotlib.axis_2">
    <g id="ytick_1">
     <g id="line2d_8">
      <defs>
       <path id="m4114f8ae63" d="M 0 0 
L -3.5 0 
" style="stroke: #000000; stroke-width: 0.8"/>
      </defs>
      <g>
       <use xlink:href="#m4114f8ae63" x="57.6" y="294.880268" style="stroke: #000000; stroke-width: 0.8"/>
      </g>
     </g>
     <g id="text_9">
      <!-- −200 -->
      <g transform="translate(23.132812 298.679487) scale(0.1 -0.1)">
       <defs>
        <path id="DejaVuSans-2212" d="M 678 2272 
L 4684 2272 
L 4684 1741 
L 678 1741 
L 678 2272 
z
" transform="scale(0.015625)"/>
       </defs>
       <use xlink:href="#DejaVuSans-2212"/>
       <use xlink:href="#DejaVuSans-32" x="83.789062"/>
       <use xlink:href="#DejaVuSans-30" x="147.412109"/>
       <use xlink:href="#DejaVuSans-30" x="211.035156"/>
      </g>
     </g>
    </g>
    <g id="ytick_2">
     <g id="line2d_9">
      <g>
       <use xlink:href="#m4114f8ae63" x="57.6" y="241.154012" style="stroke: #000000; stroke-width: 0.8"/>
      </g>
     </g>
     <g id="text_10">
      <!-- −100 -->
      <g transform="translate(23.132812 244.953231) scale(0.1 -0.1)">
       <use xlink:href="#DejaVuSans-2212"/>
       <use xlink:href="#DejaVuSans-31" x="83.789062"/>
       <use xlink:href="#DejaVuSans-30" x="147.412109"/>
       <use xlink:href="#DejaVuSans-30" x="211.035156"/>
      </g>
     </g>
    </g>
    <g id="ytick_3">
     <g id="line2d_10">
      <g>
       <use xlink:href="#m4114f8ae63" x="57.6" y="187.427756" style="stroke: #000000; stroke-width: 0.8"/>
      </g>
     </g>
     <g id="text_11">
      <!-- 0 -->
      <g transform="translate(44.2375 191.226975) scale(0.1 -0.1)">
       <use xlink:href="#DejaVuSans-30"/>
      </g>
     </g>
    </g>
    <g id="ytick_4">
     <g id="line2d_11">
      <g>
       <use xlink:href="#m4114f8ae63" x="57.6" y="133.7015" style="stroke: #000000; stroke-width: 0.8"/>
      </g>
     </g>
     <g id="text_12">
      <!-- 100 -->
      <g transform="translate(31.5125 137.500719) scale(0.1 -0.1)">
       <use xlink:href="#DejaVuSans-31"/>
       <use xlink:href="#DejaVuSans-30" x="63.623047"/>
       <use xlink:href="#DejaVuSans-30" x="127.246094"/>
      </g>
     </g>
    </g>
    <g id="ytick_5">
     <g id="line2d_12">
      <g>
       <use xlink:href="#m4114f8ae63" x="57.6" y="79.975245" style="stroke: #000000; stroke-width: 0.8"/>
      </g>
     </g>
     <g id="text_13">
      <!-- 200 -->
      <g transform="translate(31.5125 83.774463) scale(0.1 -0.1)">
       <use xlink:href="#DejaVuSans-32"/>
       <use xlink:href="#DejaVuSans-30" x="63.623047"/>
       <use xlink:href="#DejaVuSans-30" x="127.246094"/>
      </g>
     </g>
    </g>
    <g id="text_14">
     <!-- Bending [N-mm] -->
     <g transform="translate(17.053125 215.885812) rotate(-90) scale(0.1 -0.1)">
      <defs>
       <path id="DejaVuSans-42" d="M 1259 2228 
L 1259 519 
L 2272 519 
Q 2781 519 3026 730 
Q 3272 941 3272 1375 
Q 3272 1813 3026 2020 
Q 2781 2228 2272 2228 
L 1259 2228 
z
M 1259 4147 
L 1259 2741 
L 2194 2741 
Q 2656 2741 2882 2914 
Q 3109 3088 3109 3444 
Q 3109 3797 2882 3972 
Q 2656 4147 2194 4147 
L 1259 4147 
z
M 628 4666 
L 2241 4666 
Q 2963 4666 3353 4366 
Q 3744 4066 3744 3513 
Q 3744 3084 3544 2831 
Q 3344 2578 2956 2516 
Q 3422 2416 3680 2098 
Q 3938 1781 3938 1306 
Q 3938 681 3513 340 
Q 3088 0 2303 0 
L 628 0 
L 628 4666 
z
" transform="scale(0.015625)"/>
       <path id="DejaVuSans-6e" d="M 3513 2113 
L 3513 0 
L 2938 0 
L 2938 2094 
Q 2938 2591 2744 2837 
Q 2550 3084 2163 3084 
Q 1697 3084 1428 2787 
Q 1159 2491 1159 1978 
L 1159 0 
L 581 0 
L 581 3500 
L 1159 3500 
L 1159 2956 
Q 1366 3272 1645 3428 
Q 1925 3584 2291 3584 
Q 2894 3584 3203 3211 
Q 3513 2838 3513 2113 
z
" transform="scale(0.015625)"/>
       <path id="DejaVuSans-64" d="M 2906 2969 
L 2906 4863 
L 3481 4863 
L 3481 0 
L 2906 0 
L 2906 525 
Q 2725 213 2448 61 
Q 2172 -91 1784 -91 
Q 1150 -91 751 415 
Q 353 922 353 1747 
Q 353 2572 751 3078 
Q 1150 3584 1784 3584 
Q 2172 3584 2448 3432 
Q 2725 3281 2906 2969 
z
M 947 1747 
Q 947 1113 1208 752 
Q 1469 391 1925 391 
Q 2381 391 2643 752 
Q 2906 1113 2906 1747 
Q 2906 2381 2643 2742 
Q 2381 3103 1925 3103 
Q 1469 3103 1208 2742 
Q 947 2381 947 1747 
z
" transform="scale(0.015625)"/>
       <path id="DejaVuSans-67" d="M 2906 1791 
Q 2906 2416 2648 2759 
Q 2391 3103 1925 3103 
Q 1463 3103 1205 2759 
Q 947 2416 947 1791 
Q 947 1169 1205 825 
Q 1463 481 1925 481 
Q 2391 481 2648 825 
Q 2906 1169 2906 1791 
z
M 3481 434 
Q 3481 -459 3084 -895 
Q 2688 -1331 1869 -1331 
Q 1566 -1331 1297 -1286 
Q 1028 -1241 775 -1147 
L 775 -588 
Q 1028 -725 1275 -790 
Q 1522 -856 1778 -856 
Q 2344 -856 2625 -561 
Q 2906 -266 2906 331 
L 2906 616 
Q 2728 306 2450 153 
Q 2172 0 1784 0 
Q 1141 0 747 490 
Q 353 981 353 1791 
Q 353 2603 747 3093 
Q 1141 3584 1784 3584 
Q 2172 3584 2450 3431 
Q 2728 3278 2906 2969 
L 2906 3500 
L 3481 3500 
L 3481 434 
z
" transform="scale(0.015625)"/>
       <path id="DejaVuSans-4e" d="M 628 4666 
L 1478 4666 
L 3547 763 
L 3547 4666 
L 4159 4666 
L 4159 0 
L 3309 0 
L 1241 3903 
L 1241 0 
L 628 0 
L 628 4666 
z
" transform="scale(0.015625)"/>
       <path id="DejaVuSans-2d" d="M 313 2009 
L 1997 2009 
L 1997 1497 
L 313 1497 
L 313 2009 
z
" transform="scale(0.015625)"/>
      </defs>
      <use xlink:href="#DejaVuSans-42"/>
      <use xlink:href="#DejaVuSans-65" x="68.603516"/>
      <use xlink:href="#DejaVuSans-6e" x="130.126953"/>
      <use xlink:href="#DejaVuSans-64" x="193.505859"/>
      <use xlink:href="#DejaVuSans-69" x="256.982422"/>
      <use xlink:href="#DejaVuSans-6e" x="284.765625"/>
      <use xlink:href="#DejaVuSans-67" x="348.144531"/>
      <use xlink:href="#DejaVuSans-20" x="411.621094"/>
      <use xlink:href="#DejaVuSans-5b" x="443.408203"/>
      <use xlink:href="#DejaVuSans-4e" x="482.421875"/>
      <use xlink:href="#DejaVuSans-2d" x="557.226562"/>
      <use xlink:href="#DejaVuSans-6d" x="593.310547"/>
      <use xlink:href="#DejaVuSans-6d" x="690.722656"/>
      <use xlink:href="#DejaVuSans-5d" x="788.134766"/>
     </g>
    </g>
   </g>
   <g id="line2d_13">
    <path d="M 73.832727 183.60318 
L 82.01484 183.60318 
L 82.177184 181.57143 
L 82.534339 181.607711 
L 82.599277 181.621247 
L 82.696683 180.549222 
L 83.443463 171.631945 
L 85.976022 142.208599 
L 88.02155 114.589368 
L 89.222892 104.523077 
L 90.424234 102.075381 
L 91.950263 102.750432 
L 92.339887 104.83883 
L 93.054199 111.845843 
L 96.690693 166.091848 
L 97.534879 184.492297 
L 97.567348 184.492898 
L 97.697223 186.384201 
L 99.905095 221.110715 
L 100.781749 232.768408 
L 101.885685 245.020581 
L 104.2559 255.925742 
L 104.320838 255.880997 
L 104.483181 255.160916 
L 107.372896 233.416447 
L 110.132735 194.080834 
L 110.327548 191.200257 
L 110.52236 187.503979 
L 111.236671 177.564753 
L 111.399015 174.642187 
L 111.723702 168.599281 
L 112.308138 160.339943 
L 114.126386 141.149545 
L 115.912164 126.51067 
L 116.366726 123.527315 
L 116.431664 123.603083 
L 118.184973 125.742224 
L 118.76941 128.660073 
L 120.100627 135.850347 
L 123.444903 174.641402 
L 123.802059 180.172033 
L 124.02934 183.60318 
L 124.126746 183.60318 
L 124.483901 189.616344 
L 125.490431 201.883003 
L 127.925584 227.228795 
L 129.451613 232.548735 
L 130.036049 234.355145 
L 130.068518 234.325153 
L 131.367266 233.057577 
L 133.120576 222.127674 
L 133.964762 216.071285 
L 137.536319 175.810395 
L 140.231222 151.125821 
L 140.361096 150.156179 
L 141.107877 143.807142 
L 141.302689 143.27609 
L 143.737841 139.775909 
L 143.997591 139.78522 
L 146.205463 149.014483 
L 147.082118 159.873417 
L 148.250991 167.450717 
L 149.419864 176.155642 
L 151.140705 196.310525 
L 154.647325 219.073354 
L 156.335698 219.232167 
L 157.569508 218.561409 
L 157.861727 217.928416 
L 158.900725 214.837526 
L 160.751441 203.971705 
L 163.478812 182.377832 
L 163.608687 182.377832 
L 163.998311 179.727539 
L 165.52434 168.386405 
L 165.78409 166.920566 
L 167.569868 161.451674 
L 169.485522 157.120686 
L 169.51799 157.185615 
L 170.102427 158.118118 
L 170.52452 158.90398 
L 173.089548 166.201457 
L 174.063609 170.844146 
L 176.206543 184.818376 
L 176.498761 187.161021 
L 176.888386 188.886118 
L 178.641695 196.799582 
L 179.680694 200.522646 
L 180.654755 202.744182 
L 180.78463 203.262576 
L 183.544469 203.161589 
L 183.869156 201.575617 
L 185.005561 197.999759 
L 186.174434 193.601122 
L 186.888746 191.046738 
L 186.953683 190.531354 
L 187.862807 185.214617 
L 188.869336 181.325706 
L 190.103147 175.423431 
L 192.862987 167.768537 
L 195.330608 166.900866 
L 198.837228 173.765477 
L 199.746351 178.686695 
L 199.941164 179.764793 
L 200.233382 181.229237 
L 200.428194 181.78367 
L 201.694473 183.993192 
L 202.441254 186.234993 
L 203.382846 191.036015 
L 205.720592 195.207414 
L 207.051809 195.212293 
L 207.571308 195.07581 
L 208.642776 194.618677 
L 209.162275 194.018686 
L 211.435084 188.392856 
L 212.701363 184.722634 
L 213.02605 183.208183 
L 213.155925 182.377832 
L 398.487273 182.377832 
L 398.487273 182.377832 
" clip-path="url(#pcea4aaa5d2)" style="fill: none; stroke: #1f77b4; stroke-width: 1.5; stroke-linecap: square"/>
   </g>
   <g id="line2d_14">
    <path d="M 73.832727 185.804191 
L 79.806968 185.804191 
L 79.936843 189.206263 
L 81.430403 189.206263 
L 81.690153 184.907423 
L 81.722622 184.742074 
L 81.787559 184.829649 
L 81.820028 184.871655 
L 83.378525 174.442833 
L 84.0279 169.317317 
L 88.281299 91.927099 
L 89.352767 75.223881 
L 90.683983 62.7428 
L 91.690513 57.507227 
L 91.722982 57.710164 
L 94.645165 76.571604 
L 95.456882 87.67057 
L 98.638815 142.545077 
L 101.366186 200.339813 
L 101.690873 206.870888 
L 102.502591 221.559014 
L 103.151965 234.450391 
L 103.541589 239.101665 
L 103.671464 240.80576 
L 104.353307 252.547892 
L 105.976742 271.901893 
L 106.626116 275.29547 
L 107.340427 281.762198 
L 108.76905 284.11005 
L 108.801519 283.977564 
L 109.613236 280.201688 
L 110.230142 276.726528 
L 111.399015 268.647289 
L 112.795169 252.205085 
L 114.970572 221.138351 
L 116.26932 200.2051 
L 116.788819 192.645662 
L 116.853757 193.029064 
L 116.983631 189.206263 
L 117.113506 189.206263 
L 117.27585 184.610706 
L 118.736941 164.566866 
L 119.581128 154.755496 
L 122.340967 127.795374 
L 123.76959 122.191779 
L 125.198213 118.456106 
L 125.912524 118.730113 
L 126.432024 120.263428 
L 127.178804 122.964191 
L 128.120396 128.488976 
L 130.133456 144.091241 
L 131.52961 158.446495 
L 134.127106 185.901521 
L 134.256981 189.206263 
L 134.419324 189.206263 
L 134.646605 193.105187 
L 134.77648 193.462342 
L 134.841417 193.498827 
L 135.036229 195.376493 
L 137.925944 224.114682 
L 138.900005 230.00194 
L 139.679254 233.596514 
L 140.393565 236.341069 
L 142.211812 236.970317 
L 143.088467 236.511756 
L 147.082118 216.663144 
L 147.406805 210.748294 
L 148.835428 199.336031 
L 149.127646 195.300104 
L 149.387395 193.108187 
L 149.939363 189.845892 
L 150.199113 187.816743 
L 150.26405 187.816743 
L 150.458863 183.842218 
L 150.686144 181.216571 
L 150.751081 181.378907 
L 150.978362 180.58368 
L 151.27058 179.071927 
L 151.725142 176.115516 
L 152.27711 171.794099 
L 152.666734 168.645426 
L 153.251171 163.633571 
L 154.842137 154.91044 
L 157.569508 148.998017 
L 158.640975 147.45589 
L 158.673444 147.491468 
L 159.063068 148.039269 
L 162.504751 159.379633 
L 163.673624 164.583091 
L 165.978902 179.563609 
L 166.693213 183.694356 
L 166.920494 185.528683 
L 171.53105 208.639672 
L 173.28436 213.010547 
L 174.420764 212.658242 
L 175.362357 214.854499 
L 175.427294 214.779852 
L 176.790979 212.682642 
L 177.797509 207.564723 
L 180.52488 199.378326 
L 182.213253 189.03629 
L 186.986152 170.911765 
L 188.057619 167.968718 
L 190.395365 163.329514 
L 190.460303 163.391676 
L 191.564239 164.607783 
L 191.823988 165.871181 
L 193.577298 165.827 
L 198.902165 180.915931 
L 200.947693 189.637396 
L 202.473722 192.441721 
L 202.830878 193.959563 
L 204.941344 200.291025 
L 209.77918 201.314079 
L 212.409145 194.978273 
L 212.571488 194.146694 
L 218.837948 178.894239 
L 221.727662 174.752058 
L 223.708253 174.630887 
L 227.53956 177.314275 
L 230.169525 181.190359 
L 238.124356 192.784138 
L 238.838668 192.7718 
L 243.059599 192.642565 
L 256.339298 177.3592 
L 275.463363 192.769368 
L 288.450844 183.867707 
L 292.217213 181.976262 
L 301.243512 185.804191 
L 398.487273 185.804191 
L 398.487273 185.804191 
" clip-path="url(#pcea4aaa5d2)" style="fill: none; stroke: #ff7f0e; stroke-width: 1.5; stroke-linecap: square"/>
   </g>
   <g id="line2d_15">
    <path d="M 73.832727 185.767394 
L 82.631745 185.767394 
L 82.729151 183.071449 
L 82.76162 183.165261 
L 82.859026 183.446697 
L 83.962962 167.54063 
L 84.937023 154.233889 
L 86.040959 141.846342 
L 87.859206 116.274997 
L 89.612516 99.470608 
L 89.677454 99.501471 
L 92.145075 100.687245 
L 93.963322 120.819118 
L 96.430943 160.14976 
L 97.664754 181.773761 
L 97.794629 183.689692 
L 98.638815 199.585069 
L 99.158314 209.397784 
L 99.710282 216.964406 
L 100.619406 231.283266 
L 101.723342 243.949502 
L 103.411714 255.191587 
L 104.645525 257.049068 
L 104.677994 256.974091 
L 105.911804 250.850601 
L 107.957332 227.787405 
L 109.126206 210.394379 
L 109.840517 200.044584 
L 110.489891 190.1495 
L 110.814578 185.017125 
L 114.02898 141.081594 
L 115.392665 130.784326 
L 116.853757 122.758451 
L 116.951163 122.831102 
L 117.665474 123.461359 
L 119.386315 130.736729 
L 121.951343 157.57891 
L 121.983811 157.461966 
L 122.113686 158.976442 
L 123.607247 180.281951 
L 124.159214 189.283278 
L 124.938463 198.544915 
L 125.328088 201.995076 
L 125.717712 207.766783 
L 126.464492 213.948265 
L 127.243741 222.841017 
L 128.347677 232.016983 
L 128.542489 234.150299 
L 131.821828 234.150299 
L 133.347857 222.963147 
L 133.997231 214.902464 
L 135.750541 199.469547 
L 136.01029 195.144318 
L 136.594727 186.768988 
L 137.27657 180.624723 
L 137.990881 171.033744 
L 139.224692 160.576871 
L 139.874066 154.128963 
L 140.296159 151.534126 
L 140.815658 145.595521 
L 143.315748 136.918514 
L 143.348217 137.009649 
L 143.835248 138.690021 
L 146.627556 150.566303 
L 149.03024 173.403538 
L 149.354927 175.206356 
L 151.205643 195.678044 
L 151.822548 201.203959 
L 154.712262 219.361384 
L 157.601977 219.440856 
L 159.063068 211.695124 
L 160.621566 201.153417 
L 162.01772 191.690652 
L 163.933374 174.493217 
L 164.51781 172.530264 
L 165.816558 162.865886 
L 166.53087 158.31321 
L 169.420584 155.521925 
L 169.972552 155.481677 
L 171.888206 162.511847 
L 175.687044 184.322321 
L 175.816918 184.32332 
L 175.946793 185.195556 
L 176.693573 191.761114 
L 176.855917 194.65602 
L 179.745631 204.426277 
L 180.622286 207.299633 
L 180.654755 207.243996 
L 184.096437 201.144183 
L 184.973092 197.133928 
L 188.349837 180.66765 
L 188.934274 177.356749 
L 190.52524 169.787399 
L 191.888926 166.523811 
L 192.830518 164.597509 
L 194.648765 164.911173 
L 198.512541 175.407486 
L 200.298319 183.019674 
L 398.487273 183.019674 
L 398.487273 183.019674 
" clip-path="url(#pcea4aaa5d2)" style="fill: none; stroke: #2ca02c; stroke-width: 1.5; stroke-linecap: square"/>
   </g>
   <g id="line2d_16">
    <path d="M 73.832727 182.899324 
L 74.709382 182.912243 
L 75.326288 185.158037 
L 76.365286 186.749144 
L 78.183533 185.542365 
L 78.897845 184.979037 
L 79.027719 184.660486 
L 79.060188 184.740071 
L 80.651155 188.494166 
L 81.52781 188.255956 
L 81.787559 187.917906 
L 82.534339 185.781741 
L 83.118776 179.888067 
L 83.573338 173.892866 
L 84.0279 168.480182 
L 84.352587 163.764574 
L 85.424054 143.751699 
L 87.924144 103.521601 
L 89.547579 85.319474 
L 89.644985 85.406743 
L 91.495701 87.089516 
L 92.502231 94.126689 
L 93.50876 104.98373 
L 94.77504 124.9626 
L 95.749101 144.761723 
L 96.398475 156.290264 
L 97.340067 178.70024 
L 97.697223 184.421502 
L 98.541409 204.767628 
L 99.450533 221.610691 
L 99.77522 229.282054 
L 100.554469 239.30059 
L 100.976562 247.831143 
L 101.788279 256.442541 
L 102.664934 263.8518 
L 103.541589 265.976174 
L 103.833807 268.326612 
L 103.898745 268.286927 
L 104.288369 267.986529 
L 105.489711 263.78279 
L 106.788459 249.654367 
L 108.639175 223.960338 
L 109.093737 214.695598 
L 109.548299 209.508599 
L 109.905455 202.541564 
L 111.204203 179.075268 
L 111.399015 176.088456 
L 111.983451 163.737599 
L 113.087387 148.162517 
L 113.606887 139.438367 
L 115.295259 121.562218 
L 116.334257 114.476015 
L 117.860286 114.476015 
L 118.087567 116.017156 
L 118.444723 117.809333 
L 119.256441 121.379186 
L 119.451253 124.400362 
L 120.685063 137.185739 
L 121.464312 148.118505 
L 122.600717 163.305527 
L 124.808588 197.129757 
L 125.457963 207.384036 
L 126.432024 218.723639 
L 126.854117 223.297689 
L 127.893115 235.151606 
L 128.185333 239.511668 
L 129.711362 244.848057 
L 130.133456 244.234782 
L 131.204923 244.506442 
L 132.795889 232.34028 
L 133.542669 226.061433 
L 133.672544 225.049177 
L 134.224512 219.042937 
L 134.808949 210.403787 
L 135.490791 203.343122 
L 136.562258 184.991846 
L 137.244101 177.037508 
L 137.633726 171.005117 
L 138.477912 164.985037 
L 138.835068 160.897734 
L 139.874066 148.328546 
L 140.750721 138.334607 
L 142.374156 136.045525 
L 143.315748 131.280459 
L 143.348217 131.33358 
L 143.737841 134.187557 
L 144.419684 135.256474 
L 146.075588 146.052564 
L 147.536679 155.813592 
L 147.991241 166.959332 
L 149.322458 180.114279 
L 152.504391 213.230958 
L 154.842137 227.730852 
L 156.757791 227.385572 
L 158.608507 220.265191 
L 162.634626 187.324208 
L 165.069778 166.077956 
L 166.336058 156.498198 
L 167.927024 151.842216 
L 169.550459 151.834884 
L 169.940083 152.10077 
L 172.992141 165.365519 
L 178.252071 203.741371 
L 180.719692 210.330959 
L 182.408065 211.838466 
L 185.200373 202.518341 
L 190.460303 171.558409 
L 193.02533 161.480861 
L 193.090268 161.497557 
L 196.142326 162.378418 
L 196.467013 163.374986 
L 201.077568 182.360176 
L 202.571128 189.240591 
L 205.363437 199.641438 
L 205.460843 199.615088 
L 208.253151 198.749095 
L 208.350557 198.581261 
L 210.883116 192.480859 
L 216.240452 172.3869 
L 220.299039 169.798587 
L 220.331508 169.85369 
L 223.675784 176.212849 
L 227.442154 185.858782 
L 229.942244 190.013983 
L 231.598147 190.311791 
L 234.650205 187.081258 
L 241.858257 174.498732 
L 241.890726 174.525857 
L 251.339118 182.295588 
L 398.487273 182.295588 
L 398.487273 182.295588 
" clip-path="url(#pcea4aaa5d2)" style="fill: none; stroke: #d62728; stroke-width: 1.5; stroke-linecap: square"/>
   </g>
   <g id="line2d_17">
    <path d="M 73.832727 185.128234 
L 77.177004 183.953749 
L 79.742031 186.319609 
L 80.26153 187.541082 
L 81.073248 187.54096 
L 81.170654 187.983403 
L 81.203122 187.766494 
L 81.332997 187.579993 
L 82.177184 187.580004 
L 82.209652 187.765195 
L 82.242121 187.540969 
L 82.27459 187.541008 
L 82.339527 187.541086 
L 82.599277 184.801994 
L 83.605806 177.148135 
L 84.612336 157.634927 
L 85.943553 132.854175 
L 90.326828 56.052039 
L 91.26842 53.568 
L 91.333357 53.633826 
L 93.086667 56.223236 
L 93.476292 61.09256 
L 96.333537 119.520855 
L 97.469942 149.318752 
L 98.379066 178.882899 
L 98.995971 194.55886 
L 99.645345 210.183685 
L 100.554469 231.068886 
L 101.138905 248.771848 
L 102.535059 275.099935 
L 105.132555 295.460763 
L 105.165024 295.488 
L 105.684523 290.841032 
L 107.76252 271.038341 
L 109.288549 242.58898 
L 111.658764 189.9253 
L 111.918514 180.995189 
L 114.678354 125.146555 
L 116.366726 99.668748 
L 117.730412 91.30755 
L 117.76288 91.402332 
L 120.100627 98.55021 
L 120.26297 100.586549 
L 122.081218 128.351416 
L 123.672184 156.323135 
L 126.789179 218.485766 
L 127.893115 235.449246 
L 128.217802 239.51009 
L 129.484081 251.938978 
L 129.613956 254.225334 
L 131.01011 260.730294 
L 131.075048 260.702626 
L 132.178984 260.21299 
L 132.471202 258.199373 
L 133.899825 245.28845 
L 136.042759 217.236372 
L 136.854477 203.876674 
L 137.179164 198.105191 
L 139.451973 161.053329 
L 140.296159 147.493795 
L 140.653315 142.392321 
L 142.049469 126.726917 
L 142.991061 121.673494 
L 143.185873 118.891737 
L 145.978182 118.891737 
L 146.205463 123.109833 
L 147.699023 136.027607 
L 150.491331 173.354088 
L 151.335518 187.579411 
L 151.53033 187.677101 
L 151.887485 189.660872 
L 152.082298 191.719412 
L 152.342047 199.549797 
L 152.666734 203.889574 
L 153.510921 214.088602 
L 154.127826 221.235832 
L 154.614856 223.570311 
L 155.394105 231.885864 
L 155.978542 232.044708 
L 156.043479 232.023762 
L 156.075948 232.538789 
L 156.205823 233.271781 
L 156.433104 234.354993 
L 156.757791 236.672586 
L 158.186414 236.672586 
L 158.316288 234.329492 
L 158.446163 233.455375 
L 159.647505 230.795415 
L 160.102067 227.649216 
L 162.732032 200.014816 
L 163.608687 191.725913 
L 163.835968 190.378073 
L 164.907435 174.126851 
L 167.991961 147.603537 
L 169.225772 141.259829 
L 169.745271 140.323709 
L 171.693393 140.985992 
L 171.953143 141.867688 
L 174.550639 159.140762 
L 177.765041 191.949496 
L 179.875506 210.211816 
L 182.700283 220.2608 
L 183.739282 221.445803 
L 183.77175 221.409629 
L 184.486062 218.882584 
L 187.051089 208.517186 
L 192.992861 162.574592 
L 195.590358 154.239306 
L 196.239732 153.755457 
L 197.246261 154.486881 
L 199.064509 160.429201 
L 199.681414 164.334419 
L 200.882756 171.217666 
L 205.980342 200.417823 
L 209.357087 206.747601 
L 209.389556 206.715197 
L 212.831238 197.432053 
L 216.013171 181.870118 
L 398.487273 181.870118 
L 398.487273 181.870118 
" clip-path="url(#pcea4aaa5d2)" style="fill: none; stroke: #9467bd; stroke-width: 1.5; stroke-linecap: square"/>
   </g>
   <g id="line2d_18">
    <path d="M 73.832727 185.237448 
L 82.794089 185.237448 
L 82.826558 185.029018 
L 82.923964 183.550595 
L 82.956432 183.580472 
L 83.151245 183.635717 
L 83.346057 183.316485 
L 85.748741 139.994688 
L 86.333177 129.911017 
L 88.638455 89.348229 
L 89.839797 68.137684 
L 90.976202 60.352719 
L 91.041139 60.515415 
L 93.930853 67.93238 
L 95.554289 86.455197 
L 96.788099 110.725503 
L 97.502411 125.210395 
L 98.638815 153.017058 
L 99.093377 172.137611 
L 102.892215 260.422294 
L 103.76887 273.560633 
L 106.041679 288.941695 
L 106.106616 288.858794 
L 106.398835 288.465198 
L 107.924864 274.005103 
L 109.126206 258.284663 
L 112.405545 191.091923 
L 112.535419 188.163533 
L 114.093917 155.918604 
L 114.873166 140.21936 
L 115.132915 136.468211 
L 116.171914 123.932674 
L 116.951163 112.081608 
L 117.697943 106.97394 
L 117.990161 103.513563 
L 118.055099 103.598599 
L 121.00975 107.469606 
L 122.405905 126.042168 
L 122.795529 131.291126 
L 123.185153 138.417263 
L 124.159214 151.10788 
L 125.912524 185.341137 
L 126.107337 187.994634 
L 128.672364 227.584757 
L 130.100987 246.448644 
L 131.399735 253.91926 
L 131.919234 255.855754 
L 131.984172 255.784733 
L 132.471202 255.024285 
L 132.536139 255.092068 
L 132.633546 255.092707 
L 133.02317 254.725213 
L 134.679074 241.880232 
L 135.588197 234.079336 
L 137.861006 203.245507 
L 138.2831 195.432226 
L 139.062348 183.430214 
L 139.094817 184.354587 
L 139.159755 183.231371 
L 140.101347 169.144105 
L 142.504031 139.10066 
L 143.315748 134.092463 
L 144.322278 128.9239 
L 145.588557 125.118592 
L 145.621026 125.214986 
L 148.478272 140.763048 
L 151.595267 177.669673 
L 153.28364 199.503223 
L 155.52398 223.688501 
L 155.881136 225.518055 
L 157.472102 233.208464 
L 157.53704 233.14361 
L 158.02407 232.500189 
L 160.491691 228.660323 
L 161.368346 223.461508 
L 165.03731 185.615274 
L 168.446523 151.240762 
L 168.836148 149.33677 
L 169.972552 145.291709 
L 171.108957 141.441006 
L 171.173894 141.499557 
L 172.083018 142.436203 
L 174.550639 153.828479 
L 175.979262 166.06231 
L 176.401355 170.518246 
L 176.790979 172.427508 
L 177.53776 178.791392 
L 177.700103 180.974359 
L 177.829978 183.134592 
L 398.487273 183.134592 
L 398.487273 183.134592 
" clip-path="url(#pcea4aaa5d2)" style="fill: none; stroke: #8c564b; stroke-width: 1.5; stroke-linecap: square"/>
   </g>
   <g id="patch_3">
    <path d="M 57.6 307.584 
L 57.6 41.472 
" style="fill: none; stroke: #000000; stroke-width: 0.8; stroke-linejoin: miter; stroke-linecap: square"/>
   </g>
   <g id="patch_4">
    <path d="M 414.72 307.584 
L 414.72 41.472 
" style="fill: none; stroke: #000000; stroke-width: 0.8; stroke-linejoin: miter; stroke-linecap: square"/>
   </g>
   <g id="patch_5">
    <path d="M 57.6 307.584 
L 414.72 307.584 
" style="fill: none; stroke: #000000; stroke-width: 0.8; stroke-linejoin: miter; stroke-linecap: square"/>
   </g>
   <g id="patch_6">
    <path d="M 57.6 41.472 
L 414.72 41.472 
" style="fill: none; stroke: #000000; stroke-width: 0.8; stroke-linejoin: miter; stroke-linecap: square"/>
   </g>
   <g id="legend_1">
    <g id="patch_7">
     <path d="M 340.77625 137.54075 
L 407.72 137.54075 
Q 409.72 137.54075 409.72 135.54075 
L 409.72 48.472 
Q 409.72 46.472 407.72 46.472 
L 340.77625 46.472 
Q 338.77625 46.472 338.77625 48.472 
L 338.77625 135.54075 
Q 338.77625 137.54075 340.77625 137.54075 
z
" style="fill: #ffffff; opacity: 0.8; stroke: #cccccc; stroke-linejoin: miter"/>
    </g>
    <g id="line2d_19">
     <path d="M 342.77625 54.570438 
L 352.77625 54.570438 
L 362.77625 54.570438 
" style="fill: none; stroke: #1f77b4; stroke-width: 1.5; stroke-linecap: square"/>
    </g>
    <g id="text_15">
     <!-- Free -->
     <g transform="translate(370.77625 58.070438) scale(0.1 -0.1)">
      <defs>
       <path id="DejaVuSans-46" d="M 628 4666 
L 3309 4666 
L 3309 4134 
L 1259 4134 
L 1259 2759 
L 3109 2759 
L 3109 2228 
L 1259 2228 
L 1259 0 
L 628 0 
L 628 4666 
z
" transform="scale(0.015625)"/>
       <path id="DejaVuSans-72" d="M 2631 2963 
Q 2534 3019 2420 3045 
Q 2306 3072 2169 3072 
Q 1681 3072 1420 2755 
Q 1159 2438 1159 1844 
L 1159 0 
L 581 0 
L 581 3500 
L 1159 3500 
L 1159 2956 
Q 1341 3275 1631 3429 
Q 1922 3584 2338 3584 
Q 2397 3584 2469 3576 
Q 2541 3569 2628 3553 
L 2631 2963 
z
" transform="scale(0.015625)"/>
      </defs>
      <use xlink:href="#DejaVuSans-46"/>
      <use xlink:href="#DejaVuSans-72" x="50.269531"/>
      <use xlink:href="#DejaVuSans-65" x="89.132812"/>
      <use xlink:href="#DejaVuSans-65" x="150.65625"/>
     </g>
    </g>
    <g id="line2d_20">
     <path d="M 342.77625 69.248563 
L 352.77625 69.248563 
L 362.77625 69.248563 
" style="fill: none; stroke: #ff7f0e; stroke-width: 1.5; stroke-linecap: square"/>
    </g>
    <g id="text_16">
     <!-- Locked -->
     <g transform="translate(370.77625 72.748563) scale(0.1 -0.1)">
      <defs>
       <path id="DejaVuSans-4c" d="M 628 4666 
L 1259 4666 
L 1259 531 
L 3531 531 
L 3531 0 
L 628 0 
L 628 4666 
z
" transform="scale(0.015625)"/>
       <path id="DejaVuSans-6f" d="M 1959 3097 
Q 1497 3097 1228 2736 
Q 959 2375 959 1747 
Q 959 1119 1226 758 
Q 1494 397 1959 397 
Q 2419 397 2687 759 
Q 2956 1122 2956 1747 
Q 2956 2369 2687 2733 
Q 2419 3097 1959 3097 
z
M 1959 3584 
Q 2709 3584 3137 3096 
Q 3566 2609 3566 1747 
Q 3566 888 3137 398 
Q 2709 -91 1959 -91 
Q 1206 -91 779 398 
Q 353 888 353 1747 
Q 353 2609 779 3096 
Q 1206 3584 1959 3584 
z
" transform="scale(0.015625)"/>
       <path id="DejaVuSans-63" d="M 3122 3366 
L 3122 2828 
Q 2878 2963 2633 3030 
Q 2388 3097 2138 3097 
Q 1578 3097 1268 2742 
Q 959 2388 959 1747 
Q 959 1106 1268 751 
Q 1578 397 2138 397 
Q 2388 397 2633 464 
Q 2878 531 3122 666 
L 3122 134 
Q 2881 22 2623 -34 
Q 2366 -91 2075 -91 
Q 1284 -91 818 406 
Q 353 903 353 1747 
Q 353 2603 823 3093 
Q 1294 3584 2113 3584 
Q 2378 3584 2631 3529 
Q 2884 3475 3122 3366 
z
" transform="scale(0.015625)"/>
       <path id="DejaVuSans-6b" d="M 581 4863 
L 1159 4863 
L 1159 1991 
L 2875 3500 
L 3609 3500 
L 1753 1863 
L 3688 0 
L 2938 0 
L 1159 1709 
L 1159 0 
L 581 0 
L 581 4863 
z
" transform="scale(0.015625)"/>
      </defs>
      <use xlink:href="#DejaVuSans-4c"/>
      <use xlink:href="#DejaVuSans-6f" x="53.962891"/>
      <use xlink:href="#DejaVuSans-63" x="115.144531"/>
      <use xlink:href="#DejaVuSans-6b" x="170.125"/>
      <use xlink:href="#DejaVuSans-65" x="224.410156"/>
      <use xlink:href="#DejaVuSans-64" x="285.933594"/>
     </g>
    </g>
    <g id="line2d_21">
     <path d="M 342.77625 83.926688 
L 352.77625 83.926688 
L 362.77625 83.926688 
" style="fill: none; stroke: #2ca02c; stroke-width: 1.5; stroke-linecap: square"/>
    </g>
    <g id="text_17">
     <!-- Pre -->
     <g transform="translate(370.77625 87.426688) scale(0.1 -0.1)">
      <defs>
       <path id="DejaVuSans-50" d="M 1259 4147 
L 1259 2394 
L 2053 2394 
Q 2494 2394 2734 2622 
Q 2975 2850 2975 3272 
Q 2975 3691 2734 3919 
Q 2494 4147 2053 4147 
L 1259 4147 
z
M 628 4666 
L 2053 4666 
Q 2838 4666 3239 4311 
Q 3641 3956 3641 3272 
Q 3641 2581 3239 2228 
Q 2838 1875 2053 1875 
L 1259 1875 
L 1259 0 
L 628 0 
L 628 4666 
z
" transform="scale(0.015625)"/>
      </defs>
      <use xlink:href="#DejaVuSans-50"/>
      <use xlink:href="#DejaVuSans-72" x="58.552734"/>
      <use xlink:href="#DejaVuSans-65" x="97.416016"/>
     </g>
    </g>
    <g id="line2d_22">
     <path d="M 342.77625 98.604813 
L 352.77625 98.604813 
L 362.77625 98.604813 
" style="fill: none; stroke: #d62728; stroke-width: 1.5; stroke-linecap: square"/>
    </g>
    <g id="text_18">
     <!-- Rel0 -->
     <g transform="translate(370.77625 102.104813) scale(0.1 -0.1)">
      <defs>
       <path id="DejaVuSans-52" d="M 2841 2188 
Q 3044 2119 3236 1894 
Q 3428 1669 3622 1275 
L 4263 0 
L 3584 0 
L 2988 1197 
Q 2756 1666 2539 1819 
Q 2322 1972 1947 1972 
L 1259 1972 
L 1259 0 
L 628 0 
L 628 4666 
L 2053 4666 
Q 2853 4666 3247 4331 
Q 3641 3997 3641 3322 
Q 3641 2881 3436 2590 
Q 3231 2300 2841 2188 
z
M 1259 4147 
L 1259 2491 
L 2053 2491 
Q 2509 2491 2742 2702 
Q 2975 2913 2975 3322 
Q 2975 3731 2742 3939 
Q 2509 4147 2053 4147 
L 1259 4147 
z
" transform="scale(0.015625)"/>
       <path id="DejaVuSans-6c" d="M 603 4863 
L 1178 4863 
L 1178 0 
L 603 0 
L 603 4863 
z
" transform="scale(0.015625)"/>
      </defs>
      <use xlink:href="#DejaVuSans-52"/>
      <use xlink:href="#DejaVuSans-65" x="64.982422"/>
      <use xlink:href="#DejaVuSans-6c" x="126.505859"/>
      <use xlink:href="#DejaVuSans-30" x="154.289062"/>
     </g>
    </g>
    <g id="line2d_23">
     <path d="M 342.77625 113.282938 
L 352.77625 113.282938 
L 362.77625 113.282938 
" style="fill: none; stroke: #9467bd; stroke-width: 1.5; stroke-linecap: square"/>
    </g>
    <g id="text_19">
     <!-- Rel50 -->
     <g transform="translate(370.77625 116.782938) scale(0.1 -0.1)">
      <use xlink:href="#DejaVuSans-52"/>
      <use xlink:href="#DejaVuSans-65" x="64.982422"/>
      <use xlink:href="#DejaVuSans-6c" x="126.505859"/>
      <use xlink:href="#DejaVuSans-35" x="154.289062"/>
      <use xlink:href="#DejaVuSans-30" x="217.912109"/>
     </g>
    </g>
    <g id="line2d_24">
     <path d="M 342.77625 127.961063 
L 352.77625 127.961063 
L 362.77625 127.961063 
" style="fill: none; stroke: #8c564b; stroke-width: 1.5; stroke-linecap: square"/>
    </g>
    <g id="text_20">
     <!-- Rel100 -->
     <g transform="translate(370.77625 131.461063) scale(0.1 -0.1)">
      <use xlink:href="#DejaVuSans-52"/>
      <use xlink:href="#DejaVuSans-65" x="64.982422"/>
      <use xlink:href="#DejaVuSans-6c" x="126.505859"/>
      <use xlink:href="#DejaVuSans-31" x="154.289062"/>
      <use xlink:href="#DejaVuSans-30" x="217.912109"/>
      <use xlink:href="#DejaVuSans-30" x="281.535156"/>
     </g>
    </g>
   </g>
  </g>
 </g>
 <defs>
  <clipPath id="pcea4aaa5d2">
   <rect x="57.6" y="41.472" width="357.12" height="266.112"/>
  </clipPath>
 </defs>
</svg>
